
 <svg width="750" height="649" viewBox="0 0 750 649" fill="none" xmlns="http://www.w3.org/2000/svg">
            <g clip-path="url(#clip0_102_65)">
            <path d="M0 648.832H692" stroke="#8C88A2" stroke-width="1.03574" stroke-miterlimit="10" class="svg-elem-1"></path>
            <path opacity="0.4" d="M0 585.832H692" stroke="#8C88A2" stroke-width="1.03574" stroke-miterlimit="10" class="svg-elem-2"></path>
            <path opacity="0.4" d="M0 535.832H692" stroke="#8C88A2" stroke-width="1.03574" stroke-miterlimit="10" class="svg-elem-3"></path>
            <path opacity="0.4" d="M0 485.832H692" stroke="#8C88A2" stroke-width="1.03574" stroke-miterlimit="10" class="svg-elem-4"></path>
            <path opacity="0.4" d="M0 435.832H692" stroke="#8C88A2" stroke-width="1.03574" stroke-miterlimit="10" class="svg-elem-5"></path>
            
            <g clip-path="url(#clip1_102_65)" class="svg-graphiq">
            
            <path style="mix-blend-mode: screen;" d="M667.864 205.015H623.484V649H667.864V205.015Z" fill="url(#paint2_linear_102_65)" class="svg-elem-8"></path>
            <path style="mix-blend-mode: screen;" d="M586.277 316.656H541.896V649H586.277V316.656Z" fill="url(#paint3_linear_102_65)" class="svg-elem-9"></path>
            <path style="mix-blend-mode: screen;" d="M259.918 535.435H215.538V649H259.918V535.435Z" fill="url(#paint4_linear_102_65)" class="svg-elem-10"></path>
            <path style="mix-blend-mode: screen;" d="M178.328 566.525H133.947V649H178.328V566.525Z" fill="url(#paint5_linear_102_65)" class="svg-elem-11"></path>
            <path style="mix-blend-mode: screen;" d="M96.7404 591.308H52.3599V648.997H96.7404V591.308Z" fill="url(#paint6_linear_102_65)" class="svg-elem-12"></path>
            <path style="mix-blend-mode: screen;" d="M504.686 383.997H460.305V649H504.686V383.997Z" fill="url(#paint7_linear_102_65)" class="svg-elem-13"></path>
            <path style="mix-blend-mode: screen;" d="M423.093 449.184H378.719V649H423.093V449.184Z" fill="url(#paint8_linear_102_65)" class="svg-elem-14"></path>
            <path style="mix-blend-mode: screen;" d="M341.509 493.45H297.128V648.997H341.509V493.45Z" fill="url(#paint9_linear_102_65)" class="svg-elem-15"></path>
            <path id="line-path" style="mix-blend-mode: screen;" d="M684.981 145.669C685.195 145.716 684.693 148.71 683.544 154.388C683.278 155.813 682.873 157.378 682.448 159.113C682.014 160.848 681.541 162.742 681.027 164.797C680.893 165.308 680.774 165.835 680.621 166.362C680.468 166.889 680.311 167.426 680.155 167.976C679.835 169.068 679.506 170.203 679.165 171.372C678.471 173.711 677.785 176.219 676.884 178.819C673.559 189.312 668.8 201.945 662.291 216.175C655.807 230.415 647.4 246.169 636.991 262.892C636.34 263.937 635.688 264.988 635.03 266.048C634.698 266.576 634.375 267.109 634.037 267.636C633.692 268.16 633.347 268.684 633.002 269.211C631.619 271.317 630.217 273.448 628.802 275.601C628.447 276.141 628.093 276.681 627.738 277.221C627.38 277.761 627.004 278.288 626.633 278.828C625.892 279.899 625.145 280.975 624.397 282.058C623.647 283.141 622.893 284.228 622.136 285.324C621.379 286.416 620.622 287.522 619.823 288.602C616.652 292.94 613.471 297.41 610.034 301.816C609.184 302.925 608.335 304.04 607.479 305.161C607.051 305.72 606.623 306.283 606.191 306.845C605.751 307.398 605.307 307.954 604.866 308.509C603.087 310.73 601.295 312.97 599.484 315.232C599.031 315.794 598.583 316.366 598.12 316.925C597.654 317.481 597.188 318.04 596.718 318.599C595.782 319.717 594.84 320.842 593.895 321.97C592.001 324.225 590.116 326.516 588.126 328.753C586.156 331.005 584.172 333.274 582.169 335.561C580.138 337.82 578.062 340.069 575.989 342.35C574.948 343.485 573.913 344.638 572.853 345.772C571.783 346.897 570.709 348.028 569.63 349.159C568.553 350.293 567.471 351.431 566.385 352.571C565.299 353.712 564.219 354.865 563.095 355.983C560.862 358.236 558.617 360.504 556.356 362.789C555.234 363.939 554.072 365.057 552.912 366.182C551.753 367.306 550.587 368.437 549.421 369.572C548.252 370.706 547.083 371.84 545.908 372.981C544.723 374.108 543.516 375.22 542.312 376.348C541.107 377.473 539.9 378.597 538.69 379.728C538.083 380.294 537.479 380.859 536.869 381.425L535.959 382.275L535.029 383.109C532.551 385.336 530.056 387.575 527.549 389.824C526.92 390.384 526.3 390.955 525.661 391.511C525.023 392.064 524.384 392.617 523.742 393.17C522.461 394.278 521.174 395.387 519.887 396.502C518.599 397.617 517.306 398.732 516.009 399.85C514.696 400.946 513.377 402.045 512.055 403.147C510.733 404.247 509.407 405.352 508.078 406.457C506.747 407.56 505.427 408.688 504.064 409.761C501.352 411.934 498.627 414.119 495.89 416.311C494.53 417.419 493.124 418.477 491.735 419.557C490.339 420.634 488.94 421.713 487.541 422.793C465.09 440.059 440.839 456.606 415.159 472.165C402.293 479.903 389.393 487.233 376.502 494.13C363.576 500.964 350.694 507.418 337.88 513.428C312.213 525.364 286.904 535.697 262.349 544.275C260.816 544.812 259.286 545.349 257.762 545.882C256.235 546.41 254.725 546.966 253.195 547.458C250.148 548.464 247.117 549.464 244.111 550.458C242.603 550.947 241.112 551.461 239.611 551.927C238.109 552.394 236.611 552.857 235.117 553.32C232.133 554.244 229.169 555.161 226.225 556.071C223.267 556.927 220.329 557.777 217.416 558.624C214.499 559.461 211.615 560.327 208.722 561.078C202.947 562.615 197.284 564.206 191.662 565.551C169.231 571.171 148.093 575.41 128.69 578.551C109.283 581.698 91.6106 583.749 76.0655 585.126C72.1752 585.43 68.4191 585.724 64.8035 586.008C62.9957 586.165 61.2198 586.244 59.4791 586.347C57.7384 586.443 56.0328 586.538 54.3655 586.631C47.6964 587.056 41.5863 587.177 36.0991 587.356C34.7256 587.395 33.3937 587.446 32.097 587.465C30.8002 587.474 29.545 587.481 28.3281 587.487C25.8943 587.497 23.6201 587.506 21.5057 587.513C17.2801 587.558 13.7028 587.427 10.8154 587.34C5.0279 587.155 2 586.954 2 586.733C2 586.516 5.03429 586.292 10.7994 586.066C13.6804 585.944 17.2481 585.874 21.4578 585.631C23.5626 585.532 25.8304 585.427 28.2546 585.312C29.4651 585.257 30.7172 585.203 32.0076 585.145C33.2979 585.078 34.6234 584.979 35.9905 584.896C41.4522 584.529 47.524 584.225 54.1547 583.625C55.8124 583.49 57.5084 583.35 59.2363 583.209C60.9643 583.065 62.7306 582.941 64.5256 582.743C68.1188 582.379 71.8462 582.002 75.7109 581.612C91.1507 579.909 108.686 577.561 127.933 574.148C147.177 570.742 168.126 566.276 190.353 560.477C195.926 559.087 201.535 557.455 207.259 555.876C210.124 555.103 212.982 554.221 215.873 553.365C218.76 552.502 221.67 551.633 224.602 550.761C227.518 549.835 230.453 548.902 233.411 547.959C234.89 547.49 236.372 547.017 237.864 546.544C239.352 546.071 240.831 545.55 242.322 545.052C245.302 544.045 248.305 543.033 251.323 542.013C252.837 541.518 254.335 540.956 255.849 540.422C257.36 539.882 258.874 539.339 260.394 538.796C284.723 530.128 309.799 519.757 335.242 507.83C347.944 501.827 360.717 495.392 373.535 488.59C386.32 481.724 399.119 474.443 411.885 466.762C437.367 451.321 461.456 434.941 483.775 417.879C485.168 416.812 486.557 415.745 487.947 414.681C489.33 413.614 490.729 412.569 492.08 411.474C494.804 409.307 497.513 407.151 500.212 405.004C501.569 403.943 502.882 402.828 504.207 401.742C505.53 400.649 506.849 399.563 508.165 398.476C509.481 397.39 510.79 396.304 512.1 395.221C513.39 394.115 514.674 393.016 515.958 391.917C517.242 390.818 518.52 389.722 519.797 388.63C520.436 388.083 521.072 387.537 521.71 386.994C522.346 386.447 522.966 385.885 523.592 385.332C526.089 383.112 528.574 380.904 531.043 378.709L531.969 377.885L532.877 377.048C533.483 376.489 534.087 375.933 534.691 375.374C535.898 374.259 537.102 373.15 538.3 372.041C539.498 370.933 540.702 369.837 541.884 368.725C543.056 367.6 544.222 366.482 545.387 365.367C546.553 364.252 547.713 363.137 548.869 362.028C550.025 360.92 551.188 359.821 552.306 358.686C554.564 356.437 556.803 354.204 559.032 351.986C560.156 350.887 561.233 349.75 562.319 348.629C563.402 347.504 564.484 346.386 565.561 345.271C566.637 344.156 567.71 343.044 568.78 341.935C569.841 340.82 570.872 339.686 571.917 338.568C573.993 336.325 576.066 334.107 578.097 331.887C580.1 329.638 582.086 327.404 584.057 325.19C586.05 322.992 587.938 320.74 589.835 318.522C590.78 317.414 591.726 316.308 592.665 315.209C593.134 314.66 593.604 314.11 594.07 313.564C594.533 313.014 594.984 312.452 595.437 311.899C597.251 309.679 599.053 307.477 600.835 305.295C601.279 304.749 601.723 304.203 602.167 303.66C602.598 303.107 603.029 302.554 603.461 302.004C604.32 300.905 605.176 299.81 606.029 298.717C609.481 294.388 612.682 289.998 615.876 285.736C616.684 284.675 617.444 283.592 618.207 282.518C618.971 281.445 619.731 280.378 620.488 279.314C621.245 278.25 621.995 277.192 622.746 276.141C623.116 275.614 623.5 275.093 623.861 274.566C624.222 274.036 624.579 273.505 624.937 272.975C626.368 270.86 627.783 268.77 629.182 266.7C629.533 266.183 629.881 265.668 630.229 265.154C630.574 264.636 630.9 264.112 631.236 263.595C631.903 262.556 632.564 261.524 633.222 260.499C643.772 244.086 652.373 228.632 659.103 214.664C665.858 200.705 670.908 188.315 674.565 178.021C675.549 175.471 676.319 173.008 677.101 170.717C677.488 169.57 677.861 168.458 678.226 167.385C678.408 166.848 678.586 166.321 678.762 165.803C678.938 165.286 679.082 164.768 679.238 164.266C679.851 162.254 680.42 160.394 680.937 158.694C681.458 156.995 681.959 155.461 682.323 154.068C683.866 148.518 684.783 145.617 684.997 145.662L684.981 145.669Z" fill="url(#paint10_linear_102_65)" class="svg-elem-16"></path>
            <g style="mix-blend-mode:screen" opacity="0.77">
            <g style="mix-blend-mode:screen" opacity="0.6">
            <path d="M129.261 568.126H128.907V561.03H127.121V568.126H126.767C125.077 568.126 123.707 569.497 123.707 571.187V587.833C123.707 589.523 125.077 590.893 126.767 590.893H127.121V597.989H128.907V590.893H129.261C130.951 590.893 132.321 589.523 132.321 587.833V571.187C132.321 569.497 130.951 568.126 129.261 568.126Z" fill="white" class="svg-elem-17"></path>
            <path d="M194.818 560.145H194.463V543.563H192.678V560.145H192.324C190.634 560.145 189.264 561.516 189.264 563.206V579.852C189.264 581.542 190.634 582.912 192.324 582.912H194.818C196.508 582.912 197.878 581.542 197.878 579.852V563.206C197.878 561.516 196.508 560.145 194.818 560.145Z" fill="white" class="svg-elem-18"></path>
            <path d="M168.595 543.298H168.241V536.202H166.455V543.298H166.101C164.411 543.298 163.041 544.669 163.041 546.359V563.004C163.041 564.695 164.411 566.065 166.101 566.065H166.455V573.161H168.241V566.065H168.595C170.285 566.065 171.655 564.695 171.655 563.004V546.359C171.655 544.669 170.285 543.298 168.595 543.298Z" fill="white" class="svg-elem-19"></path>
            <path d="M270.091 567.57H269.736V560.474H267.951V567.57H267.596C265.907 567.57 264.537 568.941 264.537 570.631V587.277C264.537 588.967 265.907 590.337 267.596 590.337H267.951V597.433H269.736V590.337H270.091C271.781 590.337 273.151 588.967 273.151 587.277V570.631C273.151 568.941 271.781 567.57 270.091 567.57Z" fill="white" class="svg-elem-20"></path>
            <path d="M155.484 524.08H152.99C151.3 524.08 149.93 525.451 149.93 527.141V543.787C149.93 545.477 151.3 546.848 152.99 546.848H153.344V561.337H155.13V546.848H155.484C157.174 546.848 158.544 545.477 158.544 543.787V527.141C158.544 525.451 157.174 524.08 155.484 524.08Z" fill="white" class="svg-elem-21"></path>
            <path d="M181.707 562.03H179.212C177.523 562.03 176.152 563.401 176.152 565.091V581.737C176.152 583.427 177.523 584.797 179.212 584.797H179.567V599.286H181.352V584.797H181.707C183.396 584.797 184.767 583.427 184.767 581.737V565.091C184.767 563.401 183.396 562.03 181.707 562.03Z" fill="white" class="svg-elem-22"></path>
            <path d="M116.15 577.267H115.796V570.171H114.01V577.267H113.656C111.966 577.267 110.596 578.638 110.596 580.328V596.973C110.596 598.664 111.966 600.034 113.656 600.034H114.01V607.13H115.796V600.034H116.15C117.84 600.034 119.21 598.664 119.21 596.973V580.328C119.21 578.638 117.84 577.267 116.15 577.267Z" fill="white" class="svg-elem-23"></path>
            <path d="M103.039 584.634H102.684V577.538H100.899V584.634H100.544C98.8546 584.634 97.4844 586.005 97.4844 587.695V604.341C97.4844 606.031 98.8546 607.402 100.544 607.402H100.899V614.498H102.684V607.402H103.039C104.728 607.402 106.099 606.031 106.099 604.341V587.695C106.099 586.005 104.728 584.634 103.039 584.634Z" fill="white" class="svg-elem-24"></path>
            <path d="M142.037 519.694H140.21C138.337 519.694 136.818 521.213 136.818 523.087V566.417C136.818 568.291 138.337 569.81 140.21 569.81H142.037C143.911 569.81 145.429 568.291 145.429 566.417V523.087C145.429 521.213 143.911 519.694 142.037 519.694Z" fill="white" class="svg-elem-25"></path>
            <path d="M207.594 523.489H205.767C203.894 523.489 202.375 525.008 202.375 526.882V570.212C202.375 572.086 203.894 573.605 205.767 573.605H207.594C209.467 573.605 210.986 572.086 210.986 570.212V526.882C210.986 525.008 209.467 523.489 207.594 523.489Z" fill="white" class="svg-elem-26"></path>
            <path d="M245.606 527.269H243.779C241.905 527.269 240.387 528.788 240.387 530.662V556.461C240.387 558.335 241.905 559.854 243.779 559.854H245.606C247.479 559.854 248.998 558.335 248.998 556.461V530.662C248.998 528.788 247.479 527.269 245.606 527.269Z" fill="white" class="svg-elem-27"></path>
            <path d="M221.037 544.135H218.546C216.856 544.135 215.486 545.505 215.486 547.196V556.039C215.486 557.73 216.856 559.1 218.546 559.1H221.037C222.727 559.1 224.097 557.73 224.097 556.039V547.196C224.097 545.505 222.727 544.135 221.037 544.135Z" fill="white" class="svg-elem-28"></path>
            <path d="M233.168 551.011H230.677C228.987 551.011 227.617 552.381 227.617 554.072V562.915C227.617 564.606 228.987 565.976 230.677 565.976H233.168C234.858 565.976 236.228 564.606 236.228 562.915V554.072C236.228 552.381 234.858 551.011 233.168 551.011Z" fill="white" class="svg-elem-29"></path>
            <path d="M256.919 558.369H254.428C252.738 558.369 251.368 559.739 251.368 561.429V570.273C251.368 571.964 252.738 573.334 254.428 573.334H256.919C258.609 573.334 259.979 571.964 259.979 570.273V561.429C259.979 559.739 258.609 558.369 256.919 558.369Z" fill="white" class="svg-elem-30"></path>
            </g>
            <g style="mix-blend-mode:screen" opacity="0.6">
            <path d="M310.249 537.081H309.895V529.985H308.109V537.081H307.755C306.065 537.081 304.695 538.451 304.695 540.141V556.787C304.695 558.477 306.065 559.848 307.755 559.848H308.109V566.944H309.895V559.848H310.249C311.939 559.848 313.309 558.477 313.309 556.787V540.141C313.309 538.451 311.939 537.081 310.249 537.081Z" fill="white" class="svg-elem-31"></path>
            <path d="M375.802 529.1H375.448V512.518H373.662V529.1H373.308C371.618 529.1 370.248 530.47 370.248 532.16V548.806C370.248 550.496 371.618 551.867 373.308 551.867H375.802C377.492 551.867 378.862 550.496 378.862 548.806V532.16C378.862 530.47 377.492 529.1 375.802 529.1Z" fill="white" class="svg-elem-32"></path>
            <path d="M349.58 512.252H349.225V505.156H347.44V512.252H347.085C345.396 512.252 344.025 513.623 344.025 515.313V531.959C344.025 533.649 345.396 535.02 347.085 535.02H347.44V542.116H349.225V535.02H349.58C351.269 535.02 352.64 533.649 352.64 531.959V515.313C352.64 513.623 351.269 512.252 349.58 512.252Z" fill="white" class="svg-elem-33"></path>
            <path d="M451.079 536.525H450.724V529.429H448.939V536.525H448.584C446.895 536.525 445.524 537.895 445.524 539.586V556.231C445.524 557.921 446.895 559.292 448.584 559.292H448.939V566.388H450.724V559.292H451.079C452.768 559.292 454.139 557.921 454.139 556.231V539.586C454.139 537.895 452.768 536.525 451.079 536.525Z" fill="white" class="svg-elem-34"></path>
            <path d="M336.472 493.035H333.977C332.288 493.035 330.917 494.406 330.917 496.096V512.741C330.917 514.432 332.288 515.802 333.977 515.802H334.332V530.291H336.117V515.802H336.472C338.161 515.802 339.532 514.432 339.532 512.741V496.096C339.532 494.406 338.161 493.035 336.472 493.035Z" fill="white" class="svg-elem-35"></path>
            <path d="M362.692 530.985H360.197C358.507 530.985 357.137 532.355 357.137 534.045V550.691C357.137 552.381 358.507 553.752 360.197 553.752H360.552V568.241H362.337V553.752H362.692C364.381 553.752 365.751 552.381 365.751 550.691V534.045C365.751 532.355 364.381 530.985 362.692 530.985Z" fill="white" class="svg-elem-36"></path>
            <path d="M297.138 546.221H296.783V539.125H294.998V546.221H294.643C292.954 546.221 291.583 547.592 291.583 549.282V565.928C291.583 567.618 292.954 568.989 294.643 568.989H294.998V576.085H296.783V568.989H297.138C298.827 568.989 300.198 567.618 300.198 565.928V549.282C300.198 547.592 298.827 546.221 297.138 546.221Z" fill="white" class="svg-elem-37"></path>
            <path d="M284.027 553.589H283.672V546.493H281.887V553.589H281.532C279.842 553.589 278.472 554.96 278.472 556.65V573.295C278.472 574.986 279.842 576.356 281.532 576.356H281.887V583.452H283.672V576.356H284.027C285.716 576.356 287.086 574.986 287.086 573.295V556.65C287.086 554.96 285.716 553.589 284.027 553.589Z" fill="white" class="svg-elem-38"></path>
            <path d="M323.025 488.648H321.198C319.325 488.648 317.806 490.167 317.806 492.041V535.371C317.806 537.245 319.325 538.764 321.198 538.764H323.025C324.899 538.764 326.417 537.245 326.417 535.371V492.041C326.417 490.167 324.899 488.648 323.025 488.648Z" fill="white" class="svg-elem-39"></path>
            <path d="M388.582 492.444H386.755C384.881 492.444 383.363 493.963 383.363 495.837V539.167C383.363 541.041 384.881 542.56 386.755 542.56H388.582C390.455 542.56 391.974 541.041 391.974 539.167V495.837C391.974 493.963 390.455 492.444 388.582 492.444Z" fill="white" class="svg-elem-40"></path>
            <path d="M426.593 496.223H424.767C422.893 496.223 421.375 497.743 421.375 499.616V525.416C421.375 527.29 422.893 528.809 424.767 528.809H426.593C428.467 528.809 429.986 527.29 429.986 525.416V499.616C429.986 497.743 428.467 496.223 426.593 496.223Z" fill="white" class="svg-elem-41"></path>
            <path d="M402.025 513.09H399.534C397.844 513.09 396.474 514.46 396.474 516.15V524.994C396.474 526.684 397.844 528.055 399.534 528.055H402.025C403.715 528.055 405.085 526.684 405.085 524.994V516.15C405.085 514.46 403.715 513.09 402.025 513.09Z" fill="white" class="svg-elem-42"></path>
            <path d="M414.156 519.965H411.665C409.975 519.965 408.605 521.336 408.605 523.026V531.87C408.605 533.56 409.975 534.931 411.665 534.931H414.156C415.846 534.931 417.216 533.56 417.216 531.87V523.026C417.216 521.336 415.846 519.965 414.156 519.965Z" fill="white" class="svg-elem-43"></path>
            <path d="M437.907 527.323H435.415C433.725 527.323 432.355 528.694 432.355 530.384V539.228C432.355 540.918 433.725 542.288 435.415 542.288H437.907C439.597 542.288 440.966 540.918 440.966 539.228V530.384C440.966 528.694 439.597 527.323 437.907 527.323Z" fill="white" class="svg-elem-44"></path>
            </g>
            <g style="mix-blend-mode:screen" opacity="0.6">
            <path d="M492.661 489.616H492.306V482.52H490.521V489.616H490.166C488.477 489.616 487.106 490.987 487.106 492.677V509.323C487.106 511.013 488.477 512.384 490.166 512.384H490.521V519.48H492.306V512.384H492.661C494.35 512.384 495.721 511.013 495.721 509.323V492.677C495.721 490.987 494.35 489.616 492.661 489.616Z" fill="white" class="svg-elem-45"></path>
            <path d="M558.217 481.635H557.863V465.053H556.077V481.635H555.723C554.033 481.635 552.663 483.006 552.663 484.696V501.342C552.663 503.032 554.033 504.403 555.723 504.403H558.217C559.907 504.403 561.277 503.032 561.277 501.342V484.696C561.277 483.006 559.907 481.635 558.217 481.635Z" fill="white" class="svg-elem-46"></path>
            <path d="M531.995 464.791H531.64V457.695H529.855V464.791H529.5C527.811 464.791 526.44 466.162 526.44 467.852V484.498C526.44 486.188 527.811 487.559 529.5 487.559H529.855V494.655H531.64V487.559H531.995C533.684 487.559 535.055 486.188 535.055 484.498V467.852C535.055 466.162 533.684 464.791 531.995 464.791Z" fill="white" class="svg-elem-47"></path>
            <path d="M633.493 489.06H633.139V481.964H631.353V489.06H630.999C629.309 489.06 627.939 490.431 627.939 492.121V508.767C627.939 510.457 629.309 511.828 630.999 511.828H631.353V518.924H633.139V511.828H633.493C635.183 511.828 636.553 510.457 636.553 508.767V492.121C636.553 490.431 635.183 489.06 633.493 489.06Z" fill="white" class="svg-elem-48"></path>
            <path d="M518.883 445.571H516.389C514.699 445.571 513.329 446.941 513.329 448.631V465.277C513.329 466.967 514.699 468.338 516.389 468.338H516.743V482.827H518.529V468.338H518.883C520.573 468.338 521.943 466.967 521.943 465.277V448.631C521.943 446.941 520.573 445.571 518.883 445.571Z" fill="white" class="svg-elem-49"></path>
            <path d="M545.106 483.523H542.612C540.922 483.523 539.552 484.894 539.552 486.584V503.23C539.552 504.92 540.922 506.291 542.612 506.291H542.966V520.78H544.752V506.291H545.106C546.796 506.291 548.166 504.92 548.166 503.23V486.584C548.166 484.894 546.796 483.523 545.106 483.523Z" fill="white" class="svg-elem-50"></path>
            <path d="M479.549 498.76H479.195V491.664H477.409V498.76H477.055C475.365 498.76 473.995 500.131 473.995 501.821V518.467C473.995 520.157 475.365 521.528 477.055 521.528H477.409V528.624H479.195V521.528H479.549C481.239 521.528 482.609 520.157 482.609 518.467V501.821C482.609 500.131 481.239 498.76 479.549 498.76Z" fill="white" class="svg-elem-51"></path>
            <path d="M466.438 506.128H466.084V499.032H464.298V506.128H463.944C462.254 506.128 460.884 507.498 460.884 509.189V525.834C460.884 527.524 462.254 528.895 463.944 528.895H464.298V535.991H466.084V528.895H466.438C468.128 528.895 469.498 527.524 469.498 525.834V509.189C469.498 507.498 468.128 506.128 466.438 506.128Z" fill="white" class="svg-elem-52"></path>
            <path d="M505.44 441.184H503.613C501.74 441.184 500.221 442.703 500.221 444.577V487.907C500.221 489.781 501.74 491.3 503.613 491.3H505.44C507.314 491.3 508.832 489.781 508.832 487.907V444.577C508.832 442.703 507.314 441.184 505.44 441.184Z" fill="white" class="svg-elem-53"></path>
            <path d="M570.993 444.979H569.166C567.293 444.979 565.774 446.499 565.774 448.373V491.703C565.774 493.577 567.293 495.096 569.166 495.096H570.993C572.867 495.096 574.385 493.577 574.385 491.703V448.373C574.385 446.499 572.867 444.979 570.993 444.979Z" fill="white" class="svg-elem-54"></path>
            <path d="M609.005 448.759H607.178C605.305 448.759 603.786 450.278 603.786 452.152V477.951C603.786 479.825 605.305 481.344 607.178 481.344H609.005C610.878 481.344 612.397 479.825 612.397 477.951V452.152C612.397 450.278 610.878 448.759 609.005 448.759Z" fill="white" class="svg-elem-55"></path>
            <path d="M584.437 465.628H581.946C580.256 465.628 578.886 466.999 578.886 468.689V477.533C578.886 479.223 580.256 480.594 581.946 480.594H584.437C586.127 480.594 587.497 479.223 587.497 477.533V468.689C587.497 466.999 586.127 465.628 584.437 465.628Z" fill="white" class="svg-elem-56"></path>
            <path d="M596.571 472.504H594.08C592.39 472.504 591.02 473.874 591.02 475.565V484.409C591.02 486.099 592.39 487.469 594.08 487.469H596.571C598.261 487.469 599.631 486.099 599.631 484.409V475.565C599.631 473.874 598.261 472.504 596.571 472.504Z" fill="white" class="svg-elem-57"></path>
            <path d="M620.318 479.862H617.827C616.137 479.862 614.767 481.232 614.767 482.923V491.766C614.767 493.457 616.137 494.827 617.827 494.827H620.318C622.008 494.827 623.378 493.457 623.378 491.766V482.923C623.378 481.232 622.008 479.862 620.318 479.862Z" fill="white" class="svg-elem-58"></path>
            </g>
            <g style="mix-blend-mode:screen">
            <path d="M484.839 410.129H487.398V410.985H484.839V413.631H483.977V410.985H481.431V410.129H483.977V407.471H484.839V410.129Z" fill="white" class="svg-elem-59"></path>
            <path d="M494.648 415.043H488.678V414.154L491.071 411.749C491.799 411.011 492.281 410.483 492.511 410.17C492.744 409.857 492.917 409.551 493.032 409.25C493.147 408.953 493.204 408.63 493.204 408.288C493.204 407.803 493.057 407.419 492.763 407.135C492.47 406.851 492.061 406.71 491.54 406.71C491.163 406.71 490.805 406.771 490.47 406.896C490.131 407.02 489.758 407.247 489.343 407.573L488.796 406.87C489.633 406.173 490.544 405.825 491.53 405.825C492.383 405.825 493.051 406.042 493.536 406.48C494.022 406.918 494.265 407.506 494.265 408.241C494.265 408.816 494.102 409.388 493.779 409.95C493.456 410.512 492.85 411.225 491.965 412.087L489.978 414.033V414.084H494.648V415.043Z" fill="white" class="svg-elem-60"></path>
            <path d="M496.273 414.384C496.273 414.107 496.337 413.896 496.462 413.755C496.59 413.611 496.769 413.541 497.005 413.541C497.241 413.541 497.433 413.611 497.567 413.755C497.701 413.899 497.768 414.11 497.768 414.384C497.768 414.659 497.701 414.861 497.564 415.004C497.426 415.148 497.241 415.222 497.005 415.222C496.794 415.222 496.618 415.158 496.481 415.027C496.341 414.896 496.273 414.682 496.273 414.384Z" fill="white" class="svg-elem-61"></path>
            <path d="M502.342 405.828C503.17 405.828 503.828 406.02 504.31 406.407C504.795 406.793 505.038 407.324 505.038 408.004C505.038 408.451 504.897 408.86 504.623 409.228C504.345 409.595 503.901 409.931 503.294 410.234C504.032 410.586 504.556 410.956 504.866 411.343C505.175 411.729 505.332 412.18 505.332 412.688C505.332 413.442 505.07 414.043 504.543 414.493C504.016 414.944 503.297 415.167 502.381 415.167C501.413 415.167 500.665 414.956 500.145 414.531C499.624 414.107 499.362 413.506 499.362 412.726C499.362 411.685 499.995 410.876 501.263 410.298C500.691 409.975 500.282 409.627 500.033 409.25C499.784 408.876 499.659 408.455 499.659 407.991C499.659 407.333 499.902 406.809 500.391 406.416C500.876 406.023 501.528 405.828 502.345 405.828H502.342ZM500.378 412.752C500.378 413.25 500.55 413.637 500.895 413.915C501.24 414.193 501.726 414.33 502.352 414.33C502.978 414.33 503.447 414.186 503.792 413.896C504.137 413.605 504.307 413.209 504.307 412.704C504.307 412.301 504.144 411.944 503.821 411.634C503.499 411.324 502.936 411.017 502.131 410.723C501.515 410.988 501.068 411.282 500.79 411.602C500.512 411.921 500.375 412.308 500.375 412.755L500.378 412.752ZM502.329 406.669C501.812 406.669 501.406 406.793 501.113 407.042C500.819 407.292 500.672 407.624 500.672 408.036C500.672 408.416 500.793 408.745 501.039 409.017C501.285 409.292 501.735 409.563 502.393 409.838C502.984 409.589 503.406 409.324 503.652 409.036C503.898 408.752 504.022 408.416 504.022 408.036C504.022 407.618 503.872 407.285 503.572 407.039C503.272 406.793 502.86 406.669 502.333 406.669H502.329Z" fill="white" class="svg-elem-62"></path>
            <path d="M513.01 412.956H511.662V415.043H510.675V412.956H506.258V412.055L510.57 405.911H511.662V412.02H513.01V412.959V412.956ZM510.675 412.017V408.998C510.675 408.407 510.697 407.736 510.736 406.991H510.685C510.487 407.387 510.298 407.72 510.126 407.979L507.286 412.017H510.672H510.675Z" fill="white" class="svg-elem-63"></path>
            </g>
            <g style="mix-blend-mode:screen">
            <path d="M595.396 417.298H597.954V418.155H595.396V420.8H594.533V418.155H591.988V417.298H594.533V414.64H595.396V417.298Z" fill="white" class="svg-elem-64"></path>
            <path d="M605.252 417.659C605.252 419.228 605.003 420.401 604.511 421.177C604.016 421.95 603.259 422.34 602.24 422.34C601.221 422.34 600.519 421.944 600.011 421.151C599.503 420.359 599.248 419.196 599.248 417.663C599.248 416.129 599.493 414.905 599.985 414.138C600.477 413.372 601.231 412.988 602.24 412.988C603.25 412.988 603.975 413.388 604.486 414.186C604.997 414.985 605.252 416.145 605.252 417.659ZM600.289 417.659C600.289 418.982 600.445 419.944 600.755 420.544C601.065 421.148 601.56 421.449 602.24 421.449C602.921 421.449 603.425 421.142 603.735 420.532C604.045 419.921 604.198 418.963 604.198 417.659C604.198 416.356 604.045 415.397 603.735 414.79C603.425 414.183 602.927 413.88 602.24 413.88C601.554 413.88 601.065 414.18 600.755 414.777C600.445 415.375 600.289 416.337 600.289 417.656V417.659Z" fill="white" class="svg-elem-65"></path>
            <path d="M606.83 421.557C606.83 421.279 606.894 421.068 607.019 420.928C607.146 420.784 607.325 420.714 607.561 420.714C607.798 420.714 607.989 420.784 608.124 420.928C608.258 421.071 608.325 421.282 608.325 421.557C608.325 421.832 608.258 422.033 608.12 422.177C607.983 422.321 607.798 422.394 607.561 422.394C607.351 422.394 607.175 422.33 607.038 422.199C606.897 422.068 606.83 421.854 606.83 421.557Z" fill="white" class="svg-elem-66"></path>
            <path d="M612.899 413.001C613.726 413.001 614.384 413.193 614.869 413.579C615.355 413.966 615.598 414.496 615.598 415.177C615.598 415.624 615.457 416.033 615.182 416.4C614.905 416.768 614.461 417.103 613.854 417.407C614.592 417.758 615.115 418.129 615.425 418.515C615.735 418.902 615.891 419.353 615.891 419.861C615.891 420.615 615.63 421.215 615.103 421.666C614.576 422.116 613.857 422.34 612.94 422.34C611.972 422.34 611.225 422.129 610.704 421.704C610.184 421.279 609.922 420.678 609.922 419.899C609.922 418.857 610.554 418.049 611.822 417.471C611.251 417.148 610.842 416.8 610.593 416.423C610.344 416.049 610.219 415.627 610.219 415.164C610.219 414.506 610.462 413.982 610.95 413.589C611.436 413.196 612.087 413.001 612.905 413.001H612.899ZM610.934 419.924C610.934 420.423 611.107 420.809 611.452 421.087C611.797 421.365 612.282 421.503 612.908 421.503C613.534 421.503 614.004 421.359 614.349 421.068C614.694 420.778 614.863 420.381 614.863 419.877C614.863 419.474 614.7 419.116 614.378 418.806C614.055 418.496 613.493 418.19 612.688 417.896C612.071 418.161 611.624 418.455 611.346 418.774C611.069 419.094 610.931 419.48 610.931 419.928L610.934 419.924ZM612.886 413.841C612.368 413.841 611.963 413.966 611.669 414.215C611.375 414.464 611.228 414.797 611.228 415.209C611.228 415.589 611.35 415.918 611.596 416.19C611.841 416.464 612.292 416.736 612.95 417.011C613.541 416.761 613.962 416.496 614.208 416.209C614.454 415.924 614.579 415.589 614.579 415.209C614.579 414.79 614.429 414.458 614.128 414.212C613.828 413.966 613.416 413.841 612.889 413.841H612.886Z" fill="white" class="svg-elem-67"></path>
            <path d="M623.567 420.126H622.219V422.212H621.232V420.126H616.814V419.225L621.126 413.081H622.219V419.19H623.567V420.129V420.126ZM621.232 419.186V416.167C621.232 415.576 621.254 414.905 621.292 414.161H621.241C621.043 414.557 620.855 414.889 620.682 415.148L617.843 419.186H621.229H621.232Z" fill="white" class="svg-elem-68"></path>
            </g>
            <g style="mix-blend-mode:screen">
            <path d="M531.525 545.218V544.273H534.576V545.218H531.525Z" fill="white" class="svg-elem-69"></path>
            <path d="M541.737 543.602C541.737 545.17 541.488 546.343 540.996 547.119C540.504 547.896 539.744 548.282 538.725 548.282C537.706 548.282 537.003 547.886 536.495 547.094C535.987 546.301 535.732 545.138 535.732 543.605C535.732 542.071 535.978 540.848 536.47 540.081C536.962 539.314 537.715 538.931 538.725 538.931C539.734 538.931 540.459 539.33 540.97 540.129C541.481 540.928 541.737 542.087 541.737 543.602ZM536.773 543.602C536.773 544.924 536.93 545.886 537.239 546.487C537.549 547.087 538.044 547.391 538.725 547.391C539.405 547.391 539.91 547.084 540.219 546.474C540.529 545.864 540.683 544.905 540.683 543.602C540.683 542.298 540.529 541.34 540.219 540.733C539.91 540.126 539.411 539.822 538.725 539.822C538.038 539.822 537.549 540.122 537.239 540.72C536.93 541.317 536.773 542.279 536.773 543.599V543.602Z" fill="white" class="svg-elem-70"></path>
            <path d="M543.314 547.499C543.314 547.222 543.378 547.011 543.503 546.87C543.631 546.726 543.809 546.656 544.046 546.656C544.282 546.656 544.474 546.726 544.608 546.87C544.742 547.014 544.809 547.225 544.809 547.499C544.809 547.774 544.742 547.976 544.605 548.119C544.467 548.263 544.282 548.337 544.046 548.337C543.835 548.337 543.659 548.273 543.522 548.142C543.381 548.011 543.314 547.797 543.314 547.499Z" fill="white" class="svg-elem-71"></path>
            <path d="M550.197 548.158H549.191V541.682C549.191 541.145 549.207 540.634 549.242 540.154C549.156 540.241 549.057 540.333 548.952 540.429C548.846 540.525 548.351 540.928 547.473 541.64L546.927 540.931L549.332 539.071H550.201V548.155L550.197 548.158Z" fill="white" class="svg-elem-72"></path>
            <path d="M559.671 543.602C559.671 545.17 559.422 546.343 558.93 547.119C558.435 547.893 557.678 548.282 556.659 548.282C555.64 548.282 554.937 547.886 554.429 547.094C553.922 546.301 553.666 545.138 553.666 543.605C553.666 542.071 553.912 540.848 554.404 540.081C554.896 539.314 555.649 538.931 556.659 538.931C557.668 538.931 558.393 539.33 558.904 540.129C559.415 540.928 559.671 542.087 559.671 543.602ZM554.707 543.602C554.707 544.924 554.864 545.886 555.174 546.487C555.483 547.091 555.978 547.391 556.659 547.391C557.339 547.391 557.844 547.084 558.154 546.474C558.463 545.864 558.617 544.905 558.617 543.602C558.617 542.298 558.463 541.34 558.154 540.733C557.844 540.126 557.345 539.822 556.659 539.822C555.972 539.822 555.483 540.122 555.174 540.72C554.864 541.317 554.707 542.279 554.707 543.599V543.602Z" fill="white" class="svg-elem-73"></path>
            </g>
            <g style="mix-blend-mode:screen">
            <path d="M67.4641 565.567H70.0225V566.423H67.4641V569.069H66.6018V566.423H64.0562V565.567H66.6018V562.909H67.4641V565.567Z" fill="white" class="svg-elem-74"></path>
            <path d="M77.324 565.928C77.324 567.497 77.0749 568.669 76.583 569.446C76.088 570.219 75.331 570.609 74.3121 570.609C73.2932 570.609 72.5905 570.213 72.0827 569.42C71.5749 568.628 71.3193 567.465 71.3193 565.931C71.3193 564.398 71.5653 563.174 72.0571 562.407C72.549 561.641 73.3028 561.257 74.3121 561.257C75.3214 561.257 76.0464 561.656 76.5575 562.455C77.0685 563.254 77.324 564.414 77.324 565.928ZM72.3606 565.928C72.3606 567.251 72.5171 568.213 72.8269 568.813C73.1367 569.417 73.6318 569.717 74.3121 569.717C74.9924 569.717 75.4971 569.411 75.8069 568.8C76.1167 568.19 76.27 567.232 76.27 565.928C76.27 564.625 76.1167 563.666 75.8069 563.059C75.4971 562.452 74.9988 562.148 74.3121 562.148C73.6254 562.148 73.1367 562.449 72.8269 563.046C72.5171 563.644 72.3606 564.605 72.3606 565.925V565.928Z" fill="white" class="svg-elem-75"></path>
            <path d="M78.9019 569.823C78.9019 569.545 78.9657 569.334 79.0903 569.193C79.2149 569.053 79.3969 568.979 79.6333 568.979C79.8696 568.979 80.0613 569.05 80.1954 569.193C80.3296 569.337 80.3966 569.548 80.3966 569.823C80.3966 570.097 80.3296 570.299 80.1922 570.443C80.0549 570.586 79.8696 570.66 79.6333 570.66C79.4225 570.66 79.2468 570.596 79.1095 570.465C78.9689 570.334 78.9019 570.12 78.9019 569.823Z" fill="white" class="svg-elem-76"></path>
            <path d="M87.9344 570.481H81.9648V569.593L84.3571 567.187C85.0854 566.449 85.5677 565.922 85.7976 565.609C86.0276 565.295 86.2033 564.989 86.3183 564.688C86.4332 564.391 86.4907 564.069 86.4907 563.727C86.4907 563.241 86.3438 562.858 86.05 562.573C85.7561 562.289 85.3473 562.148 84.8267 562.148C84.4498 562.148 84.092 562.209 83.7567 562.334C83.4213 562.458 83.0444 562.685 82.6292 563.011L82.083 562.308C82.9198 561.612 83.8301 561.263 84.8171 561.263C85.6699 561.263 86.3374 561.481 86.8229 561.918C87.3084 562.356 87.5511 562.944 87.5511 563.679C87.5511 564.254 87.3882 564.826 87.0656 565.388C86.7431 565.95 86.1362 566.663 85.2515 567.526L83.2648 569.471V569.522H87.9376V570.481H87.9344Z" fill="white" class="svg-elem-77"></path>
            <path d="M95.2581 565.928C95.2581 567.497 95.009 568.669 94.5171 569.446C94.0252 570.222 93.2651 570.609 92.2462 570.609C91.2273 570.609 90.5246 570.213 90.0168 569.42C89.5089 568.628 89.2534 567.465 89.2534 565.931C89.2534 564.398 89.4994 563.174 89.9912 562.407C90.4831 561.641 91.2369 561.257 92.2462 561.257C93.2555 561.257 93.9805 561.656 94.4916 562.455C95.0026 563.254 95.2581 564.414 95.2581 565.928ZM90.2947 565.928C90.2947 567.251 90.4512 568.213 90.761 568.813C91.0708 569.417 91.5659 569.717 92.2462 569.717C92.9265 569.717 93.4312 569.411 93.741 568.8C94.0508 568.19 94.2041 567.232 94.2041 565.928C94.2041 564.625 94.0508 563.666 93.741 563.059C93.4312 562.452 92.9329 562.148 92.2462 562.148C91.5595 562.148 91.0708 562.449 90.761 563.046C90.4512 563.644 90.2947 564.605 90.2947 565.925V565.928Z" fill="white" class="svg-elem-78"></path>
            </g>
            <g style="mix-blend-mode:screen">
            <path d="M440.216 472.153H442.774V473.009H440.216V475.654H439.353V473.009H436.808V472.153H439.353V469.494H440.216V472.153Z" fill="white" class="svg-elem-79"></path>
            <path d="M450.072 472.514C450.072 474.082 449.823 475.255 449.331 476.031C448.836 476.804 448.079 477.194 447.06 477.194C446.041 477.194 445.339 476.798 444.831 476.006C444.323 475.213 444.067 474.05 444.067 472.517C444.067 470.983 444.313 469.76 444.805 468.993C445.297 468.226 446.051 467.843 447.06 467.843C448.069 467.843 448.794 468.242 449.305 469.041C449.817 469.839 450.072 470.999 450.072 472.514ZM445.109 472.514C445.109 473.836 445.265 474.798 445.575 475.399C445.885 475.999 446.38 476.303 447.06 476.303C447.74 476.303 448.245 475.996 448.555 475.386C448.865 474.776 449.018 473.817 449.018 472.514C449.018 471.21 448.865 470.252 448.555 469.644C448.245 469.037 447.747 468.734 447.06 468.734C446.373 468.734 445.885 469.034 445.575 469.632C445.265 470.229 445.109 471.191 445.109 472.51V472.514Z" fill="white" class="svg-elem-80"></path>
            <path d="M451.65 476.408C451.65 476.13 451.714 475.919 451.838 475.779C451.966 475.635 452.145 475.565 452.381 475.565C452.618 475.565 452.809 475.635 452.943 475.779C453.078 475.923 453.145 476.133 453.145 476.408C453.145 476.683 453.078 476.884 452.94 477.028C452.803 477.172 452.618 477.245 452.381 477.245C452.17 477.245 451.995 477.181 451.857 477.05C451.717 476.919 451.65 476.705 451.65 476.408Z" fill="white" class="svg-elem-81"></path>
            <path d="M457.719 467.852C458.546 467.852 459.204 468.044 459.686 468.43C460.172 468.817 460.414 469.347 460.414 470.028C460.414 470.475 460.274 470.884 459.999 471.251C459.721 471.619 459.277 471.954 458.671 472.258C459.408 472.609 459.932 472.98 460.242 473.367C460.552 473.753 460.708 474.204 460.708 474.712C460.708 475.466 460.446 476.066 459.919 476.517C459.392 476.967 458.674 477.191 457.757 477.191C456.789 477.191 456.042 476.98 455.521 476.555C455.001 476.13 454.739 475.53 454.739 474.75C454.739 473.708 455.371 472.9 456.639 472.322C456.067 471.999 455.659 471.651 455.409 471.274C455.16 470.9 455.036 470.478 455.036 470.015C455.036 469.357 455.279 468.833 455.767 468.44C456.253 468.047 456.904 467.852 457.722 467.852H457.719ZM455.754 474.776C455.754 475.274 455.927 475.661 456.272 475.939C456.617 476.216 457.102 476.354 457.728 476.354C458.354 476.354 458.824 476.21 459.169 475.919C459.514 475.629 459.683 475.232 459.683 474.728C459.683 474.325 459.52 473.967 459.198 473.657C458.875 473.347 458.313 473.041 457.508 472.747C456.892 473.012 456.444 473.306 456.166 473.625C455.889 473.945 455.751 474.331 455.751 474.779L455.754 474.776ZM457.706 468.692C457.189 468.692 456.783 468.817 456.489 469.066C456.195 469.315 456.048 469.648 456.048 470.06C456.048 470.44 456.17 470.769 456.416 471.041C456.662 471.315 457.112 471.587 457.77 471.862C458.361 471.613 458.782 471.347 459.028 471.06C459.274 470.775 459.399 470.44 459.399 470.06C459.399 469.641 459.249 469.309 458.948 469.063C458.648 468.817 458.236 468.692 457.709 468.692H457.706Z" fill="white" class="svg-elem-82"></path>
            <path d="M463.136 477.066L466.901 468.932H461.951V467.98H467.994V468.807L464.279 477.066H463.136Z" fill="white" class="svg-elem-83"></path>
            </g>
            <g style="mix-blend-mode:screen">
            <path d="M123.586 497.962H126.144V498.818H123.586V501.463H122.723V498.818H120.178V497.962H122.723V495.303H123.586V497.962Z" fill="white" class="svg-elem-84"></path>
            <path d="M133.446 498.319C133.446 499.888 133.196 501.061 132.705 501.837C132.21 502.61 131.453 503 130.434 503C129.415 503 128.712 502.604 128.204 501.812C127.696 501.019 127.441 499.856 127.441 498.323C127.441 496.789 127.687 495.565 128.179 494.799C128.671 494.032 129.424 493.648 130.434 493.648C131.443 493.648 132.168 494.048 132.679 494.847C133.19 495.645 133.446 496.805 133.446 498.319ZM128.482 498.319C128.482 499.642 128.639 500.604 128.948 501.205C129.258 501.808 129.753 502.109 130.434 502.109C131.114 502.109 131.619 501.802 131.928 501.192C132.238 500.582 132.392 499.623 132.392 498.319C132.392 497.016 132.238 496.057 131.928 495.45C131.619 494.843 131.12 494.54 130.434 494.54C129.747 494.54 129.258 494.84 128.948 495.438C128.639 496.035 128.482 496.997 128.482 498.316V498.319Z" fill="white" class="svg-elem-85"></path>
            <path d="M135.023 502.217C135.023 501.939 135.087 501.728 135.212 501.588C135.34 501.444 135.518 501.374 135.755 501.374C135.991 501.374 136.183 501.444 136.317 501.588C136.451 501.732 136.518 501.942 136.518 502.217C136.518 502.492 136.451 502.693 136.314 502.837C136.176 502.981 135.991 503.054 135.755 503.054C135.544 503.054 135.368 502.99 135.231 502.859C135.091 502.728 135.023 502.514 135.023 502.217Z" fill="white" class="svg-elem-86"></path>
            <path d="M141.092 493.661C141.919 493.661 142.577 493.853 143.063 494.239C143.548 494.626 143.791 495.156 143.791 495.837C143.791 496.284 143.65 496.693 143.376 497.061C143.098 497.428 142.654 497.763 142.047 498.067C142.785 498.418 143.309 498.789 143.618 499.176C143.928 499.562 144.085 500.013 144.085 500.521C144.085 501.275 143.823 501.875 143.296 502.326C142.769 502.776 142.05 503 141.134 503C140.166 503 139.418 502.789 138.898 502.364C138.377 501.939 138.115 501.339 138.115 500.559C138.115 499.517 138.748 498.709 140.016 498.131C139.444 497.808 139.035 497.46 138.786 497.083C138.537 496.709 138.412 496.287 138.412 495.824C138.412 495.166 138.655 494.642 139.144 494.249C139.629 493.856 140.281 493.661 141.098 493.661H141.092ZM139.128 500.585C139.128 501.083 139.3 501.47 139.645 501.748C139.99 502.026 140.476 502.163 141.102 502.163C141.728 502.163 142.2 502.019 142.542 501.728C142.887 501.438 143.056 501.042 143.056 500.537C143.056 500.134 142.893 499.776 142.571 499.466C142.248 499.153 141.686 498.85 140.881 498.556C140.265 498.821 139.818 499.115 139.54 499.434C139.262 499.754 139.125 500.141 139.125 500.588L139.128 500.585ZM141.079 494.501C140.562 494.501 140.156 494.626 139.862 494.875C139.569 495.124 139.422 495.457 139.422 495.869C139.422 496.249 139.543 496.578 139.789 496.85C140.035 497.124 140.485 497.396 141.143 497.671C141.734 497.422 142.156 497.156 142.402 496.869C142.648 496.585 142.772 496.249 142.772 495.869C142.772 495.45 142.622 495.118 142.322 494.872C142.021 494.626 141.609 494.501 141.082 494.501H141.079Z" fill="white" class="svg-elem-87"></path>
            <path d="M151.757 500.789H150.409V502.876H149.422V500.789H145.005V499.888L149.317 493.744H150.409V499.853H151.757V500.792V500.789ZM149.422 499.85V496.831C149.422 496.24 149.445 495.569 149.483 494.824H149.432C149.234 495.22 149.045 495.553 148.873 495.812L146.033 499.85H149.419H149.422Z" fill="white" class="svg-elem-88"></path>
            </g>
            <g style="mix-blend-mode:screen">
            <path d="M310.137 462.711H312.696V463.568H310.137V466.213H309.275V463.568H306.729V462.711H309.275V460.053H310.137V462.711Z" fill="white" class="svg-elem-89"></path>
            <path d="M319.943 467.629H313.974V466.74L316.366 464.335C317.094 463.597 317.576 463.069 317.806 462.756C318.036 462.443 318.212 462.136 318.327 461.836C318.442 461.539 318.5 461.216 318.5 460.874C318.5 460.389 318.353 460.005 318.059 459.721C317.765 459.437 317.356 459.296 316.835 459.296C316.459 459.296 316.101 459.357 315.765 459.481C315.427 459.606 315.053 459.833 314.638 460.159L314.092 459.456C314.929 458.759 315.839 458.411 316.826 458.411C317.679 458.411 318.346 458.628 318.832 459.066C319.317 459.504 319.56 460.092 319.56 460.827C319.56 461.402 319.397 461.973 319.074 462.536C318.752 463.098 318.145 463.811 317.26 464.673L315.274 466.619V466.67H319.946V467.625L319.943 467.629Z" fill="white" class="svg-elem-90"></path>
            <path d="M321.572 466.967C321.572 466.689 321.636 466.478 321.76 466.338C321.888 466.194 322.067 466.124 322.303 466.124C322.54 466.124 322.731 466.194 322.865 466.338C323 466.482 323.067 466.692 323.067 466.967C323.067 467.242 323 467.443 322.862 467.587C322.725 467.731 322.54 467.804 322.303 467.804C322.092 467.804 321.917 467.74 321.779 467.609C321.639 467.478 321.572 467.264 321.572 466.967Z" fill="white" class="svg-elem-91"></path>
            <path d="M330.605 462.421C330.605 465.974 329.228 467.753 326.481 467.753C326.002 467.753 325.619 467.712 325.338 467.629V466.74C325.67 466.849 326.047 466.903 326.468 466.903C327.462 466.903 328.212 466.597 328.72 465.98C329.228 465.363 329.503 464.421 329.551 463.149H329.477C329.25 463.494 328.947 463.756 328.57 463.935C328.193 464.114 327.768 464.207 327.296 464.207C326.491 464.207 325.855 463.967 325.382 463.485C324.91 463.002 324.673 462.331 324.673 461.472C324.673 460.526 324.938 459.782 325.465 459.235C325.992 458.689 326.689 458.414 327.548 458.414C328.164 458.414 328.704 458.574 329.167 458.89C329.63 459.207 329.985 459.67 330.234 460.277C330.483 460.884 330.608 461.6 330.608 462.424L330.605 462.421ZM327.548 459.296C326.957 459.296 326.497 459.488 326.175 459.868C325.852 460.248 325.689 460.779 325.689 461.459C325.689 462.057 325.839 462.526 326.136 462.868C326.433 463.21 326.887 463.379 327.497 463.379C327.874 463.379 328.222 463.303 328.538 463.149C328.854 462.996 329.103 462.785 329.285 462.523C329.468 462.261 329.56 461.98 329.56 461.689C329.56 461.255 329.474 460.852 329.305 460.485C329.135 460.117 328.899 459.826 328.592 459.616C328.289 459.405 327.941 459.299 327.545 459.299L327.548 459.296Z" fill="white" class="svg-elem-92"></path>
            <path d="M334.913 458.411C335.741 458.411 336.399 458.603 336.884 458.989C337.369 459.376 337.612 459.906 337.612 460.587C337.612 461.034 337.472 461.443 337.197 461.811C336.919 462.178 336.475 462.513 335.868 462.817C336.606 463.168 337.13 463.539 337.44 463.926C337.75 464.312 337.906 464.763 337.906 465.271C337.906 466.025 337.644 466.625 337.117 467.076C336.59 467.526 335.872 467.75 334.955 467.75C333.987 467.75 333.24 467.539 332.719 467.114C332.198 466.689 331.937 466.089 331.937 465.309C331.937 464.267 332.569 463.459 333.837 462.881C333.265 462.558 332.856 462.21 332.607 461.833C332.358 461.459 332.234 461.037 332.234 460.574C332.234 459.916 332.476 459.392 332.965 458.999C333.45 458.606 334.102 458.411 334.92 458.411H334.913ZM332.949 465.335C332.949 465.833 333.122 466.22 333.466 466.498C333.811 466.776 334.297 466.913 334.923 466.913C335.549 466.913 336.022 466.769 336.363 466.478C336.708 466.188 336.878 465.791 336.878 465.287C336.878 464.884 336.715 464.526 336.392 464.216C336.07 463.906 335.507 463.6 334.703 463.306C334.086 463.571 333.639 463.865 333.361 464.184C333.083 464.504 332.946 464.89 332.946 465.338L332.949 465.335ZM334.901 459.251C334.383 459.251 333.977 459.376 333.684 459.625C333.39 459.874 333.243 460.207 333.243 460.619C333.243 460.999 333.364 461.328 333.61 461.6C333.856 461.874 334.306 462.146 334.964 462.421C335.555 462.172 335.977 461.906 336.223 461.619C336.469 461.331 336.593 460.999 336.593 460.619C336.593 460.2 336.443 459.868 336.143 459.622C335.843 459.376 335.431 459.251 334.904 459.251H334.901Z" fill="white" class="svg-elem-93"></path>
            </g>
            <g style="mix-blend-mode:screen">
            <path d="M171.757 526.16V525.215H174.808V526.16H171.757Z" fill="white" class="svg-elem-94"></path>
            <path d="M181.969 524.544C181.969 526.112 181.719 527.285 181.228 528.061C180.733 528.834 179.976 529.224 178.957 529.224C177.938 529.224 177.235 528.828 176.727 528.036C176.219 527.243 175.964 526.08 175.964 524.547C175.964 523.013 176.21 521.79 176.702 521.023C177.194 520.256 177.947 519.873 178.957 519.873C179.966 519.873 180.691 520.272 181.202 521.071C181.713 521.869 181.969 523.029 181.969 524.544ZM177.005 524.544C177.005 525.866 177.162 526.828 177.471 527.429C177.781 528.032 178.276 528.333 178.957 528.333C179.637 528.333 180.142 528.026 180.451 527.416C180.761 526.806 180.915 525.847 180.915 524.544C180.915 523.24 180.761 522.282 180.451 521.675C180.142 521.067 179.643 520.764 178.957 520.764C178.27 520.764 177.781 521.064 177.471 521.662C177.162 522.259 177.005 523.221 177.005 524.54V524.544Z" fill="white" class="svg-elem-95"></path>
            <path d="M183.546 528.438C183.546 528.16 183.61 527.949 183.735 527.809C183.863 527.665 184.041 527.595 184.278 527.595C184.514 527.595 184.706 527.665 184.84 527.809C184.974 527.953 185.041 528.163 185.041 528.438C185.041 528.713 184.974 528.914 184.837 529.058C184.699 529.202 184.514 529.275 184.278 529.275C184.067 529.275 183.891 529.211 183.754 529.08C183.613 528.949 183.546 528.735 183.546 528.438Z" fill="white" class="svg-elem-96"></path>
            <path d="M192.237 522.151C192.237 522.732 192.075 523.205 191.749 523.572C191.423 523.94 190.963 524.189 190.366 524.31V524.361C191.094 524.451 191.634 524.684 191.988 525.058C192.34 525.432 192.515 525.921 192.515 526.524C192.515 527.39 192.215 528.055 191.615 528.521C191.014 528.988 190.161 529.221 189.056 529.221C188.577 529.221 188.136 529.186 187.737 529.112C187.338 529.039 186.948 528.914 186.571 528.729V527.748C186.964 527.943 187.386 528.09 187.83 528.192C188.274 528.294 188.695 528.346 189.095 528.346C190.663 528.346 191.449 527.729 191.449 526.499C191.449 525.397 190.583 524.847 188.852 524.847H187.957V523.959H188.865C189.574 523.959 190.133 523.802 190.548 523.489C190.963 523.176 191.167 522.742 191.167 522.189C191.167 521.745 191.014 521.397 190.711 521.144C190.407 520.892 189.992 520.764 189.471 520.764C189.075 520.764 188.698 520.818 188.347 520.927C187.996 521.035 187.593 521.234 187.143 521.524L186.622 520.828C186.996 520.534 187.424 520.304 187.913 520.134C188.398 519.965 188.912 519.882 189.449 519.882C190.331 519.882 191.017 520.083 191.506 520.489C191.995 520.892 192.237 521.448 192.237 522.151Z" fill="white" class="svg-elem-97"></path>
            <path d="M199.903 524.544C199.903 526.112 199.654 527.285 199.162 528.061C198.667 528.834 197.91 529.224 196.891 529.224C195.872 529.224 195.169 528.828 194.661 528.036C194.153 527.243 193.898 526.08 193.898 524.547C193.898 523.013 194.144 521.79 194.636 521.023C195.128 520.256 195.881 519.873 196.891 519.873C197.9 519.873 198.625 520.272 199.136 521.071C199.647 521.869 199.903 523.029 199.903 524.544ZM194.939 524.544C194.939 525.866 195.096 526.828 195.406 527.429C195.715 528.032 196.21 528.333 196.891 528.333C197.571 528.333 198.076 528.026 198.386 527.416C198.695 526.806 198.849 525.847 198.849 524.544C198.849 523.24 198.695 522.282 198.386 521.675C198.076 521.067 197.577 520.764 196.891 520.764C196.204 520.764 195.715 521.064 195.406 521.662C195.096 522.259 194.939 523.221 194.939 524.54V524.544Z" fill="white" class="svg-elem-98"></path>
            </g>
            <g style="mix-blend-mode:screen">
            <path d="M216.601 599.006V598.06H219.651V599.006H216.601Z" fill="white" class="svg-elem-99"></path>
            <path d="M226.764 601.945H220.795V601.057L223.187 598.651C223.915 597.913 224.398 597.386 224.628 597.072C224.861 596.759 225.033 596.453 225.148 596.152C225.263 595.852 225.321 595.532 225.321 595.191C225.321 594.705 225.174 594.322 224.88 594.037C224.586 593.753 224.177 593.612 223.657 593.612C223.28 593.612 222.922 593.673 222.587 593.798C222.251 593.922 221.874 594.149 221.459 594.475L220.913 593.772C221.75 593.076 222.66 592.727 223.647 592.727C224.5 592.727 225.167 592.945 225.653 593.382C226.138 593.82 226.381 594.408 226.381 595.143C226.381 595.718 226.218 596.29 225.896 596.852C225.573 597.414 224.966 598.127 224.082 598.989L222.095 600.935V600.986H226.764V601.945Z" fill="white" class="svg-elem-100"></path>
            <path d="M228.39 601.287C228.39 601.009 228.454 600.798 228.579 600.657C228.703 600.517 228.885 600.443 229.122 600.443C229.358 600.443 229.55 600.513 229.684 600.657C229.818 600.801 229.885 601.012 229.885 601.287C229.885 601.561 229.818 601.763 229.681 601.906C229.543 602.05 229.358 602.124 229.122 602.124C228.911 602.124 228.735 602.06 228.598 601.929C228.457 601.798 228.39 601.584 228.39 601.287Z" fill="white" class="svg-elem-101"></path>
            <path d="M234.459 592.73C235.286 592.73 235.944 592.922 236.429 593.309C236.915 593.695 237.158 594.226 237.158 594.906C237.158 595.354 237.017 595.762 236.742 596.13C236.465 596.497 236.021 596.833 235.414 597.136C236.152 597.488 236.675 597.858 236.985 598.245C237.295 598.632 237.452 599.082 237.452 599.59C237.452 600.344 237.19 600.945 236.663 601.395C236.136 601.846 235.417 602.069 234.5 602.069C233.532 602.069 232.785 601.858 232.264 601.434C231.744 601.009 231.482 600.408 231.482 599.628C231.482 598.587 232.114 597.779 233.382 597.2C232.811 596.878 232.402 596.529 232.153 596.152C231.904 595.778 231.779 595.357 231.779 594.893C231.779 594.235 232.022 593.711 232.51 593.318C232.996 592.925 233.647 592.73 234.465 592.73H234.459ZM232.494 599.654C232.494 600.152 232.667 600.539 233.012 600.817C233.357 601.095 233.842 601.232 234.468 601.232C235.094 601.232 235.564 601.088 235.909 600.798C236.254 600.507 236.423 600.111 236.423 599.606C236.423 599.203 236.26 598.846 235.938 598.536C235.615 598.226 235.053 597.919 234.248 597.625C233.632 597.89 233.184 598.184 232.906 598.504C232.629 598.823 232.491 599.21 232.491 599.657L232.494 599.654ZM234.446 593.571C233.929 593.571 233.523 593.695 233.229 593.945C232.935 594.194 232.788 594.526 232.788 594.938C232.788 595.318 232.91 595.647 233.156 595.919C233.402 596.194 233.852 596.465 234.51 596.74C235.101 596.491 235.522 596.226 235.768 595.938C236.014 595.654 236.139 595.318 236.139 594.938C236.139 594.52 235.989 594.187 235.688 593.941C235.388 593.695 234.976 593.571 234.449 593.571H234.446Z" fill="white" class="svg-elem-102"></path>
            <path d="M244.699 596.737C244.699 600.29 243.322 602.069 240.575 602.069C240.096 602.069 239.713 602.028 239.432 601.945V601.057C239.764 601.165 240.141 601.22 240.563 601.22C241.556 601.22 242.307 600.913 242.814 600.296C243.322 599.68 243.597 598.737 243.645 597.465H243.571C243.345 597.81 243.041 598.072 242.664 598.251C242.287 598.43 241.863 598.523 241.39 598.523C240.585 598.523 239.949 598.283 239.477 597.801C239.004 597.322 238.768 596.648 238.768 595.788C238.768 594.842 239.033 594.098 239.56 593.552C240.087 593.005 240.783 592.73 241.642 592.73C242.259 592.73 242.798 592.89 243.262 593.207C243.725 593.523 244.079 593.986 244.328 594.593C244.577 595.2 244.702 595.916 244.702 596.74L244.699 596.737ZM241.642 593.612C241.051 593.612 240.591 593.804 240.269 594.184C239.946 594.564 239.783 595.095 239.783 595.775C239.783 596.373 239.933 596.842 240.23 597.181C240.527 597.523 240.981 597.692 241.591 597.692C241.968 597.692 242.316 597.616 242.632 597.462C242.949 597.309 243.198 597.098 243.38 596.836C243.562 596.571 243.654 596.293 243.654 596.002C243.654 595.568 243.571 595.165 243.399 594.798C243.23 594.43 242.993 594.139 242.687 593.929C242.383 593.718 242.035 593.612 241.639 593.612H241.642Z" fill="white" class="svg-elem-103"></path>
            </g>
            <g style="mix-blend-mode:screen">
            <path d="M308.937 590.053V589.107H311.987V590.053H308.937Z" fill="white" class="svg-elem-104"></path>
            <path d="M316.947 592.993H315.941V586.52C315.941 585.983 315.957 585.472 315.992 584.993C315.906 585.079 315.807 585.171 315.701 585.267C315.593 585.363 315.101 585.766 314.222 586.478L313.676 585.769L316.081 583.909H316.95V592.993H316.947Z" fill="white" class="svg-elem-105"></path>
            <path d="M320.726 592.331C320.726 592.053 320.789 591.842 320.914 591.702C321.042 591.558 321.221 591.488 321.457 591.488C321.693 591.488 321.885 591.558 322.019 591.702C322.153 591.846 322.22 592.057 322.22 592.331C322.22 592.606 322.153 592.807 322.016 592.951C321.879 593.095 321.693 593.168 321.457 593.168C321.246 593.168 321.071 593.104 320.933 592.973C320.793 592.842 320.726 592.628 320.726 592.331Z" fill="white" class="svg-elem-106"></path>
            <path d="M329.758 592.993H323.789V592.104L326.181 589.699C326.909 588.961 327.391 588.433 327.621 588.12C327.855 587.807 328.027 587.5 328.142 587.2C328.257 586.9 328.314 586.58 328.314 586.238C328.314 585.753 328.168 585.369 327.874 585.085C327.58 584.801 327.171 584.66 326.65 584.66C326.274 584.66 325.916 584.721 325.58 584.845C325.245 584.97 324.868 585.197 324.453 585.523L323.907 584.82C324.744 584.123 325.654 583.775 326.641 583.775C327.494 583.775 328.161 583.992 328.647 584.43C329.132 584.868 329.375 585.456 329.375 586.191C329.375 586.766 329.212 587.338 328.889 587.9C328.567 588.462 327.96 589.175 327.075 590.037L325.089 591.983V592.034H329.758V592.993Z" fill="white" class="svg-elem-107"></path>
            <path d="M333.901 587.443C334.859 587.443 335.61 587.679 336.159 588.156C336.708 588.632 336.983 589.28 336.983 590.104C336.983 591.044 336.683 591.782 336.086 592.315C335.488 592.849 334.661 593.117 333.61 593.117C332.559 593.117 331.806 592.954 331.269 592.625V591.632C331.56 591.817 331.917 591.964 332.349 592.069C332.78 592.175 333.205 592.229 333.623 592.229C334.351 592.229 334.917 592.057 335.322 591.715C335.725 591.37 335.929 590.874 335.929 590.223C335.929 588.954 335.153 588.322 333.601 588.322C333.208 588.322 332.681 588.382 332.023 588.501L331.489 588.159L331.831 583.909H336.347V584.862H332.713L332.483 587.59C332.959 587.494 333.435 587.446 333.904 587.446L333.901 587.443Z" fill="white" class="svg-elem-108"></path>
            </g>
            <g style="mix-blend-mode:screen">
            <path d="M416.698 586.187V585.242H419.749V586.187H416.698Z" fill="white" class="svg-elem-109"></path>
            <path d="M426.912 584.571C426.912 586.139 426.663 587.312 426.171 588.088C425.676 588.862 424.919 589.251 423.9 589.251C422.882 589.251 422.179 588.855 421.671 588.063C421.163 587.27 420.908 586.107 420.908 584.574C420.908 583.04 421.154 581.817 421.646 581.05C422.137 580.283 422.891 579.9 423.9 579.9C424.91 579.9 425.635 580.299 426.146 581.098C426.657 581.897 426.912 583.056 426.912 584.571ZM421.949 584.571C421.949 585.893 422.105 586.855 422.415 587.456C422.725 588.06 423.22 588.36 423.9 588.36C424.581 588.36 425.085 588.053 425.395 587.443C425.705 586.833 425.858 585.874 425.858 584.571C425.858 583.267 425.705 582.309 425.395 581.702C425.085 581.095 424.587 580.791 423.9 580.791C423.214 580.791 422.725 581.091 422.415 581.689C422.105 582.286 421.949 583.248 421.949 584.567V584.571Z" fill="white" class="svg-elem-110"></path>
            <path d="M428.491 588.468C428.491 588.191 428.555 587.98 428.679 587.839C428.807 587.695 428.986 587.625 429.222 587.625C429.458 587.625 429.65 587.695 429.784 587.839C429.918 587.983 429.985 588.194 429.985 588.468C429.985 588.743 429.918 588.945 429.781 589.088C429.644 589.232 429.458 589.306 429.222 589.306C429.011 589.306 428.836 589.242 428.698 589.111C428.558 588.98 428.491 588.766 428.491 588.468Z" fill="white" class="svg-elem-111"></path>
            <path d="M437.178 582.178C437.178 582.759 437.015 583.232 436.69 583.599C436.364 583.967 435.904 584.216 435.307 584.337V584.389C436.035 584.478 436.575 584.711 436.929 585.085C437.281 585.459 437.456 585.948 437.456 586.552C437.456 587.417 437.156 588.082 436.556 588.548C435.955 589.015 435.102 589.248 433.997 589.248C433.518 589.248 433.077 589.213 432.678 589.139C432.279 589.066 431.889 588.941 431.512 588.756V587.775C431.905 587.97 432.327 588.117 432.771 588.219C433.215 588.322 433.636 588.373 434.035 588.373C435.604 588.373 436.389 587.756 436.389 586.526C436.389 585.424 435.524 584.874 433.793 584.874H432.898V583.986H433.806C434.515 583.986 435.073 583.829 435.489 583.516C435.904 583.203 436.108 582.769 436.108 582.216C436.108 581.772 435.955 581.424 435.652 581.171C435.348 580.919 434.933 580.791 434.412 580.791C434.016 580.791 433.639 580.845 433.288 580.954C432.937 581.063 432.534 581.261 432.084 581.551L431.563 580.855C431.937 580.561 432.365 580.331 432.854 580.162C433.339 579.992 433.853 579.909 434.39 579.909C435.272 579.909 435.958 580.11 436.447 580.516C436.936 580.919 437.178 581.475 437.178 582.178Z" fill="white" class="svg-elem-112"></path>
            <path d="M444.844 584.571C444.844 586.139 444.594 587.312 444.103 588.088C443.608 588.862 442.851 589.251 441.832 589.251C440.813 589.251 440.11 588.855 439.602 588.063C439.094 587.27 438.839 586.107 438.839 584.574C438.839 583.04 439.085 581.817 439.577 581.05C440.069 580.283 440.822 579.9 441.832 579.9C442.841 579.9 443.566 580.299 444.077 581.098C444.588 581.897 444.844 583.056 444.844 584.571ZM439.88 584.571C439.88 585.893 440.037 586.855 440.346 587.456C440.656 588.056 441.151 588.36 441.832 588.36C442.512 588.36 443.017 588.053 443.326 587.443C443.636 586.833 443.79 585.874 443.79 584.571C443.79 583.267 443.636 582.309 443.326 581.702C443.017 581.095 442.518 580.791 441.832 580.791C441.145 580.791 440.656 581.091 440.346 581.689C440.037 582.286 439.88 583.248 439.88 584.567V584.571Z" fill="white" class="svg-elem-113"></path>
            </g>
            <g style="mix-blend-mode:screen">
            <path d="M622.564 538.055V537.11H625.614V538.055H622.564Z" fill="white" class="svg-elem-114"></path>
            <path d="M632.778 536.439C632.778 538.007 632.529 539.18 632.037 539.956C631.542 540.729 630.785 541.119 629.766 541.119C628.747 541.119 628.045 540.723 627.537 539.931C627.029 539.138 626.773 537.975 626.773 536.442C626.773 534.908 627.019 533.685 627.511 532.918C628.003 532.151 628.757 531.768 629.766 531.768C630.776 531.768 631.501 532.167 632.012 532.966C632.523 533.764 632.778 534.924 632.778 536.439ZM627.815 536.439C627.815 537.761 627.971 538.723 628.281 539.324C628.591 539.928 629.086 540.228 629.766 540.228C630.447 540.228 630.951 539.921 631.261 539.311C631.571 538.701 631.724 537.742 631.724 536.439C631.724 535.135 631.571 534.177 631.261 533.57C630.951 532.962 630.453 532.659 629.766 532.659C629.079 532.659 628.591 532.959 628.281 533.557C627.971 534.154 627.815 535.116 627.815 536.435V536.439Z" fill="white" class="svg-elem-115"></path>
            <path d="M634.356 540.333C634.356 540.055 634.42 539.844 634.544 539.704C634.672 539.56 634.851 539.49 635.087 539.49C635.324 539.49 635.515 539.56 635.65 539.704C635.784 539.848 635.851 540.058 635.851 540.333C635.851 540.608 635.784 540.809 635.646 540.953C635.509 541.097 635.324 541.17 635.087 541.17C634.877 541.17 634.701 541.106 634.564 540.975C634.423 540.844 634.356 540.63 634.356 540.333Z" fill="white" class="svg-elem-116"></path>
            <path d="M640.255 535.445C641.214 535.445 641.964 535.681 642.514 536.157C643.063 536.634 643.338 537.282 643.338 538.106C643.338 539.046 643.037 539.784 642.44 540.317C641.843 540.851 641.016 541.119 639.965 541.119C638.914 541.119 638.16 540.956 637.624 540.627V539.634C637.914 539.819 638.272 539.966 638.703 540.071C639.134 540.177 639.559 540.231 639.978 540.231C640.706 540.231 641.271 540.059 641.677 539.717C642.079 539.372 642.284 538.876 642.284 538.225C642.284 536.956 641.507 536.324 639.955 536.324C639.562 536.324 639.035 536.384 638.377 536.503L637.844 536.161L638.186 531.911H642.702V532.863H639.067L638.837 535.592C639.313 535.496 639.789 535.448 640.259 535.448L640.255 535.445Z" fill="white" class="svg-elem-117"></path>
            <path d="M650.709 536.439C650.709 538.007 650.46 539.18 649.968 539.956C649.473 540.729 648.716 541.119 647.697 541.119C646.678 541.119 645.976 540.723 645.468 539.931C644.96 539.138 644.705 537.975 644.705 536.442C644.705 534.908 644.951 533.685 645.442 532.918C645.934 532.151 646.688 531.768 647.697 531.768C648.707 531.768 649.432 532.167 649.943 532.966C650.454 533.764 650.709 534.924 650.709 536.439ZM645.746 536.439C645.746 537.761 645.902 538.723 646.212 539.324C646.522 539.928 647.017 540.228 647.697 540.228C648.378 540.228 648.882 539.921 649.192 539.311C649.502 538.701 649.655 537.742 649.655 536.439C649.655 535.135 649.502 534.177 649.192 533.57C648.882 532.962 648.384 532.659 647.697 532.659C647.011 532.659 646.522 532.959 646.212 533.557C645.902 534.154 645.746 535.116 645.746 536.435V536.439Z" fill="white" class="svg-elem-118"></path>
            </g>
            </g>
            </g>
            <g clip-path="url(#clip2_102_65)">
            <path style="mix-blend-mode: screen;" opacity="0.55" d="M110.695 34.88C120.339 34.88 128.158 27.0718 128.158 17.44C128.158 7.80815 120.339 0 110.695 0C101.05 0 93.2319 7.80815 93.2319 17.44C93.2319 27.0718 101.05 34.88 110.695 34.88Z" fill="url(#paint11_radial_102_65)" class="svg-elem-119"></path>
            <path style="mix-blend-mode: color-dodge;" d="M115.825 18.4146C116.198 15.5026 114.138 12.8395 111.222 12.4665C108.306 12.0934 105.639 14.1517 105.266 17.0637C104.892 19.9758 106.953 22.6388 109.869 23.0119C112.785 23.3849 115.451 21.3267 115.825 18.4146Z" fill="url(#paint12_radial_102_65)" class="svg-elem-120"></path>
            <path style="mix-blend-mode: screen;" opacity="0.55" d="M245.2 307.359C247.755 298.071 242.286 288.474 232.986 285.922C223.686 283.371 214.076 288.832 211.522 298.12C208.967 307.408 214.435 317.005 223.735 319.557C233.035 322.108 242.645 316.647 245.2 307.359Z" fill="url(#paint13_radial_102_65)" class="svg-elem-121"></path>
            <path style="mix-blend-mode: color-dodge;" d="M232.872 305.594C234.295 303.026 233.363 299.791 230.791 298.37C228.218 296.949 224.979 297.879 223.556 300.448C222.134 303.017 223.065 306.252 225.638 307.673C228.21 309.094 231.449 308.163 232.872 305.594Z" fill="url(#paint14_radial_102_65)" class="svg-elem-122"></path>
            <path style="mix-blend-mode: screen;" opacity="0.55" d="M395.642 18.5921C397.356 12.508 393.806 6.18859 387.714 4.47729C381.622 2.76598 375.294 6.31083 373.581 12.3949C371.867 18.479 375.417 24.7984 381.509 26.5097C387.601 28.221 393.929 24.6762 395.642 18.5921Z" fill="url(#paint15_radial_102_65)" class="svg-elem-123"></path>
            <path style="mix-blend-mode: color-dodge;" d="M387.993 15.5622C388.064 17.4882 386.56 19.1061 384.631 19.1735C382.703 19.2441 381.083 17.7418 381.015 15.8158C380.944 13.8898 382.449 12.2719 384.377 12.2045C386.306 12.1339 387.926 13.6362 387.993 15.5622Z" fill="url(#paint16_radial_102_65)" class="svg-elem-124"></path>
            <path style="mix-blend-mode: screen;" opacity="0.55" d="M39.9018 182.617C40.2363 176.306 35.3844 170.919 29.0647 170.584C22.7451 170.25 17.3509 175.096 17.0163 181.407C16.6818 187.719 21.5337 193.106 27.8533 193.44C34.173 193.774 39.5673 188.928 39.9018 182.617Z" fill="url(#paint17_radial_102_65)" class="svg-elem-125"></path>
            <path style="mix-blend-mode: color-dodge;" d="M31.8594 182.098C31.9301 184.024 30.4258 185.641 28.4973 185.709C26.5688 185.78 24.9488 184.277 24.8813 182.351C24.8106 180.425 26.3148 178.807 28.2434 178.74C30.1719 178.669 31.7919 180.172 31.8594 182.098Z" fill="url(#paint18_radial_102_65)" class="svg-elem-126"></path>
            <path style="mix-blend-mode: screen;" opacity="0.55" d="M100.258 447.793C109.88 438.184 109.88 422.605 100.258 412.996C90.6369 403.388 75.0375 403.388 65.4162 412.996C55.7948 422.605 55.7948 438.184 65.4162 447.793C75.0375 457.401 90.6369 457.401 100.258 447.793Z" fill="url(#paint19_radial_102_65)" class="svg-elem-127"></path>
            <path style="mix-blend-mode: color-dodge;" d="M89.9732 432.445C90.882 428.404 88.3388 424.393 84.2929 423.485C80.2469 422.578 76.2302 425.117 75.3214 429.158C74.4125 433.199 76.9557 437.21 81.0017 438.118C85.0477 439.025 89.0643 436.486 89.9732 432.445Z" fill="url(#paint20_radial_102_65)" class="svg-elem-128"></path>
            <path style="mix-blend-mode: screen;" opacity="0.55" d="M538.212 118.447C545.032 111.636 545.032 100.594 538.212 93.783C531.393 86.9723 520.336 86.9723 513.516 93.783C506.696 100.594 506.696 111.636 513.516 118.447C520.336 125.258 531.393 125.258 538.212 118.447Z" fill="url(#paint21_radial_102_65)" class="svg-elem-129"></path>
            <path style="mix-blend-mode: color-dodge;" d="M530.922 106.959C531.296 104.047 529.235 101.384 526.319 101.011C523.403 100.638 520.736 102.696 520.363 105.608C519.989 108.52 522.05 111.184 524.966 111.557C527.882 111.93 530.549 109.871 530.922 106.959Z" fill="url(#paint22_radial_102_65)" class="svg-elem-130"></path>
            <path style="mix-blend-mode: screen;" opacity="0.55" d="M448.347 205.408C451.973 196.482 447.666 186.311 438.729 182.691C429.792 179.07 419.608 183.371 415.983 192.296C412.357 201.222 416.663 211.392 425.601 215.013C434.538 218.633 444.722 214.333 448.347 205.408Z" fill="url(#paint23_radial_102_65)" class="svg-elem-131"></path>
            <path style="mix-blend-mode: color-dodge;" d="M437.913 199.743C438.244 196.826 436.145 194.193 433.224 193.862C430.303 193.531 427.666 195.628 427.335 198.545C427.004 201.462 429.103 204.095 432.024 204.426C434.945 204.757 437.582 202.66 437.913 199.743Z" fill="url(#paint24_radial_102_65)" class="svg-elem-132"></path>
            <path style="mix-blend-mode: screen;" opacity="0.55" d="M135.08 289.081C143.801 284.968 147.532 274.573 143.413 265.863C139.295 257.154 128.886 253.428 120.166 257.541C111.445 261.654 107.714 272.049 111.832 280.759C115.951 289.468 126.359 293.194 135.08 289.081Z" fill="url(#paint25_radial_102_65)" class="svg-elem-133"></path>
            <path style="mix-blend-mode: color-dodge;" d="M132.954 273.099C132.968 270.163 130.597 267.771 127.657 267.757C124.717 267.743 122.323 270.111 122.308 273.047C122.294 275.983 124.665 278.374 127.605 278.389C130.545 278.403 132.939 276.035 132.954 273.099Z" fill="url(#paint26_radial_102_65)" class="svg-elem-134"></path>
            <path style="mix-blend-mode: screen;" opacity="0.55" d="M448.328 312.36C455.147 305.549 455.147 294.507 448.328 287.696C441.508 280.885 430.451 280.885 423.631 287.696C416.812 294.507 416.812 305.549 423.631 312.36C430.451 319.171 441.508 319.171 448.328 312.36Z" fill="url(#paint27_radial_102_65)" class="svg-elem-135"></path>
            <path style="mix-blend-mode: color-dodge;" d="M441.308 299.99C441.415 297.056 439.12 294.592 436.182 294.485C433.244 294.379 430.776 296.671 430.67 299.604C430.563 302.538 432.858 305.003 435.796 305.11C438.734 305.216 441.202 302.924 441.308 299.99Z" fill="url(#paint28_radial_102_65)" class="svg-elem-136"></path>
            <path style="mix-blend-mode: screen;" opacity="0.55" d="M598.975 210.002C599.345 210.002 599.644 210.301 599.644 210.67V284.593C599.644 284.962 599.345 285.261 598.975 285.261C598.606 285.261 598.307 284.962 598.307 284.593V210.67C598.307 210.301 598.606 210.002 598.975 210.002Z" fill="url(#paint29_linear_102_65)" class="svg-elem-137"></path>
            <path style="mix-blend-mode: screen;" opacity="0.55" d="M609.827 220.839C615.821 214.853 615.821 205.148 609.827 199.162C603.833 193.176 594.115 193.176 588.122 199.162C582.128 205.148 582.128 214.853 588.122 220.839C594.115 226.825 603.833 226.825 609.827 220.839Z" fill="url(#paint30_radial_102_65)" class="svg-elem-138"></path>
            <path style="mix-blend-mode: color-dodge;" d="M599.971 214.358C602.495 213.809 604.095 211.321 603.545 208.801C602.995 206.28 600.504 204.682 597.98 205.231C595.457 205.78 593.856 208.269 594.406 210.789C594.956 213.309 597.447 214.907 599.971 214.358Z" fill="url(#paint31_radial_102_65)" class="svg-elem-139"></path>
            <path style="mix-blend-mode: screen;" opacity="0.55" d="M338.13 111.127C338.5 111.127 338.799 111.426 338.799 111.795V185.719C338.799 186.088 338.5 186.386 338.13 186.386C337.76 186.386 337.461 186.088 337.461 185.719V111.795C337.461 111.426 337.76 111.127 338.13 111.127Z" fill="url(#paint32_linear_102_65)" class="svg-elem-140"></path>
            <path style="mix-blend-mode: screen;" opacity="0.55" d="M348.982 121.966C354.976 115.98 354.975 106.275 348.982 100.289C342.988 94.3032 333.27 94.3032 327.276 100.289C321.283 106.275 321.283 115.98 327.276 121.966C333.27 127.952 342.988 127.952 348.982 121.966Z" fill="url(#paint33_radial_102_65)" class="svg-elem-141"></path>
            <path style="mix-blend-mode: color-dodge;" d="M342.407 112.786C343.442 110.423 342.363 107.669 339.996 106.636C337.63 105.602 334.873 106.68 333.838 109.044C332.803 111.407 333.882 114.161 336.249 115.194C338.615 116.228 341.373 115.15 342.407 112.786Z" fill="url(#paint34_radial_102_65)" class="svg-elem-142"></path>
            <path style="mix-blend-mode: screen;" opacity="0.55" d="M211.686 123.938C212.055 123.938 212.354 124.237 212.354 124.606V198.53C212.354 198.899 212.055 199.197 211.686 199.197C211.316 199.197 211.017 198.899 211.017 198.53V124.606C211.017 124.237 211.316 123.938 211.686 123.938Z" fill="url(#paint35_linear_102_65)" class="svg-elem-143"></path>
            <path style="mix-blend-mode: screen;" opacity="0.55" d="M222.538 134.777C228.532 128.791 228.532 119.086 222.538 113.1C216.544 107.114 206.826 107.114 200.833 113.1C194.839 119.086 194.839 128.791 200.833 134.777C206.826 140.763 216.544 140.763 222.538 134.777Z" fill="url(#paint36_radial_102_65)" class="svg-elem-144"></path>
            <path style="mix-blend-mode: color-dodge;" d="M216.191 125.032C216.904 122.553 215.47 119.966 212.987 119.254C210.505 118.541 207.914 119.974 207.201 122.453C206.488 124.932 207.922 127.519 210.405 128.232C212.887 128.944 215.478 127.512 216.191 125.032Z" fill="url(#paint37_radial_102_65)" class="svg-elem-145"></path>
            <path style="mix-blend-mode: screen;" opacity="0.55" d="M689.97 407.306C689.97 407.674 690.268 407.973 690.637 407.973C691.005 407.973 691.304 407.674 691.304 407.306V333.382C691.304 333.014 691.005 332.715 690.637 332.715C690.268 332.715 689.97 333.014 689.97 333.382V407.306Z" fill="url(#paint38_linear_102_65)" class="svg-elem-146"></path>
            <path style="mix-blend-mode: screen;" opacity="0.55" d="M705.287 337.291C707.816 329.211 703.308 320.613 695.218 318.088C687.128 315.562 678.519 320.064 675.99 328.144C673.46 336.224 677.969 344.821 686.059 347.347C694.149 349.873 702.758 345.37 705.287 337.291Z" fill="url(#paint39_radial_102_65)" class="svg-elem-147"></path>
            <path style="mix-blend-mode: color-dodge;" d="M695.315 332.336C695.408 334.913 693.393 337.08 690.812 337.176C688.231 337.27 686.061 335.257 685.965 332.679C685.872 330.102 687.887 327.935 690.468 327.839C693.049 327.745 695.219 329.758 695.315 332.336Z" fill="url(#paint40_radial_102_65)" class="svg-elem-148"></path>
            </g>
            </g>
            <defs>
            <radialGradient id="paint0_radial_102_65" cx="0" cy="0" r="1" gradientUnits="userSpaceOnUse" gradientTransform="translate(684.443 144.554) rotate(-2.10065) scale(34.575 34.5855)">
            <stop stop-color="#F2B501"></stop>
            <stop offset="1" stop-color="#131313" stop-opacity="0"></stop>
            </radialGradient>
            <radialGradient id="paint1_radial_102_65" cx="0" cy="0" r="1" gradientUnits="userSpaceOnUse" gradientTransform="translate(684.443 144.554) rotate(-2.10063) scale(10.537 10.5402)">
            <stop stop-color="white"></stop>
            <stop offset="1" stop-color="#231F20"></stop>
            </radialGradient>
            <linearGradient id="paint2_linear_102_65" x1="645.673" y1="673.097" x2="645.673" y2="206.121" gradientUnits="userSpaceOnUse">
            <stop stop-color="#F19C7D"></stop>
            <stop offset="1" stop-color="#5347EC"></stop>
            </linearGradient>
            <linearGradient id="paint3_linear_102_65" x1="564.085" y1="667.038" x2="564.085" y2="317.485" gradientUnits="userSpaceOnUse">
            <stop stop-color="#F19C7D"></stop>
            <stop offset="1" stop-color="#5347EC"></stop>
            </linearGradient>
            <linearGradient id="paint4_linear_102_65" x1="237.726" y1="655.164" x2="237.726" y2="535.718" gradientUnits="userSpaceOnUse">
            <stop stop-color="#F19C7D"></stop>
            <stop offset="1" stop-color="#5347EC"></stop>
            </linearGradient>
            <linearGradient id="paint5_linear_102_65" x1="156.136" y1="653.476" x2="156.136" y2="566.731" gradientUnits="userSpaceOnUse">
            <stop stop-color="#F19C7D"></stop>
            <stop offset="1" stop-color="#5347EC"></stop>
            </linearGradient>
            <linearGradient id="paint6_linear_102_65" x1="74.5485" y1="652.128" x2="74.5485" y2="591.452" gradientUnits="userSpaceOnUse">
            <stop stop-color="#F19C7D"></stop>
            <stop offset="1" stop-color="#5347EC"></stop>
            </linearGradient>
            <linearGradient id="paint7_linear_102_65" x1="482.494" y1="663.383" x2="482.494" y2="384.657" gradientUnits="userSpaceOnUse">
            <stop stop-color="#F19C7D"></stop>
            <stop offset="1" stop-color="#5347EC"></stop>
            </linearGradient>
            <linearGradient id="paint8_linear_102_65" x1="400.904" y1="659.845" x2="400.904" y2="449.682" gradientUnits="userSpaceOnUse">
            <stop stop-color="#F19C7D"></stop>
            <stop offset="1" stop-color="#5347EC"></stop>
            </linearGradient>
            <linearGradient id="paint9_linear_102_65" x1="319.317" y1="657.439" x2="319.317" y2="493.838" gradientUnits="userSpaceOnUse">
            <stop stop-color="#F19C7D"></stop>
            <stop offset="1" stop-color="#5347EC"></stop>
            </linearGradient>
            <linearGradient id="paint10_linear_102_65" x1="775.205" y1="366.594" x2="-201.78" y2="366.594" gradientUnits="userSpaceOnUse">
            <stop stop-color="white"></stop>
            <stop offset="1" stop-color="#231F20"></stop>
            </linearGradient>
            <radialGradient id="paint11_radial_102_65" cx="0" cy="0" r="1" gradientUnits="userSpaceOnUse" gradientTransform="translate(110.7 17.4527) rotate(42.8625) scale(17.4523 17.4506)">
            <stop stop-color="#F19C7D"></stop>
            <stop offset="1" stop-color="#131313" stop-opacity="0"></stop>
            </radialGradient>
            <radialGradient id="paint12_radial_102_65" cx="0" cy="0" r="1" gradientUnits="userSpaceOnUse" gradientTransform="translate(110.547 17.7409) rotate(-2.09724) scale(5.32276 5.31579)">
            <stop stop-color="white"></stop>
            <stop offset="1" stop-color="#231F20"></stop>
            </radialGradient>
            <radialGradient id="paint13_radial_102_65" cx="0" cy="0" r="1" gradientUnits="userSpaceOnUse" gradientTransform="translate(228.375 302.738) rotate(-31.7064) scale(17.4566 17.4463)">
            <stop stop-color="#F19C7D"></stop>
            <stop offset="1" stop-color="#131313" stop-opacity="0"></stop>
            </radialGradient>
            <radialGradient id="paint14_radial_102_65" cx="0" cy="0" r="1" gradientUnits="userSpaceOnUse" gradientTransform="translate(228.234 303.02) rotate(-2.09724) scale(5.32276 5.31579)">
            <stop stop-color="white"></stop>
            <stop offset="1" stop-color="#231F20"></stop>
            </radialGradient>
            <radialGradient id="paint15_radial_102_65" cx="0" cy="0" r="1" gradientUnits="userSpaceOnUse" gradientTransform="translate(384.62 15.4923) rotate(-31.3566) scale(11.4547 11.4478)">
            <stop stop-color="#F19C7D"></stop>
            <stop offset="1" stop-color="#131313" stop-opacity="0"></stop>
            </radialGradient>
            <radialGradient id="paint16_radial_102_65" cx="0" cy="0" r="1" gradientUnits="userSpaceOnUse" gradientTransform="translate(384.515 15.6756) rotate(-2.09725) scale(3.49064 3.48608)">
            <stop stop-color="white"></stop>
            <stop offset="1" stop-color="#231F20"></stop>
            </radialGradient>
            <radialGradient id="paint17_radial_102_65" cx="0" cy="0" r="1" gradientUnits="userSpaceOnUse" gradientTransform="translate(28.4676 182.009) rotate(-44.0324) scale(11.4515 11.451)">
            <stop stop-color="#F19C7D"></stop>
            <stop offset="1" stop-color="#131313" stop-opacity="0"></stop>
            </radialGradient>
            <radialGradient id="paint18_radial_102_65" cx="0" cy="0" r="1" gradientUnits="userSpaceOnUse" gradientTransform="translate(28.3744 182.23) rotate(-2.09725) scale(3.49065 3.48608)">
            <stop stop-color="white"></stop>
            <stop offset="1" stop-color="#231F20"></stop>
            </radialGradient>
            <radialGradient id="paint19_radial_102_65" cx="0" cy="0" r="1" gradientUnits="userSpaceOnUse" gradientTransform="translate(82.8555 430.402) rotate(-2.09724) scale(24.637 24.6048)">
            <stop stop-color="#F19C7D"></stop>
            <stop offset="1" stop-color="#131313" stop-opacity="0"></stop>
            </radialGradient>
            <radialGradient id="paint20_radial_102_65" cx="0" cy="0" r="1" gradientUnits="userSpaceOnUse" gradientTransform="translate(82.6433 430.812) rotate(-2.09725) scale(7.50843 7.4986)">
            <stop stop-color="white"></stop>
            <stop offset="1" stop-color="#231F20"></stop>
            </radialGradient>
            <radialGradient id="paint21_radial_102_65" cx="0" cy="0" r="1" gradientUnits="userSpaceOnUse" gradientTransform="translate(525.877 106.12) rotate(-2.09725) scale(17.4629 17.44)">
            <stop stop-color="#F19C7D"></stop>
            <stop offset="1" stop-color="#131313" stop-opacity="0"></stop>
            </radialGradient>
            <radialGradient id="paint22_radial_102_65" cx="0" cy="0" r="1" gradientUnits="userSpaceOnUse" gradientTransform="translate(525.657 106.288) rotate(-2.09725) scale(5.32276 5.31579)">
            <stop stop-color="white"></stop>
            <stop offset="1" stop-color="#231F20"></stop>
            </radialGradient>
            <radialGradient id="paint23_radial_102_65" cx="0" cy="0" r="1" gradientUnits="userSpaceOnUse" gradientTransform="translate(432.179 198.851) rotate(-24.9912) scale(17.4588 17.4441)">
            <stop stop-color="#F19C7D"></stop>
            <stop offset="1" stop-color="#131313" stop-opacity="0"></stop>
            </radialGradient>
            <radialGradient id="paint24_radial_102_65" cx="0" cy="0" r="1" gradientUnits="userSpaceOnUse" gradientTransform="translate(432.633 199.168) rotate(-2.08726) scale(5.32276 5.31579)">
            <stop stop-color="white"></stop>
            <stop offset="1" stop-color="#231F20"></stop>
            </radialGradient>
            <radialGradient id="paint25_radial_102_65" cx="0" cy="0" r="1" gradientUnits="userSpaceOnUse" gradientTransform="translate(127.633 273.32) rotate(17.5983) scale(17.4608 17.4421)">
            <stop stop-color="#F19C7D"></stop>
            <stop offset="1" stop-color="#131313" stop-opacity="0"></stop>
            </radialGradient>
            <radialGradient id="paint26_radial_102_65" cx="0" cy="0" r="1" gradientUnits="userSpaceOnUse" gradientTransform="translate(127.648 273.07) rotate(-2.09725) scale(5.32276 5.31579)">
            <stop stop-color="white"></stop>
            <stop offset="1" stop-color="#231F20"></stop>
            </radialGradient>
            <radialGradient id="paint27_radial_102_65" cx="0" cy="0" r="1" gradientUnits="userSpaceOnUse" gradientTransform="translate(435.992 300.033) rotate(-2.09723) scale(17.4629 17.44)">
            <stop stop-color="#F19C7D"></stop>
            <stop offset="1" stop-color="#131313" stop-opacity="0"></stop>
            </radialGradient>
            <radialGradient id="paint28_radial_102_65" cx="0" cy="0" r="1" gradientUnits="userSpaceOnUse" gradientTransform="translate(436.018 299.773) rotate(-2.09725) scale(5.32276 5.31579)">
            <stop stop-color="white"></stop>
            <stop offset="1" stop-color="#231F20"></stop>
            </radialGradient>
            <linearGradient id="paint29_linear_102_65" x1="598.975" y1="209.781" x2="598.975" y2="283.123" gradientUnits="userSpaceOnUse">
            <stop stop-color="white"></stop>
            <stop offset="1" stop-color="#231F20"></stop>
            </linearGradient>
            <radialGradient id="paint30_radial_102_65" cx="0" cy="0" r="1" gradientUnits="userSpaceOnUse" gradientTransform="translate(598.986 210.005) rotate(-2.09725) scale(15.3479 15.3278)">
            <stop stop-color="#F19C7D"></stop>
            <stop offset="1" stop-color="#131313" stop-opacity="0"></stop>
            </radialGradient>
            <radialGradient id="paint31_radial_102_65" cx="0" cy="0" r="1" gradientUnits="userSpaceOnUse" gradientTransform="translate(598.999 209.775) rotate(-2.09729) scale(4.67671 4.67057)">
            <stop stop-color="white"></stop>
            <stop offset="1" stop-color="#231F20"></stop>
            </radialGradient>
            <linearGradient id="paint32_linear_102_65" x1="338.13" y1="110.909" x2="338.13" y2="184.248" gradientUnits="userSpaceOnUse">
            <stop stop-color="#F1B400"></stop>
            <stop offset="1" stop-color="#131313"></stop>
            </linearGradient>
            <radialGradient id="paint33_radial_102_65" cx="0" cy="0" r="1" gradientUnits="userSpaceOnUse" gradientTransform="translate(338.14 111.132) rotate(-2.09723) scale(15.3479 15.3278)">
            <stop stop-color="#F19C7D"></stop>
            <stop offset="1" stop-color="#131313" stop-opacity="0"></stop>
            </radialGradient>
            <radialGradient id="paint34_radial_102_65" cx="0" cy="0" r="1" gradientUnits="userSpaceOnUse" gradientTransform="translate(338.134 110.911) rotate(-2.09727) scale(4.6767 4.67058)">
            <stop stop-color="white"></stop>
            <stop offset="1" stop-color="#231F20"></stop>
            </radialGradient>
            <linearGradient id="paint35_linear_102_65" x1="211.686" y1="123.717" x2="211.686" y2="197.059" gradientUnits="userSpaceOnUse">
            <stop stop-color="#E99F8E"></stop>
            <stop offset="1" stop-color="#131313" stop-opacity="0"></stop>
            </linearGradient>
            <radialGradient id="paint36_radial_102_65" cx="0" cy="0" r="1" gradientUnits="userSpaceOnUse" gradientTransform="translate(211.697 123.943) rotate(-2.09725) scale(15.3479 15.3278)">
            <stop stop-color="#F19C7D"></stop>
            <stop offset="1" stop-color="#131313" stop-opacity="0"></stop>
            </radialGradient>
            <radialGradient id="paint37_radial_102_65" cx="0" cy="0" r="1" gradientUnits="userSpaceOnUse" gradientTransform="translate(211.699 123.756) rotate(-2.08724) scale(4.6767 4.67057)">
            <stop stop-color="white"></stop>
            <stop offset="1" stop-color="#231F20"></stop>
            </radialGradient>
            <linearGradient id="paint38_linear_102_65" x1="690.638" y1="332.496" x2="690.638" y2="405.836" gradientUnits="userSpaceOnUse">
            <stop stop-color="white"></stop>
            <stop offset="1" stop-color="#231F20"></stop>
            </linearGradient>
            <radialGradient id="paint39_radial_102_65" cx="0" cy="0" r="1" gradientUnits="userSpaceOnUse" gradientTransform="translate(690.651 332.716) rotate(-29.7076) scale(15.343 15.3328)">
            <stop stop-color="#F19C7D"></stop>
            <stop offset="1" stop-color="#131313" stop-opacity="0"></stop>
            </radialGradient>
            <radialGradient id="paint40_radial_102_65" cx="0" cy="0" r="1" gradientUnits="userSpaceOnUse" gradientTransform="translate(690.672 332.487) rotate(-2.09724) scale(4.67671 4.67058)">
            <stop stop-color="white"></stop>
            <stop offset="1" stop-color="#231F20"></stop>
            </radialGradient>
            <clipPath id="clip0_102_65">
            <rect width="750" height="649" fill="white" class="svg-elem-149"></rect>
            </clipPath>
            <clipPath id="clip1_102_65">
            <rect width="717" height="539" fill="white" transform="translate(2 110)" class="svg-elem-150"></rect>
            </clipPath>
            <clipPath id="clip2_102_65">
            <rect width="825" height="455" fill="white" transform="translate(17)" class="svg-elem-151"></rect>
            </clipPath>
            </defs>
            </svg>