<svg width="142" height="43" viewBox="0 0 142 43" fill="none" xmlns="http://www.w3.org/2000/svg">
<path d="M17.4569 34.0722L14.302 37.858C5.04808 27.1316 6.73062 19.1394 17.0362 13.671C9.75377 20.191 9.88535 28.1832 17.4569 34.0722Z" fill="#699CE2"/>
<path fill-rule="evenodd" clip-rule="evenodd" d="M25.8611 23.557C27.7603 21.1741 28.8636 18.2502 29.0082 15.1991C29.1596 12.0023 28.2502 8.84516 26.4213 6.2189C24.5924 3.59264 21.9466 1.64458 18.8958 0.677887C15.845 -0.288809 12.5601 -0.219921 9.55251 0.873829C6.54488 1.96758 3.98315 4.02484 2.26596 6.72547C0.54878 9.4261 -0.227538 12.6186 0.0578209 15.8062C0.257374 18.0353 0.968293 20.1745 2.11974 22.0641C2.11435 22.0707 2.10896 22.0773 2.10357 22.0839L2.27197 22.3084C2.66734 22.9292 3.11104 23.5216 3.60046 24.0797L5.88937 27.1316C6.49664 20.7194 8.41978 17.7903 14.5126 13.671C10.2914 14.7338 7.75964 16.1093 5.1446 18.6789C4.68931 17.6554 4.40178 16.5572 4.30055 15.4264C4.09895 13.1744 4.6474 10.919 5.86054 9.01107C7.07369 7.10314 8.88349 5.64974 11.0083 4.87703C13.1331 4.10432 15.4538 4.05566 17.6091 4.7386C19.7645 5.42155 21.6336 6.7978 22.9257 8.65319C24.2177 10.5086 24.8603 12.739 24.7532 14.9975C24.6462 17.2559 23.7957 19.4156 22.334 21.1405C20.9318 22.7951 19.0427 23.9606 16.9401 24.4731C15.6606 22.6095 15.8899 20.5484 17.0354 16.1948C12.4083 22.5045 13.4598 27.9728 19.5593 31.5483L25.8688 23.5561L25.8611 23.557Z" fill="white"/>
<path d="M52.3218 28.3155H46.5474L45.3926 32.0001H39.8932L46.5474 12.7523H52.3218L58.976 32.0001H53.4766L52.3218 28.3155ZM51.0294 23.9435L49.4346 18.4166L47.8398 23.9435H51.0294ZM61.8791 32.0001V17.5367H57.947V12.7523H71.338V17.5367H67.3509V32.0001H61.8791ZM80.5077 12.7523L84.7972 24.191L89.1417 12.7523H96.2359V32.0001H91.0115V20.2864L87.2995 30.4877H82.3225L78.6379 20.2864V32.0001H73.3861V12.7523H80.5077ZM102.842 31.6976C102.403 32.1375 101.853 32.3575 101.193 32.3575C100.533 32.3575 99.9736 32.1375 99.5154 31.6976C99.0754 31.2393 98.8554 30.6894 98.8554 30.0478C98.8554 29.3879 99.0754 28.8288 99.5154 28.3705C99.9736 27.9122 100.533 27.6831 101.193 27.6831C101.853 27.6831 102.403 27.9122 102.842 28.3705C103.301 28.8288 103.53 29.3879 103.53 30.0478C103.53 30.6894 103.301 31.2393 102.842 31.6976ZM106.063 32.0001V12.1198H109.857V19.1315C110.151 18.7283 110.664 18.3158 111.397 17.8942C112.13 17.4726 113.038 17.2618 114.119 17.2618C116.172 17.2618 117.822 17.9675 119.069 19.379C120.315 20.7722 120.939 22.587 120.939 24.8234C120.939 27.0415 120.279 28.8563 118.959 30.2678C117.657 31.6609 115.971 32.3575 113.899 32.3575C112.836 32.3575 111.938 32.1559 111.205 31.7526C110.49 31.331 109.967 30.9185 109.637 30.5152V32.0001H106.063ZM109.747 24.8509C109.747 26.0241 110.077 27.014 110.737 27.8205C111.416 28.6088 112.314 29.0029 113.432 29.0029C114.514 29.0029 115.393 28.6271 116.072 27.8755C116.768 27.124 117.117 26.1157 117.117 24.8509C117.117 23.6044 116.777 22.587 116.099 21.7987C115.421 21.0105 114.532 20.6164 113.432 20.6164C112.35 20.6164 111.461 20.9922 110.765 21.7437C110.087 22.4953 109.747 23.531 109.747 24.8509ZM123.114 32.0001V17.6192H126.909V32.0001H123.114ZM123.417 15.7219C122.995 15.3003 122.784 14.7779 122.784 14.1546C122.784 13.5314 122.995 13.0181 123.417 12.6148C123.838 12.1932 124.361 11.9824 124.984 11.9824C125.625 11.9824 126.157 12.1932 126.579 12.6148C127 13.0181 127.211 13.5314 127.211 14.1546C127.211 14.7779 127 15.3003 126.579 15.7219C126.157 16.1252 125.625 16.3269 124.984 16.3269C124.361 16.3269 123.838 16.1252 123.417 15.7219ZM140.384 19.9839L133.895 28.8379H140.467V32.0001H129.193V29.6628L135.682 20.7814H129.385V17.6192H140.384V19.9839Z" fill="white"/>
<ellipse opacity="0.2" cx="14.1314" cy="41.2453" rx="8.78371" ry="1.5276" fill="white"/>
</svg>
