<svg xmlns="http://www.w3.org/2000/svg" viewBox="0 0 256 256" width="256" height="256">
  <defs>
    <g id="myShape">
      <path d="M200.615 563.176C190.307 558.898 185.413 547.057 189.682 536.729C193.952 526.4 205.768 521.496 216.075 525.774C226.383 530.052 231.277 541.893 227.008 552.221C222.738 562.55 210.922 567.455 200.615 563.176Z" fill="#F1B400" />
      <path opacity="0.3" d="M201.751 560.428C192.959 556.778 188.783 546.678 192.425 537.867C196.067 529.057 206.147 524.873 214.939 528.522C223.732 532.172 227.907 542.273 224.265 551.083C220.623 559.893 210.543 564.077 201.751 560.428Z" fill="white" />
      <path d="M207.104 553.78V556.697H209.239V553.8C211.781 553.644 214.245 552.808 215.604 551.641L214.439 549.016C213.158 550.066 211.218 550.805 209.239 551V545.788C212.13 545.088 215.215 544.155 215.215 540.538C215.215 537.894 213.294 535.56 209.239 535.171V532.235H207.104V535.133C205.183 535.23 203.243 535.813 201.826 536.727L202.893 539.352C204.271 538.535 205.726 538.108 207.104 537.952V543.202C204.213 543.902 201.089 544.816 201.089 548.433C201.089 551.077 203.029 553.372 207.104 553.8V553.78ZM209.239 542.638V538.01C211.082 538.302 211.858 539.235 211.858 540.383C211.858 541.627 210.733 542.21 209.239 542.638ZM204.407 548.647C204.407 547.363 205.552 546.78 207.104 546.333V550.941C205.202 550.65 204.407 549.775 204.407 548.647Z" fill="#FFA412" />
    </g>
  </defs>
  
  <use xlink:href="#myShape" />
</svg>
