<svg width="206" height="206" viewBox="0 0 206 206" fill="none" xmlns="http://www.w3.org/2000/svg">
<mask id="path-1-inside-1_106_67" fill="white">
<path d="M167.734 140.228C176.168 125.62 179.442 108.6 177.029 91.9055C174.617 75.2112 166.658 59.8141 154.433 48.1917C142.209 36.5694 126.429 29.3978 109.634 27.831C92.8397 26.2642 76.0062 30.3932 61.8427 39.5537C47.6792 48.7142 37.0095 62.3734 31.5504 78.3333C26.0914 94.2932 26.1605 111.626 31.7467 127.541C37.3329 143.457 48.1113 157.031 62.3475 166.078C76.5836 175.125 93.4495 179.12 110.231 177.419L107.016 145.695C97.3552 146.674 87.6457 144.374 79.4503 139.166C71.2548 133.958 65.0498 126.144 61.834 116.981C58.6181 107.819 58.5783 97.8409 61.721 88.653C64.8636 79.4652 71.006 71.6019 79.1597 66.3283C87.3133 61.0548 97.0041 58.6778 106.673 59.5798C116.341 60.4818 125.425 64.6103 132.462 71.3011C139.5 77.9918 144.082 86.8557 145.471 96.4663C146.859 106.077 144.975 115.875 140.119 124.285L167.734 140.228Z"/>
</mask>
<path d="M167.734 140.228C176.168 125.62 179.442 108.6 177.029 91.9055C174.617 75.2112 166.658 59.8141 154.433 48.1917C142.209 36.5694 126.429 29.3978 109.634 27.831C92.8397 26.2642 76.0062 30.3932 61.8427 39.5537C47.6792 48.7142 37.0095 62.3734 31.5504 78.3333C26.0914 94.2932 26.1605 111.626 31.7467 127.541C37.3329 143.457 48.1113 157.031 62.3475 166.078C76.5836 175.125 93.4495 179.12 110.231 177.419L107.016 145.695C97.3552 146.674 87.6457 144.374 79.4503 139.166C71.2548 133.958 65.0498 126.144 61.834 116.981C58.6181 107.819 58.5783 97.8409 61.721 88.653C64.8636 79.4652 71.006 71.6019 79.1597 66.3283C87.3133 61.0548 97.0041 58.6778 106.673 59.5798C116.341 60.4818 125.425 64.6103 132.462 71.3011C139.5 77.9918 144.082 86.8557 145.471 96.4663C146.859 106.077 144.975 115.875 140.119 124.285L167.734 140.228Z" stroke="#33384B" stroke-width="4" mask="url(#path-1-inside-1_106_67)"/>
<path d="M119.855 184.903C129.558 183.101 138.81 179.406 147.085 174.028C155.36 168.65 162.494 161.695 168.081 153.56L141.796 135.509C138.579 140.192 134.472 144.196 129.709 147.292C124.945 150.387 119.619 152.515 114.033 153.552L119.855 184.903Z" fill="#F19C7D"/>
</svg>
