<svg width="293" height="213" viewBox="0 0 293 213" fill="none" xmlns="http://www.w3.org/2000/svg">
<g clip-path="url(#clip0_101_60)">
<rect x="155.629" y="32.6293" width="136.808" height="231.453" rx="10.3203" fill="#8F83FF" stroke="black" stroke-width="1.25858"/>
<path d="M156.385 41.817C156.385 38.2025 159.315 35.2723 162.929 35.2723H278.593C284.64 35.2723 289.543 40.1747 289.543 46.222V253.51C289.543 259.001 285.091 263.453 279.6 263.453H165.95C160.667 263.453 156.385 259.17 156.385 253.887V41.817Z" fill="#5347EC"/>
<rect x="165.827" y="67.2403" width="115.789" height="95.9036" fill="#B7B7B7" stroke="black" stroke-width="1.25858"/>
<path d="M257.704 84.4198H190.495L165.953 67.3661H281.491L257.704 84.4198Z" fill="#999999"/>
<path d="M190.495 84.4198L190.136 84.9366L190.298 85.0491H190.495V84.4198ZM257.704 84.4198V85.0491H257.906L258.07 84.9313L257.704 84.4198ZM281.491 67.3661L281.857 67.8775C282.08 67.7182 282.174 67.4338 282.09 67.1735C282.006 66.9133 281.764 66.7368 281.491 66.7368V67.3661ZM165.953 67.3661V66.7368C165.678 66.7368 165.435 66.9155 165.353 67.1779C165.27 67.4404 165.368 67.7259 165.594 67.8829L165.953 67.3661ZM190.495 85.0491H257.704V83.7905H190.495V85.0491ZM258.07 84.9313L281.857 67.8775L281.124 66.8547L257.337 83.9084L258.07 84.9313ZM281.491 66.7368H165.953V67.9954H281.491V66.7368ZM165.594 67.8829L190.136 84.9366L190.855 83.903L166.312 66.8493L165.594 67.8829Z" fill="black"/>
<path d="M266.514 146.531H181.685L165.953 163.081H281.491L266.514 146.531Z" fill="#D3D3D3"/>
<path d="M181.685 146.531L181.229 146.097L181.415 145.901H181.685V146.531ZM266.514 146.531V145.901H266.793L266.98 146.108L266.514 146.531ZM281.491 163.081L281.957 162.659C282.124 162.843 282.167 163.109 282.066 163.336C281.965 163.564 281.74 163.71 281.491 163.71V163.081ZM165.953 163.081V163.71C165.701 163.71 165.474 163.56 165.375 163.329C165.276 163.098 165.324 162.83 165.497 162.647L165.953 163.081ZM181.685 145.901H266.514V147.16H181.685V145.901ZM266.98 146.108L281.957 162.659L281.024 163.503L266.047 146.953L266.98 146.108ZM281.491 163.71H165.953V162.452H281.491V163.71ZM165.497 162.647L181.229 146.097L182.141 146.964L166.409 163.514L165.497 162.647Z" fill="black"/>
<path d="M266.639 146.405H181.811L190.621 84.2311H257.451L266.639 146.405Z" fill="#D8D8D8" stroke="black" stroke-width="1.25858"/>
<path d="M190.744 135.581L225.607 135.581" stroke="black" stroke-width="1.25858" stroke-linecap="round"/>
<path d="M188.883 140.24L223.745 140.24" stroke="black" stroke-width="1.25858" stroke-linecap="round"/>
<path d="M246.088 90.9645H203.756C202.497 90.9645 201.432 91.8946 201.262 93.1421L196.85 125.55C196.644 127.062 197.819 128.407 199.344 128.407H250.12C251.634 128.407 252.805 127.081 252.618 125.579L248.586 93.1708C248.429 91.9105 247.358 90.9645 246.088 90.9645Z" fill="url(#paint0_linear_101_60)"/>
<path d="M246.088 90.9645H203.756C202.497 90.9645 201.432 91.8946 201.262 93.1421L196.85 125.55C196.644 127.062 197.819 128.407 199.344 128.407H250.12C251.634 128.407 252.805 127.081 252.618 125.579L248.586 93.1708C248.429 91.9105 247.358 90.9645 246.088 90.9645Z" fill="#5347EC"/>
<path d="M246.088 90.9645H203.756C202.497 90.9645 201.432 91.8946 201.262 93.1421L196.85 125.55C196.644 127.062 197.819 128.407 199.344 128.407H250.12C251.634 128.407 252.805 127.081 252.618 125.579L248.586 93.1708C248.429 91.9105 247.358 90.9645 246.088 90.9645Z" stroke="black" stroke-width="1.25858" stroke-linecap="round"/>
<path d="M224.222 159.117H175.598C175.377 159.117 175.263 158.852 175.415 158.691L183.244 150.448C183.291 150.398 183.357 150.369 183.426 150.369H224.222C224.361 150.369 224.474 150.482 224.474 150.621V158.865C224.474 159.004 224.361 159.117 224.222 159.117Z" fill="#C7C6C2" stroke="black" stroke-width="1.25858"/>
<path d="M183.38 152.824L178.031 158.424L223.907 158.613V152.824H183.38Z" fill="#999999"/>
<path d="M231.146 153.327V150.495C231.146 150.356 231.259 150.244 231.398 150.244H264.574C264.646 150.244 264.715 150.274 264.763 150.328L267.274 153.16C267.418 153.322 267.303 153.579 267.086 153.579H231.398C231.259 153.579 231.146 153.466 231.146 153.327Z" fill="#33384B" stroke="black" stroke-width="1.25858"/>
<path d="M231.146 158.991V156.159C231.146 156.02 231.259 155.907 231.398 155.907H269.86C269.932 155.907 270.001 155.938 270.049 155.992L272.56 158.824C272.704 158.986 272.589 159.242 272.372 159.242H231.398C231.259 159.242 231.146 159.13 231.146 158.991Z" fill="#33384B" stroke="black" stroke-width="1.25858"/>
<path d="M232.143 141.745V132.683C232.143 132.475 232.312 132.306 232.52 132.306H252.709C252.896 132.306 253.055 132.443 253.083 132.628L254.419 141.69C254.452 141.918 254.276 142.122 254.045 142.122H232.52C232.312 142.122 232.143 141.953 232.143 141.745Z" fill="#515669" stroke="black" stroke-width="1.25858" stroke-linecap="round"/>
<path d="M234.723 139.165V135.2C234.723 134.992 234.892 134.823 235.1 134.823H250.632C250.819 134.823 250.978 134.96 251.006 135.145L251.587 139.11C251.621 139.338 251.444 139.542 251.214 139.542H235.1C234.892 139.542 234.723 139.373 234.723 139.165Z" fill="#F19C7D" stroke="black" stroke-width="1.25858" stroke-linecap="round"/>
<path d="M235.354 135.389H250.456L250.582 136.648H235.354V135.389Z" fill="#F3BFA5"/>
<path d="M165.827 162.892H281.616V246.084C281.616 249.212 279.08 251.748 275.952 251.748H171.49C168.362 251.748 165.827 249.212 165.827 246.084V162.892Z" fill="#515669" stroke="black" stroke-width="1.25858"/>
<rect x="176.776" y="171.702" width="94.6453" height="21.1441" rx="2.89473" fill="#656A7D" stroke="black" stroke-width="1.25858"/>
<path d="M177.404 173.716H266.386C268.054 173.716 269.407 175.068 269.407 176.737V192.217H179.67C178.419 192.217 177.404 191.203 177.404 189.952V173.716Z" fill="#33384B"/>
<rect x="176.776" y="199.013" width="94.6453" height="43.9244" rx="2.89473" fill="#656A7D" stroke="black" stroke-width="1.25858"/>
<path d="M177.404 201.027H266.386C268.054 201.027 269.407 202.379 269.407 204.048V242.308H179.67C178.419 242.308 177.404 241.294 177.404 240.043V201.027Z" fill="#33384B"/>
<rect x="165.827" y="39.2997" width="115.789" height="21.1441" rx="2.89473" fill="#FFC4A5" stroke="black" stroke-width="1.25858"/>
<path d="M166.732 41.3135H275.998C277.666 41.3135 279.019 42.6658 279.019 44.3341V59.8146H168.998C167.747 59.8146 166.732 58.8003 166.732 57.5491V41.3135Z" fill="#F19C7D"/>
<path d="M192.267 54.0823V46.6275H195.5C196.067 46.6275 196.544 46.704 196.93 46.8569C197.318 47.0097 197.611 47.2257 197.807 47.5048C198.006 47.7838 198.106 48.1127 198.106 48.4912C198.106 48.7654 198.045 49.0154 197.924 49.2411C197.805 49.4667 197.638 49.656 197.422 49.8089C197.206 49.9594 196.953 50.0637 196.664 50.1219V50.1947C196.985 50.2069 197.276 50.2882 197.538 50.4386C197.8 50.5867 198.009 50.7917 198.164 51.0538C198.319 51.3134 198.397 51.6192 198.397 51.9711C198.397 52.3788 198.29 52.7415 198.077 53.0594C197.866 53.3773 197.565 53.6273 197.174 53.8093C196.783 53.9913 196.317 54.0823 195.776 54.0823H192.267ZM194.291 52.4661H195.238C195.577 52.4661 195.832 52.403 196.002 52.2768C196.172 52.1482 196.257 51.9589 196.257 51.709C196.257 51.5343 196.217 51.3862 196.137 51.2649C196.057 51.1436 195.942 51.0514 195.794 50.9883C195.649 50.9252 195.473 50.8936 195.267 50.8936H194.291V52.4661ZM194.291 49.6415H195.121C195.298 49.6415 195.455 49.6136 195.591 49.5577C195.727 49.5019 195.832 49.4219 195.907 49.3175C195.985 49.2107 196.024 49.0809 196.024 48.928C196.024 48.6975 195.941 48.5216 195.776 48.4002C195.611 48.2765 195.403 48.2146 195.15 48.2146H194.291V49.6415ZM199.143 54.0823V48.4912H201.153V54.0823H199.143ZM200.148 47.9088C199.876 47.9088 199.643 47.819 199.449 47.6395C199.255 47.4599 199.158 47.2439 199.158 46.9915C199.158 46.7392 199.255 46.5232 199.449 46.3436C199.643 46.164 199.876 46.0743 200.148 46.0743C200.422 46.0743 200.655 46.164 200.847 46.3436C201.041 46.5232 201.138 46.7392 201.138 46.9915C201.138 47.2439 201.041 47.4599 200.847 47.6395C200.655 47.819 200.422 47.9088 200.148 47.9088ZM205.511 48.4912V49.9472H201.827V48.4912H205.511ZM202.54 47.1517H204.55V52.2841C204.55 52.3618 204.563 52.4273 204.59 52.4807C204.616 52.5316 204.658 52.5705 204.713 52.5972C204.769 52.6214 204.841 52.6336 204.928 52.6336C204.989 52.6336 205.059 52.6263 205.139 52.6117C205.222 52.5972 205.282 52.585 205.321 52.5753L205.612 53.9876C205.523 54.0143 205.394 54.0471 205.227 54.0859C205.062 54.1247 204.865 54.1502 204.637 54.1624C204.176 54.1866 203.789 54.1393 203.476 54.0204C203.163 53.8991 202.927 53.7086 202.77 53.4489C202.612 53.1893 202.535 52.8641 202.54 52.4734V47.1517ZM208.964 54.1842C208.357 54.1842 207.838 54.0641 207.406 53.8238C206.974 53.5812 206.643 53.2439 206.412 52.8119C206.182 52.3775 206.067 51.874 206.067 51.3013C206.067 50.7286 206.182 50.2263 206.412 49.7943C206.643 49.36 206.974 49.0227 207.406 48.7824C207.838 48.5398 208.357 48.4184 208.964 48.4184C209.512 48.4184 209.987 48.5179 210.387 48.7169C210.79 48.9135 211.102 49.1925 211.323 49.5541C211.544 49.9133 211.655 50.3355 211.658 50.8208H209.794C209.767 50.5272 209.682 50.3039 209.539 50.1511C209.398 49.9958 209.216 49.9181 208.993 49.9181C208.818 49.9181 208.666 49.9691 208.534 50.071C208.403 50.1705 208.302 50.3221 208.229 50.526C208.156 50.7274 208.12 50.981 208.12 51.2867C208.12 51.5925 208.156 51.8473 208.229 52.0512C208.302 52.2526 208.403 52.4042 208.534 52.5062C208.666 52.6056 208.818 52.6554 208.993 52.6554C209.141 52.6554 209.272 52.6214 209.386 52.5535C209.5 52.4831 209.593 52.3812 209.663 52.2477C209.736 52.1118 209.779 51.9468 209.794 51.7527H211.658C211.65 52.2453 211.537 52.6748 211.319 53.0412C211.101 53.4052 210.791 53.6867 210.391 53.8857C209.993 54.0847 209.517 54.1842 208.964 54.1842ZM215.18 54.1842C214.574 54.1842 214.054 54.0641 213.622 53.8238C213.19 53.5812 212.859 53.2439 212.629 52.8119C212.398 52.3775 212.283 51.874 212.283 51.3013C212.283 50.7286 212.398 50.2263 212.629 49.7943C212.859 49.36 213.19 49.0227 213.622 48.7824C214.054 48.5398 214.574 48.4184 215.18 48.4184C215.787 48.4184 216.306 48.5398 216.738 48.7824C217.17 49.0227 217.501 49.36 217.732 49.7943C217.962 50.2263 218.078 50.7286 218.078 51.3013C218.078 51.874 217.962 52.3775 217.732 52.8119C217.501 53.2439 217.17 53.5812 216.738 53.8238C216.306 54.0641 215.787 54.1842 215.18 54.1842ZM215.195 52.6991C215.365 52.6991 215.511 52.642 215.635 52.528C215.759 52.4139 215.855 52.2514 215.923 52.0402C215.991 51.8291 216.025 51.5779 216.025 51.2867C216.025 50.9931 215.991 50.742 215.923 50.5333C215.855 50.3221 215.759 50.1596 215.635 50.0455C215.511 49.9315 215.365 49.8744 215.195 49.8744C215.015 49.8744 214.861 49.9315 214.733 50.0455C214.604 50.1596 214.506 50.3221 214.438 50.5333C214.37 50.742 214.336 50.9931 214.336 51.2867C214.336 51.5779 214.37 51.8291 214.438 52.0402C214.506 52.2514 214.604 52.4139 214.733 52.528C214.861 52.642 215.015 52.6991 215.195 52.6991ZM218.893 54.0823V48.4912H220.902V54.0823H218.893ZM219.898 47.9088C219.626 47.9088 219.393 47.819 219.199 47.6395C219.005 47.4599 218.908 47.2439 218.908 46.9915C218.908 46.7392 219.005 46.5232 219.199 46.3436C219.393 46.164 219.626 46.0743 219.898 46.0743C220.172 46.0743 220.405 46.164 220.597 46.3436C220.791 46.5232 220.888 46.7392 220.888 46.9915C220.888 47.2439 220.791 47.4599 220.597 47.6395C220.405 47.819 220.172 47.9088 219.898 47.9088ZM223.935 50.9373V54.0823H221.926V48.4912H223.833V49.5541H223.892C224.013 49.1998 224.227 48.922 224.532 48.7205C224.841 48.5191 225.2 48.4184 225.61 48.4184C226.005 48.4184 226.349 48.5094 226.64 48.6914C226.934 48.871 227.16 49.1185 227.321 49.434C227.483 49.7495 227.563 50.1098 227.561 50.5151V54.0823H225.552V50.9373C225.554 50.6607 225.484 50.4435 225.34 50.2857C225.2 50.128 225.003 50.0491 224.751 50.0491C224.586 50.0491 224.441 50.0855 224.318 50.1583C224.196 50.2287 224.103 50.3306 224.037 50.4641C223.972 50.5951 223.938 50.7529 223.935 50.9373ZM232.502 54.0823H230.318L232.779 46.6275H235.545L238.006 54.0823H235.822L234.191 48.6805H234.133L232.502 54.0823ZM232.094 51.1411H236.2V52.6554H232.094V51.1411ZM237.579 48.2583V46.6275H244.058V48.2583H241.816V54.0823H239.821V48.2583H237.579ZM244.82 46.6275H247.339L249.071 50.8499H249.159L250.891 46.6275H253.41V54.0823H251.43V49.7725H251.372L249.712 54.024H248.518L246.858 49.7434H246.8V54.0823H244.82V46.6275Z" fill="white"/>
</g>
<g clip-path="url(#clip1_101_60)">
<path d="M89.8603 250.54C84.8903 280.81 34.3103 320.28 34.3103 320.28C23.0403 309.3 22.0603 307.64 18.8203 294.75L52.6803 244.62L41.1503 158.23L81.6203 158.67C81.6203 158.67 93.6203 227.61 89.8503 250.54H89.8603Z" fill="#F19C7D"/>
<path d="M75.5005 250.16C75.8405 267.04 65.1605 322.84 65.1605 322.84C56.1505 326.13 47.7805 326.59 35.3905 322.84L40.0505 251.86C40.0505 251.86 29.2405 215.6 27.2905 207.27C21.0805 180.74 26.4905 160.08 26.4905 160.08L61.5105 161.11C61.5105 161.11 75.2305 237.06 75.4905 250.16H75.5005Z" fill="#F19C7D"/>
<path opacity="0.3" d="M30.6094 169.22C34.4894 171.64 38.8394 173.4 43.3494 174.67C50.3994 176.64 57.8394 177.4 64.4294 177.57C74.6594 177.82 82.8594 176.66 84.4494 176.41C82.8894 165.87 81.6294 158.66 81.6294 158.66L68.5394 158.52L59.5894 161.05L42.1894 165.95L30.6094 169.22Z" fill="#D35046"/>
<path d="M22.4004 170.69C22.4004 170.69 63.1804 181.22 87.2904 169.5L79.6304 93.39L61.6804 80.72L42.1604 80.29L24.9604 87.9L22.4004 170.69Z" fill="#5347EC"/>
<path d="M104.069 126.04C104.069 126.04 94.3695 101.27 84.6695 90.04C77.7695 82.05 62.1895 80.71 62.1895 80.71L79.8895 123.64C79.8895 123.64 91.7995 122.26 104.069 126.04Z" fill="#5347EC"/>
<path d="M59.1404 119.01H68.6904C69.4504 119.01 70.0904 118.43 70.1904 117.65L73.9104 95.0801C74.0304 94.1401 73.3304 93.3 72.4104 93.3H62.8604C62.1004 93.3 61.4604 93.88 61.3604 94.66L57.6404 117.23C57.5204 118.17 58.2204 119.01 59.1404 119.01Z" fill="#48393E"/>
<path d="M80.9263 109.262L80.1816 109.352L83.1063 133.627L83.8509 133.537L80.9263 109.262Z" fill="#48393E"/>
<path d="M105.1 141.04C105.06 141.21 105.02 141.37 104.98 141.53C103.43 147.38 98.3504 150.77 93.2104 149.67C90.0704 149.01 86.8604 149.57 83.8904 144.48C77.3804 133.33 73.9904 116.26 73.9904 116.26C70.9304 117.36 69.7004 115.24 68.0204 115C66.3304 114.76 63.2704 116.31 63.1804 114.85C63.1004 113.38 67.9104 112.79 67.9104 112.79C67.9104 112.79 65.7604 112.31 63.9804 112.34C62.7104 112.37 61.7704 112.23 61.8604 111.56C61.9904 110.53 65.0304 110.29 65.0304 110.29L67.9904 109.61C67.9904 109.61 65.3304 108.86 64.0904 109.14C62.8504 109.42 60.9104 109.45 60.7904 108.54C60.6804 107.64 63.3904 107.24 64.2704 106.89C65.1504 106.53 67.5304 106.76 67.5304 106.76C67.5304 106.76 65.9404 105.86 64.9204 105.84C64.1004 105.82 62.2404 106.23 62.0604 105.38C61.8804 104.49 65.7204 103.19 66.9104 103.43C68.1104 103.67 73.3204 106.46 74.2704 107.35C74.9004 107.94 96.1404 126.45 98.3504 128.9C104.42 135.63 104.5 137.93 105.08 141.04H105.1Z" fill="#F3B1C1"/>
<path d="M82.1206 87.49C93.6106 102.55 121.701 142.88 100.411 150.81C79.5006 158.6 73.1406 124.86 73.1406 124.86C79.7206 123.45 83.3506 120.64 84.8506 116.83L82.1206 87.49Z" fill="#5347EC"/>
<path d="M26.5 177.47L34.21 185.41C37.67 184.3 39.79 181.76 41.04 179.51L34.69 170.4L26.5 177.46V177.47Z" fill="#F3B1C1"/>
<path d="M30.31 186.51C31.75 186.51 33.11 186.3 34.37 185.89C37.31 184.94 39.77 182.82 41.48 179.76C42.75 177.5 43.15 175.56 43.17 175.47L42.19 175.27C42.19 175.27 41.8 177.15 40.61 179.27C39 182.15 36.8 184.06 34.06 184.94C32.55 185.43 30.88 185.6 29.08 185.46L29 186.46C29.44 186.5 29.88 186.52 30.31 186.52V186.51Z" fill="white"/>
<path d="M3.62988 145.38C6.49988 161.55 27.1199 181.77 27.1199 181.77C32.3999 179.86 36.6899 176.68 40.1399 172.45C40.1399 172.45 27.7799 147.15 27.2399 137.7C26.4799 124.32 36.3999 94.67 40.1099 84.11C40.9099 81.87 41.4099 80.49 41.4799 80.3C41.4799 80.29 41.4799 80.28 41.4799 80.28C41.4799 80.28 41.3999 80.29 41.2499 80.31H41.2199C40.7799 80.38 39.8299 80.53 38.4999 80.8C33.5699 81.82 23.4499 84.57 15.0599 91.04C4.71988 99.04 1.23988 131.98 3.62988 145.38Z" fill="#5347EC"/>
<path d="M37.7598 80.7901C37.7598 80.7901 45.7398 92.4901 55.4998 92.5201C64.9598 92.5501 64.3098 80.8701 64.3098 80.8701L50.5998 79.1801L41.7998 80.1501C41.7998 80.1501 39.0898 80.5201 37.7598 80.7901Z" fill="white"/>
<path d="M62.2502 83.33L60.0702 70.71L44.7502 59.13L41.1602 82.16C41.1602 82.16 57.9102 99.6 62.2602 83.33H62.2502Z" fill="#F3B1C1"/>
<path d="M61.6 79.5699C52.24 79.6699 48.75 71.7999 48.75 71.7999L60.48 73.0399L61.6 79.5699Z" fill="#48393E"/>
<path d="M72.2098 53.1C70.2098 63.82 67.5198 79.03 57.0298 76.83C45.5598 74.42 44.6198 62.66 44.7598 54C44.8298 49.65 48.1198 42.55 57.9798 43C70.2998 43.56 73.0198 48.77 72.2098 53.1Z" fill="#F3B1C1"/>
<path d="M42.7407 57.86C44.2707 62.51 49.4607 60.83 50.7407 59.86C52.4407 58.57 53.6507 54.86 54.4407 54.46C57.5107 52.89 67.8307 58.5 73.1107 55.96C77.7207 53.74 78.7407 43.19 71.7607 39.44C63.2007 34.85 47.9307 42.76 47.9307 42.76C47.9307 42.76 37.0707 40.58 42.7407 57.87V57.86Z" fill="#33384B"/>
<path d="M47.7298 59.55C48.0298 57.26 45.8198 55.33 43.7898 56.26C43.1598 56.55 42.5898 57.06 42.1998 57.91C40.5998 61.38 42.9798 64.68 47.0798 64.52L47.7298 59.55Z" fill="#F3B1C1"/>
<path d="M38.8197 172.64C38.7097 172.46 28.0397 154.27 27.7897 140.97C27.4997 125.82 30.1597 115.86 30.1897 115.76L30.9097 115.96C30.8797 116.06 28.2497 125.93 28.5397 140.96C28.7897 154.07 39.3597 172.08 39.4697 172.26L38.8297 172.64H38.8197Z" fill="#48393E"/>
<path d="M86.3229 115.917L85.8535 116.502L99.9948 127.848L100.464 127.263L86.3229 115.917Z" fill="#48393E"/>
<path d="M85.0998 149.37C85.0298 149.29 78.0698 141.53 73.5898 124.77L74.3098 124.58C78.7398 141.14 85.5798 148.79 85.6498 148.87L85.0998 149.38V149.37Z" fill="#48393E"/>
<path d="M72.6795 281.12L71.9395 281.01C74.1695 266.1 75.2394 255.72 75.1294 250.17C74.9894 243.13 70.8895 217.6 67.4795 197.42L67.4395 197.19L72.0095 193.94L72.4395 194.55L68.2495 197.53C71.6595 217.7 75.7295 243.1 75.8695 250.15C75.9795 255.75 74.9094 266.17 72.6694 281.12H72.6795Z" fill="white"/>
<path d="M29.1705 125.45L28.4805 125.16C29.7505 122.11 32.0505 118.01 32.0705 117.97L32.7205 118.34C32.7205 118.34 30.4205 122.44 29.1605 125.45H29.1705Z" fill="#48393E"/>
<path d="M32.2107 104.12C31.2207 93.2401 23.5507 89.1401 23.4707 89.1001L23.8107 88.4301C23.8907 88.4701 31.9207 92.7401 32.9507 104.05L32.2007 104.12H32.2107Z" fill="#48393E"/>
</g>
<g clip-path="url(#clip2_101_60)">
<path d="M199.314 66H99.6864C95.9936 66 93 68.9869 93 72.6715V173.329C93 177.013 95.9936 180 99.6864 180H199.314C203.006 180 206 177.013 206 173.329V72.6715C206 68.9869 203.006 66 199.314 66Z" fill="white"/>
<path d="M183.964 107.117V117.821H180.304V106.988H176.658V99.6838H183.855V103.288L198.359 103.309V124.921H194.747V128.906H198.359V146.323L187.434 146.33V142.542H191.162V139.026H194.747V132.579H191.141L191.135 124.901H194.747V121.371H187.584L187.563 128.906H183.964V132.286H183.944V132.3L180.352 132.293L180.338 124.996H180.345V124.989H183.951L183.964 117.821H194.747V107.131L183.964 107.117Z" fill="#131313"/>
<path d="M100.729 74.358V96.3311H122.676V74.358H100.729ZM119.016 92.5091H104.389V78.01H119.016V92.5091Z" fill="#131313"/>
<path d="M115.356 81.6688H108.036V88.8844H115.356V81.6688Z" fill="#131313"/>
<path d="M100.729 149.975V171.778H122.676V149.975H100.729ZM119.016 168.126H104.389V153.627H119.016V168.126Z" fill="#131313"/>
<path d="M115.356 157.286H108.036V164.501H115.356V157.286Z" fill="#131313"/>
<path d="M176.419 74.358V96.161H198.366V74.358H176.419ZM194.706 92.5091H180.079V78.01H194.706V92.5091Z" fill="#131313"/>
<path d="M191.046 81.6688H183.726V88.8844H191.046V81.6688Z" fill="#131313"/>
<path d="M126.52 99.7859H122.683V103.39H126.52V99.7859Z" fill="#131313"/>
<path d="M166.618 90.1697H162.781V93.774H166.618V90.1697Z" fill="#131313"/>
<path d="M137.426 110.653H133.766V114.258H137.426V110.653Z" fill="#131313"/>
<path d="M191.203 110.83H187.543V114.435H191.203V110.83Z" fill="#131313"/>
<path d="M130.201 150.029H126.541V153.64H130.201V150.029Z" fill="#131313"/>
<path d="M133.813 139.577V157.245H137.412V164.549H133.813V168.16H130.194V153.634H130.201V150.029H130.194V139.563L115.397 139.509V142.725H115.39V142.739H115.397V142.725H119.05V146.33H111.778V142.739H104.458V139.128H108.118V135.884H111.737V128.886H115.397V135.904H126.732V132.45H130.392V135.904H133.888V132.463H137.501V139.59L133.813 139.577Z" fill="#131313"/>
<path d="M104.423 142.698H100.763V146.303H104.423V142.698Z" fill="#131313"/>
<path d="M141.052 92.5023V96.3515L137.419 96.3379H137.392V92.5023H141.052Z" fill="#131313"/>
<path d="M115.445 106.988H111.785V110.592H115.445V106.988Z" fill="#131313"/>
<path d="M111.784 99.8063H104.539V106.995H111.784V99.8063Z" fill="#131313"/>
<path d="M141.168 103.377H130.29V107.029H141.168V103.377Z" fill="#131313"/>
<path d="M133.759 99.7859H130.276V88.9456H137.405V92.5023H133.766L133.759 96.3379H137.392H137.419V103.343H133.759V99.7859Z" fill="#131313"/>
<path d="M180.297 110.633V114.285H176.699V117.774H170.251V125.261H173.904V128.913H162.944V125.234H166.591V121.405H162.931V114.394H166.57V110.647H170.23V114.278H173.816V110.647H173.829V110.633H180.297Z" fill="#131313"/>
<path d="M155.461 157.605H151.848V161.257H155.461V157.605Z" fill="#131313"/>
<path d="M180.338 117.821H176.726V124.996H180.338V117.821Z" fill="#131313"/>
<path d="M173.843 106.995V110.633H173.829V110.647H170.23V106.995H173.843Z" fill="#131313"/>
<path d="M173.829 110.633H173.815V110.647H173.829V110.633Z" fill="#131313"/>
<path d="M173.829 110.633H173.815V110.647H173.829V110.633Z" fill="#131313"/>
<path d="M187.556 132.286H183.944V135.938H187.556V132.286Z" fill="#131313"/>
<path d="M180.345 124.989H180.338V124.996H180.345V124.989Z" fill="#131313"/>
<path d="M183.964 132.286H183.944V132.3H183.964V132.286Z" fill="#131313"/>
<path d="M183.951 135.945H176.747V143.249H183.951V135.945Z" fill="#131313"/>
<path d="M151.916 81.6824H148.256V85.2867H151.916V81.6824Z" fill="#131313"/>
<path d="M141.059 85.3208H137.398V88.9252H141.059V85.3208Z" fill="#131313"/>
<path d="M130.262 85.3208H126.425V88.9252H130.262V85.3208Z" fill="#131313"/>
<path d="M144.685 78.731H141.072V85.2868H144.685V78.731Z" fill="#131313"/>
<path d="M159.23 74.222V77.8332H155.522V81.7096H151.91V74.222H159.23Z" fill="#131313"/>
<path d="M141.065 164.556H137.405V168.16H141.065V164.556Z" fill="#131313"/>
<path d="M130.181 168.167H126.521V171.771H130.181V168.167Z" fill="#131313"/>
<path d="M152.223 164.549V168.153H144.903V157.973H148.515V164.549H152.223Z" fill="#131313"/>
<path d="M148.372 168.167H141.052V171.771H148.372V168.167Z" fill="#131313"/>
<path d="M166.625 151.294H166.598V153.654H166.625V151.294Z" fill="#131313"/>
<path d="M173.898 157.245H170.285V160.897H173.898V157.245Z" fill="#131313"/>
<path d="M166.625 151.294H166.611V153.654H166.625V151.294Z" fill="#131313"/>
<path d="M159.277 142.8V150.063V150.104H155.665V153.715H152.046V150.023H137.412V146.411H148.42V142.821H152.08V146.411H155.665V142.807H155.706V142.8H159.277Z" fill="#131313"/>
<path d="M159.203 103.377H155.542V107.029H159.203V103.377Z" fill="#131313"/>
<path d="M148.434 135.925V135.938H148.447V135.925H148.434ZM115.438 106.988V107.063H115.445V106.988H115.438Z" fill="#131313"/>
<path d="M123.044 125.336H130.317V128.947H126.705V132.538H123.044V125.336Z" fill="#131313"/>
<path d="M144.855 114.251V110.694H148.495V107.09H144.869L141.209 107.083L141.195 117.821H130.351L130.365 107.063L122.676 107.049V103.445L115.438 103.458V106.988V107.063H119.173V110.653L126.459 110.667L126.446 117.814H122.67V114.21H119.009L115.452 114.217V117.814H107.988V114.237H104.512V110.626H100.675V121.419H106.461V124.942H113.782V121.419H119.023V117.808H122.663L122.683 121.419H126.486V125.649H130.324V121.419H144.835H144.828V125.159H141.161V128.818H137.494V132.429H148.447V135.918H148.461V135.931H152.107V135.918V132.429H155.72V121.446H155.74V117.848H159.4V114.244H144.876L144.855 114.251ZM148.488 117.862H152.06V121.439H148.481V117.862H148.488ZM152.087 128.866H148.433V125.268H152.087V128.866Z" fill="#131313"/>
<path d="M166.571 107.008H159.196V110.619H166.571V107.008Z" fill="#131313"/>
<path d="M166.529 96.2903H162.917V96.3175H166.529V96.2903Z" fill="#131313"/>
<path d="M170.237 106.995H170.23V107.001H170.237V106.995Z" fill="#131313"/>
<path d="M159.236 85.3208V88.9728H155.535V103.363H152.066V107.029H148.454V99.7247H151.916V96.3311H144.65V85.3208H148.263V88.9728H151.909L151.916 85.3208H159.236Z" fill="#131313"/>
<path d="M172.691 77.9965V85.1984H165.371V81.5872H169.031V77.9965H172.691Z" fill="#131313"/>
<path d="M148.263 74.2289H144.65V81.7028H148.263V74.2289Z" fill="#131313"/>
<path d="M137.453 74.2493V85.3072H130.262V78.7513H133.834V74.2493H137.453Z" fill="#131313"/>
<path d="M148.447 135.925V142.814H141.127V139.556H144.828V135.925H148.447Z" fill="#131313"/>
<path d="M100.641 136.02V128.818H107.961V132.429H104.301V136.02H100.641Z" fill="#131313"/>
<path d="M159.318 132.348H155.706V138.903H159.318V132.348Z" fill="#131313"/>
<path d="M152.094 135.925H155.706V142.8H155.665V142.807H152.087V135.938H152.094V135.925Z" fill="#131313"/>
<path d="M170.237 103.424V106.995H170.23V107.001H162.917V96.3175H166.536V103.397H166.618V103.424H170.237Z" fill="#131313"/>
<path d="M177.333 145.881H173.72V149.533H177.333V145.881Z" fill="#131313"/>
<path d="M173.945 164.549V168.153H166.625L166.611 157.333H162.937V164.44H159.277V150.104V150.063H162.937V153.722H166.611V153.654H166.625V151.294H166.611L166.604 139.543H162.931V135.945H170.217V150.05H173.918V153.654H170.237V164.549H173.945Z" fill="#131313"/>
<path d="M191.107 153.647V157.49L187.447 157.476V153.647H191.107Z" fill="#131313"/>
<path d="M187.475 157.476V164.488H183.808V160.931H180.154V150.091H187.454V153.647H183.814V157.476H187.475Z" fill="#131313"/>
<path d="M198.332 160.822H191.101V164.474H198.332V160.822Z" fill="#131313"/>
<path d="M187.516 164.474H191.128V171.778H180.393V168.167H187.516V164.474Z" fill="#131313"/>
</g>
<path d="M120 15C127.5 15 135 7.5 135 0C135 7.5 142.5 15 150 15C142.5 15 135 22.5 135 30C135 22.5 127.5 15 120 15Z" fill="#705EF6"/>
<path d="M105 7.5C108.75 7.5 112.5 3.75 112.5 0C112.5 3.75 116.25 7.5 120 7.5C116.25 7.5 112.5 11.25 112.5 15C112.5 11.25 108.75 7.5 105 7.5Z" fill="#F19C7D"/>
<defs>
<linearGradient id="paint0_linear_101_60" x1="227.925" y1="92.0343" x2="200.488" y2="125.512" gradientUnits="userSpaceOnUse">
<stop stop-color="#6CDFE6"/>
<stop offset="1" stop-color="#3374EA"/>
</linearGradient>
<clipPath id="clip0_101_60">
<rect width="138" height="178" fill="white" transform="translate(155 32)"/>
</clipPath>
<clipPath id="clip1_101_60">
<rect width="108" height="175" fill="white" transform="translate(0 38)"/>
</clipPath>
<clipPath id="clip2_101_60">
<rect width="113" height="114" fill="white" transform="translate(93 66)"/>
</clipPath>
</defs>
</svg>
