<svg width="428" height="542" viewBox="0 0 428 542" fill="none" xmlns="http://www.w3.org/2000/svg">
<g clip-path="url(#clip0_101_62)">
<rect x="15" y="298" width="199" height="137" fill="#F19C7D"/>
<rect x="15" y="298" width="199" height="137" fill="#33384B"/>
<path d="M102 106L6 132L66 63L102 106Z" fill="#5347EC"/>
<g clip-path="url(#clip1_101_62)">
<mask id="path-3-inside-1_101_62" fill="white">
<rect x="14.2651" y="534.123" width="19.2253" height="7.59707" rx="0.775212"/>
</mask>
<rect x="14.2651" y="534.123" width="19.2253" height="7.59707" rx="0.775212" fill="#515669" stroke="black" stroke-width="3.10085" mask="url(#path-3-inside-1_101_62)"/>
<mask id="path-4-inside-2_101_62" fill="white">
<rect x="137.523" y="534.123" width="19.2253" height="7.59707" rx="0.775212"/>
</mask>
<rect x="137.523" y="534.123" width="19.2253" height="7.59707" rx="0.775212" fill="#515669" stroke="black" stroke-width="3.10085" mask="url(#path-4-inside-2_101_62)"/>
<rect x="0.775212" y="249.775" width="168.531" height="285.123" rx="12.7135" fill="#8F83FF" stroke="black" stroke-width="1.55042"/>
<path d="M1.70605 261.093C1.70605 256.641 5.31563 253.031 9.76826 253.031H152.252C159.702 253.031 165.741 259.07 165.741 266.52V521.874C165.741 528.639 160.257 534.123 153.493 534.123H13.4893C6.98157 534.123 1.70605 528.847 1.70605 522.339V261.093Z" fill="#5347EC"/>
<rect x="13.3362" y="292.412" width="142.639" height="118.142" fill="#B7B7B7" stroke="black" stroke-width="1.55042"/>
<path d="M126.518 313.575H43.7255L13.4922 292.567H155.821L126.518 313.575Z" fill="#999999"/>
<path d="M43.7255 313.575L43.2831 314.212L43.4826 314.35H43.7255V313.575ZM126.518 313.575V314.35H126.767L126.97 314.205L126.518 313.575ZM155.821 292.567L156.273 293.197C156.547 293.001 156.662 292.65 156.559 292.33C156.456 292.009 156.158 291.792 155.821 291.792V292.567ZM13.4922 292.567V291.792C13.1533 291.792 12.8538 292.012 12.7524 292.335C12.6511 292.658 12.7716 293.01 13.0498 293.203L13.4922 292.567ZM43.7255 314.35H126.518V312.8H43.7255V314.35ZM126.97 314.205L156.273 293.197L155.37 291.937L126.067 312.945L126.97 314.205ZM155.821 291.792H13.4922V293.342H155.821V291.792ZM13.0498 293.203L43.2831 314.212L44.1678 312.938L13.9345 291.93L13.0498 293.203Z" fill="black"/>
<path d="M137.371 390.088H32.8725L13.4922 410.477H155.821L137.371 390.088Z" fill="#D3D3D3"/>
<path d="M32.8725 390.088L32.3106 389.554L32.5398 389.313H32.8725V390.088ZM137.371 390.088V389.313H137.715L137.946 389.568L137.371 390.088ZM155.821 410.477L156.396 409.956C156.602 410.184 156.654 410.511 156.53 410.791C156.405 411.071 156.128 411.252 155.821 411.252V410.477ZM13.4922 410.477V411.252C13.1822 411.252 12.902 411.067 12.7798 410.782C12.6576 410.497 12.7168 410.167 12.9303 409.942L13.4922 410.477ZM32.8725 389.313H137.371V390.864H32.8725V389.313ZM137.946 389.568L156.396 409.956L155.246 410.997L136.796 390.609L137.946 389.568ZM155.821 411.252H13.4922V409.701H155.821V411.252ZM12.9303 409.942L32.3106 389.554L33.4344 390.623L14.0541 411.011L12.9303 409.942Z" fill="black"/>
<path d="M137.526 389.933H33.0269L43.8798 313.343H126.207L137.526 389.933Z" fill="#D8D8D8" stroke="black" stroke-width="1.55042"/>
<path d="M44.0317 376.6L86.9785 376.6" stroke="black" stroke-width="1.55042" stroke-linecap="round"/>
<path d="M41.7388 382.339L84.6856 382.339" stroke="black" stroke-width="1.55042" stroke-linecap="round"/>
<path d="M112.209 321.637H60.0608C58.5098 321.637 57.1975 322.783 56.9882 324.32L51.5533 364.243C51.2999 366.105 52.747 367.762 54.6258 367.762H117.176C119.041 367.762 120.484 366.129 120.254 364.279L115.286 324.355C115.093 322.803 113.773 321.637 112.209 321.637Z" fill="url(#paint0_linear_101_62)"/>
<path d="M112.209 321.637H60.0608C58.5098 321.637 57.1975 322.783 56.9882 324.32L51.5533 364.243C51.2999 366.105 52.747 367.762 54.6258 367.762H117.176C119.041 367.762 120.484 366.129 120.254 364.279L115.286 324.355C115.093 322.803 113.773 321.637 112.209 321.637Z" fill="#5347EC"/>
<path d="M112.209 321.637H60.0608C58.5098 321.637 57.1975 322.783 56.9882 324.32L51.5533 364.243C51.2999 366.105 52.747 367.762 54.6258 367.762H117.176C119.041 367.762 120.484 366.129 120.254 364.279L115.286 324.355C115.093 322.803 113.773 321.637 112.209 321.637Z" stroke="black" stroke-width="1.55042" stroke-linecap="round"/>
<path d="M85.273 405.593H25.3735C25.1011 405.593 24.961 405.267 25.1486 405.069L34.7925 394.914C34.851 394.852 34.9323 394.817 35.0173 394.817H85.273C85.4443 394.817 85.5831 394.956 85.5831 395.127V405.283C85.5831 405.454 85.4443 405.593 85.273 405.593Z" fill="#C7C6C2" stroke="black" stroke-width="1.55042"/>
<path d="M34.9604 397.841L28.3711 404.74L84.8841 404.972V397.841H34.9604Z" fill="#999999"/>
<path d="M93.8027 398.461V394.972C93.8027 394.801 93.9416 394.662 94.1128 394.662H134.982C135.071 394.662 135.155 394.7 135.214 394.767L138.308 398.255C138.485 398.455 138.343 398.771 138.076 398.771H94.1128C93.9416 398.771 93.8027 398.632 93.8027 398.461Z" fill="#33384B" stroke="black" stroke-width="1.55042"/>
<path d="M93.8027 405.438V401.949C93.8027 401.778 93.9416 401.639 94.1128 401.639H141.494C141.583 401.639 141.667 401.677 141.726 401.743L144.819 405.232C144.997 405.432 144.855 405.748 144.587 405.748H94.1128C93.9416 405.748 93.8027 405.609 93.8027 405.438Z" fill="#33384B" stroke="black" stroke-width="1.55042"/>
<path d="M95.0298 384.193V373.03C95.0298 372.773 95.238 372.565 95.4949 372.565H120.365C120.596 372.565 120.792 372.734 120.825 372.962L122.471 384.125C122.513 384.406 122.295 384.658 122.011 384.658H95.4949C95.238 384.658 95.0298 384.45 95.0298 384.193Z" fill="#515669" stroke="black" stroke-width="1.55042" stroke-linecap="round"/>
<path d="M98.208 381.014V376.131C98.208 375.874 98.4163 375.666 98.6731 375.666H117.807C118.037 375.666 118.233 375.835 118.267 376.063L118.983 380.947C119.024 381.228 118.807 381.48 118.523 381.48H98.6731C98.4163 381.48 98.208 381.271 98.208 381.014Z" fill="#F19C7D" stroke="black" stroke-width="1.55042" stroke-linecap="round"/>
<path d="M98.9854 376.363H117.59L117.745 377.914H98.9854V376.363Z" fill="#F3BFA5"/>
<path d="M13.3362 410.244H155.975V512.727C155.975 516.58 152.852 519.704 148.998 519.704H20.3132C16.4599 519.704 13.3362 516.58 13.3362 512.727V410.244Z" fill="#515669" stroke="black" stroke-width="1.55042"/>
<rect x="26.8255" y="421.097" width="116.592" height="26.0471" rx="3.56597" fill="#656A7D" stroke="black" stroke-width="1.55042"/>
<path d="M27.5996 423.578H137.215C139.27 423.578 140.936 425.244 140.936 427.299V446.369H30.3904C28.8491 446.369 27.5996 445.119 27.5996 443.578V423.578Z" fill="#33384B"/>
<rect x="26.8255" y="454.741" width="116.592" height="54.1097" rx="3.56597" fill="#656A7D" stroke="black" stroke-width="1.55042"/>
<path d="M27.5996 457.222H137.215C139.27 457.222 140.936 458.888 140.936 460.943V508.076H30.3904C28.8491 508.076 27.5996 506.826 27.5996 505.285V457.222Z" fill="#33384B"/>
<rect x="13.3362" y="257.992" width="142.639" height="26.0471" rx="3.56597" fill="#FFC4A5" stroke="black" stroke-width="1.55042"/>
<path d="M14.4521 260.473H149.055C151.11 260.473 152.776 262.139 152.776 264.194V283.264H17.2429C15.7016 283.264 14.4521 282.015 14.4521 280.474V260.473Z" fill="#F19C7D"/>
<path d="M45.6037 275.884V266.701H49.5856C50.2851 266.701 50.8725 266.795 51.3478 266.983C51.8261 267.171 52.1864 267.438 52.4285 267.781C52.6736 268.125 52.7962 268.53 52.7962 268.997C52.7962 269.334 52.7214 269.642 52.572 269.92C52.4255 270.198 52.2192 270.431 51.9532 270.62C51.6871 270.805 51.3762 270.934 51.0205 271.005V271.095C51.4151 271.11 51.7738 271.21 52.0967 271.395C52.4195 271.578 52.6766 271.83 52.8679 272.153C53.0592 272.473 53.1549 272.85 53.1549 273.283C53.1549 273.785 53.0234 274.232 52.7603 274.624C52.5002 275.016 52.1296 275.324 51.6483 275.548C51.167 275.772 50.593 275.884 49.9264 275.884H45.6037ZM48.0969 273.893H49.2627C49.6813 273.893 49.9951 273.815 50.2044 273.66C50.4136 273.501 50.5183 273.268 50.5183 272.96C50.5183 272.745 50.469 272.563 50.3703 272.413C50.2717 272.264 50.1312 272.15 49.9488 272.073C49.7694 271.995 49.5527 271.956 49.2986 271.956H48.0969V273.893ZM48.0969 270.413H49.1192C49.3375 270.413 49.5303 270.379 49.6977 270.31C49.8651 270.242 49.9951 270.143 50.0878 270.014C50.1835 269.883 50.2313 269.723 50.2313 269.535C50.2313 269.251 50.1297 269.034 49.9264 268.884C49.7231 268.732 49.466 268.656 49.1551 268.656H48.0969V270.413ZM54.0741 275.884V268.997H56.5493V275.884H54.0741ZM55.3117 268.279C54.9769 268.279 54.69 268.168 54.4508 267.947C54.2117 267.726 54.0921 267.46 54.0921 267.149C54.0921 266.838 54.2117 266.572 54.4508 266.351C54.69 266.13 54.9769 266.019 55.3117 266.019C55.6495 266.019 55.9365 266.13 56.1727 266.351C56.4118 266.572 56.5314 266.838 56.5314 267.149C56.5314 267.46 56.4118 267.726 56.1727 267.947C55.9365 268.168 55.6495 268.279 55.3117 268.279ZM61.9179 268.997V270.79H57.38V268.997H61.9179ZM58.2589 267.346H60.7341V273.669C60.7341 273.765 60.7505 273.845 60.7834 273.911C60.8163 273.974 60.8671 274.022 60.9359 274.055C61.0046 274.084 61.0928 274.099 61.2004 274.099C61.2752 274.099 61.3619 274.09 61.4605 274.072C61.5622 274.055 61.6369 274.04 61.6847 274.028L62.0435 275.767C61.9328 275.8 61.7744 275.841 61.5681 275.889C61.3649 275.936 61.1227 275.968 60.8417 275.983C60.2737 276.013 59.7969 275.954 59.4113 275.808C59.0257 275.658 58.7357 275.424 58.5414 275.104C58.3471 274.784 58.2529 274.383 58.2589 273.902V267.346ZM66.1722 276.01C65.4248 276.01 64.7851 275.862 64.253 275.566C63.7209 275.267 63.3128 274.851 63.0288 274.319C62.7448 273.784 62.6028 273.164 62.6028 272.458C62.6028 271.753 62.7448 271.134 63.0288 270.602C63.3128 270.067 63.7209 269.651 64.253 269.355C64.7851 269.056 65.4248 268.907 66.1722 268.907C66.8478 268.907 67.4322 269.029 67.9254 269.275C68.4217 269.517 68.8058 269.86 69.0778 270.306C69.3499 270.748 69.4874 271.268 69.4904 271.866H67.1945C67.1616 271.505 67.057 271.23 66.8806 271.041C66.7073 270.85 66.4831 270.754 66.208 270.754C65.9928 270.754 65.8045 270.817 65.643 270.943C65.4816 271.065 65.3561 271.252 65.2664 271.503C65.1767 271.751 65.1319 272.064 65.1319 272.44C65.1319 272.817 65.1767 273.131 65.2664 273.382C65.3561 273.63 65.4816 273.817 65.643 273.942C65.8045 274.065 65.9928 274.126 66.208 274.126C66.3904 274.126 66.5518 274.084 66.6923 274.001C66.8328 273.914 66.9464 273.788 67.0331 273.624C67.1228 273.457 67.1766 273.253 67.1945 273.014H69.4904C69.4814 273.621 69.3424 274.15 69.0734 274.602C68.8043 275.05 68.4232 275.397 67.9299 275.642C67.4397 275.887 66.8537 276.01 66.1722 276.01ZM73.8298 276.01C73.0825 276.01 72.4428 275.862 71.9106 275.566C71.3785 275.267 70.9705 274.851 70.6865 274.319C70.4025 273.784 70.2605 273.164 70.2605 272.458C70.2605 271.753 70.4025 271.134 70.6865 270.602C70.9705 270.067 71.3785 269.651 71.9106 269.355C72.4428 269.056 73.0825 268.907 73.8298 268.907C74.5772 268.907 75.2169 269.056 75.749 269.355C76.2811 269.651 76.6892 270.067 76.9732 270.602C77.2571 271.134 77.3991 271.753 77.3991 272.458C77.3991 273.164 77.2571 273.784 76.9732 274.319C76.6892 274.851 76.2811 275.267 75.749 275.566C75.2169 275.862 74.5772 276.01 73.8298 276.01ZM73.8478 274.18C74.057 274.18 74.2379 274.11 74.3903 273.969C74.5428 273.829 74.6609 273.629 74.7446 273.368C74.8283 273.108 74.8701 272.799 74.8701 272.44C74.8701 272.079 74.8283 271.769 74.7446 271.512C74.6609 271.252 74.5428 271.052 74.3903 270.911C74.2379 270.771 74.057 270.7 73.8478 270.7C73.6265 270.7 73.4367 270.771 73.2783 270.911C73.1198 271.052 72.9988 271.252 72.9151 271.512C72.8314 271.769 72.7895 272.079 72.7895 272.44C72.7895 272.799 72.8314 273.108 72.9151 273.368C72.9988 273.629 73.1198 273.829 73.2783 273.969C73.4367 274.11 73.6265 274.18 73.8478 274.18ZM78.4036 275.884V268.997H80.8788V275.884H78.4036ZM79.6412 268.279C79.3064 268.279 79.0194 268.168 78.7802 267.947C78.5411 267.726 78.4215 267.46 78.4215 267.149C78.4215 266.838 78.5411 266.572 78.7802 266.351C79.0194 266.13 79.3064 266.019 79.6412 266.019C79.979 266.019 80.266 266.13 80.5021 266.351C80.7413 266.572 80.8608 266.838 80.8608 267.149C80.8608 267.46 80.7413 267.726 80.5021 267.947C80.266 268.168 79.979 268.279 79.6412 268.279ZM84.6151 272.01V275.884H82.1399V268.997H84.4896V270.306H84.5613C84.7108 269.869 84.9739 269.527 85.3505 269.279C85.7302 269.031 86.1726 268.907 86.6778 268.907C87.1651 268.907 87.5881 269.019 87.9468 269.243C88.3085 269.464 88.588 269.769 88.7853 270.158C88.9856 270.546 89.0843 270.99 89.0813 271.49V275.884H86.6061V272.01C86.609 271.669 86.5224 271.401 86.346 271.207C86.1726 271.013 85.9305 270.916 85.6196 270.916C85.4163 270.916 85.2384 270.961 85.086 271.05C84.9365 271.137 84.8214 271.262 84.7407 271.427C84.66 271.588 84.6181 271.783 84.6151 272.01ZM95.1684 275.884H92.4779L95.5092 266.701H98.9171L101.948 275.884H99.2579L97.249 269.23H97.1772L95.1684 275.884ZM94.6662 272.261H99.7242V274.126H94.6662V272.261ZM101.423 268.71V266.701H109.404V268.71H106.642V275.884H104.185V268.71H101.423ZM110.342 266.701H113.445L115.58 271.902H115.687L117.822 266.701H120.925V275.884H118.486V270.575H118.414L116.369 275.812H114.898L112.854 270.539H112.782V275.884H110.342V266.701Z" fill="white"/>
</g>
<circle cx="35.5" cy="202.5" r="9" stroke="#33384B" stroke-width="3"/>
<path d="M138.068 199.577C139.145 200.364 140.013 201.405 140.596 202.609C141.457 204.053 141.945 204.774 142.706 204.774C143.467 204.774 143.956 204.081 144.817 202.609C145.679 201.137 146.914 199 149.412 199C151.91 199 153.117 201.079 154.007 202.609C154.897 204.139 155.357 204.774 156.103 204.774C156.85 204.774 157.352 204.081 158.214 202.609C159.075 201.137 160.31 199 162.809 199C165.307 199 166.513 201.079 167.404 202.609C168.294 204.139 168.739 204.774 169.514 204.774C170.29 204.774 170.764 204.081 171.611 202.609C172.193 201.405 173.061 200.364 174.138 199.577C174.353 199.471 174.59 199.421 174.83 199.431C175.069 199.441 175.302 199.511 175.507 199.634C175.712 199.757 175.884 199.93 176.006 200.137C176.128 200.344 176.197 200.579 176.206 200.819C176.216 201.06 176.167 201.3 176.061 201.517C175.956 201.734 175.798 201.921 175.603 202.06C174.961 202.606 174.446 203.286 174.095 204.053C173.219 205.583 172.013 207.662 169.514 207.662C167.016 207.662 165.795 205.583 164.92 204.053C164.044 202.522 163.584 201.887 162.809 201.887C162.033 201.887 161.56 202.58 160.712 204.053C159.865 205.525 158.616 207.662 156.103 207.662C153.59 207.662 152.399 205.583 151.508 204.053C150.618 202.522 150.173 201.887 149.398 201.887C148.622 201.887 148.148 202.58 147.287 204.053C146.425 205.525 145.19 207.662 142.692 207.662C140.194 207.662 138.987 205.583 138.097 204.053C137.766 203.293 137.277 202.613 136.661 202.06C136.455 201.927 136.286 201.743 136.17 201.526C136.055 201.309 135.996 201.065 136.001 200.819C136.01 200.579 136.078 200.344 136.2 200.137C136.322 199.93 136.494 199.757 136.699 199.634C136.905 199.511 137.138 199.441 137.377 199.431C137.616 199.421 137.854 199.471 138.068 199.577Z" fill="#F19C7D"/>
<path d="M293.5 400.973C287.442 400.973 282.514 396.044 282.514 389.986C282.514 383.929 287.442 379 293.5 379C299.558 379 304.486 383.929 304.486 389.986C304.486 396.044 299.558 400.973 293.5 400.973ZM295.697 401.195V416.354C295.697 417.568 294.715 418.551 293.5 418.551C292.285 418.551 291.303 417.568 291.303 416.354V401.195C283.869 402.272 278.119 408.626 278.119 416.354V429.537C278.119 430.752 279.102 431.734 280.316 431.734H285.239L286.917 451.987C287.011 453.124 287.964 454 289.105 454H297.895C299.036 454 299.989 453.124 300.083 451.987L301.761 431.734H306.684C307.898 431.734 308.881 430.752 308.881 429.537V416.354C308.881 408.626 303.131 402.272 295.697 401.195Z" fill="white"/>
<path d="M316.945 147.001C311.384 133.547 317.759 118.123 331.186 112.551C344.612 106.978 360.004 113.367 365.565 126.821C371.126 140.274 364.751 155.698 351.325 161.271C337.899 166.844 322.506 160.455 316.945 147.001Z" fill="#BC2A8D"/>
<path opacity="0.5" d="M316.945 147.001C311.384 133.547 317.759 118.123 331.186 112.551C344.612 106.978 360.004 113.367 365.565 126.821C371.126 140.274 364.751 155.698 351.325 161.271C337.899 166.844 322.506 160.455 316.945 147.001Z" fill="white"/>
<path d="M237.199 188.225C240.4 195.886 236.772 204.695 229.126 207.903C221.481 211.112 212.69 207.476 209.488 199.814C206.286 192.153 209.915 183.344 217.561 180.136C225.206 176.928 233.997 180.564 237.199 188.225Z" fill="#2DA5E1"/>
<path opacity="0.5" d="M237.199 188.225C240.4 195.886 236.772 204.695 229.126 207.903C221.481 211.112 212.69 207.476 209.488 199.814C206.286 192.153 209.915 183.344 217.561 180.136C225.206 176.928 233.997 180.564 237.199 188.225Z" fill="white"/>
<path d="M268.718 95.4375C261.514 82.7908 265.904 66.6861 278.525 59.4667C291.146 52.2473 307.217 56.647 314.422 69.2937C321.626 81.9404 317.236 98.0451 304.615 105.264C291.994 112.484 275.923 108.084 268.718 95.4375Z" fill="#02ABE8"/>
<path d="M276.262 128.121C281.113 132.691 281.346 140.332 276.786 145.194C272.225 150.055 264.599 150.288 259.748 145.719C254.897 141.149 254.664 133.507 259.224 128.646C263.784 123.785 271.41 123.551 276.262 128.121Z" fill="#5347EC"/>
<path opacity="0.5" d="M276.262 128.121C281.113 132.691 281.346 140.332 276.786 145.194C272.225 150.055 264.599 150.288 259.748 145.719C254.897 141.149 254.664 133.507 259.224 128.646C263.784 123.785 271.41 123.551 276.262 128.121Z" fill="white"/>
<path d="M207.383 170.146C193.925 164.651 187.461 149.264 192.945 135.778C198.428 122.293 213.784 115.815 227.242 121.31C240.7 126.805 247.164 142.192 241.68 155.678C236.196 169.164 220.841 175.641 207.383 170.146Z" fill="#3B599A"/>
<path d="M342.238 180.019C347.07 175.275 354.813 175.372 359.547 180.194C364.282 185.036 364.185 192.795 359.373 197.539C354.541 202.284 346.798 202.187 342.064 197.364C337.329 192.542 337.426 184.764 342.238 180.019Z" fill="#F5CB4D"/>
<path d="M285.693 215.137C271.16 215.137 259.38 203.332 259.38 188.77C259.38 174.207 271.16 162.402 285.693 162.402C300.225 162.402 312.006 174.207 312.006 188.77C312.006 203.332 300.225 215.137 285.693 215.137Z" fill="#BF0003"/>
<path d="M246.631 83.4172C250.706 89.4451 249.153 97.6314 243.138 101.734C237.122 105.818 228.953 104.262 224.858 98.2342C220.783 92.2063 222.336 84.02 228.351 79.9171C234.367 75.8337 242.536 77.3893 246.631 83.4172Z" fill="#12AF0B"/>
<path opacity="0.5" d="M246.631 83.4172C250.706 89.4451 249.153 97.6314 243.138 101.734C237.122 105.818 228.953 104.262 224.858 98.2342C220.783 92.2063 222.336 84.02 228.351 79.9171C234.367 75.8337 242.536 77.3893 246.631 83.4172Z" fill="white"/>
<g clip-path="url(#clip2_101_62)">
<path d="M346.875 124H337.125C332.638 124 329 127.638 329 132.125V141.875C329 146.362 332.638 150 337.125 150H346.875C351.362 150 355 146.362 355 141.875V132.125C355 127.638 351.362 124 346.875 124ZM352.562 141.875C352.562 145.011 350.011 147.562 346.875 147.562H337.125C333.989 147.562 331.438 145.011 331.438 141.875V132.125C331.438 128.989 333.989 126.438 337.125 126.438H346.875C350.011 126.438 352.562 128.989 352.562 132.125V141.875Z" fill="white"/>
<path d="M342 130.5C338.41 130.5 335.5 133.41 335.5 137C335.5 140.59 338.41 143.5 342 143.5C345.59 143.5 348.5 140.59 348.5 137C348.5 133.41 345.59 130.5 342 130.5ZM342 141.062C339.761 141.062 337.938 139.239 337.938 137C337.938 134.759 339.761 132.938 342 132.938C344.239 132.938 346.062 134.759 346.062 137C346.062 139.239 344.239 141.062 342 141.062Z" fill="white"/>
<path d="M348.988 130.879C349.466 130.879 349.854 130.491 349.854 130.012C349.854 129.534 349.466 129.146 348.988 129.146C348.509 129.146 348.122 129.534 348.122 130.012C348.122 130.491 348.509 130.879 348.988 130.879Z" fill="white"/>
</g>
<g clip-path="url(#clip3_101_62)">
<path d="M226.625 132H206.375C204.514 132 203 133.514 203 135.375V155.625C203 157.486 204.514 159 206.375 159H216.5V149.719H213.125V145.5H216.5V142.125C216.5 139.329 218.766 137.062 221.562 137.062H224.938V141.281H223.25C222.319 141.281 221.562 141.194 221.562 142.125V145.5H225.781L224.094 149.719H221.562V159H226.625C228.486 159 230 157.486 230 155.625V135.375C230 133.514 228.486 132 226.625 132Z" fill="white"/>
</g>
<g clip-path="url(#clip4_101_62)">
<path d="M308 73.8881C306.847 74.3938 305.619 74.7289 304.338 74.8917C305.656 74.1051 306.661 72.8689 307.134 71.379C305.906 72.1114 304.549 72.6287 303.104 72.9174C301.938 71.6754 300.275 70.9062 298.462 70.9062C294.943 70.9062 292.111 73.7621 292.111 77.2632C292.111 77.7669 292.153 78.2513 292.258 78.7124C286.974 78.4547 282.299 75.9224 279.158 72.0649C278.61 73.0162 278.288 74.1051 278.288 75.2773C278.288 77.4783 279.422 79.4293 281.111 80.5589C280.09 80.5395 279.089 80.2431 278.24 79.7761V79.8459C278.24 82.9342 280.443 85.4995 283.332 86.0904C282.814 86.2319 282.251 86.2997 281.665 86.2997C281.259 86.2997 280.848 86.2764 280.462 86.1912C281.286 88.708 283.622 90.5583 286.401 90.6184C284.239 92.3098 281.493 93.3289 278.521 93.3289C278 93.3289 277.5 93.3057 277 93.2417C279.815 95.0572 283.152 96.0938 286.75 96.0938C298.444 96.0938 304.838 86.4062 304.838 78.0091C304.838 77.7282 304.828 77.4569 304.815 77.1876C306.076 76.2925 307.136 75.1746 308 73.8881Z" fill="white"/>
</g>
<path d="M302.47 179.01C301.493 177.273 300.434 176.954 298.276 176.832C296.121 176.686 290.7 176.625 286.004 176.625C281.3 176.625 275.877 176.686 273.724 176.83C271.571 176.954 270.509 177.271 269.523 179.01C268.517 180.745 268 183.733 268 188.993V189.011C268 194.249 268.517 197.26 269.523 198.977C270.509 200.714 271.568 201.029 273.722 201.175C275.877 201.301 281.3 201.375 286.004 201.375C290.7 201.375 296.12 201.301 298.278 201.177C300.436 201.031 301.496 200.716 302.472 198.979C303.487 197.262 304 194.251 304 189.013V188.996C304 183.733 303.487 180.745 302.47 179.01ZM281.5 195.75V182.25L292.75 189L281.5 195.75Z" fill="white"/>
<g clip-path="url(#clip5_101_62)">
<path d="M236.002 83H235.998C231.587 83 228 86.588 228 91C228 92.75 228.564 94.372 229.523 95.689L228.526 98.661L231.601 97.678C232.866 98.516 234.375 99 236.002 99C240.413 99 244 95.411 244 91C244 86.589 240.413 83 236.002 83ZM240.657 94.297C240.464 94.842 239.698 95.294 239.087 95.426C238.669 95.515 238.123 95.586 236.285 94.824C233.934 93.85 232.42 91.461 232.302 91.306C232.189 91.151 231.352 90.041 231.352 88.893C231.352 87.745 231.935 87.186 232.17 86.946C232.363 86.749 232.682 86.659 232.988 86.659C233.087 86.659 233.176 86.664 233.256 86.668C233.491 86.678 233.609 86.692 233.764 87.063C233.957 87.528 234.427 88.676 234.483 88.794C234.54 88.912 234.597 89.072 234.517 89.227C234.442 89.387 234.376 89.458 234.258 89.594C234.14 89.73 234.028 89.834 233.91 89.98C233.802 90.107 233.68 90.243 233.816 90.478C233.952 90.708 234.422 91.475 235.114 92.091C236.007 92.886 236.731 93.14 236.99 93.248C237.183 93.328 237.413 93.309 237.554 93.159C237.733 92.966 237.954 92.646 238.179 92.331C238.339 92.105 238.541 92.077 238.753 92.157C238.969 92.232 240.112 92.797 240.347 92.914C240.582 93.032 240.737 93.088 240.794 93.187C240.85 93.286 240.85 93.751 240.657 94.297Z" fill="white"/>
</g>
<g clip-path="url(#clip6_101_62)">
<path d="M357.726 191.239C355.854 190.931 355.01 189.013 354.976 188.932C354.974 188.927 354.972 188.921 354.968 188.916C354.873 188.722 354.85 188.562 354.903 188.44C355.005 188.2 355.397 188.076 355.656 187.994C355.731 187.97 355.802 187.947 355.861 187.925C356.116 187.824 356.298 187.715 356.419 187.591C356.563 187.443 356.591 187.302 356.589 187.21C356.585 186.986 356.413 186.786 356.139 186.689C356.047 186.652 355.941 186.631 355.835 186.631C355.762 186.631 355.653 186.641 355.551 186.689C355.332 186.792 355.136 186.848 354.967 186.855C354.878 186.851 354.815 186.832 354.774 186.813C354.779 186.726 354.785 186.636 354.791 186.543L354.793 186.503C354.854 185.555 354.928 184.376 354.615 183.676C354.4 183.197 354.113 182.785 353.758 182.45C353.461 182.17 353.117 181.943 352.733 181.775C352.068 181.481 351.446 181.437 351.135 181.437H351.1C351.013 181.438 350.872 181.44 350.859 181.44C350.548 181.44 349.926 181.484 349.259 181.778C348.876 181.946 348.533 182.172 348.237 182.452C347.885 182.787 347.598 183.198 347.384 183.676C347.071 184.375 347.145 185.553 347.205 186.5V186.502C347.211 186.603 347.218 186.709 347.224 186.813C347.179 186.833 347.104 186.855 346.995 186.855C346.818 186.855 346.608 186.799 346.371 186.688C346.301 186.656 346.221 186.639 346.134 186.639C345.993 186.639 345.843 186.68 345.715 186.757C345.552 186.852 345.447 186.986 345.418 187.135C345.4 187.233 345.401 187.429 345.618 187.626C345.738 187.735 345.913 187.835 346.139 187.925C346.199 187.948 346.27 187.97 346.344 187.994C346.603 188.076 346.996 188.2 347.098 188.44C347.15 188.562 347.127 188.722 347.032 188.916C347.029 188.921 347.027 188.927 347.025 188.932C347 188.988 346.777 189.491 346.319 190.022C346.06 190.324 345.773 190.577 345.469 190.773C345.097 191.013 344.695 191.169 344.274 191.238C344.109 191.265 343.991 191.412 344.001 191.579C344.003 191.627 344.015 191.675 344.035 191.722V191.722C344.102 191.879 344.257 192.011 344.509 192.128C344.817 192.27 345.277 192.39 345.878 192.484C345.909 192.541 345.941 192.686 345.962 192.785C345.985 192.89 346.009 192.998 346.043 193.113C346.08 193.237 346.174 193.386 346.418 193.386C346.511 193.386 346.617 193.365 346.74 193.341C346.921 193.306 347.167 193.258 347.474 193.258C347.645 193.258 347.822 193.273 347.999 193.303C348.343 193.36 348.638 193.568 348.98 193.809C349.481 194.163 350.048 194.563 350.914 194.563C350.938 194.563 350.961 194.562 350.985 194.56C351.019 194.562 351.052 194.563 351.086 194.563C351.952 194.563 352.519 194.163 353.02 193.81L353.02 193.809C353.363 193.569 353.658 193.361 354.001 193.304C354.179 193.274 354.356 193.259 354.526 193.259C354.82 193.259 355.053 193.297 355.261 193.337C355.396 193.363 355.501 193.376 355.583 193.376H355.598C355.777 193.376 355.908 193.278 355.958 193.108C355.991 192.995 356.015 192.89 356.038 192.782C356.059 192.689 356.092 192.541 356.122 192.483C356.723 192.388 357.183 192.269 357.491 192.127C357.742 192.01 357.897 191.878 357.964 191.722C357.985 191.676 357.997 191.628 357.999 191.578C358.009 191.413 357.891 191.265 357.726 191.239Z" fill="white"/>
</g>
<path d="M173.157 47.6498C179.289 42.983 183.267 49.7498 183.267 49.7498C183.267 49.7498 187.245 42.9636 193.377 47.6498C199.509 52.3165 191.378 65.8891 183.267 68.2225C175.155 65.8891 167.005 52.336 173.157 47.6498Z" fill="#F19C7D"/>
<path d="M375.125 41.6429H367.375V35.8571C367.375 33.7299 365.637 32 363.5 32H360.594C360.059 32 359.625 32.432 359.625 32.9643V37.5292L355.878 44.0574C355.794 44.2028 355.749 44.3678 355.75 44.5357V58.0357C355.75 58.568 356.184 59 356.719 59H372.267C373.798 59 375.189 58.0994 375.807 56.7089L378.915 49.7486C378.971 49.6257 379 49.4922 379 49.3571V45.5C379 43.3728 377.262 41.6429 375.125 41.6429ZM348.969 43.5714C348.434 43.5714 348 44.0034 348 44.5357V58.0357C348 58.568 348.434 59 348.969 59H353.812V43.5714H348.969Z" fill="#5347EC"/>
<g clip-path="url(#clip7_101_62)">
<path d="M267.999 128.187C263.03 128.187 259 132.233 259 137.223C259 141.215 261.579 144.601 265.156 145.797C265.606 145.88 265.77 145.601 265.77 145.362C265.77 145.147 265.762 144.579 265.758 143.825C263.255 144.371 262.726 142.613 262.726 142.613C262.318 141.569 261.727 141.291 261.727 141.291C260.909 140.731 261.788 140.742 261.788 140.742C262.691 140.807 263.166 141.674 263.166 141.674C263.969 143.054 265.273 142.656 265.786 142.424C265.867 141.84 266.1 141.442 266.357 141.216C264.359 140.988 262.258 140.213 262.258 136.751C262.258 135.764 262.609 134.958 263.185 134.325C263.092 134.097 262.783 133.178 263.273 131.935C263.273 131.935 264.029 131.692 265.748 132.861C266.466 132.66 267.235 132.56 268.001 132.557C268.765 132.561 269.536 132.66 270.254 132.862C271.972 131.693 272.727 131.936 272.727 131.936C273.218 133.18 272.909 134.098 272.817 134.327C273.394 134.959 273.742 135.765 273.742 136.752C273.742 140.223 271.638 140.987 269.633 141.21C269.956 141.489 270.244 142.041 270.244 142.883C270.244 144.092 270.233 145.066 270.233 145.362C270.233 145.604 270.395 145.885 270.852 145.796C274.424 144.599 277 141.214 277 137.223C277 132.233 272.97 128.187 267.999 128.187Z" fill="white"/>
</g>
<path d="M258.972 263.671H329.024L394.244 197.617H193.753L258.972 263.671Z" fill="#F19C7D"/>
<path d="M258.974 263.672L271.432 365.427H316.587L329.025 263.672H258.974Z" fill="#F19C7D"/>
<path d="M193.753 197.617L258.972 263.671H329.024L394.244 197.617H193.753Z" fill="#D37E5F"/>
<path opacity="0.2" d="M302.304 365.427H316.586L329.024 263.671L394.244 197.617H355.007L309.134 263.671L302.304 365.427Z" fill="black"/>
<path d="M393.604 191.298H194.413C192.53 191.298 191.017 192.834 191.017 194.7V200.514C191.017 202.401 192.55 203.917 194.413 203.917H393.604C395.486 203.917 397 202.381 397 200.514V194.7C397 192.814 395.467 191.298 393.604 191.298Z" fill="#F19C7D"/>
<path d="M271.528 363.035H316.45C318.036 363.035 319.322 364.323 319.322 365.913V369.782C319.322 371.372 318.036 372.66 316.45 372.66H271.528C269.942 372.66 268.656 371.372 268.656 369.782V365.913C268.656 364.323 269.942 363.035 271.528 363.035Z" fill="#F19C7D"/>
<path d="M271.528 363.035H316.45C318.036 363.035 319.322 364.323 319.322 365.913V369.782C319.322 371.372 318.036 372.66 316.45 372.66H271.528C269.942 372.66 268.656 371.372 268.656 369.782V365.913C268.656 364.323 269.942 363.035 271.528 363.035Z" fill="#D37E5F"/>
<path opacity="0.4" d="M293.998 436.148V536.347C293.998 536.347 276.689 503.096 232.523 505.449" stroke="white" stroke-linecap="round" stroke-linejoin="round"/>
<path opacity="0.4" d="M189.258 536.216C189.258 536.216 167.059 503.491 122 508.527" stroke="white" stroke-linecap="round" stroke-linejoin="round"/>
<g clip-path="url(#clip8_101_62)">
<path d="M321.184 488.66C316.336 488.66 312.395 484.718 312.395 479.871C312.395 475.024 316.336 471.082 321.184 471.082C326.031 471.082 329.973 475.024 329.973 479.871C329.973 484.718 326.031 488.66 321.184 488.66ZM369.816 488.66C364.969 488.66 361.027 484.718 361.027 479.871C361.027 475.024 364.969 471.082 369.816 471.082C374.664 471.082 378.605 475.024 378.605 479.871C378.605 484.718 374.664 488.66 369.816 488.66ZM345.5 483.973C339.442 483.973 334.514 479.044 334.514 472.986C334.514 466.929 339.442 462 345.5 462C351.558 462 356.486 466.929 356.486 472.986C356.486 479.044 351.558 483.973 345.5 483.973ZM347.697 484.195V499.354C347.697 500.568 346.715 501.551 345.5 501.551C344.285 501.551 343.303 500.568 343.303 499.354V484.195C335.869 485.272 330.119 491.626 330.119 499.354V512.537C330.119 513.752 331.102 514.734 332.316 514.734H337.239L338.917 534.987C339.011 536.124 339.964 537 341.105 537H349.895C351.036 537 351.989 536.124 352.083 534.987L353.761 514.734H358.684C359.898 514.734 360.881 513.752 360.881 512.537V499.354C360.881 491.626 355.131 485.272 347.697 484.195ZM325.578 512.83V499.646C325.578 496.353 326.464 493.292 327.894 490.558C325.921 489.381 323.644 488.66 321.184 488.66C313.914 488.66 308 494.574 308 501.844V512.83C308 514.045 308.983 515.027 310.197 515.027H312.603L314.602 535.022C314.714 536.144 315.66 537 316.789 537H325.578C326.707 537 327.653 536.144 327.765 535.022L329.389 518.785C327.145 517.732 325.578 515.468 325.578 512.83ZM383 501.844C383 494.574 377.086 488.66 369.816 488.66C367.356 488.66 365.079 489.381 363.106 490.558C364.536 493.292 365.422 496.353 365.422 499.646V512.83C365.422 515.468 363.855 517.732 361.611 518.785L363.235 535.022C363.347 536.144 364.293 537 365.422 537H374.211C375.34 537 376.286 536.144 376.398 535.022L378.397 515.027H380.803C382.017 515.027 383 514.045 383 512.83V501.844Z" fill="#437FEC"/>
</g>
<path d="M208.5 483.973C202.442 483.973 197.514 479.044 197.514 472.986C197.514 466.929 202.442 462 208.5 462C214.558 462 219.486 466.929 219.486 472.986C219.486 479.044 214.558 483.973 208.5 483.973ZM210.697 484.195V499.354C210.697 500.568 209.715 501.551 208.5 501.551C207.285 501.551 206.303 500.568 206.303 499.354V484.195C198.869 485.272 193.119 491.626 193.119 499.354V512.537C193.119 513.752 194.102 514.734 195.316 514.734H200.239L201.917 534.987C202.011 536.124 202.964 537 204.105 537H212.895C214.036 537 214.989 536.124 215.083 534.987L216.761 514.734H221.684C222.898 514.734 223.881 513.752 223.881 512.537V499.354C223.881 491.626 218.131 485.272 210.697 484.195Z" fill="white"/>
<path d="M108.5 483.973C102.442 483.973 97.5137 479.044 97.5137 472.986C97.5137 466.929 102.442 462 108.5 462C114.558 462 119.486 466.929 119.486 472.986C119.486 479.044 114.558 483.973 108.5 483.973ZM110.697 484.195V499.354C110.697 500.568 109.715 501.551 108.5 501.551C107.285 501.551 106.303 500.568 106.303 499.354V484.195C98.8687 485.272 93.1191 491.626 93.1191 499.354V512.537C93.1191 513.752 94.1019 514.734 95.3164 514.734H100.239L101.917 534.987C102.011 536.124 102.964 537 104.105 537H112.895C114.036 537 114.989 536.124 115.083 534.987L116.761 514.734H121.684C122.898 514.734 123.881 513.752 123.881 512.537V499.354C123.881 491.626 118.131 485.272 110.697 484.195Z" fill="white"/>
</g>
<defs>
<linearGradient id="paint0_linear_101_62" x1="89.8348" y1="322.955" x2="56.0357" y2="364.196" gradientUnits="userSpaceOnUse">
<stop stop-color="#6CDFE6"/>
<stop offset="1" stop-color="#3374EA"/>
</linearGradient>
<clipPath id="clip0_101_62">
<rect width="428" height="542" fill="white"/>
</clipPath>
<clipPath id="clip1_101_62">
<rect width="170" height="293.188" fill="white" transform="translate(0 249)"/>
</clipPath>
<clipPath id="clip2_101_62">
<rect width="26" height="26" fill="white" transform="translate(329 124)"/>
</clipPath>
<clipPath id="clip3_101_62">
<rect width="27" height="27" fill="white" transform="translate(203 132)"/>
</clipPath>
<clipPath id="clip4_101_62">
<rect width="31" height="31" fill="white" transform="translate(277 68)"/>
</clipPath>
<clipPath id="clip5_101_62">
<rect width="16" height="16" fill="white" transform="translate(228 83)"/>
</clipPath>
<clipPath id="clip6_101_62">
<rect width="14" height="14" fill="white" transform="translate(344 181)"/>
</clipPath>
<clipPath id="clip7_101_62">
<rect width="18" height="18" fill="white" transform="translate(259 128)"/>
</clipPath>
<clipPath id="clip8_101_62">
<rect width="75" height="75" fill="white" transform="translate(308 462)"/>
</clipPath>
</defs>
</svg>
