<svg width="36" height="36" viewBox="0 0 36 36" fill="none" xmlns="http://www.w3.org/2000/svg">
<path d="M18.0069 33.0043C9.72258 33.0043 3.00684 26.2887 3.00684 18.0044C3.00684 9.72012 9.72258 3.00439 18.0069 3.00439C26.2911 3.00439 33.0069 9.72012 33.0069 18.0044C33.0069 26.2887 26.2911 33.0043 18.0069 33.0043ZM18.0069 30.0043C24.6343 30.0043 30.0069 24.6318 30.0069 18.0044C30.0069 11.377 24.6343 6.0044 18.0069 6.0044C11.3794 6.0044 6.00684 11.377 6.00684 18.0044C6.00684 24.6318 11.3794 30.0043 18.0069 30.0043ZM10.5068 19.5044H24.0069V22.5044H18.0069V27.0043L10.5068 19.5044ZM18.0069 13.5044V9.00439L25.5069 16.5044H12.0068V13.5044H18.0069Z" fill="white"/>
</svg>
