<svg width="76" height="76" viewBox="0 0 76 76" fill="none" xmlns="http://www.w3.org/2000/svg">
<path d="M74.8633 47.1924C69.7882 67.5497 49.1695 79.9388 28.8097 74.8623C8.45851 69.7872 -3.93057 49.1672 1.14683 28.8115C6.21978 8.45192 26.8385 -3.93808 47.1919 1.13709C67.5502 6.21226 79.9385 26.8345 74.8628 47.1928L74.8632 47.1924H74.8633Z" fill="#F1B400"/>
<path fill-rule="evenodd" clip-rule="evenodd" d="M54.7607 32.5859C55.517 27.529 51.667 24.8107 46.4023 22.9973L48.1102 16.1472L43.9403 15.1081L42.2778 21.7779C41.1815 21.5045 40.0558 21.2469 38.9369 20.9915L40.6115 14.2777L36.4442 13.2386L34.7354 20.0865C33.8283 19.88 32.9373 19.6759 32.0728 19.4608L32.0777 19.4392L26.3273 18.0033L25.2181 22.457C25.2181 22.457 28.3118 23.1661 28.2466 23.2098C29.9351 23.6312 30.2405 24.749 30.1898 25.635L28.2443 33.4389C28.3606 33.4684 28.5114 33.5111 28.6779 33.578L28.5567 33.5477L28.5565 33.5477C28.4537 33.522 28.3468 33.4952 28.2371 33.469L25.5102 44.4011C25.3039 44.9141 24.7801 45.684 23.5995 45.3916C23.6413 45.4522 20.5688 44.6353 20.5688 44.6353L18.4985 49.4085L23.9249 50.7612C24.5193 50.9102 25.1065 51.0633 25.6879 51.2149L25.6893 51.2153C26.0949 51.321 26.4977 51.426 26.8979 51.5283L25.1724 58.457L29.3374 59.496L31.0462 52.6409C32.1841 52.9498 33.2883 53.2347 34.3693 53.5033L32.6663 60.3261L36.8363 61.3651L38.5617 54.4495C45.6722 55.7951 51.0187 55.2526 53.2692 48.8211C55.0826 43.6431 53.1789 40.6564 49.4381 38.7087C52.1627 38.0803 54.215 36.2883 54.7621 32.5865L54.7608 32.5856L54.7607 32.5859ZM45.2335 45.9455C44.0512 50.6962 36.615 48.7322 33.2127 47.8335L33.2126 47.8335C32.9066 47.7527 32.6332 47.6805 32.3999 47.6226L34.6897 38.4433C34.974 38.5142 35.3213 38.5922 35.7148 38.6805L35.7151 38.6805C39.2343 39.4703 46.4448 41.0885 45.2337 45.9455H45.2335ZM36.421 34.4203C39.2575 35.1773 45.4454 36.8287 46.5231 32.5109H46.5234C47.6239 28.0949 41.6103 26.7635 38.6732 26.1132C38.3428 26.04 38.0513 25.9755 37.8133 25.9162L35.7373 34.2413C35.9333 34.2901 36.1633 34.3515 36.421 34.4203Z" fill="white"/>
</svg>
