<svg width="411" height="329" viewBox="0 0 411 329" fill="none" xmlns="http://www.w3.org/2000/svg">
<g clip-path="url(#clip0_36_16433)">
<path d="M-41 27.59C-41 27.59 39.42 8.36 100.95 60.41C186.05 132.38 129.56 237.84 228.13 229.26C332.38 220.19 352.49 335.45 352.49 335.45H-41V27.59Z" fill="url(#paint0_linear_36_16433)"/>
<path style="mix-blend-mode:multiply" d="M37.3699 329.56C37.3699 329.56 15.0199 149.39 50.7399 138.88C88.9999 127.62 57.7399 329.56 57.7399 329.56H37.3699Z" fill="url(#paint1_linear_36_16433)"/>
<path d="M51.6201 161.73C51.6201 161.73 47.0201 219 53.6801 283.14" stroke="white" stroke-miterlimit="10" stroke-linecap="round"/>
<path style="mix-blend-mode:multiply" d="M8.48 328.79C8.37 328.79 3.14 219.11 -41 189.97V328.79H8.48Z" fill="url(#paint2_linear_36_16433)"/>
<path style="mix-blend-mode:multiply" d="M157.82 328.79C157.82 328.79 168.01 270.82 186.73 275.43C208 280.67 170.22 328.79 170.22 328.79H157.82Z" fill="url(#paint3_linear_36_16433)"/>
<path style="mix-blend-mode:multiply" d="M42.5595 328.79C42.5595 328.79 37.2495 246.74 14.1295 214.28C14.1295 214.28 -9.48047 259.87 20.3695 328.33L42.5595 328.79Z" fill="url(#paint4_linear_36_16433)"/>
<path d="M187.24 169.74C185.88 168.67 185.65 166.7 186.73 165.34L189.4 161.96C190.47 160.6 191.88 159.82 193.24 160.89C193.24 160.89 195.76 163.38 197.43 162.61C199.33 161.74 203.01 157.66 204.83 154.71C206.11 152.64 202.02 149.48 202.02 149.48C200.66 148.41 201.12 147.13 202.19 145.77L204.86 142.39C205.93 141.03 207.9 140.8 209.26 141.88C219.85 150.28 201.36 177.16 187.24 169.73V169.74Z" fill="#CFDBFF"/>
<path d="M411.18 312.77H324.42V328.79H411.18V312.77Z" fill="#8885F7"/>
<path d="M401.58 303.41H334.02V312.77H401.58V303.41Z" fill="#F19C7D"/>
<path d="M344.28 288.16H219.8C218.12 288.16 216.89 286.56 217.34 284.94L242.4 192.74C243.35 189.26 246.5 186.85 250.11 186.85H374.59C376.27 186.85 377.5 188.45 377.05 190.07L351.99 282.27C351.04 285.75 347.89 288.16 344.28 288.16Z" fill="#8385FC"/>
<path d="M348.289 288.16H223.809C222.129 288.16 220.899 286.56 221.349 284.94L246.409 192.74C247.359 189.26 250.509 186.85 254.119 186.85H378.599C380.279 186.85 381.509 188.45 381.059 190.07L355.999 282.27C355.049 285.75 351.899 288.16 348.289 288.16Z" fill="url(#paint5_linear_36_16433)"/>
<path d="M289.59 239.58L271.1 314.36C269.78 319.68 265.01 323.42 259.52 323.42H244.32C242.84 323.42 241.64 324.62 241.64 326.1C241.64 327.58 242.84 328.78 244.32 328.78H284.31C289.16 328.78 293.37 325.46 294.51 320.74L313.67 240.87C314.08 239.14 312.78 237.48 311 237.48H292.25C290.99 237.48 289.89 238.34 289.59 239.57V239.58Z" fill="url(#paint6_linear_36_16433)"/>
<path d="M438.98 335.39H-41V328.79H438.98C440.8 328.79 442.28 330.27 442.28 332.09C442.28 333.91 440.8 335.39 438.98 335.39Z" fill="#0E225C"/>
<path d="M-7.86986 153.29C-16.7499 155.7 -21.9899 164.85 -19.5799 173.73C-18.4799 177.78 -15.9799 181.05 -12.7599 183.2L-12.7999 190.7L-7.55986 185.52C-4.86986 186.19 -1.99986 186.22 0.860138 185.44C9.74014 183.03 14.9801 173.88 12.5701 165C10.1601 156.12 1.01014 150.88 -7.86986 153.29ZM-8.77986 172.32C-9.56986 172.53 -10.3899 172.06 -10.5999 171.28C-10.8199 170.48 -10.3499 169.66 -9.55986 169.45C-8.75986 169.23 -7.94986 169.71 -7.73986 170.5C-7.52986 171.29 -7.98986 172.1 -8.77986 172.32ZM-3.11986 170.78C-3.91986 171 -4.72986 170.52 -4.93986 169.74C-5.15986 168.94 -4.69986 168.13 -3.89986 167.91C-3.09986 167.69 -2.28986 168.17 -2.07986 168.96C-1.86987 169.75 -2.32986 170.56 -3.11986 170.78ZM2.54014 169.24C1.74014 169.46 0.930138 168.98 0.720139 168.2C0.500139 167.4 0.960136 166.59 1.76014 166.37C2.55014 166.16 3.37014 166.63 3.58014 167.42C3.79014 168.21 3.32014 169.03 2.54014 169.24Z" fill="white"/>
<path d="M182.01 97.5701C180.81 97.2901 180.06 96.1 180.34 94.9L181.21 91.1101C181.96 87.8801 183.92 85.1301 186.73 83.3701L188.56 82.2201C191.43 80.4301 193.54 78.3301 194.51 73.9301C195.42 69.9801 192.95 66.0301 189 65.1201C185.05 64.2101 181.1 66.6801 180.19 70.6301L179.7 72.7401C179.42 73.9401 178.23 74.6901 177.03 74.4101C175.83 74.1301 175.08 72.9401 175.36 71.7401L175.85 69.6301C177.31 63.2801 183.67 59.3101 190.01 60.7801C196.32 62.2401 200.28 68.5301 198.89 74.8301C197.79 79.8601 195.41 83.2101 190.93 86.0101L189.1 87.1601C187.3 88.2901 186.04 90.0501 185.56 92.1201L184.69 95.9101C184.41 97.1101 183.22 97.8601 182.02 97.5801L182.01 97.5701Z" fill="#F19C7D"/>
<path d="M183.33 103.28C183.03 104.6 181.71 105.42 180.4 105.11C179.08 104.81 178.26 103.49 178.57 102.18C178.87 100.86 180.19 100.04 181.5 100.35C182.82 100.65 183.64 101.97 183.33 103.28Z" fill="#F19C7D"/>
<path d="M67.6999 79.3799L67.7199 79.4399C68.6799 82.6199 68.1699 84.9299 66.8499 87.3599L66.1599 88.6299C65.2999 90.2099 65.0999 92.0799 65.6099 93.8099L66.3499 96.3099L64.0499 93.7199C63.5999 91.7499 63.8799 89.7099 64.8599 87.9199L65.5499 86.6499C66.6299 84.6599 67.1699 82.7399 66.2899 79.8599C65.9099 78.5599 65.0299 77.5299 63.9299 76.9299C62.8199 76.3299 61.4899 76.1499 60.1899 76.5299C57.5899 77.2999 56.0899 80.0299 56.8599 82.6299L57.2699 84.0199C57.4399 84.5999 57.2499 85.1899 56.8299 85.5599L55.8399 84.4399L55.4299 83.0499C54.4299 79.6499 56.3699 76.0899 59.7699 75.0899C61.4599 74.5899 63.1999 74.8199 64.6399 75.6099C66.0699 76.3899 67.1999 77.6899 67.7099 79.3699L67.6999 79.3799Z" fill="white"/>
<path d="M69.1298 78.9499L69.1798 79.12C70.1298 82.34 69.8198 85.0199 68.1698 88.0699L67.4798 89.3399C66.7998 90.5899 66.6498 92.0299 67.0498 93.3899L67.7898 95.8899C68.0198 96.6799 67.5698 97.51 66.7798 97.74C65.9898 97.97 65.1598 97.5299 64.9298 96.7299L64.1898 94.2299C64.1398 94.0599 64.0998 93.8799 64.0498 93.7099C63.5998 91.7399 63.8798 89.7 64.8598 87.91L65.5498 86.6399C66.6298 84.6499 67.1698 82.7299 66.2898 79.8499C65.9098 78.5499 65.0298 77.5199 63.9298 76.9199C62.8198 76.3199 61.4898 76.1399 60.1898 76.5199C57.5898 77.2899 56.0898 80.02 56.8598 82.62L57.2698 84.0099C57.4398 84.5899 57.2498 85.18 56.8298 85.55C56.6798 85.69 56.4798 85.7999 56.2598 85.8599C55.4698 86.0899 54.6398 85.6499 54.4098 84.8499L53.9998 83.4599C52.7698 79.2799 55.1598 74.8899 59.3498 73.6499C63.4998 72.4299 67.8798 74.7799 69.1298 78.9199V78.9499Z" fill="white"/>
<path d="M69.41 100.63C69.67 101.5 69.17 102.41 68.3 102.66C67.43 102.92 66.52 102.42 66.27 101.55C66.01 100.68 66.51 99.77 67.38 99.52C68.25 99.26 69.16 99.76 69.41 100.63Z" fill="white"/>
<path d="M16.7801 116.72L-3.41992 111.24L0.180077 98.01L8.48008 107.37L20.3701 103.5L16.7801 116.72Z" fill="white"/>
<path d="M11.6598 95.67L4.13977 93.63L2.75977 98.71L8.93977 105.69L17.7898 102.79L19.1698 97.71L11.6598 95.67Z" fill="white"/>
<path d="M16.7383 99.3599L5.3125 96.2556L5.19976 96.6706L16.6256 99.7749L16.7383 99.3599Z" fill="#A6ABFD"/>
<path d="M16.1748 101.477L4.74902 98.3723L4.63628 98.7873L16.0621 101.892L16.1748 101.477Z" fill="#A6ABFD"/>
<path d="M107.06 98.02C107.06 99.48 105.88 100.66 104.42 100.66C102.96 100.66 101.78 99.48 101.78 98.02C101.78 96.56 102.96 95.38 104.42 95.38C105.88 95.38 107.06 96.56 107.06 98.02Z" stroke="white" stroke-miterlimit="10" stroke-linecap="round"/>
<path d="M175.3 132.32C175.3 133.78 174.12 134.96 172.66 134.96C171.2 134.96 170.02 133.78 170.02 132.32C170.02 130.86 171.2 129.68 172.66 129.68C174.12 129.68 175.3 130.86 175.3 132.32Z" stroke="#B0B1FB" stroke-miterlimit="10" stroke-linecap="round"/>
<path style="mix-blend-mode:multiply" d="M126.02 328.79C126.02 328.79 124.27 239.06 160.29 204.73C160.29 204.73 177.06 247.04 151.68 328.79H126.03H126.02Z" fill="url(#paint7_linear_36_16433)"/>
<path d="M151.94 231.83C151.94 231.83 154.57 267.78 141.8 321.35" stroke="white" stroke-miterlimit="10" stroke-linecap="round"/>
<path d="M105.11 182.89L104.42 191.91L104.18 194.87L103.46 204.38L83.5303 204.73L85.8003 185.03L86.9703 174.88L87.5403 169.97L105.11 182.89Z" fill="#F3B1C1"/>
<path d="M104.42 191.91L104.19 194.86C92.4697 194.86 87.0997 178.75 86.6797 177.45L86.9797 174.87C93.0297 187.56 104.43 191.91 104.43 191.91H104.42Z" fill="#DF9DAD"/>
<path d="M213.29 219.91C213.29 219.91 222.59 209.57 230.06 208.79C232.81 208.5 228.14 214.33 228.14 214.33H259.55C259.55 214.33 258.38 218.19 256.05 219.91C253.72 221.63 228.15 229.19 228.15 229.19L213.3 219.91H213.29Z" fill="#F3B1C1"/>
<path d="M118.111 147.34C120.821 149.41 125.331 151.76 125.981 155.1C126.561 158.09 120.521 168.03 123.381 171.87C128.691 179 117.761 189.06 113.891 191.73C104.571 198.15 80.6605 179.24 88.7505 154.72C94.9005 136.09 110.261 141.35 118.121 147.34H118.111Z" fill="#F3B1C1"/>
<path d="M89.9297 144.08C89.9297 144.08 115.02 161.45 127.4 154.06C139.78 146.67 128.03 132.08 128.03 132.08C128.03 132.08 125.28 137.19 116.27 134.23C107.25 131.26 90.5897 129.4 89.9397 144.08H89.9297Z" fill="#33384B"/>
<path d="M100.72 142.25C100.72 142.25 94.8 133.74 86.86 138.73C80.82 142.53 82.13 163.61 87.58 171.64C87.58 171.64 87.72 146.86 100.72 142.25Z" fill="#33384B"/>
<path d="M104.85 147.58C104.85 147.58 99.8897 159.54 94.2197 162.53C94.2197 162.53 94.7297 169.01 88.8897 169.03C88.8897 169.03 90.6597 166.99 88.7697 162.46C88.3697 161.5 88.0397 160.47 87.8397 159.38C86.6997 153.18 92.0997 141.71 98.1597 142.37C104.21 143.03 104.85 147.58 104.85 147.58Z" fill="#33384B"/>
<path d="M88.9405 172.19C88.9405 172.19 84.6605 172.67 82.9305 169.16C79.8305 162.9 86.6305 159.13 88.7605 162.46L88.9405 172.19Z" fill="#FA8FA4"/>
<path d="M42.5602 328.79C42.5602 328.79 14.6102 239.57 43.4702 219.75C72.3302 199.92 91.3902 196.16 120.92 208.06C150.45 219.96 135.03 328.79 135.03 328.79H42.5502H42.5602Z" fill="#F19C7D"/>
<path d="M111.73 248.22L157.77 290C170.17 301.26 189.83 298.02 197.98 283.39L228.14 229.2L213.29 219.92C213.29 219.92 183.59 254.72 178.49 251.94C173.39 249.16 151.52 201.18 94.3201 201.31C66.9001 201.37 111.73 248.23 111.73 248.23V248.22Z" fill="#F19C7D"/>
<path d="M43.4702 219.75C43.4702 219.75 14.5202 242.28 -3.04984 286.28C-11.1798 306.64 3.75015 328.79 25.6702 328.79H90.1602L88.9402 308.78L43.9202 285.81C43.9202 285.81 91.0102 244.81 43.4702 219.74V219.75Z" fill="#F19C7D"/>
<path d="M92.9206 161.26C92.9206 161.26 95.6006 137.61 110.921 133.03C110.921 133.03 106.561 129.31 101.301 132.31C101.301 132.31 89.1906 138.83 87.1006 161.73L92.9206 161.26Z" fill="#6970FB"/>
<path d="M107.02 188.56C105.24 187.92 100.58 185.81 96.3397 181.67C90.8697 176.34 90.7297 169.09 90.7197 168.77L92.9497 168.67C92.9497 168.74 93.3197 175.61 98.1397 180.3C103.09 185.13 108.38 186.65 108.43 186.67L107.83 188.82C107.83 188.82 107.5 188.72 107.03 188.56H107.02Z" fill="#0A0A0F"/>
<path d="M106.2 185.89C105.81 186.99 106.61 188.43 107.71 188.82C108.81 189.21 110.01 188.64 110.4 187.55C110.79 186.45 110.22 185.25 109.13 184.86C108.03 184.47 106.6 184.8 106.2 185.9V185.89Z" fill="#0A0A0F"/>
<path d="M87.6202 176.68C93.0768 176.68 97.5002 171.742 97.5002 165.65C97.5002 159.558 93.0768 154.62 87.6202 154.62C82.1637 154.62 77.7402 159.558 77.7402 165.65C77.7402 171.742 82.1637 176.68 87.6202 176.68Z" fill="#173796"/>
<path d="M84.4299 175.47C89.29 175.47 93.2299 171.073 93.2299 165.65C93.2299 160.227 89.29 155.83 84.4299 155.83C79.5698 155.83 75.6299 160.227 75.6299 165.65C75.6299 171.073 79.5698 175.47 84.4299 175.47Z" fill="#8885F7"/>
<path d="M77.73 202.84L84.95 192.37L97.49 201.3L104.17 194.87L110.51 202.63L103.55 210.73L97.48 203.92L92.01 211.85C92.01 211.85 83.09 208.96 77.71 202.84H77.73Z" fill="white"/>
<path d="M59.4601 262.14L44.1801 286.25C41.9601 289.75 43.5501 294.39 47.4401 295.81L92.0301 312.03" fill="#F19C7D"/>
<path d="M59.4601 262.14L44.1801 286.25C41.9601 289.75 43.5501 294.39 47.4401 295.81L92.0301 312.03" stroke="#0A0A0F" stroke-miterlimit="10"/>
<path d="M90.1702 328.79L92.0302 315.34C92.0302 315.34 114.99 321.97 116.46 323.2C117.93 324.43 122.11 328.8 122.11 328.8H90.1602L90.1702 328.79Z" fill="#F3B1C1"/>
<path d="M43.7401 114.5L42.5801 122.09" stroke="white" stroke-miterlimit="10" stroke-linecap="round"/>
<path d="M46.9804 118.91L39.4004 117.69" stroke="white" stroke-miterlimit="10" stroke-linecap="round"/>
<path d="M235.94 155.18L234.77 162.77" stroke="#B0B1FB" stroke-miterlimit="10" stroke-linecap="round"/>
<path d="M239.17 159.58L231.59 158.36" stroke="#B0B1FB" stroke-miterlimit="10" stroke-linecap="round"/>
<path d="M142.075 60.1554L137.45 56.1622L133.457 60.7868L138.082 64.78L142.075 60.1554Z" stroke="#9DA5FE" stroke-miterlimit="10" stroke-linecap="round"/>
<path d="M209.02 289.82H182C180.33 289.82 178.98 291.17 178.98 292.84V310.51C178.98 314.48 180.18 318.35 182.43 321.62L185.73 326.43C186.74 327.91 188.42 328.79 190.21 328.79H200.77C202.58 328.79 204.26 327.89 205.27 326.4L209.15 320.65C211.02 317.87 212.03 314.6 212.03 311.25V292.84C212.03 291.17 210.68 289.82 209.01 289.82H209.02Z" fill="white"/>
<path d="M192.07 315.46H177.02C171.93 315.46 167.79 311.32 167.79 306.23C167.79 301.14 171.93 297 177.02 297H192.07V315.45V315.46ZM177.02 301.08C174.18 301.08 171.86 303.39 171.86 306.24C171.86 309.09 174.17 311.4 177.02 311.4H188V301.09H177.02V301.08Z" fill="white"/>
<path d="M196.49 278.39C196.49 278.39 190.93 273.96 193.04 267.03C195.15 260.09 199.68 255.52 196.49 250.61C196.49 250.61 204.52 251.8 201.62 259.93C198.72 268.06 194.03 273.14 196.49 278.4V278.39Z" fill="url(#paint8_linear_36_16433)"/>
<path d="M190.95 264.49C190.95 264.49 185.51 272.42 190.95 278.38C197.4 285.45 194.55 288.69 194.55 288.69C194.55 288.69 192.56 285.55 187.24 282.07C182.59 279.03 179.1 269.07 190.95 264.48V264.49Z" fill="url(#paint9_linear_36_16433)"/>
<path d="M338 81C345.5 81 353 73.5 353 66C353 73.5 360.5 81 368 81C360.5 81 353 88.5 353 96C353 88.5 345.5 81 338 81Z" fill="white"/>
<path d="M323 73.5C326.75 73.5 330.5 69.75 330.5 66C330.5 69.75 334.25 73.5 338 73.5C334.25 73.5 330.5 77.25 330.5 81C330.5 77.25 326.75 73.5 323 73.5Z" fill="#F19C7D"/>
</g>
<defs>
<linearGradient id="paint0_linear_36_16433" x1="-41" y1="179.79" x2="352.49" y2="179.79" gradientUnits="userSpaceOnUse">
<stop stop-color="#919DFF"/>
<stop offset="1" stop-color="#FFE5F5"/>
</linearGradient>
<linearGradient id="paint1_linear_36_16433" x1="37.4999" y1="123.93" x2="58.7499" y2="295.88" gradientUnits="userSpaceOnUse">
<stop stop-color="#919DFF"/>
<stop offset="1" stop-color="#FFE5F5"/>
</linearGradient>
<linearGradient id="paint2_linear_36_16433" x1="-86.57" y1="172.73" x2="-9.76" y2="307.67" gradientUnits="userSpaceOnUse">
<stop stop-color="#919DFF"/>
<stop offset="1" stop-color="#FFE5F5"/>
</linearGradient>
<linearGradient id="paint3_linear_36_16433" x1="157.82" y1="301.98" x2="193.23" y2="301.98" gradientUnits="userSpaceOnUse">
<stop stop-color="#919DFF"/>
<stop offset="1" stop-color="#FFE5F5"/>
</linearGradient>
<linearGradient id="paint4_linear_36_16433" x1="12.4795" y1="204.37" x2="25.5595" y2="310.23" gradientUnits="userSpaceOnUse">
<stop stop-color="#919DFF"/>
<stop offset="1" stop-color="#FFE5F5"/>
</linearGradient>
<linearGradient id="paint5_linear_36_16433" x1="221.249" y1="237.5" x2="381.149" y2="237.5" gradientUnits="userSpaceOnUse">
<stop stop-color="#919DFF"/>
<stop offset="1" stop-color="#FFE5F5"/>
</linearGradient>
<linearGradient id="paint6_linear_36_16433" x1="236.05" y1="328.93" x2="435.93" y2="158.38" gradientUnits="userSpaceOnUse">
<stop stop-color="#919DFF"/>
<stop offset="1" stop-color="#FFE5F5"/>
</linearGradient>
<linearGradient id="paint7_linear_36_16433" x1="160.24" y1="178.39" x2="139.84" y2="327.1" gradientUnits="userSpaceOnUse">
<stop stop-color="#919DFF"/>
<stop offset="1" stop-color="#FFE5F5"/>
</linearGradient>
<linearGradient id="paint8_linear_36_16433" x1="192.56" y1="264.49" x2="202.25" y2="264.49" gradientUnits="userSpaceOnUse">
<stop stop-color="#919DFF"/>
<stop offset="1" stop-color="#FFE5F5"/>
</linearGradient>
<linearGradient id="paint9_linear_36_16433" x1="182.91" y1="276.59" x2="195.18" y2="276.59" gradientUnits="userSpaceOnUse">
<stop stop-color="#919DFF"/>
<stop offset="1" stop-color="#FFE5F5"/>
</linearGradient>
<clipPath id="clip0_36_16433">
<rect width="411" height="329" fill="white"/>
</clipPath>
</defs>
</svg>
