<svg width="36" height="36" viewBox="0 0 36 36" fill="none" xmlns="http://www.w3.org/2000/svg">
<path d="M11.2588 22.8976C11.2982 23.04 11.3653 23.1733 11.4562 23.2898C11.547 23.4063 11.66 23.5037 11.7886 23.5766C11.9171 23.6494 12.0588 23.6963 12.2054 23.7144C12.3521 23.7325 12.5009 23.7215 12.6433 23.6821C12.7857 23.6427 12.919 23.5756 13.0355 23.4847C13.152 23.3938 13.2494 23.2809 13.3223 23.1523C13.3951 23.0238 13.4419 22.8821 13.46 22.7355C13.4781 22.5888 13.4672 22.44 13.4278 22.2976L11.2588 22.8976ZM4.79979 7.0876C4.65681 7.04584 4.50697 7.03289 4.35894 7.0495C4.21092 7.0661 4.06767 7.11194 3.9375 7.18435C3.80733 7.25676 3.69283 7.35429 3.60066 7.4713C3.50848 7.58831 3.44046 7.72245 3.40054 7.86596C3.36061 8.00946 3.34959 8.15946 3.36809 8.30726C3.3866 8.45506 3.43427 8.59771 3.50835 8.72694C3.58242 8.85617 3.68142 8.9694 3.7996 9.06007C3.91778 9.15073 4.05279 9.21703 4.19679 9.2551L4.79979 7.0876ZM30.2818 23.5876C30.4283 23.5537 30.5665 23.4908 30.6883 23.4026C30.81 23.3145 30.9129 23.2027 30.9907 23.0741C31.0686 22.9455 31.1199 22.8026 31.1416 22.6538C31.1633 22.505 31.1549 22.3534 31.117 22.2079C31.0791 22.0624 31.0124 21.926 30.9209 21.8067C30.8294 21.6874 30.7149 21.5877 30.5842 21.5134C30.4534 21.4391 30.3092 21.3918 30.1598 21.3742C30.0105 21.3567 29.8592 21.3692 29.7148 21.4111L30.2818 23.5876ZM15.2953 26.3386C15.7603 28.0186 14.7403 29.7931 12.9343 30.2626L13.4998 32.4391C16.4653 31.6696 18.2773 28.6861 17.4643 25.7386L15.2953 26.3386ZM12.9343 30.2626C11.1163 30.7351 9.29229 29.6791 8.82429 27.9841L6.65529 28.5841C7.46529 31.5166 10.5463 33.2071 13.4998 32.4391L12.9343 30.2626ZM8.82429 27.9841C8.35929 26.3041 9.37929 24.5296 11.1853 24.0601L10.6198 21.8851C7.65429 22.6546 5.84079 25.6366 6.65529 28.5841L8.82429 27.9841ZM11.1853 24.0601C13.0033 23.5876 14.8273 24.6436 15.2953 26.3386L17.4643 25.7386C16.6543 22.8061 13.5733 21.1156 10.6198 21.8836L11.1853 24.0601ZM13.4278 22.2976L10.1998 10.6126L8.03079 11.2126L11.2588 22.8976L13.4278 22.2976ZM7.35579 7.7956L4.79979 7.0876L4.19679 9.2551L6.75429 9.9646L7.35579 7.7956ZM10.1998 10.6126C10.0095 9.93738 9.64747 9.32298 9.14905 8.82929C8.65063 8.3356 8.0328 7.97947 7.35579 7.7956L6.75729 9.9646C7.39479 10.1416 7.86879 10.6261 8.03079 11.2126L10.1998 10.6126ZM16.6648 27.1276L30.2818 23.5876L29.7163 21.4111L16.0978 24.9511L16.6648 27.1276Z" fill="white"/>
<path fill-rule="evenodd" clip-rule="evenodd" d="M25.6214 5.5616L15.4791 8.2792C15.079 8.38641 14.8416 8.79766 14.9488 9.19776L17.6664 19.34C17.7736 19.7401 18.1849 19.9775 18.585 19.8703L28.7272 17.1527C29.1273 17.0455 29.3647 16.6343 29.2575 16.2342L26.5399 6.09193C26.4327 5.69183 26.0215 5.45439 25.6214 5.5616ZM14.8968 6.10587C13.2964 6.53469 12.3467 8.1797 12.7755 9.7801L15.4931 19.9223C15.9219 21.5227 17.5669 22.4725 19.1673 22.0436L29.3095 19.326C30.9099 18.8972 31.8597 17.2522 31.4309 15.6518L28.7133 5.50959C28.2844 3.90919 26.6394 2.95944 25.039 3.38827L14.8968 6.10587Z" fill="white"/>
</svg>
