<svg width="448" height="614" viewBox="0 0 448 614" fill="none" xmlns="http://www.w3.org/2000/svg">
<path d="M99.6595 155.446C99.5502 155.446 99.4478 155.432 99.3454 155.398C46.5744 138.339 21.9265 102.091 10.5448 74.6942C9.75958 72.8109 12.0947 71.7737 14.1566 70.8593C14.9077 70.5249 16.1025 69.9927 16.519 69.631C15.9181 68.9828 13.4602 67.8569 11.9444 67.1608C8.6808 65.6665 6.81003 64.7521 6.40037 63.5033C1.36837 48.0476 0.535395 36.8704 0.528567 36.7612C0.501256 36.42 0.651477 36.0856 0.924583 35.8809C1.19769 35.6694 1.55272 35.608 1.88045 35.7172C30.7 45.4137 54.0097 61.1219 71.154 82.4119C72.2327 83.7561 71.9801 86.5811 71.4271 91.078C71.1471 93.3776 70.7238 96.8167 71.1676 97.6833C71.7685 97.8062 73.7144 97.0828 74.9024 96.6393C77.5652 95.6499 79.8661 94.7901 80.8493 96.3186C100.533 126.882 100.69 154.163 100.69 154.436C100.69 154.764 100.533 155.071 100.267 155.262C100.09 155.392 99.878 155.46 99.6663 155.46L99.6595 155.446ZM12.4975 74.0528C23.6402 100.802 47.6054 136.019 98.5876 152.99C98.2598 147.067 95.9179 123.545 79.1901 97.5196C78.5961 97.424 76.739 98.1201 75.6124 98.5431C72.9155 99.5462 70.5941 100.413 69.5358 98.9253C68.6073 97.6151 68.8735 94.988 69.3856 90.8119C69.6997 88.2734 70.164 84.4453 69.5495 83.6742C52.9582 63.0666 30.4815 47.761 2.72708 38.1532C3.13674 41.6947 4.4818 50.975 8.34626 62.8551C8.6535 63.3873 11.248 64.5747 12.7911 65.2912C16.041 66.7787 18.062 67.7613 18.54 69.0578C19.2022 70.8525 16.9628 71.8487 14.9827 72.7222C14.1703 73.0838 12.8525 73.6707 12.4907 74.0528H12.4975Z" fill="#F19C7D"/>
<path d="M123.427 179.138C123.427 179.138 152.717 112.798 103.9 41.8721C102.691 40.1184 94.3887 44.6221 93.0846 42.8684C91.7805 41.1079 95.2217 27.5492 93.822 25.7955C87.1172 17.4159 79.2791 9.09101 70.13 0.950317C70.13 0.950317 35.1655 102.419 123.42 179.138H123.427Z" fill="#F19C7D"/>
<path d="M116.522 156.429C116.092 156.429 115.689 156.156 115.553 155.726C110.76 141.205 106.253 128.035 102.15 116.592C101.959 116.06 102.239 115.473 102.771 115.282C103.304 115.091 103.891 115.37 104.082 115.903C108.186 127.366 112.699 140.55 117.499 155.084C117.676 155.623 117.383 156.197 116.843 156.374C116.734 156.408 116.631 156.429 116.522 156.429V156.429Z" fill="#CADDFF"/>
<path d="M94.4303 94.0668C94.0206 94.0668 93.6383 93.8211 93.4813 93.4185C93.3311 93.0364 78.2624 54.6325 77.9415 34.9325C77.9347 34.3661 78.3853 33.9021 78.952 33.8953H78.9656C79.5255 33.8953 79.983 34.3456 79.9898 34.9052C80.3039 54.2368 95.2291 92.2926 95.3794 92.6679C95.591 93.1934 95.3316 93.787 94.8058 93.9986C94.6829 94.0463 94.5532 94.0736 94.4303 94.0736V94.0668Z" fill="#CADDFF"/>
<mask id="path-5-inside-1_29_20" fill="white">
<rect x="105.524" y="600.764" width="33.4958" height="13.2362" rx="1.35064"/>
</mask>
<rect x="105.524" y="600.764" width="33.4958" height="13.2362" rx="1.35064" fill="#515669" stroke="black" stroke-width="5.40254" mask="url(#path-5-inside-1_29_20)"/>
<mask id="path-6-inside-2_29_20" fill="white">
<rect x="320.274" y="600.764" width="33.4958" height="13.2362" rx="1.35064"/>
</mask>
<rect x="320.274" y="600.764" width="33.4958" height="13.2362" rx="1.35064" fill="#515669" stroke="black" stroke-width="5.40254" mask="url(#path-6-inside-2_29_20)"/>
<rect x="82.0225" y="105.351" width="293.628" height="496.764" rx="22.1504" fill="#8F83FF" stroke="black" stroke-width="2.70127"/>
<path d="M83.6431 125.07C83.6431 117.312 89.9319 111.023 97.6897 111.023H345.937C358.916 111.023 369.438 121.545 369.438 134.524V579.424C369.438 591.21 359.883 600.764 348.098 600.764H104.173C92.8345 600.764 83.6431 591.572 83.6431 580.234V125.07Z" fill="#5347EC"/>
<rect x="103.903" y="179.636" width="248.517" height="205.837" fill="#B7B7B7" stroke="black" stroke-width="2.70127"/>
<path d="M301.096 216.508H156.849L104.174 179.906H352.151L301.096 216.508Z" fill="#999999"/>
<path d="M156.849 216.508L156.078 217.617L156.425 217.859H156.849V216.508ZM301.096 216.508V217.859H301.531L301.883 217.606L301.096 216.508ZM352.151 179.906L352.937 181.003C353.414 180.661 353.616 180.051 353.436 179.492C353.257 178.934 352.737 178.555 352.151 178.555V179.906ZM104.174 179.906V178.555C103.583 178.555 103.061 178.938 102.885 179.502C102.708 180.065 102.918 180.678 103.403 181.015L104.174 179.906ZM156.849 217.859H301.096V215.157H156.849V217.859ZM301.883 217.606L352.937 181.003L351.364 178.808L300.31 215.41L301.883 217.606ZM352.151 178.555H104.174V181.256H352.151V178.555ZM103.403 181.015L156.078 217.617L157.619 215.399L104.945 178.796L103.403 181.015Z" fill="black"/>
<path d="M320.005 349.816H137.94L104.174 385.337H352.151L320.005 349.816Z" fill="#D3D3D3"/>
<path d="M137.94 349.816L136.961 348.885L137.36 348.465H137.94V349.816ZM320.005 349.816V348.465H320.605L321.007 348.909L320.005 349.816ZM352.151 385.337L353.152 384.431C353.51 384.827 353.602 385.397 353.385 385.885C353.168 386.373 352.685 386.688 352.151 386.688V385.337ZM104.174 385.337V386.688C103.634 386.688 103.146 386.366 102.933 385.87C102.72 385.374 102.823 384.798 103.195 384.407L104.174 385.337ZM137.94 348.465H320.005V351.166H137.94V348.465ZM321.007 348.909L353.152 384.431L351.149 386.244L319.004 350.722L321.007 348.909ZM352.151 386.688H104.174V383.987H352.151V386.688ZM103.195 384.407L136.961 348.885L138.919 350.746L105.153 386.268L103.195 384.407Z" fill="black"/>
<path d="M320.276 349.545H138.21L157.119 216.103H300.556L320.276 349.545Z" fill="#D8D8D8" stroke="black" stroke-width="2.70127"/>
<path d="M157.388 326.315L232.213 326.315" stroke="black" stroke-width="2.70127" stroke-linecap="round"/>
<path d="M153.389 336.315L228.214 336.315" stroke="black" stroke-width="2.70127" stroke-linecap="round"/>
<path d="M276.171 230.555H185.315C182.613 230.555 180.327 232.551 179.962 235.228L170.493 304.786C170.051 308.03 172.573 310.917 175.846 310.917H284.827C288.075 310.917 290.589 308.071 290.188 304.848L281.532 235.29C281.196 232.585 278.897 230.555 276.171 230.555Z" fill="url(#paint0_linear_29_20)"/>
<path d="M276.171 230.555H185.315C182.613 230.555 180.327 232.551 179.962 235.228L170.493 304.786C170.051 308.03 172.573 310.917 175.846 310.917H284.827C288.075 310.917 290.589 308.071 290.188 304.848L281.532 235.29C281.196 232.585 278.897 230.555 276.171 230.555Z" fill="#5347EC"/>
<path d="M276.171 230.555H185.315C182.613 230.555 180.327 232.551 179.962 235.228L170.493 304.786C170.051 308.03 172.573 310.917 175.846 310.917H284.827C288.075 310.917 290.589 308.071 290.188 304.848L281.532 235.29C281.196 232.585 278.897 230.555 276.171 230.555Z" stroke="black" stroke-width="2.70127" stroke-linecap="round"/>
<path d="M229.243 376.828H124.881C124.407 376.828 124.163 376.26 124.489 375.916L141.292 358.223C141.394 358.115 141.535 358.055 141.683 358.055H229.243C229.541 358.055 229.783 358.296 229.783 358.595V376.288C229.783 376.587 229.541 376.828 229.243 376.828Z" fill="#C7C6C2" stroke="black" stroke-width="2.70127"/>
<path d="M141.586 363.322L130.106 375.343L228.567 375.748V363.322H141.586Z" fill="#999999"/>
<path d="M244.1 364.403V358.325C244.1 358.026 244.341 357.784 244.64 357.784H315.845C316 357.784 316.147 357.851 316.25 357.966L321.64 364.044C321.949 364.393 321.701 364.943 321.235 364.943H244.64C244.341 364.943 244.1 364.701 244.1 364.403Z" fill="#33384B" stroke="black" stroke-width="2.70127"/>
<path d="M244.1 376.558V370.48C244.1 370.182 244.341 369.94 244.64 369.94H327.191C327.345 369.94 327.493 370.006 327.595 370.122L332.985 376.2C333.294 376.548 333.046 377.098 332.581 377.098H244.64C244.341 377.098 244.1 376.857 244.1 376.558Z" fill="#33384B" stroke="black" stroke-width="2.70127"/>
<path d="M246.234 339.544V320.095C246.234 319.647 246.597 319.284 247.045 319.284H290.376C290.778 319.284 291.119 319.579 291.178 319.977L294.045 339.426C294.117 339.915 293.738 340.354 293.243 340.354H247.045C246.597 340.354 246.234 339.992 246.234 339.544Z" fill="#515669" stroke="black" stroke-width="2.70127" stroke-linecap="round"/>
<path d="M251.772 334.006V325.497C251.772 325.05 252.135 324.687 252.582 324.687H285.918C286.32 324.687 286.662 324.982 286.72 325.38L287.968 333.889C288.04 334.378 287.661 334.817 287.166 334.817H252.582C252.135 334.817 251.772 334.454 251.772 334.006Z" fill="#F19C7D" stroke="black" stroke-width="2.70127" stroke-linecap="round"/>
<path d="M253.123 325.903H285.538L285.808 328.604H253.123V325.903Z" fill="#F3BFA5"/>
<path d="M103.903 384.932H352.42V563.486C352.42 570.2 346.978 575.642 340.265 575.642H116.059C109.346 575.642 103.903 570.2 103.903 563.486V384.932Z" fill="#515669" stroke="black" stroke-width="2.70127"/>
<rect x="127.404" y="403.841" width="203.136" height="45.3814" rx="6.21292" fill="#656A7D" stroke="black" stroke-width="2.70127"/>
<path d="M128.755 408.163H319.735C323.315 408.163 326.218 411.066 326.218 414.646V447.872H133.617C130.932 447.872 128.755 445.695 128.755 443.01V408.163Z" fill="#33384B"/>
<rect x="127.404" y="462.459" width="203.136" height="94.2744" rx="6.21292" fill="#656A7D" stroke="black" stroke-width="2.70127"/>
<path d="M128.755 466.781H319.735C323.315 466.781 326.218 469.683 326.218 473.264V555.382H133.617C130.932 555.382 128.755 553.206 128.755 550.52V466.781Z" fill="#33384B"/>
<rect x="103.903" y="119.667" width="248.517" height="45.3814" rx="6.21292" fill="#FFC4A5" stroke="black" stroke-width="2.70127"/>
<path d="M105.85 123.99H340.365C343.945 123.99 346.848 126.892 346.848 130.473V163.698H110.712C108.027 163.698 105.85 161.521 105.85 158.836V123.99Z" fill="#F19C7D"/>
<path d="M160.045 151.932V135.932H166.983C168.202 135.932 169.225 136.096 170.053 136.424C170.887 136.753 171.514 137.216 171.936 137.815C172.363 138.414 172.577 139.12 172.577 139.932C172.577 140.521 172.446 141.057 172.186 141.542C171.931 142.026 171.571 142.432 171.108 142.76C170.644 143.083 170.103 143.307 169.483 143.432V143.589C170.17 143.615 170.795 143.789 171.358 144.112C171.92 144.43 172.368 144.87 172.702 145.432C173.035 145.99 173.202 146.646 173.202 147.401C173.202 148.276 172.972 149.055 172.514 149.737C172.061 150.419 171.415 150.956 170.577 151.346C169.738 151.737 168.738 151.932 167.577 151.932H160.045ZM164.389 148.464H166.42C167.15 148.464 167.696 148.328 168.061 148.057C168.426 147.781 168.608 147.375 168.608 146.839C168.608 146.464 168.522 146.146 168.35 145.885C168.178 145.625 167.933 145.427 167.616 145.292C167.303 145.156 166.926 145.089 166.483 145.089H164.389V148.464ZM164.389 142.401H166.17C166.551 142.401 166.887 142.341 167.178 142.221C167.47 142.102 167.696 141.93 167.858 141.706C168.025 141.477 168.108 141.198 168.108 140.87C168.108 140.375 167.931 139.997 167.577 139.737C167.222 139.471 166.775 139.339 166.233 139.339H164.389V142.401ZM174.803 151.932V139.932H179.116V151.932H174.803ZM176.959 138.682C176.376 138.682 175.876 138.49 175.459 138.104C175.043 137.719 174.834 137.255 174.834 136.714C174.834 136.172 175.043 135.708 175.459 135.323C175.876 134.937 176.376 134.745 176.959 134.745C177.548 134.745 178.048 134.937 178.459 135.323C178.876 135.708 179.084 136.172 179.084 136.714C179.084 137.255 178.876 137.719 178.459 138.104C178.048 138.49 177.548 138.682 176.959 138.682ZM188.469 139.932V143.057H180.563V139.932H188.469ZM182.094 137.057H186.407V148.073C186.407 148.24 186.435 148.38 186.493 148.495C186.55 148.604 186.639 148.687 186.758 148.745C186.878 148.797 187.032 148.823 187.219 148.823C187.349 148.823 187.5 148.807 187.672 148.776C187.849 148.745 187.98 148.719 188.063 148.698L188.688 151.729C188.495 151.786 188.219 151.857 187.86 151.94C187.506 152.023 187.084 152.078 186.594 152.104C185.605 152.156 184.774 152.055 184.102 151.799C183.43 151.539 182.925 151.13 182.586 150.573C182.248 150.016 182.084 149.318 182.094 148.479V137.057ZM195.881 152.151C194.579 152.151 193.465 151.893 192.538 151.378C191.611 150.857 190.9 150.133 190.405 149.206C189.91 148.273 189.663 147.193 189.663 145.964C189.663 144.734 189.91 143.656 190.405 142.729C190.9 141.797 191.611 141.073 192.538 140.557C193.465 140.036 194.579 139.776 195.881 139.776C197.058 139.776 198.077 139.99 198.936 140.417C199.801 140.839 200.47 141.437 200.944 142.214C201.418 142.984 201.657 143.891 201.663 144.932H197.663C197.605 144.302 197.423 143.823 197.116 143.495C196.814 143.161 196.423 142.995 195.944 142.995C195.569 142.995 195.241 143.104 194.959 143.323C194.678 143.536 194.459 143.862 194.303 144.299C194.147 144.732 194.069 145.276 194.069 145.932C194.069 146.589 194.147 147.135 194.303 147.573C194.459 148.005 194.678 148.331 194.959 148.549C195.241 148.763 195.569 148.87 195.944 148.87C196.262 148.87 196.543 148.797 196.788 148.651C197.032 148.5 197.23 148.281 197.381 147.995C197.538 147.703 197.631 147.349 197.663 146.932H201.663C201.647 147.99 201.405 148.911 200.936 149.698C200.467 150.479 199.803 151.083 198.944 151.51C198.09 151.937 197.069 152.151 195.881 152.151ZM209.223 152.151C207.921 152.151 206.806 151.893 205.879 151.378C204.952 150.857 204.241 150.133 203.747 149.206C203.252 148.273 203.004 147.193 203.004 145.964C203.004 144.734 203.252 143.656 203.747 142.729C204.241 141.797 204.952 141.073 205.879 140.557C206.806 140.036 207.921 139.776 209.223 139.776C210.525 139.776 211.64 140.036 212.567 140.557C213.494 141.073 214.205 141.797 214.7 142.729C215.194 143.656 215.442 144.734 215.442 145.964C215.442 147.193 215.194 148.273 214.7 149.206C214.205 150.133 213.494 150.857 212.567 151.378C211.64 151.893 210.525 152.151 209.223 152.151ZM209.254 148.964C209.619 148.964 209.934 148.841 210.2 148.596C210.465 148.352 210.671 148.003 210.817 147.549C210.963 147.096 211.036 146.557 211.036 145.932C211.036 145.302 210.963 144.763 210.817 144.315C210.671 143.862 210.465 143.513 210.2 143.268C209.934 143.023 209.619 142.901 209.254 142.901C208.869 142.901 208.538 143.023 208.262 143.268C207.986 143.513 207.775 143.862 207.629 144.315C207.484 144.763 207.411 145.302 207.411 145.932C207.411 146.557 207.484 147.096 207.629 147.549C207.775 148.003 207.986 148.352 208.262 148.596C208.538 148.841 208.869 148.964 209.254 148.964ZM217.192 151.932V139.932H221.504V151.932H217.192ZM219.348 138.682C218.765 138.682 218.265 138.49 217.848 138.104C217.431 137.719 217.223 137.255 217.223 136.714C217.223 136.172 217.431 135.708 217.848 135.323C218.265 134.937 218.765 134.745 219.348 134.745C219.937 134.745 220.437 134.937 220.848 135.323C221.265 135.708 221.473 136.172 221.473 136.714C221.473 137.255 221.265 137.719 220.848 138.104C220.437 138.49 219.937 138.682 219.348 138.682ZM228.014 145.182V151.932H223.702V139.932H227.795V142.214H227.92C228.181 141.453 228.639 140.857 229.295 140.424C229.957 139.992 230.728 139.776 231.608 139.776C232.457 139.776 233.194 139.971 233.819 140.362C234.449 140.747 234.936 141.279 235.28 141.956C235.629 142.633 235.801 143.406 235.795 144.276V151.932H231.483V145.182C231.488 144.589 231.337 144.122 231.03 143.784C230.728 143.445 230.306 143.276 229.764 143.276C229.41 143.276 229.1 143.354 228.834 143.51C228.574 143.661 228.374 143.88 228.233 144.167C228.092 144.448 228.019 144.786 228.014 145.182ZM246.401 151.932H241.713L246.995 135.932H252.932L258.213 151.932H253.526L250.026 140.339H249.901L246.401 151.932ZM245.526 145.62H254.338V148.87H245.526V145.62ZM257.297 139.432V135.932H271.204V139.432H266.391V151.932H262.11V139.432H257.297ZM272.838 135.932H278.245L281.963 144.995H282.151L285.87 135.932H291.276V151.932H287.026V142.682H286.901L283.338 151.807H280.776L277.213 142.62H277.088V151.932H272.838V135.932Z" fill="white"/>
<path d="M398.612 429L389.477 430.119L388.473 440.116C386.405 440.75 384.411 441.549 382.52 442.504L374.859 436.008L367.506 441.542L371.636 450.706C370.182 452.276 368.864 453.961 367.69 455.749L357.797 453.948L354.199 462.416L362.351 468.277C361.88 470.345 361.586 472.467 361.47 474.623L352 478.008L353.12 487.138L363.122 488.141C363.757 490.209 364.556 492.201 365.512 494.091L359.019 501.748L364.556 509.097L373.726 504.968C375.296 506.422 376.982 507.739 378.771 508.913L376.969 518.8L385.442 522.396L391.307 514.249C393.376 514.72 395.499 515.013 397.657 515.129L401.043 524.593L410.179 523.474L411.182 513.478C413.251 512.843 415.245 512.045 417.136 511.089L424.797 517.585L432.15 512.051L428.019 502.887C429.474 501.318 430.791 499.632 431.966 497.844L441.859 499.646L445.457 491.178L437.305 485.316C437.776 483.249 438.07 481.126 438.186 478.97L447.656 475.585L446.536 466.455L436.533 465.452C435.898 463.385 435.1 461.392 434.144 459.502L440.637 451.846L435.1 444.497L425.93 448.625C424.36 447.172 422.673 445.855 420.884 444.681L422.687 434.793L414.214 431.197L408.349 439.345C406.28 438.874 404.157 438.58 401.999 438.464L398.612 429V429ZM423.356 473.927C424.947 486.913 415.702 498.725 402.709 500.315C389.716 501.905 377.897 492.665 376.306 479.68C374.716 466.694 383.96 454.882 396.953 453.292C409.946 451.702 421.765 460.942 423.356 473.927Z" fill="#F19C7D"/>
<path d="M331.967 375.906L325.699 376.67L325.01 383.528C323.59 383.965 322.224 384.51 320.927 385.166L315.669 380.71L310.624 384.504L313.457 390.788C312.46 391.866 311.552 393.02 310.754 394.248L303.967 393.013L301.495 398.82L307.087 402.839C306.766 404.258 306.561 405.712 306.479 407.193L299.986 409.513L300.751 415.777L307.613 416.466C308.05 417.885 308.596 419.25 309.251 420.547L304.793 425.801L308.589 430.843L314.877 428.012C315.956 429.008 317.11 429.915 318.339 430.721L317.103 437.503L322.914 439.974L326.935 434.385C328.355 434.706 329.81 434.91 331.291 434.992L333.613 441.482L339.88 440.717L340.57 433.86C341.99 433.423 343.356 432.877 344.653 432.222L349.91 436.678L354.956 432.884L352.122 426.599C353.119 425.521 354.027 424.368 354.833 423.14L361.62 424.375L364.091 418.568L358.499 414.548C358.82 413.129 359.025 411.676 359.107 410.195L365.6 407.875L364.835 401.611L357.974 400.922C357.537 399.502 356.991 398.137 356.335 396.841L360.794 391.587L356.997 386.544L350.709 389.376C349.63 388.38 348.476 387.472 347.247 386.667L348.483 379.884L342.673 377.414L338.651 383.002C337.231 382.682 335.777 382.477 334.295 382.395L331.974 375.906H331.967ZM348.941 406.728C350.033 415.633 343.69 423.74 334.78 424.832C325.87 425.924 317.759 419.584 316.666 410.679C315.574 401.774 321.917 393.668 330.827 392.576C339.737 391.484 347.848 397.824 348.941 406.728Z" fill="white"/>
<defs>
<linearGradient id="paint0_linear_29_20" x1="237.19" y1="232.851" x2="178.302" y2="304.704" gradientUnits="userSpaceOnUse">
<stop stop-color="#6CDFE6"/>
<stop offset="1" stop-color="#3374EA"/>
</linearGradient>
</defs>
</svg>
