<svg width="885" height="1019" viewBox="0 0 885 1019" fill="none" xmlns="http://www.w3.org/2000/svg">
<g clip-path="url(#clip0_106_74)">
<path fill-rule="evenodd" clip-rule="evenodd" d="M143.939 177.047L144.176 177.102L144.004 176.964L143.939 177.047ZM533.556 648.891C532.264 636.966 530.44 625.109 527.996 613.394C515.673 593.46 498.075 579.269 479.493 566.391C467.707 558.335 455.293 551.042 442.529 544.329C436.179 540.984 429.7 537.699 423.317 534.836C417.434 532.153 410.581 529.616 404.075 527.486C377.655 518.893 349.5 516.101 320.874 518.929C292.267 521.905 263.316 529.559 235.031 541.936L234.969 541.913C240.172 536.09 246.115 530.957 252.343 526.209C258.551 521.418 265.169 517.057 272.049 513.144C285.791 505.276 300.689 499.095 316.298 494.864C347.476 486.318 381.877 486.275 413.723 495.585C421.756 497.983 429.237 500.64 437.265 504.13C444.706 507.585 451.804 511.306 458.748 515.358C472.527 523.566 485.646 533.02 497.527 544.146C502.37 548.754 507.02 553.647 511.344 558.84C505.912 545.776 499.437 533.141 491.942 521.152C485.357 518.232 479.068 515.076 472.837 511.951L472.837 511.95C471.426 511.243 470.018 510.536 468.611 509.835C463.268 507.417 458.01 504.959 452.817 502.419C450.682 501.419 448.578 500.334 446.491 499.258C446.037 499.024 445.585 498.791 445.133 498.559C443.704 497.741 442.174 497.107 440.654 496.477C439.528 496.011 438.407 495.547 437.337 495.011C432.097 492.701 426.941 490.351 421.873 487.856C419.34 486.556 416.76 485.486 414.137 484.436L406.377 481.183C399.459 477.95 392.384 475.246 385.308 472.542L385.308 472.541C381.967 471.265 378.626 469.988 375.301 468.655C354.339 461.18 333.209 454.562 311.369 449.524C289.424 444.484 267.137 440.592 242.867 438.775L242.762 438.772C253.398 432.469 265.397 428.951 277.455 426.443L286.571 424.852C288.587 424.524 290.609 424.353 292.652 424.18C293.687 424.092 294.728 424.004 295.777 423.895C301.95 423.222 308.108 423.179 314.306 423.222C339.074 423.559 363.644 428.661 386.856 436.947L403.941 444.014C406.791 445.217 409.576 446.502 412.251 447.995C412.85 448.312 413.45 448.628 414.051 448.945L414.052 448.945C416.163 450.057 418.287 451.175 420.385 452.37C431.304 458.03 441.307 465.056 451.116 472.329C451.813 472.811 452.502 473.306 453.182 473.812C429.455 451.383 401.073 433.915 370.682 421.559C353.616 414.638 335.904 409.216 317.862 405.298C299.995 401.456 281.728 398.824 263.509 398.353C250.918 400.756 238.23 402.881 225.457 405.02L225.375 405.033L223.853 405.288L222.199 405.565C203.873 408.323 185.288 409.541 166.859 407.779C148.425 406.227 130.025 403.204 112.096 398.092C103.165 395.442 94.2842 392.457 85.6958 388.659C77.1699 384.884 68.6564 380.583 61.1881 374.753C70.5816 375.628 79.5799 376.325 88.6433 376.94L115.516 378.882L168.784 382.524C173.232 382.819 177.677 383.219 182.1 383.681C186.526 384.039 190.991 384.481 195.454 385.029C196.922 385.23 198.392 385.43 199.863 385.629L199.864 385.63C207.293 386.638 214.761 387.651 222.237 388.986C231.218 390.419 240.243 391.726 249.334 392.951C253.413 393.501 257.484 393.813 261.562 394.126C263.945 394.309 266.331 394.492 268.721 394.723C279.484 395.044 290.153 396.061 300.76 397.594C280.251 385.809 260.57 376.554 240.118 367.956C219.934 359.393 199.476 351.59 178.879 343.733L178.876 343.732L176.726 342.912C173.816 341.811 170.903 340.711 167.988 339.61L167.865 339.564C149.434 332.602 130.894 325.6 112.254 318.221C90.6697 309.533 68.9824 300.737 47.2476 289.524L47.29 289.504C71.6874 286.849 95.6773 288.953 119.292 292.688C142.902 296.633 166.144 302.776 188.657 311.339C211.149 319.859 233.039 330.74 253.109 344.813C263.112 351.839 272.633 359.714 281.162 368.68C289.422 377.405 296.942 386.973 302.131 397.795C307.664 398.618 313.182 399.579 318.687 400.653C329.183 402.738 339.571 405.314 349.813 408.399C342.096 403.301 334.913 397.827 327.779 392.391L327.779 392.39L327.778 392.39L327.778 392.39L327.728 392.352C326.828 391.666 325.928 390.98 325.028 390.296C320.135 386.628 315.327 382.92 310.604 379.173C308.806 377.776 307.033 376.308 305.285 374.859C304.726 374.397 304.17 373.936 303.615 373.48C303.089 373.071 302.561 372.664 302.033 372.256L302.033 372.256L302.032 372.255L302.032 372.255L302.032 372.255L302.032 372.255C300.177 370.823 298.316 369.387 296.52 367.889C291.797 364.141 287.159 360.354 282.648 356.506L268.774 345.228C267.189 343.914 265.627 342.584 264.067 341.256L264.067 341.255L264.066 341.255L264.066 341.255L264.066 341.255L264.065 341.254L264.065 341.254L264.065 341.254L264.064 341.254L264.064 341.253L264.064 341.253C261.101 338.73 258.145 336.212 255.05 333.827L241.411 322.386L186.62 276.785C168.24 261.449 149.945 246.073 130.876 229.712L130.813 229.689C143.405 231.291 155.461 235.067 167.232 239.339L175.998 242.742C178.074 243.591 180.105 244.514 182.131 245.435L182.134 245.437L182.135 245.437L182.136 245.437L182.137 245.438L182.137 245.438L182.138 245.438C182.933 245.8 183.728 246.161 184.524 246.517C189.936 248.865 195.153 251.582 200.342 254.284L201.286 254.775C223.26 266.498 243.79 280.667 262.937 296.42L276.914 308.689C281.522 312.854 285.938 317.162 290.308 321.595C299.137 330.316 307.365 339.526 315.206 349.127C319.234 353.825 323.005 358.748 326.583 363.813C330.245 368.839 333.738 373.944 337.189 379.07C343.484 388.924 349.252 399.118 354.299 409.786C360.471 411.744 366.587 413.889 372.637 416.226C380.81 419.382 388.863 422.905 396.746 426.793C390.293 419.026 384.07 411.259 377.901 403.561L377.893 403.551L377.889 403.546L377.889 403.546C366.705 389.588 355.701 375.855 343.839 362.753C338.107 355.735 331.966 349.077 325.832 342.427C321.74 337.991 317.65 333.558 313.688 329.023L297.976 312.847C296.971 311.81 295.989 310.754 295.008 309.702L295.006 309.7L295.006 309.699C293.426 308.003 291.853 306.314 290.205 304.719L282.069 296.918C260.739 275.754 238.549 255.41 215.419 235.716C192.43 215.923 168.799 196.743 144.176 177.102C175.079 184.285 203.924 198.057 230.91 214.356C257.963 230.802 283.109 250.586 305.714 272.915C316.028 282.639 325.282 293.439 334.484 304.179C335.605 305.488 336.726 306.796 337.848 308.101C339.436 310.226 341.036 312.339 342.637 314.453C345.838 318.681 349.039 322.908 352.144 327.227C352.925 328.352 353.739 329.454 354.554 330.558C356.094 332.644 357.639 334.736 358.973 336.993L365.246 347.124C381.444 372.451 393.431 400.413 401.5 429.193C413.884 435.592 425.814 442.909 437.088 451.145C422.097 433.488 408.89 414.417 397.427 394.435C390.178 382.57 384.09 370.114 378 357.655L377.999 357.653C377.446 356.522 376.893 355.39 376.34 354.259C370.174 340.496 364.053 326.607 359.012 312.366C348.485 284.041 340.482 254.788 335.053 225.05C329.792 195.337 326.521 164.999 329.076 134.464C338.84 158.712 347.579 182.565 356.279 206.312L356.284 206.324L356.289 206.337L356.293 206.35L356.298 206.363L356.303 206.375L356.307 206.388L356.312 206.401L356.317 206.414C357.752 210.331 359.186 214.244 360.623 218.156C362.319 222.844 364.011 227.526 365.701 232.203L365.738 232.304L365.76 232.366C374.032 255.254 382.259 278.021 390.705 300.721L394.368 311.042L398.306 321.286L405.865 341.87L421.382 383.006C424.721 392.323 428.209 401.569 431.71 410.851L431.71 410.853L431.711 410.855L431.712 410.857L431.713 410.859L431.713 410.861L431.714 410.863L431.715 410.865L431.716 410.867C437.895 427.251 444.116 443.744 449.635 460.923C453.659 464.267 457.58 467.74 461.388 471.342C457.163 462.717 453.577 453.743 450.893 444.502C446.954 431.611 444.286 418.33 442.651 404.926C441.886 398.225 441.416 391.49 441.135 384.717C440.985 381.309 441.003 377.926 441.063 374.523L441.064 374.44C441.119 371.381 441.169 368.555 441.387 365.225C441.119 349.121 440.788 332.994 439.366 316.863C439.084 311.63 438.555 306.428 438.024 301.209C437.734 298.347 437.442 295.481 437.191 292.603C436.76 289.422 436.402 286.224 436.044 283.023L436.044 283.022L436.044 283.021L436.044 283.021L436.043 283.02L436.043 283.02L436.043 283.019L436.043 283.019L436.043 283.019C435.494 278.115 434.945 273.205 434.132 268.343C432.039 252.091 429.336 235.867 426.301 219.488C423.308 203.089 419.957 186.703 416.366 169.806C427.438 183.182 436.071 198.329 443.54 213.867C450.986 229.469 457.134 245.733 461.885 262.447C466.573 279.138 470.264 296.247 472.247 313.589C473.301 320.539 473.725 327.584 474.148 334.616L474.148 334.622C474.25 336.316 474.352 338.009 474.463 339.699C474.725 343.083 474.72 346.498 474.716 349.892C474.714 350.869 474.713 351.845 474.718 352.818C474.713 354.005 474.712 355.194 474.711 356.383L474.711 356.386L474.711 356.386L474.711 356.387L474.711 356.387L474.711 356.388L474.711 356.388L474.711 356.389L474.711 356.389C474.709 359.577 474.707 362.77 474.616 365.949L474.573 366.852L474.518 367.397C474.231 369.764 473.923 372.972 473.728 375.868C473.597 377.656 473.511 379.461 473.425 381.281L473.425 381.282L473.425 381.283C473.368 382.473 473.311 383.669 473.241 384.871C472.946 390.218 472.915 395.604 472.884 401.009L472.884 401.01C472.88 401.693 472.876 402.377 472.871 403.06C472.854 415.269 473.574 427.39 474.712 439.626C475.808 451.882 477.938 463.911 480.526 476.14C482.212 484.071 484.507 491.824 487.117 499.692C504.02 521.535 517.281 546.234 526.616 572.198C527.726 575.25 528.787 578.317 529.799 581.399C529.825 578.154 529.82 574.923 529.697 571.682C529.713 566.393 529.533 561.108 529.353 555.849C529.258 553.044 529.162 550.247 529.097 547.46C528.301 531.428 527.166 515.557 525.588 499.738C523.82 483.956 521.924 468.235 519.629 452.546C519.131 449.554 518.68 446.564 518.228 443.576L518.228 443.575C517.495 438.724 516.763 433.879 515.838 429.046C514.947 423.221 513.893 417.415 512.841 411.615C512.475 409.603 512.11 407.592 511.752 405.581C505.876 374.341 499.327 343.105 492.213 311.772C490.427 303.757 488.619 295.738 486.806 287.699C481.51 264.214 476.177 240.565 471.242 216.354L471.285 216.334C490.814 243.381 505.359 273.293 517.573 303.991C529.68 334.791 538.859 366.762 545.015 399.48C545.14 400.221 545.264 400.961 545.388 401.7C546.646 409.179 547.896 416.618 548.884 424.137C549.969 432.401 550.759 440.699 551.507 449.017C552.707 465.689 553.003 482.423 552.206 499.152C551.198 515.876 549.141 532.575 545.683 548.947C545.39 550.133 545.1 551.317 544.811 552.501L544.811 552.501L544.811 552.501L544.811 552.501L544.811 552.502L544.811 552.502L544.811 552.502C543.108 559.471 541.417 566.39 538.993 573.122C538.673 574.059 538.361 574.994 538.049 575.928L538.049 575.929C537.042 578.945 536.041 581.946 534.783 584.916C534.278 586.08 533.787 587.243 533.297 588.403L533.295 588.409L532.943 589.243C532.809 589.558 532.676 589.873 532.542 590.188C541.421 620.158 545.9 651.326 547.406 682.402C548.285 686.836 548.972 691.194 549.514 695.519C551.855 676.743 554.529 658.082 557.334 639.459C563.174 601.563 569.597 563.912 576.206 526.328L596.429 413.859C597.022 410.463 597.617 407.069 598.212 403.676C604.198 369.535 610.17 335.472 614.638 300.313C616.766 309.799 618.449 319.442 620.047 329.125C621.111 337.443 621.757 345.766 622.409 354.157L622.409 354.157C622.517 355.548 622.625 356.941 622.735 358.336C623.27 365.677 623.344 372.972 623.419 380.267C623.444 382.699 623.469 385.13 623.511 387.564C623.699 397.34 623.341 407.06 622.859 416.736C622.277 434.682 620.456 452.42 618.632 470.177L618.631 470.19C618.473 471.731 618.314 473.271 618.157 474.812L614.215 503.613C613.147 511.116 611.846 518.601 610.547 526.084L610.547 526.084C610.188 528.146 609.83 530.207 609.477 532.268C602.707 570.394 593.952 608.053 583.172 645.159C574.127 675.989 564.089 706.533 551.524 736.323C551.442 742.574 551.19 748.815 550.782 755.048C550.514 759.316 550.17 763.579 549.755 767.834C556.329 740.197 564.086 713.113 572.173 686.21C582.841 651.182 594.069 616.46 605.879 581.984C617.752 547.531 629.643 513.225 641.806 478.946C642.775 476.199 643.745 473.455 644.714 470.712L644.714 470.712L644.714 470.711L644.714 470.71C655.869 439.143 666.953 407.776 676.225 374.8C676.972 384.001 677.63 393.452 677.575 402.823C677.29 412.146 676.773 421.527 676.026 430.861C674.923 440.102 673.778 449.363 672.466 458.598C671.13 467.142 669.487 475.607 667.838 484.099L667.463 486.029C659.896 522.35 649.926 558.089 637.918 592.917C625.95 627.831 612.379 662.097 596.998 695.606C582.244 727.448 566.321 758.806 547.173 788.634C545.481 799.902 543.337 811.101 540.827 822.207L594.343 762.115C616.242 737.272 637.724 712.315 658.338 686.727C678.952 661.139 698.676 634.983 716.829 607.698C725.813 594.021 734.611 580.172 742.686 565.781C750.887 551.434 758.195 536.625 765.387 521.351C761.478 554.964 749.46 587.565 734.031 617.774C718.475 648.042 699.332 676.312 678.09 702.663C656.849 729.013 633.467 753.464 608.51 776.111C586.641 795.676 563.745 814.148 538.969 830.005C533.294 852.484 526.123 874.603 517.336 896.012C508.166 918.447 497.518 940.279 485.502 961.301L470.91 952.801C482.949 932.599 493.682 911.609 502.937 890.017C512.255 868.447 519.888 846.165 525.913 823.445C531.771 800.7 536.021 777.518 537.88 754.11C538.873 742.429 539.278 730.713 539.052 718.982C538.825 707.356 537.974 695.4 536.006 684.488L535.896 683.813L535.884 683.456C535.77 679.515 535.607 675.574 535.393 671.635C530.597 667.845 526.253 663.913 521.97 660.036C521.267 659.4 520.565 658.765 519.863 658.132C516.4 655.297 513.085 652.444 509.855 649.551C508.917 648.711 507.997 647.863 507.079 647.017C504.837 644.95 502.612 642.898 500.181 641.021C496.883 638.316 493.67 635.57 490.585 632.765C488.647 630.951 486.561 629.352 484.476 627.753C483.265 626.825 482.055 625.897 480.874 624.927C477.037 621.576 473.01 618.568 468.995 615.569C466.462 613.677 463.933 611.788 461.459 609.819C448.128 600.465 434.551 591.695 419.88 583.907C405.168 576.034 389.849 568.966 372.037 562.448L372.017 562.406C380.793 558.328 390.409 556.917 400.005 556.347C400.376 556.343 400.749 556.338 401.122 556.333C405.517 556.278 410.003 556.222 414.368 556.752C416.114 556.869 417.847 557.075 419.585 557.28C420.248 557.359 420.913 557.438 421.579 557.512C422.32 557.655 423.062 557.793 423.807 557.931C425.419 558.23 427.04 558.53 428.67 558.899C447.549 562.942 465.444 571.29 481.193 582.36L492.409 591.411C495.39 593.802 498.017 596.555 500.636 599.3C501.315 600.012 501.994 600.723 502.678 601.427C509.431 608.165 515.027 615.863 520.325 623.701C523.093 627.487 525.241 631.719 527.389 635.952C529.516 640.143 531.517 644.393 533.454 648.621C533.488 648.711 533.522 648.801 533.556 648.891Z" fill="url(#paint0_linear_106_74)"/>
</g>
<defs>
<linearGradient id="paint0_linear_106_74" x1="271.793" y1="201.552" x2="825.386" y2="644.163" gradientUnits="userSpaceOnUse">
<stop stop-color="#6626C3"/>
<stop offset="0.24" stop-color="#591EB8"/>
<stop offset="1" stop-color="#320598"/>
</linearGradient>
<clipPath id="clip0_106_74">
<rect width="884.144" height="1018.43" fill="white"/>
</clipPath>
</defs>
</svg>
