<svg width="1064" height="888" viewBox="0 0 1064 888" fill="none" xmlns="http://www.w3.org/2000/svg">
<g clip-path="url(#clip0_106_73)">
<path d="M529.239 226.895C537.887 239.091 546.544 251.29 555.21 263.493C558.299 267.828 561.548 272.052 564.628 276.39C565.4 277.487 566.393 278.904 566.271 280.039C566.09 281.837 565.046 283.541 564.367 285.288C562.915 284.692 561.021 284.518 560.069 283.431C548.66 270.672 537.294 257.885 526.142 244.91C519.677 237.37 513.62 229.485 507.378 221.753L505.811 222.982C511.907 231.273 517.935 239.712 524.155 247.962C534.132 261.178 544.18 274.32 554.299 287.39C557.081 290.964 557.201 293.352 552.912 295.848C550.923 297.004 549.411 299.402 548.292 301.549C545.976 305.995 544.923 311.387 541.811 315.093C534.695 323.484 527.197 331.763 518.779 338.801C513.055 343.597 505.571 346.333 498.801 349.843C491.876 353.451 484.824 356.83 477.878 360.413C472.986 362.944 468.449 366.378 463.293 368.098C456.322 370.425 452.007 374.806 448.968 381.179C444.15 391.309 439.158 401.359 434.178 411.415C433.312 413.185 432.286 414.872 431.114 416.455C422.794 427.516 391.957 441.176 378.234 439.82C372.753 439.281 367.296 438.308 361.809 437.728C358.14 437.233 354.409 437.49 350.843 438.483L376.969 446.287C373.969 452.287 369.362 454.644 363.694 453.034C355.339 450.65 347.043 448.068 338.729 445.623C336.815 444.914 334.712 444.909 332.795 445.609C339.195 448.842 345.629 452.05 352.026 455.328C359.246 459.043 359.741 460.255 353.962 465.801C339.634 479.577 325.04 493.052 310.336 506.444C306.651 509.793 304.332 513.113 303.617 518.277C301.818 531.199 295.641 542.513 289.212 553.663C283.511 563.575 276.579 573.027 272.708 583.661C268.595 594.684 266.251 606.288 265.762 618.043C264.91 645.427 265.811 672.859 265.858 700.268C265.868 712.098 265.587 723.93 265.238 735.758C265.191 737.512 264.021 739.226 263.369 740.961C261.544 739.989 258.861 739.43 258.095 737.908C256.211 734.175 254.027 729.983 254.039 725.99C254.183 696.03 254.486 666.058 255.377 636.122C256.374 603.4 257.595 570.932 251.642 538.284C246.706 511.182 249.99 483.704 255.281 456.569C261.954 422.235 282.388 396.275 305.383 371.802C312.516 364.206 321.45 358.221 328.088 350.268C333.507 343.757 337.207 335.622 340.843 327.851C349.249 309.807 355.799 290.773 365.597 273.546C377.053 253.415 390.336 234.18 404.275 215.658C435.26 174.562 471.208 138.004 510.544 104.863C522.563 94.7178 535.322 85.3355 547.985 75.9287C551.411 73.4142 555.752 72.1321 559.567 70.0835C574.483 62.0763 589.312 53.9107 604.276 45.9919C608.808 43.6095 613.469 41.4817 618.238 39.6186C633.792 33.5016 649.315 27.2569 665.043 21.609C675.195 17.9974 685.672 15.2908 695.966 12.2267C700.313 10.9315 704.764 9.93931 709.046 8.54108C715.721 6.36006 716.423 6.71716 718.475 13.7062C721.288 23.2708 719.488 32.79 716.589 41.6516C713.09 52.4223 707.767 62.5891 703.211 73.0099C703.011 73.5724 702.652 74.0649 702.178 74.4277C692.446 80.0313 688.8 90.3213 682.613 98.7573C675.948 107.838 666.577 114.851 658.727 123.147C655.678 126.623 653.084 130.475 651.008 134.607C647.936 140.225 645.432 146.245 642.473 151.978C637.521 161.632 632.365 171.134 627.315 180.709C626.486 182.28 625.817 183.947 624.891 185.439C620.958 191.774 619.799 192.009 613.052 188.931C599.936 182.917 588.035 174.547 577.942 164.235C576.637 162.927 574.099 162.817 572.186 162.131C572.557 164.056 572.309 166.523 573.413 167.817C583.895 180.096 594.342 192.422 605.355 204.208C613.247 212.724 613.908 214.464 606.776 226.914C593.285 213.53 580.102 200.439 566.915 187.34L564.929 189.253C566.435 191.019 567.946 192.793 569.462 194.555C579.606 206.336 589.792 218.088 599.87 229.918C602.56 233.064 602.481 235.47 598.89 238.78C592.841 244.33 587.581 250.808 582.423 257.243C579.694 260.647 577.169 261.399 574.246 258.241C567.732 251.208 561.38 243.913 555.018 236.697C552.438 233.765 549.982 230.738 546.285 228.424C546.997 229.831 547.8 231.19 548.688 232.492C556.671 242.758 564.712 252.979 572.737 263.217C573.591 264.302 574.882 265.291 575.201 266.523C575.494 268.519 575.593 270.539 575.499 272.554C573.658 272.066 571.139 272.208 570.073 271.005C558.151 257.562 546.496 244.006 534.712 230.451C533.432 228.969 532.09 227.547 530.731 226.109C527.918 222.227 525.107 218.344 522.3 214.459L520.403 215.912C523.372 219.542 526.317 223.203 529.239 226.895Z" fill="url(#paint0_linear_106_73)"/>
</g>
<g clip-path="url(#clip1_106_73)">
<path d="M920.531 316.389C910.367 311.143 899.914 306.277 888.719 303.727C875.897 300.724 863.4 296.491 848.932 292.439C863.629 288.424 879.178 288.782 893.675 293.47C908.902 298.137 923.967 303.419 939.376 307.272C941.347 307.76 943.318 308.195 945.289 308.556C946.096 306.046 947.611 303.823 949.652 302.154C951.692 300.485 954.172 299.442 956.792 299.15C994.77 293.307 1029.26 277.009 1063.93 261.272C1060.43 261.001 1057 260.221 1053.73 258.956C1030.49 249.912 1008.3 238.281 985.782 227.5C979.597 231.009 973.285 234.283 967.028 237.684C966.72 237.177 966.395 236.671 966.069 236.164C970.265 232.311 974.515 228.694 978.403 224.859L979.018 224.226C969.162 219.595 959.125 215.181 949.051 211.238C943.352 218.737 937.28 225.946 930.858 232.836C925.74 238.1 919.518 242.296 913.803 246.981L911.778 244.594C920.296 235.296 928.959 226.143 937.278 216.682C939.467 214.398 940.894 211.491 941.365 208.362C938.2 207.222 934.999 206.1 931.78 205.069C926.011 203.26 920.205 201.452 914.4 199.643C914.121 200.17 913.874 200.714 913.659 201.271C907.871 216.031 897.183 227.301 887.037 238.968C883.963 242.586 880.346 245.589 876.964 248.863L875.571 247.832C878.411 241.464 881.431 235.169 884.089 228.712C887.924 219.414 891.595 210.038 895.103 200.583C895.668 199.465 895.887 198.203 895.732 196.96C895.577 195.717 895.056 194.547 894.235 193.601C884.903 190.797 875.589 187.921 866.348 184.81C857.107 181.698 847.341 178.461 837.81 175.44C835.036 177.735 832.864 180.672 831.48 183.996C824.987 197.327 815.71 208.289 805.419 218.672C801.33 222.852 797.495 227.274 793.935 231.913C784.368 244.178 776.339 257.238 773.553 273.192C772.233 266.192 770.425 259.011 771.871 252.535C777.127 229.087 788.597 207.487 805.076 190.001C809.995 184.665 814.805 179.148 819.309 173.54C820.124 172.614 820.685 171.492 820.936 170.284C819.707 169.923 818.477 169.597 817.319 169.253C800.79 169.561 784.224 169.253 767.676 169.145L753.497 169C746.878 182.73 740.476 196.568 734.888 210.731C731.882 218.343 730.194 226.412 729.896 234.591C729.281 257.057 729.896 279.56 729.788 302.044C729.788 305.897 729.118 309.768 728.775 313.621H726.749C726.071 312.211 725.549 310.731 725.194 309.208C723.385 294.736 720.817 280.392 720.184 265.921C718.774 233.541 722.68 201.813 734.49 171.297C734.761 170.574 734.996 169.85 735.213 169.127H733.694C729.185 169.247 724.682 169.446 720.184 169.724L715.717 170.031C713.565 171.116 711.413 172.184 709.225 173.215C709.007 174.901 708.693 176.574 708.284 178.225C708.176 178.678 708.049 179.13 707.941 179.582C702.859 201.777 698.338 223.99 701.484 247.054C702.588 255.103 702.135 263.334 702.389 271.564L698.772 271.908C699.058 268.162 699.028 264.398 698.681 260.657C694.015 233.216 691.737 205.811 697.234 178.334C688.409 181.698 679.402 184.611 670.866 188.681C670.179 189.006 669.51 189.368 668.823 189.712C667.665 190.761 663.705 193.185 663.18 193.601C662.656 194.017 661.788 194.759 661.082 195.41C660.07 210.822 658.858 226.342 660.178 241.591C662.891 272.632 667.792 303.491 671.825 334.405C672.783 341.84 673.959 349.238 674.881 356.673C674.737 358.519 674.372 360.34 673.796 362.1C668.371 332.705 663.234 305.137 658.134 277.552C657.61 274.802 657.23 271.999 656.453 269.303C651.244 251.341 645.963 233.379 640.737 215.434C637.951 218.401 635.148 221.368 632.327 224.298C623.284 233.614 614.242 242.966 603.97 250.834C586.391 264.202 565.629 274.621 545.736 284.154L545.284 284.353C544.563 286.637 544.299 289.04 544.506 291.426C546.784 324.384 548.955 357.378 551.451 390.318C552.662 406.418 554.724 422.462 555.845 438.562C556.135 442.776 554.362 447.136 553.53 451.423L551.125 451.152C550.89 446.593 550.582 442.017 550.438 437.458C549.949 422.227 551.143 406.707 548.629 391.802C545.103 370.095 539.478 348.714 533.763 327.459C531.051 317.348 526.348 307.742 521.99 298.155C521.505 297.088 520.898 296.08 520.181 295.152C510.536 298.939 500.776 302.34 490.902 305.355C482.872 307.766 474.794 310.058 466.668 312.228L463.991 312.843L461.839 313.477L459.452 314.182C449.927 317.04 440.486 320.212 431.13 323.697C412.4 330.709 394.101 338.827 376.333 348.008C371.142 350.685 366.024 353.435 360.924 356.257L354.432 359.875C353.817 361.014 349.205 363.004 348.138 363.655C346.004 364.958 343.888 366.278 341.79 367.617C337.522 370.342 333.344 373.2 329.257 376.191C307.555 392.019 284.044 411.139 267.063 431.67C266.29 432.441 265.761 433.422 265.543 434.492C265.557 435.68 265.936 436.836 266.628 437.802C272.976 449.234 273.754 462.15 276.611 474.631C289.759 532.063 290.537 590.4 290.772 648.9C290.772 655.448 289.199 662.015 288.349 668.563H286.793C286.348 667.814 285.984 667.02 285.708 666.193C281.802 648.104 278.474 630.015 279.505 611.167C280.554 591.866 278.727 572.818 270.463 554.747C264.487 540.987 260.071 526.601 257.297 511.858C256.718 495.469 242.829 478.303 234.003 465.532C215.556 500.335 203.258 538.159 184.179 572.854C176.131 587.416 167.287 600.982 155.007 612.035C121.731 642.026 97.3159 677.553 86.1755 721.364C82.8478 734.515 80.4244 747.901 77.8744 761.16C75.1255 775.396 74.4925 790.338 69.7542 803.85C62.9904 823.459 48.8298 838.002 30.5277 848.186C21.3043 853.305 12.4426 859.04 3.40004 864.466C-0.433999 866.782 -1.37442 869.187 2.4777 872.624C7.03514 876.676 11.249 881.108 15.517 885.449C18.3745 888.326 20.9426 888.76 24.7947 886.571C41.0713 877.382 57.8904 868.898 74.1851 859.618C89.1732 851.016 106.745 848.064 123.72 851.297C144.301 854.915 164.918 858.099 185.426 861.97C214.923 867.541 244.908 869.893 274.333 865.371C290.133 862.99 305.735 859.441 321.01 854.752C323.936 851.92 327.432 849.743 331.265 848.367C340.113 845.393 348.692 841.671 356.909 837.242L357.795 836.663C359.604 835.542 361.286 834.384 362.986 833.19C367.037 830.405 370.961 827.456 374.777 824.381C382.011 818.629 388.594 812.388 395.177 805.985L395.792 805.333C397.275 803.742 398.758 802.132 400.223 800.522C403.659 796.723 407.005 792.87 410.296 788.963C413.299 785.345 416.246 781.727 419.14 778.11C415.125 778.11 411.128 778.363 407.168 778.779C387.057 780.931 367.127 783.048 347.053 778.055C323.434 772.176 299.362 771.037 275.092 772.773C269.611 772.874 264.129 772.669 258.671 772.158C261.09 770.545 263.89 769.597 266.791 769.409C284.876 768.36 302.781 767.347 320.793 766.533C354.142 765.049 387.473 760.798 420.894 764C423.9 764.324 426.931 764.324 429.937 764C439.106 751.79 448.022 739.345 457.064 727.099C448.293 726.918 439.54 726.646 430.769 726.737C390.529 727.189 350.272 726.737 310.666 736.234C300.755 738.585 290.103 737.807 279.794 738.459C279.632 737.482 279.487 736.505 279.342 735.51C289.597 732.76 299.833 729.866 310.087 727.298C323.94 723.843 338.227 721.744 351.683 717.095C376.857 708.359 402.683 705.32 429.014 705.338C443.071 705.115 457.127 705.864 471.08 707.581L471.93 707.671C472.401 707.056 472.889 706.441 473.377 705.862C485.151 691.228 498.045 677.535 511.193 664.131H510.108C499.365 664.728 488.659 666.519 477.917 666.627C465.257 666.772 452.597 665.433 439.938 665.09C405.269 664.149 371.359 668.291 338.661 680.303C333.881 681.717 329.011 682.811 324.085 683.577C324.595 682.588 325.304 681.716 326.165 681.012C327.027 680.309 328.024 679.79 329.094 679.488C344.449 675.219 359.839 671.095 375.175 666.826C426.855 652.271 480.05 643.773 533.691 641.502C537.175 638.065 540.654 634.61 544.126 631.137C547.092 628.17 550.402 625.276 553.295 622.092C554.037 621.188 554.869 620.193 555.375 619.65C557.183 617.733 558.992 615.797 560.8 613.862C580.531 592.68 600.425 571.099 620.951 550.424C565.919 545.92 512.441 556.809 459.633 573.252C465.271 570.484 471.141 568.214 477.175 566.469C496.002 560.789 514.846 555.091 533.745 549.592C546.296 545.974 558.757 541.325 571.615 539.462C594.131 536.224 616.828 534.035 639.561 532.226C645.511 526.601 651.551 521.047 657.646 515.639C677.648 498.002 697.56 480.908 718.719 465.351C708.718 465.966 698.826 466.979 688.752 467.757C678.679 468.535 668.859 469.892 658.84 469.819C644.607 469.729 630.374 468.662 616.159 467.866C612.126 467.631 608.129 466.889 604.132 466.382C604.132 465.659 604.042 464.935 603.988 464.212C605.753 463.487 607.566 462.882 609.413 462.403C633.72 457.32 658.243 453.196 682.278 446.955C700.526 442.216 719.081 436.717 735.665 428.034C754.636 418.121 771.618 404.374 789.342 392.091C791.331 390.734 792.452 388.093 793.953 386.049L792.796 383.553C772.233 387.352 751.815 392.959 731.09 394.407C710.364 395.854 689.639 393.249 668.895 392.435C682.857 388.69 697.054 386.031 711.25 383.39C719.28 381.907 727.346 380.605 735.34 378.922C746.191 376.661 756.716 373.496 767.567 371.831C803.52 366.405 839.365 363.673 874.396 353.254C886.748 349.636 899.534 347.628 911.904 344.011C924.275 340.393 936.591 334.586 949.069 330.209C943.553 332.162 925.468 318.903 920.531 316.389Z" fill="url(#paint1_linear_106_73)"/>
</g>
<defs>
<linearGradient id="paint0_linear_106_73" x1="161.357" y1="507.014" x2="811.454" y2="235.495" gradientUnits="userSpaceOnUse">
<stop stop-color="#7F37D7"/>
<stop offset="0.47" stop-color="#591EB8"/>
<stop offset="0.99" stop-color="#320598"/>
</linearGradient>
<linearGradient id="paint1_linear_106_73" x1="4.24899e-05" y1="528.5" x2="1064" y2="528.5" gradientUnits="userSpaceOnUse">
<stop stop-color="#7F37D7"/>
<stop offset="0.47" stop-color="#591EB8"/>
<stop offset="0.99" stop-color="#320598"/>
</linearGradient>
<clipPath id="clip0_106_73">
<rect width="704.52" height="510.41" fill="white" transform="translate(63 271.518) rotate(-22.6683)"/>
</clipPath>
<clipPath id="clip1_106_73">
<rect width="1064" height="719" fill="white" transform="translate(0 169)"/>
</clipPath>
</defs>
</svg>
