<svg width="290" height="213" viewBox="0 0 290 213" fill="none" xmlns="http://www.w3.org/2000/svg">
<mask id="path-1-inside-1_101_59" fill="white">
<rect x="193.807" y="196.021" width="11.8687" height="4.69005" rx="0.478577"/>
</mask>
<rect x="193.807" y="196.021" width="11.8687" height="4.69005" rx="0.478577" fill="#515669" stroke="black" stroke-width="1.91431" mask="url(#path-1-inside-1_101_59)"/>
<mask id="path-2-inside-2_101_59" fill="white">
<rect x="269.9" y="196.021" width="11.8687" height="4.69005" rx="0.478577"/>
</mask>
<rect x="269.9" y="196.021" width="11.8687" height="4.69005" rx="0.478577" fill="#515669" stroke="black" stroke-width="1.91431" mask="url(#path-2-inside-2_101_59)"/>
<rect x="185.479" y="20.4786" width="104.043" height="176.021" rx="7.84867" fill="#8F83FF" stroke="black" stroke-width="0.957155"/>
<path d="M186.053 27.4658C186.053 24.717 188.281 22.4886 191.03 22.4886H278.993C283.592 22.4886 287.32 26.2169 287.32 30.8159V188.459C287.32 192.635 283.934 196.021 279.758 196.021H193.327C189.31 196.021 186.053 192.764 186.053 188.746V27.4658Z" fill="#5347EC"/>
<rect x="193.232" y="46.8004" width="88.0583" height="72.9351" fill="#B7B7B7" stroke="black" stroke-width="0.957155"/>
<path d="M263.105 59.8656H211.993L193.328 46.8961H281.195L263.105 59.8656Z" fill="#999999"/>
<path d="M211.993 59.8656L211.72 60.2586L211.843 60.3441H211.993V59.8656ZM263.105 59.8656V60.3441H263.259L263.384 60.2545L263.105 59.8656ZM281.195 46.8961L281.474 47.2851C281.643 47.1639 281.714 46.9476 281.651 46.7497C281.587 46.5518 281.403 46.4175 281.195 46.4175V46.8961ZM193.328 46.8961V46.4175C193.119 46.4175 192.934 46.5534 192.871 46.753C192.809 46.9526 192.883 47.1698 193.055 47.2891L193.328 46.8961ZM211.993 60.3441H263.105V59.387H211.993V60.3441ZM263.384 60.2545L281.474 47.2851L280.916 46.5072L262.826 59.4766L263.384 60.2545ZM281.195 46.4175H193.328V47.3747H281.195V46.4175ZM193.055 47.2891L211.72 60.2586L212.266 59.4725L193.601 46.5031L193.055 47.2891Z" fill="black"/>
<path d="M269.805 107.101H205.293L193.328 119.688H281.195L269.805 107.101Z" fill="#D3D3D3"/>
<path d="M205.293 107.101L204.946 106.771L205.087 106.622H205.293V107.101ZM269.805 107.101V106.622H270.017L270.16 106.78L269.805 107.101ZM281.195 119.688L281.55 119.367C281.677 119.507 281.709 119.709 281.632 119.882C281.556 120.055 281.384 120.166 281.195 120.166V119.688ZM193.328 119.688V120.166C193.137 120.166 192.964 120.052 192.888 119.876C192.813 119.7 192.849 119.497 192.981 119.358L193.328 119.688ZM205.293 106.622H269.805V107.58H205.293V106.622ZM270.16 106.78L281.55 119.367L280.84 120.009L269.45 107.422L270.16 106.78ZM281.195 120.166H193.328V119.209H281.195V120.166ZM192.981 119.358L204.946 106.771L205.639 107.431L193.675 120.017L192.981 119.358Z" fill="black"/>
<path d="M269.901 107.005H205.389L212.089 59.7219H262.914L269.901 107.005Z" fill="#D8D8D8" stroke="black" stroke-width="0.957155"/>
<path d="M212.184 98.7738L238.697 98.7738" stroke="black" stroke-width="0.957155" stroke-linecap="round"/>
<path d="M210.768 102.317L237.281 102.317" stroke="black" stroke-width="0.957155" stroke-linecap="round"/>
<path d="M254.273 64.8427H222.079C221.122 64.8427 220.311 65.55 220.182 66.4987L216.827 91.1454C216.671 92.2947 217.564 93.318 218.724 93.318H257.34C258.491 93.318 259.381 92.3095 259.239 91.1673L256.172 66.5206C256.053 65.5621 255.238 64.8427 254.273 64.8427Z" fill="url(#paint0_linear_101_59)"/>
<path d="M254.273 64.8427H222.079C221.122 64.8427 220.311 65.55 220.182 66.4987L216.827 91.1454C216.671 92.2947 217.564 93.318 218.724 93.318H257.34C258.491 93.318 259.381 92.3095 259.239 91.1673L256.172 66.5206C256.053 65.5621 255.238 64.8427 254.273 64.8427Z" fill="#5347EC"/>
<path d="M254.273 64.8427H222.079C221.122 64.8427 220.311 65.55 220.182 66.4987L216.827 91.1454C216.671 92.2947 217.564 93.318 218.724 93.318H257.34C258.491 93.318 259.381 92.3095 259.239 91.1673L256.172 66.5206C256.053 65.5621 255.238 64.8427 254.273 64.8427Z" stroke="black" stroke-width="0.957155" stroke-linecap="round"/>
<path d="M237.644 116.673H200.665C200.496 116.673 200.41 116.471 200.526 116.349L206.479 110.08C206.516 110.042 206.566 110.02 206.618 110.02H237.644C237.749 110.02 237.835 110.106 237.835 110.212V116.481C237.835 116.587 237.749 116.673 237.644 116.673Z" fill="#C7C6C2" stroke="black" stroke-width="0.957155"/>
<path d="M206.584 111.887L202.516 116.146L237.404 116.29V111.887H206.584Z" fill="#999999"/>
<path d="M242.908 112.27V110.116C242.908 110.01 242.994 109.925 243.1 109.925H268.33C268.385 109.925 268.437 109.948 268.474 109.989L270.383 112.143C270.493 112.266 270.405 112.461 270.24 112.461H243.1C242.994 112.461 242.908 112.375 242.908 112.27Z" fill="#33384B" stroke="black" stroke-width="0.957155"/>
<path d="M242.908 116.577V114.423C242.908 114.318 242.994 114.232 243.1 114.232H272.35C272.405 114.232 272.457 114.255 272.494 114.296L274.403 116.45C274.513 116.573 274.425 116.768 274.26 116.768H243.1C242.994 116.768 242.908 116.683 242.908 116.577Z" fill="#33384B" stroke="black" stroke-width="0.957155"/>
<path d="M243.666 103.461V96.5699C243.666 96.4113 243.795 96.2827 243.953 96.2827H259.307C259.449 96.2827 259.57 96.3871 259.591 96.528L260.607 103.419C260.633 103.593 260.498 103.749 260.323 103.749H243.953C243.795 103.749 243.666 103.62 243.666 103.461Z" fill="#515669" stroke="black" stroke-width="0.957155" stroke-linecap="round"/>
<path d="M245.629 101.499V98.4842C245.629 98.3256 245.757 98.197 245.916 98.197H257.728C257.871 98.197 257.992 98.3015 258.012 98.4425L258.454 101.458C258.48 101.631 258.345 101.786 258.17 101.786H245.916C245.757 101.786 245.629 101.658 245.629 101.499Z" fill="#F19C7D" stroke="black" stroke-width="0.957155" stroke-linecap="round"/>
<path d="M246.107 98.6277H257.593L257.689 99.5848H246.107V98.6277Z" fill="#F3BFA5"/>
<path d="M193.232 119.544H281.291V182.812C281.291 185.191 279.362 187.119 276.984 187.119H197.54C195.161 187.119 193.232 185.191 193.232 182.812V119.544Z" fill="#515669" stroke="black" stroke-width="0.957155"/>
<rect x="201.559" y="126.244" width="71.9781" height="16.0802" rx="2.20146" fill="#656A7D" stroke="black" stroke-width="0.957155"/>
<path d="M202.037 127.776H269.708C270.977 127.776 272.005 128.804 272.005 130.073V141.846H203.76C202.808 141.846 202.037 141.074 202.037 140.123V127.776Z" fill="#33384B"/>
<rect x="201.559" y="147.014" width="71.9781" height="33.4047" rx="2.20146" fill="#656A7D" stroke="black" stroke-width="0.957155"/>
<path d="M202.037 148.546H269.708C270.977 148.546 272.005 149.574 272.005 150.843V179.94H203.76C202.808 179.94 202.037 179.169 202.037 178.218V148.546Z" fill="#33384B"/>
<rect x="193.232" y="25.5515" width="88.0583" height="16.0802" rx="2.20146" fill="#FFC4A5" stroke="black" stroke-width="0.957155"/>
<path d="M193.922 27.0829H277.019C278.288 27.0829 279.316 28.1114 279.316 29.3801V41.153H195.645C194.693 41.153 193.922 40.3817 193.922 39.4302V27.0829Z" fill="#F19C7D"/>
<path d="M213.386 36.1886V30.5192H215.844C216.276 30.5192 216.638 30.5774 216.932 30.6936C217.227 30.8099 217.449 30.9742 217.599 31.1864C217.75 31.3986 217.826 31.6487 217.826 31.9366C217.826 32.1451 217.78 32.3352 217.688 32.5068C217.597 32.6785 217.47 32.8224 217.306 32.9387C217.141 33.0531 216.949 33.1325 216.73 33.1768V33.2321C216.973 33.2413 217.195 33.3032 217.394 33.4176C217.593 33.5302 217.752 33.6861 217.87 33.8854C217.988 34.0829 218.047 34.3154 218.047 34.583C218.047 34.8931 217.966 35.169 217.804 35.4107C217.643 35.6525 217.414 35.8426 217.117 35.981C216.82 36.1194 216.466 36.1886 216.054 36.1886H213.386ZM214.925 34.9595H215.645C215.903 34.9595 216.097 34.9115 216.226 34.8156C216.355 34.7177 216.42 34.5738 216.42 34.3837C216.42 34.2508 216.389 34.1383 216.328 34.046C216.267 33.9537 216.181 33.8836 216.068 33.8356C215.957 33.7876 215.824 33.7636 215.667 33.7636H214.925V34.9595ZM214.925 32.8113H215.556C215.691 32.8113 215.81 32.7901 215.913 32.7477C216.016 32.7052 216.097 32.6443 216.154 32.565C216.213 32.4838 216.243 32.385 216.243 32.2688C216.243 32.0934 216.18 31.9596 216.054 31.8674C215.929 31.7733 215.77 31.7262 215.578 31.7262H214.925V32.8113ZM218.615 36.1886V31.9366H220.143V36.1886H218.615ZM219.379 31.4937C219.172 31.4937 218.995 31.4254 218.847 31.2888C218.7 31.1522 218.626 30.988 218.626 30.7961C218.626 30.6041 218.7 30.4399 218.847 30.3033C218.995 30.1667 219.172 30.0985 219.379 30.0985C219.587 30.0985 219.765 30.1667 219.91 30.3033C220.058 30.4399 220.132 30.6041 220.132 30.7961C220.132 30.988 220.058 31.1522 219.91 31.2888C219.765 31.4254 219.587 31.4937 219.379 31.4937ZM223.457 31.9366V33.0439H220.656V31.9366H223.457ZM221.198 30.9179H222.726V34.8211C222.726 34.8801 222.737 34.93 222.757 34.9706C222.777 35.0093 222.809 35.0389 222.851 35.0592C222.893 35.0776 222.948 35.0868 223.014 35.0868C223.06 35.0868 223.114 35.0813 223.175 35.0702C223.238 35.0592 223.284 35.0499 223.313 35.0425L223.535 36.1166C223.466 36.1369 223.369 36.1618 223.241 36.1914C223.116 36.2209 222.966 36.2403 222.793 36.2495C222.442 36.268 222.148 36.232 221.91 36.1415C221.672 36.0493 221.493 35.9044 221.373 35.7069C221.253 35.5095 221.195 35.2622 221.198 34.965V30.9179ZM226.084 36.2661C225.622 36.2661 225.227 36.1748 224.899 35.9921C224.57 35.8075 224.318 35.551 224.143 35.2225C223.968 34.8921 223.88 34.5092 223.88 34.0737C223.88 33.6381 223.968 33.2561 224.143 32.9276C224.318 32.5973 224.57 32.3407 224.899 32.158C225.227 31.9735 225.622 31.8812 226.084 31.8812C226.501 31.8812 226.861 31.9569 227.166 32.1082C227.472 32.2577 227.709 32.4699 227.877 32.7449C228.045 33.018 228.13 33.3392 228.132 33.7083H226.715C226.694 33.4849 226.63 33.3152 226.521 33.1989C226.414 33.0808 226.276 33.0217 226.106 33.0217C225.973 33.0217 225.857 33.0605 225.757 33.138C225.657 33.2137 225.58 33.329 225.524 33.484C225.469 33.6372 225.441 33.8301 225.441 34.0626C225.441 34.2951 225.469 34.4889 225.524 34.6439C225.58 34.7971 225.657 34.9124 225.757 34.9899C225.857 35.0656 225.973 35.1034 226.106 35.1034C226.218 35.1034 226.318 35.0776 226.405 35.0259C226.491 34.9724 226.562 34.8949 226.615 34.7934C226.67 34.6901 226.704 34.5646 226.715 34.4169H228.132C228.127 34.7916 228.041 35.1182 227.875 35.3969C227.709 35.6737 227.473 35.8878 227.169 36.0391C226.866 36.1904 226.504 36.2661 226.084 36.2661ZM230.811 36.2661C230.35 36.2661 229.955 36.1748 229.626 35.9921C229.298 35.8075 229.046 35.551 228.871 35.2225C228.695 34.8921 228.608 34.5092 228.608 34.0737C228.608 33.6381 228.695 33.2561 228.871 32.9276C229.046 32.5973 229.298 32.3407 229.626 32.158C229.955 31.9735 230.35 31.8812 230.811 31.8812C231.272 31.8812 231.667 31.9735 231.996 32.158C232.324 32.3407 232.576 32.5973 232.752 32.9276C232.927 33.2561 233.015 33.6381 233.015 34.0737C233.015 34.5092 232.927 34.8921 232.752 35.2225C232.576 35.551 232.324 35.8075 231.996 35.9921C231.667 36.1748 231.272 36.2661 230.811 36.2661ZM230.822 35.1367C230.951 35.1367 231.063 35.0933 231.157 35.0066C231.251 34.9198 231.324 34.7962 231.376 34.6356C231.427 34.4751 231.453 34.284 231.453 34.0626C231.453 33.8393 231.427 33.6483 231.376 33.4896C231.324 33.329 231.251 33.2054 231.157 33.1186C231.063 33.0319 230.951 32.9885 230.822 32.9885C230.686 32.9885 230.568 33.0319 230.471 33.1186C230.373 33.2054 230.298 33.329 230.246 33.4896C230.195 33.6483 230.169 33.8393 230.169 34.0626C230.169 34.284 230.195 34.4751 230.246 34.6356C230.298 34.7962 230.373 34.9198 230.471 35.0066C230.568 35.0933 230.686 35.1367 230.822 35.1367ZM233.635 36.1886V31.9366H235.163V36.1886H233.635ZM234.399 31.4937C234.192 31.4937 234.015 31.4254 233.867 31.2888C233.72 31.1522 233.646 30.988 233.646 30.7961C233.646 30.6041 233.72 30.4399 233.867 30.3033C234.015 30.1667 234.192 30.0985 234.399 30.0985C234.607 30.0985 234.784 30.1667 234.93 30.3033C235.078 30.4399 235.152 30.6041 235.152 30.7961C235.152 30.988 235.078 31.1522 234.93 31.2888C234.784 31.4254 234.607 31.4937 234.399 31.4937ZM237.469 33.7968V36.1886H235.941V31.9366H237.392V32.7449H237.436C237.528 32.4755 237.691 32.2642 237.923 32.111C238.158 31.9578 238.431 31.8812 238.743 31.8812C239.044 31.8812 239.305 31.9504 239.526 32.0888C239.75 32.2254 239.922 32.4136 240.044 32.6536C240.168 32.8935 240.228 33.1675 240.227 33.4757V36.1886H238.698V33.7968C238.7 33.5865 238.647 33.4213 238.538 33.3013C238.431 33.1814 238.281 33.1214 238.089 33.1214C237.964 33.1214 237.854 33.1491 237.76 33.2044C237.668 33.258 237.597 33.3355 237.547 33.437C237.497 33.5366 237.471 33.6566 237.469 33.7968ZM243.984 36.1886H242.324L244.195 30.5192H246.299L248.17 36.1886H246.509L245.269 32.0805H245.225L243.984 36.1886ZM243.674 33.9519H246.797V35.1034H243.674V33.9519ZM247.845 31.7594V30.5192H252.773V31.7594H251.068V36.1886H249.551V31.7594H247.845ZM253.352 30.5192H255.268L256.585 33.7304H256.652L257.97 30.5192H259.885V36.1886H258.379V32.911H258.335L257.073 36.1443H256.165L254.902 32.8889H254.858V36.1886H253.352V30.5192Z" fill="white"/>
<path d="M133.068 27.5774C134.145 28.3642 135.013 29.4053 135.596 30.609C136.457 32.0525 136.945 32.7743 137.706 32.7743C138.467 32.7743 138.956 32.0814 139.817 30.609C140.679 29.1365 141.914 27 144.412 27C146.91 27 148.117 29.0788 149.007 30.609C149.897 32.1392 150.357 32.7743 151.103 32.7743C151.85 32.7743 152.352 32.0814 153.214 30.609C154.075 29.1365 155.31 27 157.809 27C160.307 27 161.513 29.0788 162.404 30.609C163.294 32.1392 163.739 32.7743 164.514 32.7743C165.29 32.7743 165.764 32.0814 166.611 30.609C167.193 29.4053 168.061 28.3642 169.138 27.5774C169.353 27.4714 169.59 27.421 169.83 27.4309C170.069 27.4408 170.302 27.5105 170.507 27.6339C170.712 27.7572 170.884 27.9303 171.006 28.1372C171.128 28.3442 171.197 28.5785 171.206 28.8189C171.216 29.06 171.167 29.3 171.061 29.5169C170.956 29.7338 170.798 29.9206 170.603 30.0604C169.961 30.6056 169.446 31.2857 169.095 32.0525C168.219 33.5827 167.013 35.6615 164.514 35.6615C162.016 35.6615 160.795 33.5827 159.92 32.0525C159.044 30.5223 158.584 29.8872 157.809 29.8872C157.033 29.8872 156.56 30.5801 155.712 32.0525C154.865 33.525 153.616 35.6615 151.103 35.6615C148.59 35.6615 147.399 33.5827 146.508 32.0525C145.618 30.5223 145.173 29.8872 144.398 29.8872C143.622 29.8872 143.148 30.5801 142.287 32.0525C141.425 33.525 140.19 35.6615 137.692 35.6615C135.194 35.6615 133.987 33.5827 133.097 32.0525C132.766 31.2925 132.277 30.613 131.661 30.0604C131.455 29.9274 131.286 29.7434 131.17 29.5261C131.055 29.3088 130.996 29.0653 131.001 28.8189C131.01 28.5785 131.078 28.3442 131.2 28.1372C131.322 27.9303 131.494 27.7572 131.699 27.6339C131.905 27.5105 132.138 27.4408 132.377 27.4309C132.616 27.421 132.854 27.4714 133.068 27.5774Z" fill="#F19C7D"/>
<path opacity="0.4" d="M126.434 156.713C127.511 157.5 128.379 158.541 128.961 159.745C129.822 161.188 130.311 161.91 131.072 161.91C131.833 161.91 132.321 161.217 133.182 159.745C134.044 158.272 135.279 156.136 137.777 156.136C140.276 156.136 141.482 158.215 142.372 159.745C143.262 161.275 143.722 161.91 144.468 161.91C145.215 161.91 145.718 161.217 146.579 159.745C147.441 158.272 148.676 156.136 151.174 156.136C153.672 156.136 154.879 158.215 155.769 159.745C156.659 161.275 157.104 161.91 157.88 161.91C158.655 161.91 159.129 161.217 159.976 159.745C160.558 158.541 161.426 157.5 162.503 156.713C162.718 156.607 162.956 156.557 163.195 156.567C163.434 156.576 163.667 156.646 163.872 156.77C164.078 156.893 164.249 157.066 164.371 157.273C164.493 157.48 164.562 157.714 164.571 157.955C164.582 158.196 164.532 158.436 164.427 158.653C164.321 158.87 164.164 159.056 163.968 159.196C163.326 159.741 162.812 160.421 162.46 161.188C161.584 162.718 160.378 164.797 157.88 164.797C155.381 164.797 154.161 162.718 153.285 161.188C152.409 159.658 151.949 159.023 151.174 159.023C150.399 159.023 149.925 159.716 149.078 161.188C148.23 162.661 146.981 164.797 144.468 164.797C141.956 164.797 140.764 162.718 139.874 161.188C138.983 159.658 138.538 159.023 137.763 159.023C136.987 159.023 136.514 159.716 135.652 161.188C134.791 162.661 133.556 164.797 131.057 164.797C128.559 164.797 127.353 162.718 126.462 161.188C126.132 160.428 125.642 159.749 125.027 159.196C124.82 159.063 124.651 158.879 124.536 158.662C124.42 158.445 124.362 158.201 124.366 157.955C124.375 157.714 124.444 157.48 124.566 157.273C124.688 157.066 124.859 156.893 125.065 156.77C125.27 156.646 125.503 156.576 125.742 156.567C125.981 156.557 126.219 156.607 126.434 156.713Z" fill="white"/>
<path d="M51.6736 98.5559L48.5188 102.342C39.2649 91.6153 40.9474 83.623 51.253 78.1547C43.9706 84.6746 44.1021 92.6669 51.6736 98.5559Z" fill="#699CE2"/>
<path fill-rule="evenodd" clip-rule="evenodd" d="M60.0783 88.0406C61.9775 85.6577 63.0809 82.7339 63.2255 79.6827C63.3769 76.486 62.4674 73.3288 60.6385 70.7025C58.8097 68.0763 56.1639 66.1282 53.1131 65.1615C50.0622 64.1948 46.7774 64.2637 43.7698 65.3575C40.7622 66.4512 38.2004 68.5085 36.4832 71.2091C34.7661 73.9097 33.9897 77.1023 34.2751 80.2898C34.4747 82.5189 35.1856 84.6582 36.337 86.5477C36.3316 86.5543 36.3262 86.5609 36.3209 86.5675L36.4893 86.7921C36.8846 87.4128 37.3283 88.0052 37.8177 88.5634L40.1067 91.6153C40.7139 85.2031 42.6371 82.274 48.7298 78.1547C44.5087 79.2175 41.9769 80.5929 39.3619 83.1626C38.9066 82.139 38.6191 81.0409 38.5178 79.91C38.3162 77.6581 38.8647 75.4026 40.0778 73.4947C41.291 71.5868 43.1008 70.1334 45.2256 69.3607C47.3504 68.588 49.6711 68.5393 51.8264 69.2222C53.9817 69.9052 55.8509 71.2814 57.1429 73.1368C58.435 74.9922 59.0775 77.2227 58.9705 79.4811C58.8635 81.7395 58.013 83.8992 56.5513 85.6241C55.1491 87.2788 53.26 88.4443 51.1574 88.9567C49.8778 87.0931 50.1072 85.032 51.2527 80.6785C46.6256 86.9881 47.6771 92.4565 53.7765 96.0319L60.0861 88.0397L60.0783 88.0406Z" fill="white"/>
<path d="M12.5386 132.982H6.76422L5.60935 136.667H0.109987L6.76422 117.419H12.5386L19.1928 136.667H13.6934L12.5386 132.982ZM11.2462 128.61L9.65139 123.083L8.05657 128.61H11.2462ZM22.0959 136.667V122.203H18.1638V117.419H31.5548V122.203H27.5677V136.667H22.0959ZM40.7245 117.419L45.014 128.858L49.3585 117.419H56.4527V136.667H51.2283V124.953L47.5162 135.154H42.5393L38.8547 124.953V136.667H33.6029V117.419H40.7245ZM63.0593 136.364C62.6193 136.804 62.0694 137.024 61.4095 137.024C60.7495 137.024 60.1904 136.804 59.7321 136.364C59.2922 135.906 59.0722 135.356 59.0722 134.714C59.0722 134.054 59.2922 133.495 59.7321 133.037C60.1904 132.579 60.7495 132.35 61.4095 132.35C62.0694 132.35 62.6193 132.579 63.0593 133.037C63.5175 133.495 63.7467 134.054 63.7467 134.714C63.7467 135.356 63.5175 135.906 63.0593 136.364ZM66.2796 136.667V116.786H70.0742V123.798C70.3675 123.395 70.8808 122.982 71.614 122.561C72.3473 122.139 73.2547 121.928 74.3362 121.928C76.3893 121.928 78.0391 122.634 79.2856 124.046C80.5321 125.439 81.1554 127.254 81.1554 129.49C81.1554 131.708 80.4955 133.523 79.1756 134.934C77.8741 136.327 76.1876 137.024 74.1162 137.024C73.053 137.024 72.1548 136.822 71.4215 136.419C70.7066 135.998 70.1842 135.585 69.8542 135.182V136.667H66.2796ZM69.9642 129.517C69.9642 130.691 70.2942 131.681 70.9541 132.487C71.6323 133.275 72.5306 133.669 73.6488 133.669C74.7303 133.669 75.6102 133.294 76.2885 132.542C76.9851 131.791 77.3334 130.782 77.3334 129.517C77.3334 128.271 76.9942 127.254 76.316 126.465C75.6377 125.677 74.7486 125.283 73.6488 125.283C72.5672 125.283 71.6782 125.659 70.9816 126.41C70.3033 127.162 69.9642 128.198 69.9642 129.517ZM83.3309 136.667V122.286H87.1254V136.667H83.3309ZM83.6333 120.388C83.2117 119.967 83.0009 119.444 83.0009 118.821C83.0009 118.198 83.2117 117.685 83.6333 117.281C84.055 116.86 84.5774 116.649 85.2007 116.649C85.8423 116.649 86.3739 116.86 86.7955 117.281C87.2171 117.685 87.4279 118.198 87.4279 118.821C87.4279 119.444 87.2171 119.967 86.7955 120.388C86.3739 120.792 85.8423 120.993 85.2007 120.993C84.5774 120.993 84.055 120.792 83.6333 120.388ZM100.601 124.651L94.1116 133.504H100.683V136.667H89.4096V134.329L95.8989 125.448H89.6021V122.286H100.601V124.651Z" fill="white"/>
<ellipse opacity="0.2" cx="48.3487" cy="105.729" rx="8.78371" ry="1.5276" fill="white"/>
<circle cx="90" cy="18" r="7" fill="#5347EC"/>
<circle cx="99.5" cy="177.5" r="4.5" fill="#E27853"/>
<path d="M117.973 93.5271C117.531 93.1 116.939 92.8637 116.324 92.869C115.709 92.8744 115.121 93.1209 114.687 93.5557C114.252 93.9904 114.005 94.5784 114 95.1931C113.995 95.8079 114.231 96.4001 114.658 96.8423C115.098 97.282 115.344 97.8783 115.344 98.5C115.344 99.1217 115.098 99.7179 114.658 100.158C114.231 100.6 113.995 101.192 114 101.807C114.005 102.421 114.252 103.01 114.687 103.444C115.121 103.879 115.709 104.126 116.324 104.131C116.939 104.136 117.531 103.9 117.973 103.473C119.291 102.153 120.031 100.365 120.031 98.5C120.031 96.6352 119.291 94.8467 117.973 93.5271ZM126.264 85.2366C126.047 85.0127 125.789 84.8341 125.503 84.7112C125.217 84.5883 124.909 84.5237 124.598 84.521C124.286 84.5183 123.978 84.5776 123.689 84.6955C123.401 84.8134 123.139 84.9874 122.919 85.2076C122.699 85.4277 122.525 85.6895 122.407 85.9776C122.289 86.2658 122.23 86.5745 122.233 86.8858C122.235 87.1971 122.3 87.5048 122.423 87.7908C122.546 88.0769 122.724 88.3356 122.948 88.5519C125.581 91.1932 127.06 94.7705 127.06 98.5C127.06 102.229 125.581 105.807 122.948 108.448C122.724 108.664 122.546 108.923 122.423 109.209C122.3 109.495 122.235 109.803 122.233 110.114C122.23 110.425 122.289 110.734 122.407 111.022C122.525 111.31 122.699 111.572 122.919 111.792C123.139 112.012 123.401 112.187 123.689 112.304C123.978 112.422 124.286 112.482 124.598 112.479C124.909 112.476 125.217 112.412 125.503 112.289C125.789 112.166 126.047 111.987 126.264 111.763C129.773 108.241 131.744 103.472 131.744 98.5C131.744 93.5279 129.773 88.7585 126.264 85.2366Z" fill="#5FEFC0"/>
<path d="M143.479 98.5001C143.49 94.4959 142.707 90.5294 141.174 86.83C139.642 83.1307 137.391 79.7721 134.551 76.9487C134.335 76.7248 134.076 76.5461 133.79 76.4233C133.504 76.3004 133.196 76.2357 132.885 76.233C132.574 76.2303 132.265 76.2896 131.977 76.4075C131.689 76.5254 131.427 76.6995 131.207 76.9196C130.987 77.1398 130.813 77.4015 130.695 77.6897C130.577 77.9778 130.518 78.2866 130.52 78.5979C130.523 78.9092 130.588 79.2168 130.711 79.5029C130.833 79.7889 131.012 80.0476 131.236 80.2639C136.072 85.1005 138.789 91.6602 138.789 98.5001C138.789 105.34 136.072 111.9 131.236 116.736C131.012 116.953 130.833 117.211 130.711 117.497C130.588 117.783 130.523 118.091 130.52 118.402C130.518 118.714 130.577 119.022 130.695 119.31C130.813 119.599 130.987 119.86 131.207 120.081C131.427 120.301 131.689 120.475 131.977 120.593C132.265 120.711 132.574 120.77 132.885 120.767C133.196 120.764 133.504 120.7 133.79 120.577C134.076 120.454 134.335 120.275 134.551 120.051C137.391 117.228 139.642 113.869 141.174 110.17C142.707 106.471 143.49 102.504 143.479 98.5001Z" fill="#5FEFC0"/>
<path d="M142.842 128.342C150.744 120.421 155.182 109.689 155.182 98.5C155.182 87.3113 150.744 76.5794 142.842 68.6582C142.4 68.2311 141.808 67.9947 141.193 68.0001C140.578 68.0054 139.99 68.252 139.555 68.6867C139.121 69.1214 138.874 69.7095 138.869 70.3242C138.863 70.939 139.1 71.5312 139.527 71.9734C146.551 79.0143 150.496 88.5541 150.496 98.5C150.496 108.446 146.551 117.986 139.527 125.027C139.1 125.469 138.863 126.061 138.869 126.676C138.874 127.291 139.121 127.879 139.555 128.313C139.99 128.748 140.578 128.995 141.193 129C141.808 129.005 142.4 128.769 142.842 128.342Z" fill="#5FEFC0"/>
<defs>
<linearGradient id="paint0_linear_101_59" x1="240.46" y1="65.6562" x2="219.594" y2="91.1166" gradientUnits="userSpaceOnUse">
<stop stop-color="#6CDFE6"/>
<stop offset="1" stop-color="#3374EA"/>
</linearGradient>
</defs>
</svg>
