<svg width="110" height="24" viewBox="0 0 110 24" fill="none" xmlns="http://www.w3.org/2000/svg">
<path d="M5.65756 1.6C8.6042 3.77995 10.9787 6.66478 12.5716 10C14.9286 14 16.2643 16 18.3463 16C20.4284 16 21.764 14.08 24.1211 10C26.4781 5.92 29.8566 0 36.692 0C43.5274 0 46.8273 5.76 49.2629 10C51.6985 14.24 52.9556 16 54.9984 16C57.0411 16 58.4161 14.08 60.7731 10C63.1302 5.92 66.5086 0 73.344 0C80.1795 0 83.4793 5.76 85.9149 10C88.3505 14.24 89.5684 16 91.6897 16C93.811 16 95.1074 14.08 97.4252 10C99.018 6.66478 101.393 3.77995 104.339 1.6C104.927 1.30622 105.577 1.16664 106.231 1.19396C106.886 1.22128 107.523 1.41463 108.085 1.75643C108.647 2.09823 109.116 2.57764 109.45 3.1511C109.784 3.72455 109.971 4.37386 109.996 5.04C110.025 5.70813 109.89 6.37308 109.602 6.97404C109.313 7.57499 108.882 8.09277 108.346 8.48C106.591 9.99076 105.183 11.875 104.221 14C101.825 18.24 98.5251 24 91.6897 24C84.8543 24 81.5151 18.24 79.1188 14C76.7225 9.76 75.4654 8 73.344 8C71.2227 8 69.9263 9.92 67.6086 14C65.2908 18.08 61.8731 24 54.9984 24C48.1237 24 44.8631 18.24 42.4275 14C39.9918 9.76 38.774 8 36.6527 8C34.5314 8 33.235 9.92 30.8779 14C28.5209 18.08 25.1425 24 18.307 24C11.4716 24 8.17174 18.24 5.73613 14C4.83128 11.894 3.49141 10.0113 1.80772 8.48C1.24317 8.11135 0.780724 7.60168 0.464401 6.99952C0.148079 6.39736 -0.0115738 5.72277 0.000656128 5.04C0.0252991 4.37386 0.213066 3.72455 0.546867 3.1511C0.880676 2.57764 1.34995 2.09823 1.91202 1.75643C2.47409 1.41463 3.11115 1.22128 3.76528 1.19396C4.41942 1.16664 5.06989 1.30622 5.65756 1.6Z" fill="#F19C7D"/>
</svg>
