<svg width="78" height="17" viewBox="0 0 78 17" fill="none" xmlns="http://www.w3.org/2000/svg">
<path d="M4.01172 1.13333C6.10116 2.67747 7.78488 4.72089 8.91438 7.08333C10.5857 9.91667 11.5328 11.3333 13.0092 11.3333C14.4856 11.3333 15.4327 9.97333 17.104 7.08333C18.7754 4.19333 21.171 0 26.0179 0C30.8649 0 33.2048 4.08 34.9319 7.08333C36.6589 10.0867 37.5503 11.3333 38.9988 11.3333C40.4474 11.3333 41.4223 9.97333 43.0937 7.08333C44.765 4.19333 47.1606 0 52.0076 0C56.8545 0 59.1944 4.08 60.9215 7.08333C62.6486 10.0867 63.5121 11.3333 65.0163 11.3333C66.5206 11.3333 67.4398 9.97333 69.0833 7.08333C70.2128 4.72089 71.8965 2.67747 73.986 1.13333C74.4027 0.925236 74.8639 0.826372 75.3278 0.845723C75.7916 0.865074 76.2433 1.00203 76.6419 1.24414C77.0404 1.48625 77.3732 1.82583 77.6099 2.23203C77.8466 2.63822 77.9797 3.09815 77.9972 3.57C78.018 4.04326 77.9218 4.51427 77.7174 4.93994C77.5131 5.36562 77.207 5.73238 76.8273 6.00667C75.583 7.07679 74.5845 8.41148 73.9024 9.91667C72.2032 12.92 69.8633 17 65.0163 17C60.1694 17 57.8016 12.92 56.1024 9.91667C54.4032 6.91333 53.5118 5.66667 52.0076 5.66667C50.5034 5.66667 49.5841 7.02667 47.9406 9.91667C46.2971 12.8067 43.8736 17 38.9988 17C34.124 17 31.812 12.92 30.0849 9.91667C28.3578 6.91333 27.4943 5.66667 25.9901 5.66667C24.4859 5.66667 23.5666 7.02667 21.8953 9.91667C20.2239 12.8067 17.8283 17 12.9813 17C8.13441 17 5.7945 12.92 4.06743 9.91667C3.42582 8.42494 2.47572 7.09134 1.28184 6.00667C0.881523 5.74554 0.553596 5.38452 0.3293 4.958C0.105003 4.53147 -0.00820923 4.05363 0.000457764 3.57C0.0179367 3.09815 0.151077 2.63822 0.387779 2.23203C0.624474 1.82583 0.95723 1.48625 1.35579 1.24414C1.75435 1.00203 2.20609 0.865074 2.66993 0.845723C3.13377 0.826372 3.595 0.925236 4.01172 1.13333Z" fill="#F19C7D"/>
</svg>
