<svg width="290" height="213" viewBox="0 0 290 213" fill="none" xmlns="http://www.w3.org/2000/svg">
<mask id="path-1-inside-1_101_61" fill="white">
<path d="M249.558 172.904C254.665 164.06 256.647 153.754 255.186 143.646C253.726 133.538 248.907 124.216 241.505 117.179C234.103 110.142 224.549 105.8 214.381 104.851C204.212 103.902 194.02 106.402 185.444 111.949C176.868 117.495 170.408 125.765 167.103 135.429C163.798 145.092 163.839 155.586 167.222 165.223C170.604 174.859 177.13 183.078 185.75 188.556C194.369 194.033 204.581 196.452 214.742 195.422L212.795 176.214C206.946 176.807 201.067 175.415 196.105 172.261C191.143 169.108 187.386 164.376 185.439 158.829C183.492 153.281 183.468 147.24 185.37 141.677C187.273 136.114 190.992 131.353 195.929 128.16C200.866 124.967 206.733 123.528 212.587 124.074C218.441 124.62 223.941 127.12 228.202 131.171C232.463 135.222 235.237 140.589 236.078 146.408C236.919 152.227 235.778 158.159 232.838 163.251L249.558 172.904Z"/>
</mask>
<path d="M249.558 172.904C254.665 164.06 256.647 153.754 255.186 143.646C253.726 133.538 248.907 124.216 241.505 117.179C234.103 110.142 224.549 105.8 214.381 104.851C204.212 103.902 194.02 106.402 185.444 111.949C176.868 117.495 170.408 125.765 167.103 135.429C163.798 145.092 163.839 155.586 167.222 165.223C170.604 174.859 177.13 183.078 185.75 188.556C194.369 194.033 204.581 196.452 214.742 195.422L212.795 176.214C206.946 176.807 201.067 175.415 196.105 172.261C191.143 169.108 187.386 164.376 185.439 158.829C183.492 153.281 183.468 147.24 185.37 141.677C187.273 136.114 190.992 131.353 195.929 128.16C200.866 124.967 206.733 123.528 212.587 124.074C218.441 124.62 223.941 127.12 228.202 131.171C232.463 135.222 235.237 140.589 236.078 146.408C236.919 152.227 235.778 158.159 232.838 163.251L249.558 172.904Z" stroke="#33384B" stroke-width="4" mask="url(#path-1-inside-1_101_61)"/>
<path d="M220.569 199.953C226.444 198.862 232.046 196.625 237.056 193.369C242.066 190.113 246.386 185.902 249.769 180.976L233.854 170.047C231.906 172.882 229.42 175.306 226.536 177.181C223.651 179.055 220.426 180.343 217.044 180.971L220.569 199.953Z" fill="#F19C7D"/>
<g clip-path="url(#clip0_101_61)">
<path d="M277.74 8H83V125.25H277.74V8Z" fill="white"/>
<path d="M246.16 78.4601C262.248 78.4601 275.29 65.4181 275.29 49.3301C275.29 33.242 262.248 20.2001 246.16 20.2001C230.072 20.2001 217.03 33.242 217.03 49.3301C217.03 65.4181 230.072 78.4601 246.16 78.4601Z" fill="#FAA701"/>
<path d="M246.05 20.2C237.93 20.23 230.6 23.58 225.34 28.96L244.72 49.76L258.34 22.87C254.6 21.15 250.44 20.19 246.05 20.2Z" fill="#FFD255"/>
<path d="M271.19 34.43C268.18 29.39 263.7 25.34 258.34 22.86L244.72 49.75L245 50.05L271.19 34.42V34.43Z" fill="#33384B"/>
<path d="M225.34 28.9601C220.17 34.2401 217 41.4701 217.03 49.4401C217.05 54.8701 218.56 59.9401 221.16 64.2801L244.38 50.4201L244.72 49.7501L225.34 28.9501V28.9601Z" fill="#7D95C9"/>
<path d="M244.72 49.76L244.38 50.43L245 50.06L244.72 49.76Z" fill="#FAA701"/>
<path d="M265.01 71.5401L245 50.0601L244.38 50.4301L232.03 74.8101C236.25 77.1501 241.1 78.4801 246.27 78.4601C253.42 78.4301 259.96 75.8301 265.01 71.5301V71.5401Z" fill="#5347EC"/>
<path d="M221.16 64.2901C223.79 68.6801 227.55 72.3201 232.03 74.8101L244.38 50.4301L221.16 64.2901Z" fill="#E8E9EB"/>
<path d="M271.19 34.4301L245 50.0601L265.01 71.5401C271.33 66.1701 275.32 58.1601 275.29 49.2301C275.27 43.8201 273.77 38.7701 271.19 34.4401V34.4301Z" fill="#7D95C9"/>
<path d="M246.16 69.66C257.388 69.66 266.49 60.558 266.49 49.33C266.49 38.1021 257.388 29 246.16 29C234.932 29 225.83 38.1021 225.83 49.33C225.83 60.558 234.932 69.66 246.16 69.66Z" fill="white"/>
<path d="M246.16 66.96C236.44 66.96 228.54 59.05 228.54 49.34C228.54 39.63 236.45 31.72 246.16 31.72C255.87 31.72 263.78 39.63 263.78 49.34C263.78 59.05 255.87 66.96 246.16 66.96ZM246.16 32.71C236.99 32.71 229.54 40.17 229.54 49.33C229.54 58.49 237 65.95 246.16 65.95C255.32 65.95 262.78 58.49 262.78 49.33C262.78 40.17 255.32 32.71 246.16 32.71Z" fill="#F19C7D"/>
<path d="M254.14 84.88H245.49V86.87H254.14V84.88Z" fill="#F19C7D"/>
<path d="M258.31 90.1801H245.49V92.1701H258.31V90.1801Z" fill="#A4B0BC"/>
<path d="M266.32 90.1801H260.01V92.1701H266.32V90.1801Z" fill="#A4B0BC"/>
<path d="M270.87 90.1801H266.83V92.1701H270.87V90.1801Z" fill="#A4B0BC"/>
<path d="M251.61 95.49H245.49V97.48H251.61V95.49Z" fill="#A4B0BC"/>
<path d="M268.99 95.49H253.26V97.48H268.99V95.49Z" fill="#A4B0BC"/>
<path d="M270.87 100.8H263.67V102.79H270.87V100.8Z" fill="#A4B0BC"/>
<path d="M262.98 100.8H245.49V102.79H262.98V100.8Z" fill="#A4B0BC"/>
<path d="M256.54 106.11H245.49V108.1H256.54V106.11Z" fill="#A4B0BC"/>
<path d="M262.98 106.11H258.24V108.1H262.98V106.11Z" fill="#A4B0BC"/>
<path d="M266.42 106.11H263.67V108.1H266.42V106.11Z" fill="#A4B0BC"/>
<path d="M127.59 101.66H105.43V103.02H127.59V101.66Z" fill="#F19C7D"/>
<path d="M132.09 105.29H105.43V106.65H132.09V105.29Z" fill="#A4B0BC"/>
<path d="M132.09 108.92H115.62V110.28H132.09V108.92Z" fill="#A4B0BC"/>
<path d="M113.2 108.92H105.43V110.28H113.2V108.92Z" fill="#A4B0BC"/>
<path d="M132.09 112.54H105.43V113.9H132.09V112.54Z" fill="#A4B0BC"/>
<path d="M132.09 116.17H105.43V117.53H132.09V116.17Z" fill="#A4B0BC"/>
<path opacity="0.2" d="M105.93 27.09H104.93V92.28H105.93V27.09Z" fill="#022A44"/>
<path opacity="0.2" d="M124.47 27.09H123.47V92.28H124.47V27.09Z" fill="#022A44"/>
<path opacity="0.2" d="M143.01 27.09H142.01V92.28H143.01V27.09Z" fill="#022A44"/>
<path opacity="0.2" d="M161.55 27.09H160.55V92.28H161.55V27.09Z" fill="#022A44"/>
<path opacity="0.2" d="M180.09 27.09H179.09V92.28H180.09V27.09Z" fill="#022A44"/>
<path opacity="0.2" d="M198.63 27.09H197.63V92.28H198.63V27.09Z" fill="#022A44"/>
<path d="M108.44 52.99H102.41V92.28H108.44V52.99Z" fill="#5347EC"/>
<path d="M127.15 66.46H121.12V92.28H127.15V66.46Z" fill="#5347EC"/>
<path d="M145.54 55.13H139.51V92.27H145.54V55.13Z" fill="#5347EC"/>
<path d="M164.06 40.97H158.03V92.27H164.06V40.97Z" fill="#5347EC"/>
<path d="M182.6 62.64H176.57V92.28H182.6V62.64Z" fill="#5347EC"/>
<path d="M201.75 93.51H92.7202V94.34H201.75V93.51Z" fill="#E8E9EB"/>
<path d="M204.51 41.29L198.13 30.23L191.74 41.29H195.11V92.27H201.14V41.29H204.51Z" fill="#F19C7D"/>
<path d="M100.51 89.0801C100.51 89.5001 100.17 89.8401 99.75 89.8401H93.49C93.07 89.8401 92.73 89.5001 92.73 89.0801C92.73 88.6601 93.07 88.3201 93.49 88.3201H99.75C100.17 88.3201 100.51 88.6601 100.51 89.0801Z" fill="#E8E9EB"/>
<path d="M100.51 78.21C100.51 78.63 100.17 78.97 99.75 78.97H93.49C93.07 78.97 92.73 78.63 92.73 78.21C92.73 77.79 93.07 77.45 93.49 77.45H99.75C100.17 77.45 100.51 77.79 100.51 78.21Z" fill="#E8E9EB"/>
<path d="M100.51 67.35C100.51 67.77 100.17 68.11 99.75 68.11H93.49C93.07 68.11 92.73 67.77 92.73 67.35C92.73 66.93 93.07 66.59 93.49 66.59H99.75C100.17 66.59 100.51 66.93 100.51 67.35Z" fill="#E8E9EB"/>
<path d="M100.51 56.49C100.51 56.91 100.17 57.25 99.75 57.25H93.49C93.07 57.25 92.73 56.91 92.73 56.49C92.73 56.07 93.07 55.73 93.49 55.73H99.75C100.17 55.73 100.51 56.07 100.51 56.49Z" fill="#E8E9EB"/>
<path d="M100.51 45.63C100.51 46.05 100.17 46.39 99.75 46.39H93.49C93.07 46.39 92.73 46.05 92.73 45.63C92.73 45.21 93.07 44.87 93.49 44.87H99.75C100.17 44.87 100.51 45.21 100.51 45.63Z" fill="#E8E9EB"/>
<path d="M100.51 34.76C100.51 35.18 100.17 35.52 99.75 35.52H93.49C93.07 35.52 92.73 35.18 92.73 34.76C92.73 34.34 93.07 34 93.49 34H99.75C100.17 34 100.51 34.34 100.51 34.76Z" fill="#E8E9EB"/>
<path d="M100.51 23.9C100.51 24.32 100.17 24.66 99.75 24.66H93.49C93.07 24.66 92.73 24.32 92.73 23.9C92.73 23.48 93.07 23.14 93.49 23.14H99.75C100.17 23.14 100.51 23.48 100.51 23.9Z" fill="#E8E9EB"/>
</g>
<g clip-path="url(#clip1_101_61)">
<path d="M66.2267 186.354C65.8994 202.889 70.1715 218.802 73.3238 233.835C86.8634 298.592 101.385 359.69 116.32 425.328C121.798 423.429 133.184 421.427 138.662 419.546C134.338 340.084 125.122 264.488 111.772 186.354H66.2267Z" fill="#352F6C"/>
<path d="M66.2267 186.354C65.8994 202.889 70.1715 218.802 73.3238 233.835C86.8634 298.592 101.385 359.69 116.32 425.328C119.231 424.327 123.796 423.291 128.257 422.256C116.113 341.447 93.8571 263.866 67.7426 186.354H66.2267Z" fill="#292666"/>
<path d="M38.166 186.354L37.5803 192.119C32.3781 240.911 27.9855 272.928 27.6926 313.159C27.3998 353.391 29.1224 393.795 24.6953 433.733C33.9629 432.784 43.351 433.198 52.498 434.993C58.906 359.086 72.5835 293.76 84.5038 223.721C86.2781 213.314 85.3823 199.851 84.0387 186.372H38.1832L38.166 186.354Z" fill="#352F6C"/>
<path d="M48.0192 250.508C58.906 220.925 72.9969 247.487 82.2817 186.354H38.166L37.5803 192.119C32.3781 240.911 27.9855 272.927 27.6926 313.159C27.3998 353.391 29.1224 393.795 24.6953 433.733C27.0725 433.492 29.4669 433.336 31.8785 433.267C31.4307 379.987 29.3291 300.491 48.0365 250.508H48.0192Z" fill="#292666"/>
<path d="M72.1517 202.026C72.1 200.473 72.2033 198.678 72.0655 197.021C62.1262 197.418 52.2212 198.074 42.3163 199.04C41.455 201.819 40.5937 204.615 39.7324 207.394C50.4814 205.65 61.351 204.494 72.2206 203.925C72.2033 203.286 72.1689 202.665 72.1344 202.026H72.1517Z" fill="white"/>
<path d="M74.15 196.934C74.2706 198.643 74.1845 200.404 74.2362 202.026C74.2534 202.63 74.2879 203.217 74.3051 203.821C75.3903 203.769 76.4755 203.717 77.578 203.683C77.578 201.387 77.5952 199.109 77.6297 196.814C76.4583 196.848 75.3042 196.9 74.1328 196.952L74.15 196.934Z" fill="white"/>
<path d="M99.5581 203.717C103.778 203.873 107.999 204.097 112.202 204.442C111.771 201.922 111.323 199.402 110.893 196.883C107.069 196.745 103.262 196.676 99.4375 196.641C99.4892 199.006 99.472 201.37 99.5409 203.717H99.5581Z" fill="white"/>
<path d="M97.492 203.648C97.4231 201.318 97.4231 198.971 97.3714 196.624C96.045 196.624 94.7014 196.589 93.375 196.589C93.909 198.867 93.9262 201.197 93.8918 203.562C95.0976 203.579 96.3034 203.614 97.5092 203.648H97.492Z" fill="white"/>
<path d="M91.2558 196.606C87.4145 196.606 83.5731 196.658 79.7145 196.762C79.68 199.04 79.6456 201.336 79.6628 203.614C83.7453 203.493 87.8279 203.493 91.9277 203.545C91.9793 201.18 91.9104 198.816 91.2558 196.606Z" fill="#F19C7D"/>
<path d="M66.089 89.2185C66.3301 89.8226 66.1923 90.4957 66.0545 91.1171C65.2966 94.5172 64.5214 97.9173 63.7635 101.317C57.8205 96.8472 57.631 87.6997 52.4805 82.332C56.408 84.127 60.3527 85.9392 64.2802 87.7342C65.0037 88.0622 65.7961 88.4591 66.1062 89.2185H66.089Z" fill="#352F6C"/>
<path d="M96.2848 79.6913C75.3725 71.1997 55.9933 70.4058 33.3584 72.8048C27.7083 73.4089 21.5759 74.6171 18.0273 78.7766C13.9103 83.6092 14.7544 90.5475 16.0291 96.6055C23.1434 130.503 36.8036 163.762 35.5633 198.281C61.2128 194.328 87.3618 193.189 113.304 194.881C107.172 166.299 106.052 140.375 111.185 111.638C112.374 104.959 111.513 95.5355 107.12 90.1505C104.743 87.2164 99.9023 81.1929 96.302 79.7259L96.2848 79.6913Z" fill="#E8E9EB"/>
<path d="M69.2399 50.7991C62.6251 51.9727 52.1862 52.5595 45.5714 51.3686C47.4318 60.7405 48.4654 64.8482 45.2441 73.8231C86.8276 84.662 75.3379 82.2975 76.113 79.6568C70.3768 71.286 70.3424 60.8786 69.2571 50.7991H69.2399Z" fill="#F3B1C1"/>
<path d="M76.0967 79.674C70.3605 71.3032 70.326 60.8958 69.2408 50.8163C63.4357 51.8518 54.6849 52.4214 48.1562 51.7483C49.6205 60.0155 51.8771 68.162 54.4437 76.2566C84.9853 84.2822 75.3905 82.0903 76.0967 79.674Z" fill="#DF9DAD"/>
<path d="M72.3569 71.8038C70.2725 65.1934 70.0141 57.9272 69.239 50.7991C63.5716 51.8001 55.1137 52.3697 48.6367 51.7829C49.6875 64.4167 60.6432 70.8372 72.3569 71.8038Z" fill="#33384B"/>
<path d="M62.7981 23.0114C59.2324 21.4236 55.2015 21.3373 51.4462 22.3901C47.2776 23.5637 42.1098 24.8927 39.3019 28.638C36.5975 32.2452 36.7353 37.3022 38.165 41.5653C40.8523 49.5391 46.6402 56.3911 54.3402 59.7394C62.2297 63.174 67.742 62.8634 74.2534 61.6725C76.3033 61.31 77.7158 59.446 77.5435 57.3749C77.0957 52.4214 76.8717 47.6924 75.1664 43.1877C74.5979 41.6861 73.0993 40.5642 72.6514 39.1317C72.169 37.5956 72.8581 36.1976 72.2896 34.6443C70.3259 29.3629 67.7764 25.2206 62.8154 22.9942L62.7981 23.0114Z" fill="#F3B1C1"/>
<path d="M59.2148 61.4654C64.6927 62.9843 69.1887 62.6046 74.2703 61.6898C76.3202 61.3274 77.7327 59.4634 77.5605 57.3922C77.4916 56.6156 77.4227 55.8389 77.3538 55.0795C71.9448 60.7233 65.709 62.1731 59.2148 61.4654Z" fill="#DF9DAD"/>
<path d="M50.6018 34.7652C56.8376 34.4717 58.5602 34.3337 63.728 32.6077C66.8114 32.1762 68.7407 30.9853 69.8949 29.5873C68.1895 26.7223 65.9846 24.444 62.7117 22.9942C58.164 20.9749 52.8584 21.8724 48.104 23.3567C44.7794 24.4095 41.3687 25.842 39.2844 28.6381C36.5799 32.2453 36.7177 37.3023 38.1474 41.5654C40.3868 48.1757 44.7622 53.9921 50.5846 57.7029C50.6535 50.0397 46.2609 42.1522 50.5846 34.7479L50.6018 34.7652Z" fill="#DF9DAD"/>
<path d="M73.4436 12C72.3929 14.1919 70.5669 16.0042 68.3792 17.057C69.2405 16.1077 69.7573 14.8651 69.7917 13.5879C67.6902 16.5047 64.1072 17.989 60.5758 18.6103C57.0445 19.2317 53.4271 19.1281 49.8613 19.6114C46.3128 20.0774 42.6609 21.2338 40.1975 23.8399C37.4586 26.7395 33.5483 30.6919 34.8403 35.1103C33.3244 37.1642 32.5492 39.7186 33.066 42.1867C33.7378 45.3797 36.3217 47.796 38.9917 49.6773C41.6618 51.5413 44.6074 53.1291 46.709 55.6317C47.4324 53.3708 47.6736 50.989 47.7425 48.5727C48.7072 49.3148 49.6029 50.126 50.4987 50.9372C51.136 51.058 51.7389 50.4367 51.8251 49.7981C51.9112 49.1422 51.1533 46.8467 50.826 46.2772C49.9474 44.7756 49.2412 45.138 48.3799 43.6365C48.1387 43.205 47.9148 42.739 47.7425 42.2557C47.7425 39.2008 47.8631 36.1977 48.7244 33.4016C49.0172 33.3671 49.3101 33.3154 49.6201 33.2808C54.3745 32.8148 59.2494 32.7458 63.6937 31.0026C68.138 29.2594 72.1517 25.3415 72.3067 20.5607C71.5315 21.2338 70.7736 21.9242 69.9984 22.5973C72.1172 19.4906 73.3403 15.7625 73.4609 12L73.4436 12Z" fill="#33384B"/>
<path d="M52.1689 50.4884C52.0311 49.4183 46.8116 46.2771 45.7953 46.6223C44.7789 46.9502 44.1244 48.003 44.0038 49.0731C43.8832 50.1432 44.2105 51.196 44.6411 52.1798C45.2268 53.5261 46.0364 54.7687 47.0011 55.8561C47.7246 56.6845 48.6031 57.4439 49.6539 57.7201C50.7219 57.9962 51.9966 57.6683 52.5478 56.7018L52.1689 50.4884Z" fill="#F3B1C1"/>
<path d="M111.167 111.621C112.356 104.942 111.494 95.5182 107.102 90.1333C104.725 87.1992 99.8841 81.1757 96.2839 79.7086C92.4597 78.1553 88.6873 76.8608 84.9492 75.808C98.9367 113.675 95.7154 154.304 97.2313 194.207C102.589 194.311 107.946 194.535 113.303 194.881C107.171 166.299 106.051 140.375 111.184 111.638L111.167 111.621Z" fill="#352F6C"/>
<path d="M87.4821 194.656C87.3443 194.656 87.2065 194.587 87.1376 194.449C87.0343 194.259 87.1032 194.018 87.2926 193.914L93.4768 190.445C93.0117 189.875 92.2365 189.53 91.513 189.582C91.2891 189.599 91.1168 189.444 91.0824 189.237C91.0651 189.03 91.2029 188.823 91.4097 188.788C93.115 188.529 94.183 186.665 94.3208 185.043C94.4586 183.42 93.9591 181.781 93.4768 180.193L93.3217 179.675C90.3761 169.768 90.1005 159.292 89.8593 149.178C89.6698 141.929 88.7913 133.592 87.9472 125.55C87.1032 117.489 86.2074 109.136 86.0352 101.852C86.0352 101.628 86.2074 101.455 86.4141 101.438C86.6208 101.438 86.8103 101.611 86.8103 101.835C86.9998 109.084 87.8783 117.42 88.7224 125.463C89.5665 133.523 90.4622 141.877 90.6345 149.16C90.8929 159.223 91.1513 169.63 94.0797 179.451L94.2347 179.968C94.7343 181.625 95.251 183.351 95.096 185.129C94.9582 186.613 94.2003 188.236 92.8911 189.064C93.5112 189.34 94.0452 189.806 94.3725 190.393C94.4759 190.583 94.407 190.825 94.2175 190.928L87.6544 194.604C87.6544 194.604 87.5338 194.656 87.4649 194.656H87.4821Z" fill="#352F6C"/>
<path d="M84.3981 88.718C83.2095 90.5475 83.3473 94.4481 81.418 95.4492C85.8106 120.769 86.2585 142.119 81.8658 167.438C86.8269 171.373 90.6855 173.185 94.0101 175.55C94.4063 168.871 96.7835 168.353 96.7491 165.074C96.7146 162.07 95.8533 157.945 95.0437 151.335C92.5632 130.762 90.4616 108.532 84.3808 88.718H84.3981Z" fill="#F19C7D"/>
<path d="M40.0085 69.1285C39.0611 69.1976 37.9242 72.1835 36.9595 72.2697C35.0819 72.4423 35.2714 72.6667 33.3421 72.8911C27.692 73.5297 21.5595 74.8414 18.011 79.2771C13.894 84.4549 15.2893 91.7901 16.0128 98.3832C20.9738 144.19 42.2134 162.088 31.3266 232.144C39.9052 230.728 51.1882 228.226 61.3687 226.672C67.7768 225.688 72.3761 220.027 72.0143 213.538C70.1195 180.037 68.9481 132.885 64.8311 102.629C62.9879 88.7352 51.636 76.1186 40.0085 69.1285Z" fill="#5347EC"/>
<path d="M37.8027 200.559C47.0703 199.23 55.5627 193.344 60.0759 185.146C53.0822 190.876 45.4338 195.726 37.8027 200.559Z" fill="#C7D3DD"/>
<path opacity="0.5" d="M15.4098 92.8948C15.5821 94.7415 15.8232 96.5883 16.0127 98.3833C17.0635 108.1 18.855 116.575 20.9049 124.549C30.1035 145.847 48.4836 161.863 69.9644 171.252C69.327 157.79 68.6035 144.086 67.6561 131.349C45.1935 124.1 24.7118 113.364 15.3926 92.912L15.4098 92.8948Z" fill="#352F6C"/>
<path d="M69.0166 222.599C68.8099 222.599 68.6204 222.426 68.6204 222.219C67.1907 188.218 61.7473 154.39 52.428 121.666C52.3936 121.563 52.428 121.442 52.4797 121.338C52.5314 121.235 52.6347 121.183 52.7381 121.148C55.4943 120.631 58.1643 119.595 60.5242 118.093L53.1343 117.144C53.0309 117.144 52.9276 117.075 52.8587 116.972C52.7898 116.868 52.7726 116.764 52.7898 116.661C56.2694 100.23 49.6202 82.5391 36.2356 72.6495C36.0634 72.5114 36.0289 72.2697 36.1495 72.0972C36.2873 71.9246 36.5285 71.89 36.7007 72.0109C50.2059 81.9868 56.9929 99.7812 53.6511 116.402L61.6784 117.438C61.8334 117.455 61.9712 117.576 62.0057 117.731C62.0401 117.886 61.9884 118.059 61.8506 118.145C59.3012 119.94 56.3556 121.2 53.3066 121.821C62.5741 154.476 67.9831 188.236 69.4128 222.15C69.4128 222.375 69.2578 222.565 69.0339 222.565L69.0166 222.599Z" fill="#352F6C"/>
<path d="M38.01 199.23C37.8722 199.23 37.7516 199.161 37.6655 199.04C37.5449 198.85 37.6138 198.609 37.8033 198.488C45.2621 193.879 52.652 188.943 59.7664 183.817C59.9386 183.696 60.197 183.731 60.3176 183.904C60.4382 184.076 60.4037 184.335 60.2315 184.456C53.0999 189.582 45.6927 194.535 38.2167 199.144C38.1478 199.178 38.0789 199.195 38.01 199.195V199.23Z" fill="#352F6C"/>
<path d="M99.1792 81.4172C110.376 90.9789 109.773 98.5731 115.544 112.139C119.316 120.993 123.451 133.644 124.605 143.206C125.587 151.283 123.64 161.38 122.159 169.388C118.972 186.751 119.024 201.991 114.149 218.957C109.377 213.193 104.295 209.327 103.658 201.871C103.4 198.85 103.882 195.83 104.399 192.861C106.225 182.523 108.654 172.133 107.913 161.656C107.189 151.283 103.4 141.428 100.919 131.331C97.3188 116.713 96.4059 101.576 95.5273 86.5433L99.162 81.4345L99.1792 81.4172Z" fill="#7165FF"/>
<path opacity="0.6" d="M96.6641 103.319C97.4565 112.76 98.6623 122.132 100.919 131.314C103.417 141.394 107.189 151.266 107.913 161.639C108.653 172.115 106.224 182.506 104.399 192.844C103.882 195.813 103.399 198.85 103.658 201.853C104.312 209.309 109.377 213.176 114.148 218.94C114.493 217.732 114.803 216.541 115.113 215.35C115.905 176.206 117.404 137.182 96.6641 103.319Z" fill="#352F6C"/>
<path d="M81.3852 138.684C82.7978 130.14 79.9555 127.81 74.6843 120.958C69.4132 114.106 64.5038 114.538 57.579 109.377C48.7937 102.802 39.974 86.8194 31.1888 80.2608C29.0872 78.6902 26.8995 77.0851 24.3501 76.5155C19.3201 75.4109 14.0834 78.8456 11.8268 83.4883C9.55301 88.1138 9.72527 93.6023 10.7588 98.6421C13.136 110.258 19.8024 120.682 28.1915 129.053C36.5805 137.424 46.6577 143.896 56.976 149.713C62.7467 152.957 69.6371 156.099 75.7179 153.475C80.3861 151.473 80.5756 143.724 81.4025 138.701L81.3852 138.684Z" fill="#7165FF"/>
<path opacity="0.5" d="M14.4976 102.353C12.9473 94.31 15.7896 85.5768 21.7325 79.9675C19.9066 78.9664 17.65 80.2954 16.2374 81.8142C13.7224 84.524 12.1549 88.0967 11.8448 91.7729C11.5347 95.4492 12.4822 99.2462 14.4976 102.336V102.353Z" fill="#C7D3DD"/>
<path opacity="0.5" d="M27.0539 84.3686C27.5535 83.4711 26.9161 82.1594 25.8998 81.9868C25.0213 81.8315 24.1083 82.5391 24.0222 83.4366C23.9361 84.3341 24.7112 85.1971 25.5897 85.2143C26.1754 85.2143 26.7611 84.8864 27.0539 84.3686Z" fill="#C7D3DD"/>
<path opacity="0.3" d="M56.0285 109.912C52.7211 115.85 51.6531 122.995 53.0829 129.64C54.5126 136.285 58.4229 142.36 63.8663 146.416C59.7838 136.164 59.6115 124.41 63.384 114.055C60.9379 112.674 58.4746 111.293 56.0285 109.912Z" fill="#352F6C"/>
<path d="M73.2198 58.5485C74.7529 57.8064 76.4755 57.582 78.1464 57.3749C80.4202 57.0815 82.7457 56.8053 84.9679 57.3231C87.3967 57.8927 88.9987 59.4288 91.1348 60.1882C92.0305 60.4988 92.5128 61.4481 92.22 62.3456C91.8927 63.3466 91.5999 64.2786 91.2037 65.4178C90.9797 66.0909 91.2726 67.299 90.6008 67.4889C89.8945 67.696 89.1538 67.1264 88.8954 66.4361C88.637 65.7457 88.7404 64.969 88.8437 64.2441C87.2417 65.8493 85.3296 67.161 83.2625 68.0757C82.8146 70.3712 82.7802 72.753 83.1592 75.083C79.49 74.7206 75.8209 74.2028 72.2034 73.5124C71.3077 73.3398 70.3086 73.0809 69.8607 72.287C69.6023 71.8383 69.6023 71.286 69.5851 70.7682C69.5506 67.9722 70.3258 65.6939 70.2914 62.8979C71.0493 61.2237 71.5661 59.3425 73.2198 58.5485Z" fill="#F3B1C1"/>
<path d="M69.9802 66.6086C69.7907 67.9549 69.5667 69.2838 69.6012 70.7682C69.6012 71.2859 69.6184 71.821 69.8768 72.287C70.3247 73.0809 71.3238 73.3398 72.2195 73.5124C75.8542 74.2028 79.5061 74.7206 83.1752 75.083C82.9169 73.4951 82.8652 71.8728 83.003 70.2676C78.662 69.56 74.3383 68.3518 69.9974 66.6086H69.9802Z" fill="#DF9DAD"/>
<path d="M73.8567 155.253C77.3708 154.39 80.0063 151.283 81.2638 147.883C82.5213 144.483 82.6591 140.772 82.7797 137.148C83.4515 116.782 85.0708 93.4643 85.7426 73.0982C81.2811 71.7002 70.8421 71.1479 66.3806 69.7499C64.0379 92.4978 55.735 116.143 58.8701 138.891C59.4386 143.033 60.4377 147.279 62.9527 150.627C65.4676 153.976 69.7914 156.237 73.8567 155.236V155.253Z" fill="#7165FF"/>
<path opacity="0.5" d="M66.1388 83.3502C63.3998 93.7059 60.6609 104.079 59.2828 114.693C57.9047 125.308 57.922 136.233 60.6609 146.571C59.5929 125.377 61.4533 104.044 66.1388 83.3502Z" fill="#C7D3DD"/>
<path d="M85.294 79.7949C78.5931 79.7949 72.0128 78.6385 65.7253 76.3258C65.5186 76.2567 65.4152 76.0151 65.4841 75.808C65.5531 75.6009 65.7942 75.4973 66.0009 75.5663C72.2023 77.8273 78.6965 78.9837 85.3112 78.9837C85.4146 78.9837 85.5352 78.9837 85.6041 78.9837C85.828 78.9837 86.0003 79.1563 86.0003 79.3807C86.0003 79.605 85.828 79.7776 85.6041 79.7776C85.5007 79.7776 85.4146 79.7776 85.3112 79.7776L85.294 79.7949Z" fill="#352F6C"/>
<path d="M112.84 223.963C114.631 224.239 116.388 224.498 118.094 224.619C111.961 194 106.036 145.294 111.169 114.486C112.358 107.324 112.616 96.8817 108.223 91.0999C105.846 87.9586 100.592 81.1412 96.9748 79.5706C93.3401 77.9827 88.224 76.4984 84.6582 75.3938C87.7589 80.1919 91.4797 86.2672 92.2204 91.4623C98.2323 124.618 98.1806 176.758 102.28 212.917C102.918 218.56 107.224 223.065 112.823 223.963H112.84Z" fill="#5347EC"/>
<path d="M106.896 220.131C106.69 220.131 106.517 219.976 106.5 219.769C103.985 194.242 102.762 150.731 104.933 126.188L99.4548 127.086C99.2653 127.12 99.0931 127.017 99.0242 126.844C98.9553 126.671 99.0242 126.482 99.162 126.361L105.88 121.649C102.659 106.271 97.0604 91.5831 89.2398 77.9654C89.1365 77.7756 89.1882 77.5339 89.3776 77.4131C89.5671 77.3095 89.8083 77.3613 89.9289 77.5684C97.8356 91.3242 103.486 106.202 106.707 121.735C106.741 121.891 106.672 122.046 106.552 122.149L101.04 126.016L105.294 125.325C105.415 125.308 105.536 125.342 105.622 125.429C105.708 125.515 105.76 125.636 105.742 125.757C103.52 150.144 104.726 194.018 107.258 219.7C107.275 219.924 107.12 220.114 106.896 220.131Z" fill="#352F6C"/>
<path d="M111.789 192.533C111.703 192.533 111.617 192.499 111.531 192.447L107.931 189.496C107.758 189.358 107.741 189.099 107.879 188.943C108.017 188.771 108.275 188.754 108.43 188.892L112.03 191.843C112.203 191.981 112.22 192.24 112.082 192.395C111.996 192.499 111.893 192.533 111.772 192.533H111.789Z" fill="#352F6C"/>
<path d="M45.5375 48.6935C46.8295 49.0559 48.0181 49.7636 48.9483 50.7301C49.0688 50.8682 49.2067 51.0062 49.2411 51.1961C49.2928 51.5585 48.9827 51.8347 48.8105 52.1626C48.5004 52.7667 48.8105 53.6124 49.465 53.8368C49.7923 53.9576 50.2747 54.0439 50.2747 54.3891C50.2747 54.5789 50.0852 54.717 49.9301 54.8551C49.4823 55.2693 49.3272 55.9597 49.5339 56.5292C48.8105 56.0632 48.0697 55.58 47.6046 54.8723C47.1395 54.1647 46.9673 53.1637 47.4668 52.456C47.5357 52.3525 47.6219 52.2317 47.553 52.1281C47.5013 52.0591 47.4152 52.0418 47.329 52.0418C46.5883 51.9728 45.882 51.524 45.5375 50.8509C45.193 50.195 45.193 49.3493 45.5548 48.6935H45.5375Z" fill="#DF9DAD"/>
</g>
<rect x="145" y="149" width="6" height="6" fill="#33384B"/>
<path d="M153.402 154.5L156 150L158.598 154.5H153.402Z" stroke="#5347EC"/>
<circle cx="164" cy="152" r="3" fill="#F19C7D"/>
<path d="M145.434 181.713C146.511 182.5 147.379 183.541 147.961 184.745C148.822 186.188 149.311 186.91 150.072 186.91C150.833 186.91 151.321 186.217 152.182 184.745C153.044 183.272 154.279 181.136 156.777 181.136C159.276 181.136 160.482 183.215 161.372 184.745C162.262 186.275 162.722 186.91 163.468 186.91C164.215 186.91 164.718 186.217 165.579 184.745C166.441 183.272 167.676 181.136 170.174 181.136C172.672 181.136 173.879 183.215 174.769 184.745C175.659 186.275 176.104 186.91 176.88 186.91C177.655 186.91 178.129 186.217 178.976 184.745C179.558 183.541 180.426 182.5 181.503 181.713C181.718 181.607 181.956 181.557 182.195 181.567C182.434 181.576 182.667 181.646 182.872 181.77C183.078 181.893 183.249 182.066 183.371 182.273C183.493 182.48 183.562 182.714 183.571 182.955C183.582 183.196 183.532 183.436 183.427 183.653C183.321 183.87 183.164 184.056 182.968 184.196C182.326 184.741 181.812 185.421 181.46 186.188C180.584 187.718 179.378 189.797 176.88 189.797C174.381 189.797 173.161 187.718 172.285 186.188C171.409 184.658 170.949 184.023 170.174 184.023C169.399 184.023 168.925 184.716 168.078 186.188C167.23 187.661 165.981 189.797 163.468 189.797C160.956 189.797 159.764 187.718 158.874 186.188C157.983 184.658 157.538 184.023 156.763 184.023C155.987 184.023 155.514 184.716 154.652 186.188C153.791 187.661 152.556 189.797 150.057 189.797C147.559 189.797 146.353 187.718 145.462 186.188C145.132 185.428 144.642 184.749 144.027 184.196C143.82 184.063 143.651 183.879 143.536 183.662C143.42 183.445 143.362 183.201 143.366 182.955C143.375 182.714 143.444 182.48 143.566 182.273C143.688 182.066 143.859 181.893 144.065 181.77C144.27 181.646 144.503 181.576 144.742 181.567C144.981 181.557 145.219 181.607 145.434 181.713Z" fill="#F19C7D"/>
<defs>
<clipPath id="clip0_101_61">
<rect width="194.74" height="117.25" fill="white" transform="translate(83 8)"/>
</clipPath>
<clipPath id="clip1_101_61">
<rect width="154" height="191" fill="white" transform="translate(10 12)"/>
</clipPath>
</defs>
</svg>
