<svg width="109" height="95" viewBox="0 0 109 95" fill="none" xmlns="http://www.w3.org/2000/svg">
<g clip-path="url(#clip0_29_238)">
<path fill-rule="evenodd" clip-rule="evenodd" d="M44.56 64.3C46.36 72.51 51.96 78.39 59.06 82C67.01 86.04 76.83 87.19 84.91 85.74C87.69 85.11 90.36 84.19 92.95 83.01C96.68 81.3 100.21 79.1 103.65 76.64C103.99 76.43 104.09 75.98 103.88 75.64C103.67 75.3 103.22 75.2 102.88 75.41C99.89 77.03 96.87 78.46 93.76 79.61C90.67 80.75 87.53 81.58 84.26 81.96C76.95 83.17 68.13 81.98 60.98 78.27C55.11 75.22 50.38 70.42 48.8 63.65C50.59 63.29 52.33 62.8 54.01 62.14C57.26 60.85 60.24 58.9 62.75 55.92C64.51 53.83 66.42 50.45 66.8 47.37C67.14 44.63 66.38 42.11 63.94 40.43C59.07 37.1 54.38 38.76 50.69 42.8C46.54 47.35 43.85 55.07 43.99 60.06C42.22 60.25 40.45 60.36 38.7 60.46C31.46 60.86 24.23 58.53 18.22 54.01C12.65 49.82 8.13997 43.75 5.62997 36.22C3.51997 30.19 3.62997 23.78 4.61997 17.99C5.30997 13.96 6.46997 10.27 7.69997 7.13C8.81997 4.27001 9.87997 1.89 11.1 0.270005C11.16 0.210005 11.16 0.110005 11.1 0.0500049C11.04 -0.00999512 10.94 -0.00999512 10.88 0.0500049C9.20997 1.35 7.28997 3.34 5.59997 6.07C3.69997 9.13 2.13997 13.03 1.11997 17.27C-0.410026 23.61 -0.480026 30.77 1.65997 37.55C4.43997 45.95 9.47997 52.72 15.69 57.4C22.5 62.54 30.72 65.18 38.95 64.74C40.81 64.64 42.7 64.52 44.58 64.31L44.56 64.3ZM48.27 59.39C49.69 59.08 51.08 58.68 52.42 58.15C55.03 57.11 57.43 55.55 59.45 53.15C60.55 51.84 61.75 49.87 62.29 47.9C62.69 46.42 62.79 44.89 61.5 44C58.68 42.06 56.02 43.37 53.88 45.71C50.59 49.31 48.34 55.29 48.28 59.39H48.27Z" fill="#705FF6"/>
<path fill-rule="evenodd" clip-rule="evenodd" d="M102.29 75.36C101.41 76.44 100.52 77.52 99.6399 78.62C98.6099 79.91 97.5799 81.19 96.5999 82.52C94.1099 85.92 91.8599 89.39 89.5399 92.85C89.2899 93.15 89.3299 93.6 89.6199 93.85C89.9199 94.1 90.3599 94.06 90.6199 93.77C93.1699 91.38 95.7799 89.1 98.3399 86.65C99.4299 85.61 100.5 84.56 101.51 83.45C103.78 80.96 105.83 78.29 107.85 75.64C108.09 75.31 108.44 74.72 108.56 74.18C108.7 73.58 108.66 73 108.46 72.52C108.28 72.07 107.92 71.5 107.11 71.17C106.75 71.02 105.94 70.85 104.8 70.87C101.06 70.91 91.9599 72.13 90.0699 72.35L86.3999 73.01C86.1899 73.06 85.8799 73.1 85.5999 73.28C85.2199 73.52 84.7899 73.79 84.6299 74.08C84.4999 74.3 84.8199 74.42 84.6499 74.38C84.5199 74.35 84.6899 74.59 84.7199 74.5C84.8199 74.17 84.8999 74.74 85.0199 74.62C85.3199 74.32 85.0199 74.96 85.3499 74.92C85.4699 74.91 85.2899 75.04 85.4099 75.06C85.5799 75.08 85.2499 75.2 85.4299 75.29C85.5399 75.35 85.2599 75.35 85.3799 75.46C85.4699 75.54 85.1399 75.4 85.2599 75.55C85.3599 75.69 85.1299 75.47 85.1299 75.47C85.1299 75.47 85.1799 75.62 84.9799 75.26C85.0399 75.2 85.0499 75.1 84.9799 75.04C84.9199 74.98 84.8199 74.97 84.7599 75.04C83.8999 74.48 84.6399 75.01 84.2499 74.96C84.1099 74.94 84.2699 75.07 84.1699 75.09C83.6599 75.18 84.4099 75.31 84.2099 75.6C84.1299 75.72 84.3699 75.6 84.3199 75.75C84.2299 76 84.5699 75.59 84.6499 75.96C84.6899 76.15 84.7699 75.76 84.9899 76.07C85.1499 76.3 84.9399 76.17 85.4199 76.36C85.7699 76.49 86.4899 76.28 86.8199 76.33L90.4399 76.2C91.9299 76.1 98.0899 75.54 102.28 75.39L102.29 75.36Z" fill="#705FF6"/>
</g>
<defs>
<clipPath id="clip0_29_238">
<rect width="108.66" height="94.01" fill="white"/>
</clipPath>
</defs>
</svg>
