<svg width="428" height="542" viewBox="0 0 428 542" fill="none" xmlns="http://www.w3.org/2000/svg">
<g clip-path="url(#clip0_101_64)">
<rect x="15" y="298" width="199" height="137" fill="#F19C7D"/>
<rect x="15" y="298" width="199" height="137" fill="#33384B"/>
<path d="M102 86L6 112L66 43L102 86Z" fill="#5347EC"/>
<path d="M250.5 426.973C244.442 426.973 239.514 422.044 239.514 415.986C239.514 409.929 244.442 405 250.5 405C256.558 405 261.486 409.929 261.486 415.986C261.486 422.044 256.558 426.973 250.5 426.973ZM252.697 427.195V442.354C252.697 443.568 251.715 444.551 250.5 444.551C249.285 444.551 248.303 443.568 248.303 442.354V427.195C240.869 428.272 235.119 434.626 235.119 442.354V455.537C235.119 456.752 236.102 457.734 237.316 457.734H242.239L243.917 477.987C244.011 479.124 244.964 480 246.105 480H254.895C256.036 480 256.989 479.124 257.083 477.987L258.761 457.734H263.684C264.898 457.734 265.881 456.752 265.881 455.537V442.354C265.881 434.626 260.131 428.272 252.697 427.195Z" fill="#33384B"/>
<g clip-path="url(#clip1_101_64)">
<mask id="path-4-inside-1_101_64" fill="white">
<rect x="14.2651" y="534.123" width="19.2253" height="7.59707" rx="0.775212"/>
</mask>
<rect x="14.2651" y="534.123" width="19.2253" height="7.59707" rx="0.775212" fill="#515669" stroke="black" stroke-width="3.10085" mask="url(#path-4-inside-1_101_64)"/>
<mask id="path-5-inside-2_101_64" fill="white">
<rect x="137.523" y="534.123" width="19.2253" height="7.59707" rx="0.775212"/>
</mask>
<rect x="137.523" y="534.123" width="19.2253" height="7.59707" rx="0.775212" fill="#515669" stroke="black" stroke-width="3.10085" mask="url(#path-5-inside-2_101_64)"/>
<rect x="0.775212" y="249.775" width="168.531" height="285.123" rx="12.7135" fill="#8F83FF" stroke="black" stroke-width="1.55042"/>
<path d="M1.70605 261.093C1.70605 256.641 5.31563 253.031 9.76826 253.031H152.252C159.702 253.031 165.741 259.07 165.741 266.52V521.874C165.741 528.639 160.257 534.123 153.493 534.123H13.4893C6.98157 534.123 1.70605 528.847 1.70605 522.339V261.093Z" fill="#5347EC"/>
<rect x="13.3362" y="292.412" width="142.639" height="118.142" fill="#B7B7B7" stroke="black" stroke-width="1.55042"/>
<path d="M126.518 313.575H43.7255L13.4922 292.567H155.821L126.518 313.575Z" fill="#999999"/>
<path d="M43.7255 313.575L43.2831 314.212L43.4826 314.35H43.7255V313.575ZM126.518 313.575V314.35H126.767L126.97 314.205L126.518 313.575ZM155.821 292.567L156.273 293.197C156.547 293.001 156.662 292.65 156.559 292.33C156.456 292.009 156.158 291.792 155.821 291.792V292.567ZM13.4922 292.567V291.792C13.1533 291.792 12.8538 292.012 12.7524 292.335C12.6511 292.658 12.7716 293.01 13.0498 293.204L13.4922 292.567ZM43.7255 314.35H126.518V312.8H43.7255V314.35ZM126.97 314.205L156.273 293.197L155.37 291.937L126.067 312.945L126.97 314.205ZM155.821 291.792H13.4922V293.342H155.821V291.792ZM13.0498 293.204L43.2831 314.212L44.1678 312.939L13.9345 291.93L13.0498 293.204Z" fill="black"/>
<path d="M137.371 390.088H32.8725L13.4922 410.476H155.821L137.371 390.088Z" fill="#D3D3D3"/>
<path d="M32.8725 390.088L32.3106 389.554L32.5398 389.313H32.8725V390.088ZM137.371 390.088V389.313H137.715L137.946 389.568L137.371 390.088ZM155.821 410.476L156.396 409.956C156.602 410.184 156.654 410.511 156.53 410.791C156.405 411.071 156.128 411.252 155.821 411.252V410.476ZM13.4922 410.476V411.252C13.1822 411.252 12.902 411.067 12.7798 410.782C12.6576 410.497 12.7168 410.167 12.9303 409.942L13.4922 410.476ZM32.8725 389.313H137.371V390.864H32.8725V389.313ZM137.946 389.568L156.396 409.956L155.246 410.997L136.796 390.609L137.946 389.568ZM155.821 411.252H13.4922V409.701H155.821V411.252ZM12.9303 409.942L32.3106 389.554L33.4344 390.622L14.0541 411.011L12.9303 409.942Z" fill="black"/>
<path d="M137.526 389.933H33.0269L43.8798 313.343H126.207L137.526 389.933Z" fill="#D8D8D8" stroke="black" stroke-width="1.55042"/>
<path d="M44.0317 376.6L86.9785 376.6" stroke="black" stroke-width="1.55042" stroke-linecap="round"/>
<path d="M41.7388 382.339L84.6856 382.339" stroke="black" stroke-width="1.55042" stroke-linecap="round"/>
<path d="M112.209 321.637H60.0608C58.5098 321.637 57.1975 322.783 56.9882 324.32L51.5533 364.243C51.2999 366.105 52.747 367.762 54.6258 367.762H117.176C119.041 367.762 120.484 366.129 120.254 364.279L115.286 324.355C115.093 322.803 113.773 321.637 112.209 321.637Z" fill="url(#paint0_linear_101_64)"/>
<path d="M112.209 321.637H60.0608C58.5098 321.637 57.1975 322.783 56.9882 324.32L51.5533 364.243C51.2999 366.105 52.747 367.762 54.6258 367.762H117.176C119.041 367.762 120.484 366.129 120.254 364.279L115.286 324.355C115.093 322.803 113.773 321.637 112.209 321.637Z" fill="#5347EC"/>
<path d="M112.209 321.637H60.0608C58.5098 321.637 57.1975 322.783 56.9882 324.32L51.5533 364.243C51.2999 366.105 52.747 367.762 54.6258 367.762H117.176C119.041 367.762 120.484 366.129 120.254 364.279L115.286 324.355C115.093 322.803 113.773 321.637 112.209 321.637Z" stroke="black" stroke-width="1.55042" stroke-linecap="round"/>
<path d="M85.273 405.593H25.3735C25.1011 405.593 24.961 405.266 25.1486 405.069L34.7925 394.914C34.851 394.852 34.9323 394.817 35.0173 394.817H85.273C85.4443 394.817 85.5831 394.956 85.5831 395.127V405.282C85.5831 405.454 85.4443 405.593 85.273 405.593Z" fill="#C7C6C2" stroke="black" stroke-width="1.55042"/>
<path d="M34.9604 397.84L28.3711 404.74L84.8841 404.972V397.84H34.9604Z" fill="#999999"/>
<path d="M93.8027 398.461V394.972C93.8027 394.801 93.9416 394.662 94.1128 394.662H134.982C135.071 394.662 135.155 394.7 135.214 394.766L138.308 398.255C138.485 398.455 138.343 398.771 138.076 398.771H94.1128C93.9416 398.771 93.8027 398.632 93.8027 398.461Z" fill="#33384B" stroke="black" stroke-width="1.55042"/>
<path d="M93.8027 405.438V401.949C93.8027 401.778 93.9416 401.639 94.1128 401.639H141.494C141.583 401.639 141.667 401.677 141.726 401.743L144.819 405.232C144.997 405.432 144.855 405.748 144.587 405.748H94.1128C93.9416 405.748 93.8027 405.609 93.8027 405.438Z" fill="#33384B" stroke="black" stroke-width="1.55042"/>
<path d="M95.0298 384.193V373.03C95.0298 372.773 95.238 372.565 95.4949 372.565H120.365C120.596 372.565 120.792 372.734 120.825 372.962L122.471 384.125C122.513 384.406 122.295 384.658 122.011 384.658H95.4949C95.238 384.658 95.0298 384.45 95.0298 384.193Z" fill="#515669" stroke="black" stroke-width="1.55042" stroke-linecap="round"/>
<path d="M98.208 381.014V376.131C98.208 375.874 98.4163 375.666 98.6731 375.666H117.807C118.037 375.666 118.233 375.835 118.267 376.063L118.983 380.947C119.024 381.228 118.807 381.48 118.523 381.48H98.6731C98.4163 381.48 98.208 381.271 98.208 381.014Z" fill="#F19C7D" stroke="black" stroke-width="1.55042" stroke-linecap="round"/>
<path d="M98.9854 376.363H117.59L117.745 377.914H98.9854V376.363Z" fill="#F3BFA5"/>
<path d="M13.3362 410.244H155.975V512.727C155.975 516.58 152.852 519.704 148.998 519.704H20.3132C16.4599 519.704 13.3362 516.58 13.3362 512.727V410.244Z" fill="#515669" stroke="black" stroke-width="1.55042"/>
<rect x="26.8255" y="421.097" width="116.592" height="26.0471" rx="3.56597" fill="#656A7D" stroke="black" stroke-width="1.55042"/>
<path d="M27.5996 423.578H137.215C139.27 423.578 140.936 425.243 140.936 427.299V446.369H30.3904C28.8491 446.369 27.5996 445.119 27.5996 443.578V423.578Z" fill="#33384B"/>
<rect x="26.8255" y="454.741" width="116.592" height="54.1097" rx="3.56597" fill="#656A7D" stroke="black" stroke-width="1.55042"/>
<path d="M27.5996 457.222H137.215C139.27 457.222 140.936 458.888 140.936 460.943V508.076H30.3904C28.8491 508.076 27.5996 506.826 27.5996 505.285V457.222Z" fill="#33384B"/>
<rect x="13.3362" y="257.992" width="142.639" height="26.0471" rx="3.56597" fill="#FFC4A5" stroke="black" stroke-width="1.55042"/>
<path d="M14.4521 260.473H149.055C151.11 260.473 152.776 262.139 152.776 264.194V283.264H17.2429C15.7016 283.264 14.4521 282.015 14.4521 280.474V260.473Z" fill="#F19C7D"/>
<path d="M45.6037 275.884V266.701H49.5856C50.2851 266.701 50.8725 266.795 51.3478 266.983C51.8261 267.171 52.1864 267.438 52.4285 267.781C52.6736 268.125 52.7962 268.53 52.7962 268.997C52.7962 269.334 52.7214 269.642 52.572 269.92C52.4255 270.198 52.2192 270.431 51.9532 270.62C51.6871 270.805 51.3762 270.934 51.0205 271.005V271.095C51.4151 271.11 51.7738 271.21 52.0967 271.395C52.4195 271.578 52.6766 271.83 52.8679 272.153C53.0592 272.473 53.1549 272.85 53.1549 273.283C53.1549 273.785 53.0234 274.232 52.7603 274.624C52.5002 275.016 52.1296 275.324 51.6483 275.548C51.167 275.772 50.593 275.884 49.9264 275.884H45.6037ZM48.0969 273.893H49.2627C49.6813 273.893 49.9951 273.815 50.2044 273.66C50.4136 273.501 50.5183 273.268 50.5183 272.96C50.5183 272.745 50.469 272.563 50.3703 272.413C50.2717 272.264 50.1312 272.15 49.9488 272.073C49.7694 271.995 49.5527 271.956 49.2986 271.956H48.0969V273.893ZM48.0969 270.413H49.1192C49.3375 270.413 49.5303 270.379 49.6977 270.31C49.8651 270.242 49.9951 270.143 50.0878 270.014C50.1835 269.883 50.2313 269.723 50.2313 269.535C50.2313 269.251 50.1297 269.034 49.9264 268.884C49.7231 268.732 49.466 268.656 49.1551 268.656H48.0969V270.413ZM54.0741 275.884V268.997H56.5493V275.884H54.0741ZM55.3117 268.279C54.9769 268.279 54.69 268.168 54.4508 267.947C54.2117 267.726 54.0921 267.46 54.0921 267.149C54.0921 266.838 54.2117 266.572 54.4508 266.351C54.69 266.13 54.9769 266.019 55.3117 266.019C55.6495 266.019 55.9365 266.13 56.1727 266.351C56.4118 266.572 56.5314 266.838 56.5314 267.149C56.5314 267.46 56.4118 267.726 56.1727 267.947C55.9365 268.168 55.6495 268.279 55.3117 268.279ZM61.9179 268.997V270.79H57.38V268.997H61.9179ZM58.2589 267.346H60.7341V273.669C60.7341 273.765 60.7505 273.845 60.7834 273.911C60.8163 273.974 60.8671 274.022 60.9359 274.055C61.0046 274.084 61.0928 274.099 61.2004 274.099C61.2752 274.099 61.3619 274.09 61.4605 274.072C61.5622 274.055 61.6369 274.04 61.6847 274.028L62.0435 275.767C61.9328 275.8 61.7744 275.841 61.5681 275.889C61.3649 275.936 61.1227 275.968 60.8417 275.983C60.2737 276.013 59.7969 275.954 59.4113 275.808C59.0257 275.658 58.7357 275.424 58.5414 275.104C58.3471 274.784 58.2529 274.383 58.2589 273.902V267.346ZM66.1722 276.01C65.4248 276.01 64.7851 275.862 64.253 275.566C63.7209 275.267 63.3128 274.851 63.0288 274.319C62.7448 273.784 62.6028 273.164 62.6028 272.458C62.6028 271.753 62.7448 271.134 63.0288 270.602C63.3128 270.067 63.7209 269.651 64.253 269.355C64.7851 269.056 65.4248 268.907 66.1722 268.907C66.8478 268.907 67.4322 269.029 67.9254 269.275C68.4217 269.517 68.8058 269.86 69.0778 270.306C69.3499 270.748 69.4874 271.268 69.4904 271.866H67.1945C67.1616 271.505 67.057 271.23 66.8806 271.041C66.7073 270.85 66.4831 270.754 66.208 270.754C65.9928 270.754 65.8045 270.817 65.643 270.943C65.4816 271.065 65.3561 271.252 65.2664 271.503C65.1767 271.751 65.1319 272.064 65.1319 272.44C65.1319 272.817 65.1767 273.131 65.2664 273.382C65.3561 273.63 65.4816 273.817 65.643 273.942C65.8045 274.065 65.9928 274.126 66.208 274.126C66.3904 274.126 66.5518 274.084 66.6923 274.001C66.8328 273.914 66.9464 273.788 67.0331 273.624C67.1228 273.457 67.1766 273.253 67.1945 273.014H69.4904C69.4814 273.621 69.3424 274.15 69.0734 274.602C68.8043 275.05 68.4232 275.397 67.9299 275.642C67.4397 275.887 66.8537 276.01 66.1722 276.01ZM73.8298 276.01C73.0825 276.01 72.4428 275.862 71.9106 275.566C71.3785 275.267 70.9705 274.851 70.6865 274.319C70.4025 273.784 70.2605 273.164 70.2605 272.458C70.2605 271.753 70.4025 271.134 70.6865 270.602C70.9705 270.067 71.3785 269.651 71.9106 269.355C72.4428 269.056 73.0825 268.907 73.8298 268.907C74.5772 268.907 75.2169 269.056 75.749 269.355C76.2811 269.651 76.6892 270.067 76.9732 270.602C77.2571 271.134 77.3991 271.753 77.3991 272.458C77.3991 273.164 77.2571 273.784 76.9732 274.319C76.6892 274.851 76.2811 275.267 75.749 275.566C75.2169 275.862 74.5772 276.01 73.8298 276.01ZM73.8478 274.18C74.057 274.18 74.2379 274.11 74.3903 273.969C74.5428 273.829 74.6609 273.629 74.7446 273.368C74.8283 273.108 74.8701 272.799 74.8701 272.44C74.8701 272.079 74.8283 271.769 74.7446 271.512C74.6609 271.252 74.5428 271.052 74.3903 270.911C74.2379 270.771 74.057 270.7 73.8478 270.7C73.6265 270.7 73.4367 270.771 73.2783 270.911C73.1198 271.052 72.9988 271.252 72.9151 271.512C72.8314 271.769 72.7895 272.079 72.7895 272.44C72.7895 272.799 72.8314 273.108 72.9151 273.368C72.9988 273.629 73.1198 273.829 73.2783 273.969C73.4367 274.11 73.6265 274.18 73.8478 274.18ZM78.4036 275.884V268.997H80.8788V275.884H78.4036ZM79.6412 268.279C79.3064 268.279 79.0194 268.168 78.7802 267.947C78.5411 267.726 78.4215 267.46 78.4215 267.149C78.4215 266.838 78.5411 266.572 78.7802 266.351C79.0194 266.13 79.3064 266.019 79.6412 266.019C79.979 266.019 80.266 266.13 80.5021 266.351C80.7413 266.572 80.8608 266.838 80.8608 267.149C80.8608 267.46 80.7413 267.726 80.5021 267.947C80.266 268.168 79.979 268.279 79.6412 268.279ZM84.6151 272.01V275.884H82.1399V268.997H84.4896V270.306H84.5613C84.7108 269.869 84.9739 269.527 85.3505 269.279C85.7302 269.031 86.1726 268.907 86.6778 268.907C87.1651 268.907 87.5881 269.019 87.9468 269.243C88.3085 269.464 88.588 269.769 88.7853 270.158C88.9856 270.546 89.0843 270.99 89.0813 271.49V275.884H86.6061V272.01C86.609 271.669 86.5224 271.401 86.346 271.207C86.1726 271.013 85.9305 270.916 85.6196 270.916C85.4163 270.916 85.2384 270.961 85.086 271.05C84.9365 271.137 84.8214 271.262 84.7407 271.427C84.66 271.588 84.6181 271.783 84.6151 272.01ZM95.1684 275.884H92.4779L95.5092 266.701H98.9171L101.948 275.884H99.2579L97.249 269.23H97.1772L95.1684 275.884ZM94.6662 272.261H99.7242V274.126H94.6662V272.261ZM101.423 268.71V266.701H109.404V268.71H106.642V275.884H104.185V268.71H101.423ZM110.342 266.701H113.445L115.58 271.902H115.687L117.822 266.701H120.925V275.884H118.486V270.575H118.414L116.369 275.812H114.898L112.854 270.539H112.782V275.884H110.342V266.701Z" fill="white"/>
</g>
<circle cx="35.5" cy="202.5" r="9" stroke="#33384B" stroke-width="3"/>
<path d="M138.068 199.577C139.145 200.364 140.013 201.405 140.596 202.609C141.457 204.053 141.945 204.774 142.706 204.774C143.467 204.774 143.956 204.081 144.817 202.609C145.679 201.137 146.914 199 149.412 199C151.91 199 153.117 201.079 154.007 202.609C154.897 204.139 155.357 204.774 156.103 204.774C156.85 204.774 157.352 204.081 158.214 202.609C159.075 201.137 160.31 199 162.809 199C165.307 199 166.513 201.079 167.404 202.609C168.294 204.139 168.739 204.774 169.514 204.774C170.29 204.774 170.764 204.081 171.611 202.609C172.193 201.405 173.061 200.364 174.138 199.577C174.353 199.471 174.59 199.421 174.83 199.431C175.069 199.441 175.302 199.511 175.507 199.634C175.712 199.757 175.884 199.93 176.006 200.137C176.128 200.344 176.197 200.579 176.206 200.819C176.216 201.06 176.167 201.3 176.061 201.517C175.956 201.734 175.798 201.921 175.603 202.06C174.961 202.606 174.446 203.286 174.095 204.053C173.219 205.583 172.013 207.662 169.514 207.662C167.016 207.662 165.795 205.583 164.92 204.053C164.044 202.522 163.584 201.887 162.809 201.887C162.033 201.887 161.56 202.58 160.712 204.053C159.865 205.525 158.616 207.662 156.103 207.662C153.59 207.662 152.399 205.583 151.508 204.053C150.618 202.522 150.173 201.887 149.398 201.887C148.622 201.887 148.148 202.58 147.287 204.053C146.425 205.525 145.19 207.662 142.692 207.662C140.194 207.662 138.987 205.583 138.097 204.053C137.766 203.293 137.277 202.613 136.661 202.06C136.455 201.927 136.286 201.743 136.17 201.526C136.055 201.309 135.996 201.065 136.001 200.819C136.01 200.579 136.078 200.344 136.2 200.137C136.322 199.93 136.494 199.757 136.699 199.634C136.905 199.511 137.138 199.441 137.377 199.431C137.616 199.421 137.854 199.471 138.068 199.577Z" fill="#F19C7D"/>
<g clip-path="url(#clip2_101_64)">
<path d="M318.312 528.122V536.561C318.312 537.358 318.972 538 319.748 538H357.336C358.131 538 358.771 537.358 358.771 536.561V528.122C358.771 527.966 358.752 527.811 358.694 527.675C358.519 527.091 357.976 526.683 357.336 526.683H319.748C319.127 526.683 318.584 527.091 318.39 527.675C318.332 527.811 318.312 527.966 318.312 528.122Z" fill="#F2B501"/>
<path opacity="0.2" d="M320.66 536.308V528.628C320.66 528.355 320.874 528.141 321.145 528.141C321.417 528.141 321.631 528.355 321.631 528.628V536.308H323.823V528.628C323.823 528.355 324.037 528.141 324.308 528.141C324.58 528.141 324.794 528.355 324.794 528.628V536.308H326.986V528.628C326.986 528.355 327.2 528.141 327.471 528.141C327.743 528.141 327.957 528.355 327.957 528.628V536.308H330.149V528.628C330.149 528.355 330.363 528.141 330.634 528.141C330.906 528.141 331.12 528.355 331.12 528.628V536.308H333.312V528.628C333.312 528.355 333.526 528.141 333.797 528.141C334.069 528.141 334.283 528.355 334.283 528.628V536.308H336.475V528.628C336.475 528.355 336.689 528.141 336.96 528.141C337.232 528.141 337.446 528.355 337.446 528.628V536.308H339.638V528.628C339.638 528.355 339.852 528.141 340.123 528.141C340.395 528.141 340.609 528.355 340.609 528.628V536.308H342.801V528.628C342.801 528.355 343.015 528.141 343.286 528.141C343.558 528.141 343.772 528.355 343.772 528.628V536.308H345.964V528.628C345.964 528.355 346.178 528.141 346.449 528.141C346.721 528.141 346.935 528.355 346.935 528.628V536.308H349.089C349.089 536.308 349.108 536.308 349.127 536.308V528.647C349.127 528.375 349.341 528.161 349.612 528.161C349.884 528.161 350.098 528.375 350.098 528.647V535.881C350.35 535.628 350.486 535.258 350.486 534.869L350.602 529.561C350.583 528.744 351.223 528.083 352.038 528.083H357.316C358.112 528.083 358.772 528.725 358.791 529.522L358.713 536.542C358.733 537.339 358.112 537.981 357.316 537.981H319.748C318.953 537.981 318.293 537.319 318.274 536.522V536.308H320.622H320.66Z" fill="black"/>
<path opacity="0.3" d="M318.389 527.675H358.693C358.519 527.091 357.975 526.683 357.335 526.683H319.748C319.127 526.683 318.583 527.091 318.389 527.675Z" fill="white"/>
<path d="M275.351 355.024C271.063 365.349 275.933 377.191 286.237 381.488C296.541 385.785 308.359 380.905 312.648 370.579C316.936 360.254 312.065 348.412 301.761 344.115C291.457 339.818 279.64 344.698 275.351 355.024Z" fill="#F2B501"/>
<path opacity="0.3" d="M278.087 356.171C274.419 364.979 278.591 375.091 287.382 378.746C296.172 382.421 306.263 378.241 309.911 369.432C313.578 360.624 309.406 350.512 300.616 346.857C291.825 343.182 281.735 347.362 278.087 356.171Z" fill="white"/>
<path d="M289.284 370.93L288.159 373.613L290.119 374.43L291.225 371.766C293.631 372.602 296.231 372.777 297.92 372.213L297.842 369.335C296.27 369.802 294.174 369.743 292.292 369.16L294.291 364.357C297.221 364.824 300.442 365.135 301.82 361.81C302.829 359.36 301.956 356.482 298.366 354.557L299.491 351.835L297.532 351.018L296.425 353.682C294.621 353.04 292.603 352.807 290.953 353.118V355.957C292.506 355.743 294.019 355.899 295.358 356.287L293.34 361.149C290.41 360.682 287.169 360.313 285.772 363.657C284.763 366.107 285.675 368.966 289.284 370.93ZM295.513 361.46L297.299 357.182C298.89 358.154 299.259 359.321 298.812 360.371C298.327 361.518 297.085 361.615 295.513 361.46ZM288.741 365.154C289.226 363.968 290.507 363.871 292.118 364.065L290.352 368.324C288.702 367.332 288.314 366.204 288.741 365.174V365.154Z" fill="#FFA412"/>
<path d="M274.807 415.167C278.281 425.784 289.691 431.559 300.286 428.078C310.881 424.597 316.644 413.164 313.171 402.547C309.697 391.93 298.287 386.135 287.692 389.635C277.097 393.116 271.334 404.55 274.807 415.167Z" fill="#F1B400"/>
<path opacity="0.3" d="M277.621 414.253C280.59 423.314 290.331 428.253 299.374 425.278C308.416 422.303 313.345 412.542 310.376 403.48C307.407 394.419 297.666 389.48 288.623 392.455C279.581 395.43 274.652 405.191 277.621 414.253Z" fill="white"/>
<path d="M295.726 418.103L296.638 420.864L298.656 420.203L297.764 417.461C300.131 416.508 302.227 414.953 303.139 413.417L301.218 411.278C300.325 412.658 298.714 413.98 296.89 414.778L295.28 409.839C297.802 408.264 300.441 406.416 299.316 402.975C298.481 400.447 295.939 398.852 291.981 399.747L291.069 396.947L289.051 397.608L289.943 400.35C288.158 401.05 286.47 402.197 285.422 403.5L287.246 405.658C288.294 404.453 289.555 403.578 290.797 403.014L292.427 408.011C289.905 409.586 287.207 411.433 288.333 414.856C289.167 417.383 291.729 418.939 295.726 418.064V418.103ZM294.29 406.864L292.854 402.469C294.698 402.158 295.726 402.819 296.075 403.908C296.463 405.094 295.59 405.989 294.29 406.883V406.864ZM291.573 414.078C291.185 412.872 292.078 411.939 293.417 411.025L294.853 415.4C292.97 415.711 291.923 415.128 291.573 414.058V414.078Z" fill="#FFA412"/>
<path d="M319.162 89.7733C315.423 104.773 300.23 113.902 285.228 110.162C270.232 106.422 261.104 91.2284 264.845 76.2295C268.583 61.2277 283.776 52.0983 298.773 55.8379C313.774 59.5775 322.902 74.7728 319.162 89.7736L319.162 89.7733H319.162Z" fill="#F7931A"/>
<path fill-rule="evenodd" clip-rule="evenodd" d="M304.35 79.0107C304.907 75.2845 302.07 73.2815 298.191 71.9453L299.45 66.8979L296.377 66.1323L295.152 71.0468C294.344 70.8454 293.515 70.6555 292.69 70.4674L293.924 65.5204L290.854 64.7548L289.594 69.8006C288.926 69.6484 288.269 69.498 287.632 69.3395L287.636 69.3236L283.399 68.2655L282.582 71.5472C282.582 71.5472 284.861 72.0697 284.813 72.1019C286.057 72.4124 286.282 73.2361 286.245 73.8889L284.811 79.6391C284.897 79.6609 285.008 79.6924 285.131 79.7416L285.042 79.7194C284.966 79.7004 284.887 79.6807 284.806 79.6613L282.797 87.7166C282.645 88.0946 282.259 88.6619 281.389 88.4464C281.42 88.4911 279.156 87.8891 279.156 87.8891L277.63 91.4062L281.629 92.403C282.067 92.5128 282.499 92.6255 282.927 92.7372L282.928 92.7372C283.227 92.8152 283.524 92.8927 283.819 92.9682L282.548 98.0735L285.617 98.8391L286.876 93.788C287.714 94.0156 288.528 94.2255 289.325 94.4234L288.07 99.4508L291.142 100.216L292.414 95.1206C297.653 96.1122 301.593 95.7124 303.251 90.9734C304.587 87.158 303.184 84.9573 300.428 83.5222C302.436 83.0592 303.948 81.7387 304.351 79.0111L304.35 79.0104L304.35 79.0107ZM297.33 88.8546C296.459 92.3551 290.979 90.9079 288.472 90.2457C288.247 90.1862 288.045 90.133 287.873 90.0903L289.561 83.3266C289.77 83.3789 290.026 83.4363 290.316 83.5014L290.316 83.5014C292.909 84.0834 298.222 85.2757 297.33 88.8546H297.33ZM290.836 80.3623C292.926 80.9201 297.486 82.1369 298.28 78.9554H298.28C299.091 75.7014 294.66 74.7204 292.496 74.2413C292.252 74.1874 292.038 74.1398 291.862 74.0961L290.333 80.2304C290.477 80.2664 290.647 80.3116 290.836 80.3623Z" fill="white"/>
<path d="M115.551 222.629C113.548 230.664 105.409 235.555 97.3722 233.551C89.3388 231.548 84.4484 223.408 86.4526 215.373C88.4551 207.336 96.5941 202.445 104.628 204.449C112.664 206.452 117.555 214.593 115.551 222.629L115.551 222.629H115.551Z" fill="#F7931A"/>
<path fill-rule="evenodd" clip-rule="evenodd" d="M107.616 216.863C107.915 214.867 106.395 213.794 104.317 213.078L104.991 210.374L103.345 209.964L102.689 212.597C102.256 212.489 101.812 212.387 101.37 212.286L102.031 209.636L100.386 209.226L99.7115 211.929C99.3535 211.847 99.0017 211.767 98.6605 211.682L98.6624 211.673L96.3926 211.107L95.9547 212.865C95.9547 212.865 97.1759 213.145 97.1502 213.162C97.8167 213.328 97.9372 213.769 97.9172 214.119L97.1493 217.2C97.1952 217.211 97.2547 217.228 97.3204 217.255L97.2727 217.243C97.232 217.232 97.1898 217.222 97.1464 217.211L96.07 221.527C95.9886 221.729 95.7818 222.033 95.3158 221.918C95.3323 221.942 94.1195 221.619 94.1195 221.619L93.3022 223.503L95.4442 224.037C95.6788 224.096 95.9106 224.157 96.14 224.216L96.1405 224.217C96.3007 224.258 96.4598 224.3 96.6178 224.34L95.9367 227.075L97.5808 227.485L98.2553 224.779C98.7044 224.901 99.1403 225.014 99.567 225.12L98.8948 227.813L100.541 228.223L101.222 225.493C104.029 226.024 106.139 225.81 107.027 223.272C107.743 221.228 106.992 220.049 105.515 219.28C106.591 219.032 107.401 218.324 107.617 216.863L107.616 216.863L107.616 216.863ZM103.856 222.136C103.389 224.012 100.453 223.236 99.1105 222.882L99.1103 222.882C98.9896 222.85 98.8817 222.821 98.7896 222.798L99.6935 219.175C99.8057 219.203 99.9429 219.234 100.098 219.269L100.098 219.269C101.487 219.58 104.334 220.219 103.856 222.136H103.856ZM100.377 217.587C101.497 217.886 103.939 218.538 104.365 216.833H104.365C104.799 215.09 102.425 214.565 101.266 214.308C101.136 214.279 101.02 214.254 100.927 214.23L100.107 217.516C100.184 217.536 100.275 217.56 100.377 217.587Z" fill="white"/>
<circle cx="217.5" cy="145.5" r="26.5" fill="#EDF0F4"/>
<path d="M217.428 129.6L217.217 130.316V151.093L217.428 151.303L227.072 145.602L217.428 129.6Z" fill="#343434"/>
<path d="M217.428 129.6L207.783 145.602L217.428 151.303V141.219V129.6Z" fill="#8C8C8C"/>
<path d="M217.427 153.129L217.309 153.274V160.675L217.427 161.022L227.077 147.431L217.427 153.129Z" fill="#3C3C3B"/>
<path d="M217.428 161.022V153.129L207.783 147.431L217.428 161.022Z" fill="#8C8C8C"/>
<path d="M217.428 151.303L227.072 145.602L217.428 141.219V151.303Z" fill="#141414"/>
<path d="M207.783 145.602L217.428 151.303V141.219L207.783 145.602Z" fill="#393939"/>
<path d="M312.201 191.91C308.662 206.107 294.283 214.747 280.085 211.207C265.893 207.667 257.253 193.288 260.794 179.092C264.331 164.894 278.71 156.254 292.904 159.793C307.101 163.332 315.74 177.714 312.201 191.911L312.201 191.91H312.201Z" fill="#50AF95"/>
<path fill-rule="evenodd" clip-rule="evenodd" d="M289.853 188.504V188.504C289.666 188.518 288.698 188.576 286.538 188.576C284.821 188.576 283.601 188.525 283.173 188.504V188.504C276.535 188.212 271.581 187.057 271.581 185.673C271.581 184.29 276.535 183.136 283.173 182.839V187.353C283.607 187.385 284.85 187.458 286.568 187.458C288.629 187.458 289.661 187.372 289.847 187.355V182.842C296.471 183.137 301.414 184.293 301.414 185.673C301.414 187.054 296.472 188.209 289.847 188.503V188.503L289.853 188.504ZM289.853 182.375V178.336H299.097V172.176H273.929V178.336H283.172V182.374C275.659 182.719 270.01 184.207 270.01 185.99C270.01 187.774 275.659 189.26 283.172 189.607V202.551H289.852V189.602C297.347 189.257 302.987 187.77 302.987 185.989C302.987 184.207 297.351 182.721 289.852 182.374V182.374L289.853 182.375Z" fill="white"/>
<path d="M152.578 156.387C150.708 163.887 143.112 168.451 135.611 166.581C128.113 164.711 123.549 157.114 125.419 149.615C127.288 142.114 134.885 137.549 142.383 139.419C149.884 141.289 154.448 148.886 152.578 156.387L152.578 156.387H152.578Z" fill="#50AF95"/>
<path fill-rule="evenodd" clip-rule="evenodd" d="M140.771 154.587V154.587C140.672 154.595 140.161 154.625 139.02 154.625C138.113 154.625 137.468 154.598 137.242 154.587V154.587C133.736 154.433 131.118 153.822 131.118 153.092C131.118 152.361 133.736 151.751 137.242 151.594V153.979C137.472 153.996 138.128 154.034 139.036 154.034C140.125 154.034 140.67 153.989 140.768 153.98V151.596C144.268 151.752 146.879 152.362 146.879 153.092C146.879 153.821 144.268 154.431 140.768 154.586V154.586L140.771 154.587ZM140.771 151.349V149.215H145.655V145.961H132.359V149.215H137.241V151.348C133.273 151.531 130.288 152.317 130.288 153.259C130.288 154.201 133.273 154.986 137.241 155.17V162.008H140.771V155.167C144.73 154.985 147.71 154.199 147.71 153.258C147.71 152.317 144.733 151.532 140.771 151.348V151.348L140.771 151.349Z" fill="white"/>
<circle cx="340.5" cy="137.5" r="26.5" fill="#8DC351"/>
<path fill-rule="evenodd" clip-rule="evenodd" d="M349.135 128.574C347.809 125.278 344.659 125.114 340.845 125.773L339.519 121.158L336.701 121.982L338.027 126.432C337.758 126.499 337.462 126.593 337.15 126.691L337.15 126.691C336.692 126.837 336.199 126.993 335.706 127.091L334.379 122.477L331.561 123.301L332.887 127.915C332.556 127.998 332.265 128.08 331.975 128.162L331.975 128.162C331.685 128.245 331.395 128.327 331.063 128.41L327.25 129.728L328.079 132.694C328.079 132.694 330.234 132.035 330.069 132.035C331.229 131.706 331.727 132.2 332.058 132.859L333.55 138.133H333.882L333.55 138.298L335.706 145.714C335.706 146.043 335.706 146.702 334.877 147.032L332.887 147.691L333.219 151.152L336.866 150.163L338.856 149.669L340.182 154.283L343.001 153.459L341.674 148.845C342.503 148.68 343.167 148.515 343.996 148.186L345.322 152.8L348.141 151.976L346.814 147.362C351.457 145.714 354.441 143.571 353.612 138.957C352.949 135.331 350.793 134.178 347.809 134.342C349.467 132.694 350.13 131.046 349.135 128.574ZM348.141 139.781C349.018 142.832 344.354 144.218 341.874 144.955C341.541 145.054 341.247 145.141 341.011 145.219L339.187 138.957C339.449 138.892 339.776 138.796 340.15 138.686C342.622 137.958 347.133 136.632 348.141 139.781ZM338.821 136.023C340.803 135.463 345.076 134.256 344.161 131.376C343.411 128.394 339.269 129.728 337.259 130.376C337.047 130.444 336.859 130.505 336.701 130.552L338.358 136.155C338.492 136.115 338.648 136.071 338.821 136.023Z" fill="white"/>
<path d="M363.518 192.87C361.381 201.442 352.699 206.658 344.127 204.521C335.558 202.384 330.341 193.702 332.479 185.131C334.615 176.559 343.297 171.342 351.867 173.479C360.438 175.616 365.655 184.299 363.517 192.871L363.518 192.87H363.518Z" fill="#23292F"/>
<path d="M355.867 179.667H359.096L352.376 186.32C349.943 188.728 345.998 188.728 343.563 186.32L336.841 179.667H340.072L345.177 184.721C346.725 186.246 349.21 186.246 350.758 184.721L355.867 179.667Z" fill="white"/>
<path d="M340.031 198.167H336.8L343.563 191.473C345.996 189.065 349.941 189.065 352.376 191.473L359.139 198.167H355.911L350.762 193.072C349.214 191.546 346.729 191.546 345.181 193.072L340.031 198.167Z" fill="white"/>
<circle cx="234.621" cy="91.3791" r="12.9292" fill="white"/>
<path fill-rule="evenodd" clip-rule="evenodd" d="M220 91.5C220 83.4919 226.492 77 234.5 77H234.584C238.419 77.0112 242.092 78.5451 244.795 81.2644C247.499 83.9837 249.011 87.6655 249 91.5C249 99.5081 242.508 106 234.5 106C226.492 106 220 99.5081 220 91.5ZM233.236 97.0823L234.746 91.9915L237.098 91.3245L237.59 89.6392L235.272 90.3414L237.73 81.9855V81.8521C237.726 81.744 237.68 81.6419 237.601 81.5681C237.522 81.4944 237.417 81.455 237.309 81.4588H234.184C233.941 81.4513 233.723 81.6106 233.657 81.845L230.743 91.7458L228.426 92.4479L227.899 94.063L230.217 93.3608L228.145 100.418H240.504C240.748 100.428 240.966 100.267 241.03 100.031L241.732 97.609V97.4755C241.729 97.3675 241.682 97.2654 241.603 97.1916C241.524 97.1178 241.419 97.0785 241.311 97.0823H233.236Z" fill="#345D9D"/>
<path fill-rule="evenodd" clip-rule="evenodd" d="M365.5 72C355.875 72 348 64.1252 348 54.4129C348.088 44.7881 355.875 36.9132 365.587 37.0007C375.212 37.0882 383 44.8756 383 54.6754C382.912 64.2127 375.125 72 365.5 72" fill="#FC070C"/>
<path fill-rule="evenodd" clip-rule="evenodd" d="M376.36 49.2588L376.36 49.2587L376.36 49.2587C375.55 48.4718 374.693 47.6403 373.938 46.9694L373.861 46.9158C373.734 46.8136 373.59 46.7333 373.436 46.6785L372.853 46.5697C368.828 45.8186 355.781 43.3843 355.513 43.417C355.434 43.4281 355.358 43.4568 355.291 43.5012L355.218 43.5586C355.129 43.6495 355.061 43.7594 355.019 43.8802L355 43.9299V44.2017V44.2438C355.886 46.7102 358.187 52.2183 360.311 57.3041L360.311 57.3042C362.107 61.604 363.777 65.6019 364.36 67.2048L364.36 67.2055C364.437 67.443 364.582 67.8939 364.854 67.9169H364.915C365.06 67.9169 365.68 67.0977 365.68 67.0977C365.68 67.0977 376.767 53.6533 377.888 52.2216C378.033 52.0453 378.162 51.8556 378.271 51.6551C378.328 51.3359 378.213 51.0104 377.969 50.7976C377.491 50.3566 376.937 49.819 376.36 49.2588ZM368.525 52.3633L373.256 48.4394L376.032 50.9966L368.525 52.3633ZM358.541 45.4305L366.687 52.1068L371.721 47.8614L358.541 45.4305ZM367.422 53.8562L375.76 52.5125L366.228 63.9969L367.422 53.8562ZM366.006 53.37L357.435 46.0966L364.766 64.0045L366.006 53.37Z" fill="white"/>
<circle cx="68.5" cy="150.5" r="24.5" fill="#8DC351"/>
<path fill-rule="evenodd" clip-rule="evenodd" d="M76.4837 142.248C75.2574 139.201 72.345 139.048 68.8194 139.658L67.5931 135.392L64.9873 136.154L66.2135 140.267C65.9651 140.329 65.6916 140.416 65.4031 140.507C64.9794 140.642 64.5235 140.786 64.0675 140.877L62.8413 136.611L60.2354 137.372L61.4617 141.639C61.1551 141.715 60.8869 141.791 60.6186 141.867L60.6186 141.867C60.3504 141.943 60.0821 142.02 59.7756 142.096L56.25 143.315L57.0164 146.057C57.0164 146.057 59.0091 145.448 58.8558 145.448C59.9288 145.143 60.3887 145.6 60.6953 146.21L62.0748 151.085H62.3814L62.0748 151.237L64.0675 158.094C64.0675 158.399 64.0675 159.008 63.3011 159.313L61.4617 159.922L61.7683 163.122L65.1405 162.208L66.98 161.751L68.2062 166.017L70.8121 165.255L69.5858 160.989C70.3522 160.836 70.9654 160.684 71.7318 160.379L72.9581 164.645L75.5639 163.884L74.3377 159.617C78.6296 158.094 81.3888 156.113 80.6224 151.847C80.0092 148.495 78.0165 147.428 75.2574 147.581C76.7902 146.057 77.4034 144.534 76.4837 142.248ZM75.5639 152.609C76.3747 155.429 72.0635 156.711 69.7705 157.392C69.4623 157.484 69.1906 157.565 68.9727 157.637L67.2865 151.847C67.5283 151.787 67.8309 151.698 68.1768 151.596C70.4621 150.924 74.632 149.697 75.5639 152.609ZM66.9475 149.134C68.7802 148.616 72.7309 147.5 71.8851 144.838C71.1918 142.082 67.3624 143.315 65.5035 143.914C65.3075 143.977 65.1334 144.033 64.9873 144.076L66.5201 149.257C66.6433 149.22 66.7873 149.179 66.9475 149.134Z" fill="white"/>
<path d="M180.141 78.3943C176.335 93.6623 160.871 102.954 145.601 99.1468C130.337 95.3404 121.045 79.8754 124.854 64.6086C128.658 49.3389 144.122 40.0464 159.387 43.8528C174.656 47.6592 183.947 63.1259 180.141 78.3946L180.141 78.3943H180.141Z" fill="#F3BA2F"/>
<path fill-rule="evenodd" clip-rule="evenodd" d="M152.5 61.088L145.12 68.4679L145.12 68.4676L140.826 64.1736L152.5 52.5L164.177 64.1771L159.883 68.4711L152.5 61.088ZM137.794 67.2052L133.5 71.5L137.794 75.7932L142.088 71.4991L137.794 67.2052ZM145.12 74.5326L152.5 81.912L159.883 74.5291L164.18 78.8208L164.177 78.8231L152.5 90.5L140.826 78.8264L140.82 78.8203L145.12 74.5326ZM167.206 67.2077L162.912 71.5018L167.206 75.7957L171.5 71.5015L167.206 67.2077Z" fill="white"/>
<path d="M156.855 71.4977H156.857L152.5 67.1405L149.28 70.36V70.36L148.91 70.7301L148.147 71.4933L148.141 71.4993L148.147 71.5055L152.5 75.8595L156.857 71.5023L156.859 71.4999L156.856 71.4977" fill="white"/>
<path d="M258.972 263.671H329.024L394.244 197.617H193.753L258.972 263.671Z" fill="#F19C7D"/>
<path d="M258.974 263.672L271.432 365.427H316.587L329.025 263.672H258.974Z" fill="#F19C7D"/>
<path d="M193.753 197.617L258.972 263.671H329.024L394.244 197.617H193.753Z" fill="#D37E5F"/>
<path opacity="0.2" d="M302.304 365.427H316.586L329.024 263.671L394.244 197.617H355.007L309.134 263.671L302.304 365.427Z" fill="black"/>
<path d="M393.604 191.298H194.413C192.53 191.298 191.017 192.834 191.017 194.701V200.515C191.017 202.401 192.55 203.918 194.413 203.918H393.604C395.486 203.918 397 202.381 397 200.515V194.701C397 192.815 395.467 191.298 393.604 191.298Z" fill="#F19C7D"/>
<path d="M271.528 363.035H316.45C318.036 363.035 319.322 364.324 319.322 365.913V369.783C319.322 371.372 318.036 372.66 316.45 372.66H271.528C269.942 372.66 268.656 371.372 268.656 369.783V365.913C268.656 364.324 269.942 363.035 271.528 363.035Z" fill="#F19C7D"/>
<path d="M271.528 363.035H316.45C318.036 363.035 319.322 364.324 319.322 365.913V369.783C319.322 371.372 318.036 372.66 316.45 372.66H271.528C269.942 372.66 268.656 371.372 268.656 369.783V365.913C268.656 364.324 269.942 363.035 271.528 363.035Z" fill="#D37E5F"/>
<path opacity="0.4" d="M293.998 436.147V536.347C293.998 536.347 276.689 503.096 232.523 505.449" stroke="white" stroke-linecap="round" stroke-linejoin="round"/>
<path opacity="0.4" d="M189.258 536.216C189.258 536.216 167.059 503.491 122 508.527" stroke="white" stroke-linecap="round" stroke-linejoin="round"/>
<path d="M240.654 528.122V536.561C240.654 537.358 241.314 538 242.09 538H279.677C280.473 538 281.113 537.358 281.113 536.561V528.122C281.113 527.966 281.094 527.811 281.036 527.675C280.861 527.091 280.318 526.683 279.677 526.683H242.09C241.469 526.683 240.926 527.091 240.732 527.675C240.673 527.811 240.654 527.966 240.654 528.122Z" fill="#F1B400"/>
<path opacity="0.2" d="M242.983 536.308V528.628C242.983 528.355 243.196 528.141 243.468 528.141C243.739 528.141 243.953 528.355 243.953 528.628V536.308H246.146V528.628C246.146 528.355 246.359 528.141 246.631 528.141C246.902 528.141 247.116 528.355 247.116 528.628V536.308H249.309V528.628C249.309 528.355 249.522 528.141 249.794 528.141C250.065 528.141 250.279 528.355 250.279 528.628V536.308H252.472V528.628C252.472 528.355 252.685 528.141 252.957 528.141C253.228 528.141 253.442 528.355 253.442 528.628V536.308H255.635V528.628C255.635 528.355 255.848 528.141 256.12 528.141C256.391 528.141 256.605 528.355 256.605 528.628V536.308H258.798V528.628C258.798 528.355 259.011 528.141 259.283 528.141C259.554 528.141 259.768 528.355 259.768 528.628V536.308H261.961V528.628C261.961 528.355 262.174 528.141 262.446 528.141C262.717 528.141 262.931 528.355 262.931 528.628V536.308H265.124V528.628C265.124 528.355 265.337 528.141 265.609 528.141C265.88 528.141 266.094 528.355 266.094 528.628V536.308H268.287V528.628C268.287 528.355 268.5 528.141 268.772 528.141C269.043 528.141 269.257 528.355 269.257 528.628V536.308H271.411C271.411 536.308 271.43 536.308 271.45 536.308V528.647C271.45 528.375 271.663 528.161 271.935 528.161C272.206 528.161 272.42 528.375 272.42 528.647V535.881C272.672 535.628 272.808 535.258 272.808 534.869L272.924 529.561C272.905 528.744 273.545 528.083 274.36 528.083H279.639C280.434 528.083 281.094 528.725 281.113 529.522L281.036 536.542C281.055 537.339 280.434 537.981 279.639 537.981H242.071C241.275 537.981 240.615 537.319 240.596 536.522V536.308H242.944H242.983Z" fill="black"/>
<path opacity="0.3" d="M240.731 527.675H281.035C280.861 527.091 280.317 526.683 279.677 526.683H242.089C241.469 526.683 240.925 527.091 240.731 527.675Z" fill="white"/>
<path d="M309.058 517.439V525.878C309.058 526.675 309.718 527.317 310.494 527.317H348.082C348.877 527.317 349.518 526.675 349.518 525.878V517.439C349.518 517.283 349.498 517.128 349.44 516.992C349.265 516.408 348.722 516 348.082 516H310.494C309.873 516 309.33 516.408 309.136 516.992C309.078 517.128 309.058 517.283 309.058 517.439Z" fill="#F1B400"/>
<path opacity="0.2" d="M311.387 525.625V517.944C311.387 517.672 311.6 517.458 311.872 517.458C312.144 517.458 312.357 517.672 312.357 517.944V525.625H314.55V517.944C314.55 517.672 314.763 517.458 315.035 517.458C315.307 517.458 315.52 517.672 315.52 517.944V525.625H317.713V517.944C317.713 517.672 317.926 517.458 318.198 517.458C318.47 517.458 318.683 517.672 318.683 517.944V525.625H320.876V517.944C320.876 517.672 321.089 517.458 321.361 517.458C321.633 517.458 321.846 517.672 321.846 517.944V525.625H324.039V517.944C324.039 517.672 324.252 517.458 324.524 517.458C324.796 517.458 325.009 517.672 325.009 517.944V525.625H327.202V517.944C327.202 517.672 327.415 517.458 327.687 517.458C327.959 517.458 328.172 517.672 328.172 517.944V525.625H330.365V517.944C330.365 517.672 330.578 517.458 330.85 517.458C331.122 517.458 331.335 517.672 331.335 517.944V525.625H333.528V517.944C333.528 517.672 333.741 517.458 334.013 517.458C334.285 517.458 334.498 517.672 334.498 517.944V525.625H336.691V517.944C336.691 517.672 336.904 517.458 337.176 517.458C337.448 517.458 337.661 517.672 337.661 517.944V525.625H339.815C339.815 525.625 339.835 525.625 339.854 525.625V517.964C339.854 517.692 340.067 517.478 340.339 517.478C340.611 517.478 340.824 517.692 340.824 517.964V525.197C341.076 524.945 341.212 524.575 341.212 524.186L341.329 518.878C341.309 518.061 341.95 517.4 342.765 517.4H348.043C348.838 517.4 349.498 518.042 349.518 518.839L349.44 525.859C349.459 526.656 348.838 527.297 348.043 527.297H310.475C309.679 527.297 309.02 526.636 309 525.839V525.625H311.348H311.387Z" fill="black"/>
<path opacity="0.3" d="M309.135 516.992H349.439C349.265 516.408 348.721 516 348.081 516H310.494C309.873 516 309.329 516.408 309.135 516.992Z" fill="white"/>
<path d="M208.5 483.973C202.442 483.973 197.514 479.044 197.514 472.986C197.514 466.929 202.442 462 208.5 462C214.558 462 219.486 466.929 219.486 472.986C219.486 479.044 214.558 483.973 208.5 483.973ZM210.697 484.195V499.354C210.697 500.568 209.715 501.551 208.5 501.551C207.285 501.551 206.303 500.568 206.303 499.354V484.195C198.869 485.272 193.119 491.626 193.119 499.354V512.537C193.119 513.752 194.102 514.734 195.316 514.734H200.239L201.917 534.987C202.011 536.124 202.964 537 204.105 537H212.895C214.036 537 214.989 536.124 215.083 534.987L216.761 514.734H221.684C222.898 514.734 223.881 513.752 223.881 512.537V499.354C223.881 491.626 218.131 485.272 210.697 484.195Z" fill="white"/>
<path d="M108.5 483.973C102.442 483.973 97.5137 479.044 97.5137 472.986C97.5137 466.929 102.442 462 108.5 462C114.558 462 119.486 466.929 119.486 472.986C119.486 479.044 114.558 483.973 108.5 483.973ZM110.697 484.195V499.354C110.697 500.568 109.715 501.551 108.5 501.551C107.285 501.551 106.303 500.568 106.303 499.354V484.195C98.8687 485.272 93.1191 491.626 93.1191 499.354V512.537C93.1191 513.752 94.1019 514.734 95.3164 514.734H100.239L101.917 534.987C102.011 536.124 102.964 537 104.105 537H112.895C114.036 537 114.989 536.124 115.083 534.987L116.761 514.734H121.684C122.898 514.734 123.881 513.752 123.881 512.537V499.354C123.881 491.626 118.131 485.272 110.697 484.195Z" fill="white"/>
</g>
</g>
<defs>
<linearGradient id="paint0_linear_101_64" x1="89.8348" y1="322.955" x2="56.0357" y2="364.196" gradientUnits="userSpaceOnUse">
<stop stop-color="#6CDFE6"/>
<stop offset="1" stop-color="#3374EA"/>
</linearGradient>
<clipPath id="clip0_101_64">
<rect width="428" height="542" fill="white"/>
</clipPath>
<clipPath id="clip1_101_64">
<rect width="170" height="293.188" fill="white" transform="translate(0 249)"/>
</clipPath>
<clipPath id="clip2_101_64">
<rect width="428" height="542" fill="white" transform="matrix(-1 0 0 1 428 -4)"/>
</clipPath>
</defs>
</svg>
