<svg width="36" height="36" viewBox="0 0 36 36" fill="none" xmlns="http://www.w3.org/2000/svg">
<path d="M21 21.378V24.5121C20.0616 24.1805 19.052 24 18 24C13.0294 24 9 28.0294 9 33H6C6 26.3725 11.3726 21 18 21C19.0359 21 20.0412 21.1313 21 21.378ZM18 19.5C13.0275 19.5 9 15.4725 9 10.5C9 5.5275 13.0275 1.5 18 1.5C22.9725 1.5 27 5.5275 27 10.5C27 15.4725 22.9725 19.5 18 19.5ZM18 16.5C21.315 16.5 24 13.815 24 10.5C24 7.185 21.315 4.5 18 4.5C14.685 4.5 12 7.185 12 10.5C12 13.815 14.685 16.5 18 16.5ZM26.6894 29.8713L31.9926 24.5681L34.1139 26.6894L26.6894 34.1139L21.3861 28.8106L23.5074 26.6894L26.6894 29.8713Z" fill="white"/>
</svg>
